<?xml version="1.0" encoding="UTF-8" standalone="no"?>
<!DOCTYPE svg PUBLIC "-//W3C//DTD SVG 1.1//EN"
 "http://www.w3.org/Graphics/SVG/1.1/DTD/svg11.dtd">
<!-- Generated by graphviz version 2.47.3 (20210619.1520)
 -->
<!-- Title: dependencies Pages: 1 -->
<svg width="196pt" height="174pt"
 viewBox="0.00 0.00 196.00 173.80" xmlns="http://www.w3.org/2000/svg" xmlns:xlink="http://www.w3.org/1999/xlink">
<g id="graph0" class="graph" transform="scale(1 1) rotate(0) translate(4 169.8)">
<title>dependencies</title>
<polygon fill="white" stroke="transparent" points="-4,4 -4,-169.8 192,-169.8 192,4 -4,4"/>
<text text-anchor="middle" x="94" y="-8.2" font-family="sans-serif" font-size="14.00">dependencies</text>
<g id="clust1" class="cluster">
<title>cluster_NexusModule</title>
<polygon fill="none" stroke="black" stroke-dasharray="1,5" points="8,-32.8 8,-157.8 180,-157.8 180,-32.8 8,-32.8"/>
</g>
<g id="clust3" class="cluster">
<title>cluster_NexusModule_imports</title>
<polygon fill="none" stroke="black" points="16,-40.8 16,-92.8 172,-92.8 172,-40.8 16,-40.8"/>
</g>
<!-- NexusRoutingModule -->
<g id="node1" class="node">
<title>NexusRoutingModule</title>
<polygon fill="#8dd3c7" stroke="black" points="164.43,-84.8 161.43,-88.8 140.43,-88.8 137.43,-84.8 23.57,-84.8 23.57,-48.8 164.43,-48.8 164.43,-84.8"/>
<text text-anchor="middle" x="94" y="-62.6" font-family="Times,serif" font-size="14.00">NexusRoutingModule</text>
</g>
<!-- NexusModule -->
<g id="node2" class="node">
<title>NexusModule</title>
<polygon fill="#8dd3c7" stroke="black" points="141.82,-149.8 138.82,-153.8 117.82,-153.8 114.82,-149.8 46.18,-149.8 46.18,-113.8 141.82,-113.8 141.82,-149.8"/>
<text text-anchor="middle" x="94" y="-127.6" font-family="Times,serif" font-size="14.00">NexusModule</text>
</g>
<!-- NexusRoutingModule&#45;&gt;NexusModule -->
<g id="edge1" class="edge">
<title>NexusRoutingModule&#45;&gt;NexusModule</title>
<path fill="none" stroke="black" d="M94,-84.91C94,-84.91 94,-103.79 94,-103.79"/>
<polygon fill="black" stroke="black" points="90.5,-103.79 94,-113.79 97.5,-103.79 90.5,-103.79"/>
</g>
</g>
</svg>
