<?xml version="1.0" encoding="UTF-8" standalone="no"?>
<!DOCTYPE svg PUBLIC "-//W3C//DTD SVG 1.1//EN"
 "http://www.w3.org/Graphics/SVG/1.1/DTD/svg11.dtd">
<!-- Generated by graphviz version 2.40.1 (20161225.0304)
 -->
<!-- Title: dependencies Pages: 1 -->
<svg width="740pt" height="211pt"
 viewBox="0.00 0.00 740.00 211.00" xmlns="http://www.w3.org/2000/svg" xmlns:xlink="http://www.w3.org/1999/xlink">
<g id="graph0" class="graph" transform="scale(1 1) rotate(0) translate(4 207)">
<title>dependencies</title>
<polygon fill="#ffffff" stroke="transparent" points="-4,4 -4,-207 736,-207 736,4 -4,4"/>
<text text-anchor="start" x="345.0091" y="-42.4" font-family="sans-serif" font-weight="bold" font-size="14.00" fill="#000000">Legend</text>
<polygon fill="#ffffb3" stroke="transparent" points="132,-10 132,-30 152,-30 152,-10 132,-10"/>
<text text-anchor="start" x="155.629" y="-15.4" font-family="sans-serif" font-size="14.00" fill="#000000"> &#160;Declarations</text>
<polygon fill="#8dd3c7" stroke="transparent" points="245,-10 245,-30 265,-30 265,-10 245,-10"/>
<text text-anchor="start" x="268.7251" y="-15.4" font-family="sans-serif" font-size="14.00" fill="#000000"> &#160;Module</text>
<polygon fill="#80b1d3" stroke="transparent" points="331,-10 331,-30 351,-30 351,-10 331,-10"/>
<text text-anchor="start" x="354.7812" y="-15.4" font-family="sans-serif" font-size="14.00" fill="#000000"> &#160;Bootstrap</text>
<polygon fill="#fdb462" stroke="transparent" points="428,-10 428,-30 448,-30 448,-10 428,-10"/>
<text text-anchor="start" x="451.6732" y="-15.4" font-family="sans-serif" font-size="14.00" fill="#000000"> &#160;Providers</text>
<polygon fill="#fb8072" stroke="transparent" points="524,-10 524,-30 544,-30 544,-10 524,-10"/>
<text text-anchor="start" x="547.7258" y="-15.4" font-family="sans-serif" font-size="14.00" fill="#000000"> &#160;Exports</text>
<g id="clust1" class="cluster">
<title>cluster_MongodbModule</title>
<polygon fill="none" stroke="#000000" stroke-dasharray="1,5" points="8,-70 8,-195 724,-195 724,-70 8,-70"/>
</g>
<g id="clust2" class="cluster">
<title>cluster_MongodbModule_declarations</title>
<polygon fill="none" stroke="#000000" points="564,-78 564,-130 716,-130 716,-78 564,-78"/>
</g>
<g id="clust4" class="cluster">
<title>cluster_MongodbModule_imports</title>
<polygon fill="none" stroke="#000000" points="16,-78 16,-130 556,-130 556,-78 16,-78"/>
</g>
<!-- MongodbComponent -->
<g id="node1" class="node">
<title>MongodbComponent</title>
<polygon fill="#ffffb3" stroke="#000000" points="707.7772,-122 572.2228,-122 572.2228,-86 707.7772,-86 707.7772,-122"/>
<text text-anchor="middle" x="640" y="-99.8" font-family="Times,serif" font-size="14.00" fill="#000000">MongodbComponent</text>
</g>
<!-- MongodbModule -->
<g id="node2" class="node">
<title>MongodbModule</title>
<polygon fill="#8dd3c7" stroke="#000000" points="417.9944,-187 414.9944,-191 393.9944,-191 390.9944,-187 304.0056,-187 304.0056,-151 417.9944,-151 417.9944,-187"/>
<text text-anchor="middle" x="361" y="-164.8" font-family="Times,serif" font-size="14.00" fill="#000000">MongodbModule</text>
</g>
<!-- MongodbComponent&#45;&gt;MongodbModule -->
<g id="edge1" class="edge">
<title>MongodbComponent&#45;&gt;MongodbModule</title>
<path fill="none" stroke="#000000" d="M640,-122.1061C640,-141.3391 640,-169 640,-169 640,-169 428.1331,-169 428.1331,-169"/>
<polygon fill="#000000" stroke="#000000" points="428.1331,-165.5001 418.1331,-169 428.133,-172.5001 428.1331,-165.5001"/>
</g>
<!-- CommonUiModule -->
<g id="node3" class="node">
<title>CommonUiModule</title>
<polygon fill="#8dd3c7" stroke="#000000" points="547.6652,-122 544.6652,-126 523.6652,-126 520.6652,-122 422.3348,-122 422.3348,-86 547.6652,-86 547.6652,-122"/>
<text text-anchor="middle" x="485" y="-99.8" font-family="Times,serif" font-size="14.00" fill="#000000">CommonUiModule</text>
</g>
<!-- CommonUiModule&#45;&gt;MongodbModule -->
<g id="edge2" class="edge">
<title>CommonUiModule&#45;&gt;MongodbModule</title>
<path fill="none" stroke="#000000" d="M422.0801,-104C415.5184,-104 411.189,-104 411.189,-104 411.189,-104 411.189,-140.8939 411.189,-140.8939"/>
<polygon fill="#000000" stroke="#000000" points="407.6891,-140.8938 411.189,-150.8939 414.6891,-140.8939 407.6891,-140.8938"/>
</g>
<!-- CoreModule -->
<g id="node4" class="node">
<title>CoreModule</title>
<polygon fill="#8dd3c7" stroke="#000000" points="404.2619,-122 401.2619,-126 380.2619,-126 377.2619,-122 317.7381,-122 317.7381,-86 404.2619,-86 404.2619,-122"/>
<text text-anchor="middle" x="361" y="-99.8" font-family="Times,serif" font-size="14.00" fill="#000000">CoreModule</text>
</g>
<!-- CoreModule&#45;&gt;MongodbModule -->
<g id="edge3" class="edge">
<title>CoreModule&#45;&gt;MongodbModule</title>
<path fill="none" stroke="#000000" d="M361,-122.1061C361,-122.1061 361,-140.991 361,-140.991"/>
<polygon fill="#000000" stroke="#000000" points="357.5001,-140.9909 361,-150.991 364.5001,-140.991 357.5001,-140.9909"/>
</g>
<!-- MongodbRoutingModule -->
<g id="node5" class="node">
<title>MongodbRoutingModule</title>
<polygon fill="#8dd3c7" stroke="#000000" points="299.6122,-122 296.6122,-126 275.6122,-126 272.6122,-122 140.3878,-122 140.3878,-86 299.6122,-86 299.6122,-122"/>
<text text-anchor="middle" x="220" y="-99.8" font-family="Times,serif" font-size="14.00" fill="#000000">MongodbRoutingModule</text>
</g>
<!-- MongodbRoutingModule&#45;&gt;MongodbModule -->
<g id="edge4" class="edge">
<title>MongodbRoutingModule&#45;&gt;MongodbModule</title>
<path fill="none" stroke="#000000" d="M299.6758,-104C306.4656,-104 310.811,-104 310.811,-104 310.811,-104 310.811,-140.8939 310.811,-140.8939"/>
<polygon fill="#000000" stroke="#000000" points="307.3111,-140.8938 310.811,-150.8939 314.3111,-140.8939 307.3111,-140.8938"/>
</g>
<!-- SharedModule -->
<g id="node6" class="node">
<title>SharedModule</title>
<polygon fill="#8dd3c7" stroke="#000000" points="122.4231,-122 119.4231,-126 98.4231,-126 95.4231,-122 23.5769,-122 23.5769,-86 122.4231,-86 122.4231,-122"/>
<text text-anchor="middle" x="73" y="-99.8" font-family="Times,serif" font-size="14.00" fill="#000000">SharedModule</text>
</g>
<!-- SharedModule&#45;&gt;MongodbModule -->
<g id="edge5" class="edge">
<title>SharedModule&#45;&gt;MongodbModule</title>
<path fill="none" stroke="#000000" d="M73,-122.1061C73,-141.3391 73,-169 73,-169 73,-169 293.7561,-169 293.7561,-169"/>
<polygon fill="#000000" stroke="#000000" points="293.7562,-172.5001 303.7561,-169 293.7561,-165.5001 293.7562,-172.5001"/>
</g>
</g>
</svg>
