<?xml version="1.0" encoding="UTF-8" standalone="no"?>
<!DOCTYPE svg PUBLIC "-//W3C//DTD SVG 1.1//EN"
 "http://www.w3.org/Graphics/SVG/1.1/DTD/svg11.dtd">
<!-- Generated by graphviz version 2.47.3 (20210619.1520)
 -->
<!-- Title: dependencies Pages: 1 -->
<svg width="740pt" height="174pt"
 viewBox="0.00 0.00 740.00 173.80" xmlns="http://www.w3.org/2000/svg" xmlns:xlink="http://www.w3.org/1999/xlink">
<g id="graph0" class="graph" transform="scale(1 1) rotate(0) translate(4 169.8)">
<title>dependencies</title>
<polygon fill="white" stroke="transparent" points="-4,4 -4,-169.8 736,-169.8 736,4 -4,4"/>
<text text-anchor="middle" x="366" y="-8.2" font-family="sans-serif" font-size="14.00">dependencies</text>
<g id="clust1" class="cluster">
<title>cluster_MongodbModule</title>
<polygon fill="none" stroke="black" stroke-dasharray="1,5" points="8,-32.8 8,-157.8 724,-157.8 724,-32.8 8,-32.8"/>
</g>
<g id="clust2" class="cluster">
<title>cluster_MongodbModule_declarations</title>
<polygon fill="none" stroke="black" points="564,-40.8 564,-92.8 716,-92.8 716,-40.8 564,-40.8"/>
</g>
<g id="clust4" class="cluster">
<title>cluster_MongodbModule_imports</title>
<polygon fill="none" stroke="black" points="16,-40.8 16,-92.8 556,-92.8 556,-40.8 16,-40.8"/>
</g>
<!-- MongodbComponent -->
<g id="node1" class="node">
<title>MongodbComponent</title>
<polygon fill="#ffffb3" stroke="black" points="707.78,-84.8 572.22,-84.8 572.22,-48.8 707.78,-48.8 707.78,-84.8"/>
<text text-anchor="middle" x="640" y="-62.6" font-family="Times,serif" font-size="14.00">MongodbComponent</text>
</g>
<!-- MongodbModule -->
<g id="node2" class="node">
<title>MongodbModule</title>
<polygon fill="#8dd3c7" stroke="black" points="417.99,-149.8 414.99,-153.8 393.99,-153.8 390.99,-149.8 304.01,-149.8 304.01,-113.8 417.99,-113.8 417.99,-149.8"/>
<text text-anchor="middle" x="361" y="-127.6" font-family="Times,serif" font-size="14.00">MongodbModule</text>
</g>
<!-- MongodbComponent&#45;&gt;MongodbModule -->
<g id="edge1" class="edge">
<title>MongodbComponent&#45;&gt;MongodbModule</title>
<path fill="none" stroke="black" d="M640,-84.91C640,-104.14 640,-131.8 640,-131.8 640,-131.8 428.13,-131.8 428.13,-131.8"/>
<polygon fill="black" stroke="black" points="428.13,-128.3 418.13,-131.8 428.13,-135.3 428.13,-128.3"/>
</g>
<!-- CommonUiModule -->
<g id="node3" class="node">
<title>CommonUiModule</title>
<polygon fill="#8dd3c7" stroke="black" points="547.67,-84.8 544.67,-88.8 523.67,-88.8 520.67,-84.8 422.33,-84.8 422.33,-48.8 547.67,-48.8 547.67,-84.8"/>
<text text-anchor="middle" x="485" y="-62.6" font-family="Times,serif" font-size="14.00">CommonUiModule</text>
</g>
<!-- CommonUiModule&#45;&gt;MongodbModule -->
<g id="edge2" class="edge">
<title>CommonUiModule&#45;&gt;MongodbModule</title>
<path fill="none" stroke="black" d="M422.08,-66.8C415.52,-66.8 411.19,-66.8 411.19,-66.8 411.19,-66.8 411.19,-103.69 411.19,-103.69"/>
<polygon fill="black" stroke="black" points="407.69,-103.69 411.19,-113.69 414.69,-103.69 407.69,-103.69"/>
</g>
<!-- CoreModule -->
<g id="node4" class="node">
<title>CoreModule</title>
<polygon fill="#8dd3c7" stroke="black" points="404.26,-84.8 401.26,-88.8 380.26,-88.8 377.26,-84.8 317.74,-84.8 317.74,-48.8 404.26,-48.8 404.26,-84.8"/>
<text text-anchor="middle" x="361" y="-62.6" font-family="Times,serif" font-size="14.00">CoreModule</text>
</g>
<!-- CoreModule&#45;&gt;MongodbModule -->
<g id="edge3" class="edge">
<title>CoreModule&#45;&gt;MongodbModule</title>
<path fill="none" stroke="black" d="M361,-84.91C361,-84.91 361,-103.79 361,-103.79"/>
<polygon fill="black" stroke="black" points="357.5,-103.79 361,-113.79 364.5,-103.79 357.5,-103.79"/>
</g>
<!-- MongodbRoutingModule -->
<g id="node5" class="node">
<title>MongodbRoutingModule</title>
<polygon fill="#8dd3c7" stroke="black" points="299.61,-84.8 296.61,-88.8 275.61,-88.8 272.61,-84.8 140.39,-84.8 140.39,-48.8 299.61,-48.8 299.61,-84.8"/>
<text text-anchor="middle" x="220" y="-62.6" font-family="Times,serif" font-size="14.00">MongodbRoutingModule</text>
</g>
<!-- MongodbRoutingModule&#45;&gt;MongodbModule -->
<g id="edge4" class="edge">
<title>MongodbRoutingModule&#45;&gt;MongodbModule</title>
<path fill="none" stroke="black" d="M299.68,-66.8C306.47,-66.8 310.81,-66.8 310.81,-66.8 310.81,-66.8 310.81,-103.69 310.81,-103.69"/>
<polygon fill="black" stroke="black" points="307.31,-103.69 310.81,-113.69 314.31,-103.69 307.31,-103.69"/>
</g>
<!-- SharedModule -->
<g id="node6" class="node">
<title>SharedModule</title>
<polygon fill="#8dd3c7" stroke="black" points="122.42,-84.8 119.42,-88.8 98.42,-88.8 95.42,-84.8 23.58,-84.8 23.58,-48.8 122.42,-48.8 122.42,-84.8"/>
<text text-anchor="middle" x="73" y="-62.6" font-family="Times,serif" font-size="14.00">SharedModule</text>
</g>
<!-- SharedModule&#45;&gt;MongodbModule -->
<g id="edge5" class="edge">
<title>SharedModule&#45;&gt;MongodbModule</title>
<path fill="none" stroke="black" d="M73,-84.91C73,-104.14 73,-131.8 73,-131.8 73,-131.8 293.76,-131.8 293.76,-131.8"/>
<polygon fill="black" stroke="black" points="293.76,-135.3 303.76,-131.8 293.76,-128.3 293.76,-135.3"/>
</g>
</g>
</svg>
