<?xml version="1.0" encoding="UTF-8" standalone="no"?>
<!DOCTYPE svg PUBLIC "-//W3C//DTD SVG 1.1//EN"
 "http://www.w3.org/Graphics/SVG/1.1/DTD/svg11.dtd">
<!-- Generated by graphviz version 2.40.1 (20161225.0304)
 -->
<!-- Title: dependencies Pages: 1 -->
<svg width="504pt" height="211pt"
 viewBox="0.00 0.00 504.00 211.00" xmlns="http://www.w3.org/2000/svg" xmlns:xlink="http://www.w3.org/1999/xlink">
<g id="graph0" class="graph" transform="scale(1 1) rotate(0) translate(4 207)">
<title>dependencies</title>
<polygon fill="#ffffff" stroke="transparent" points="-4,4 -4,-207 500,-207 500,4 -4,4"/>
<text text-anchor="start" x="227.0091" y="-42.4" font-family="sans-serif" font-weight="bold" font-size="14.00" fill="#000000">Legend</text>
<polygon fill="#ffffb3" stroke="transparent" points="14,-10 14,-30 34,-30 34,-10 14,-10"/>
<text text-anchor="start" x="37.629" y="-15.4" font-family="sans-serif" font-size="14.00" fill="#000000"> &#160;Declarations</text>
<polygon fill="#8dd3c7" stroke="transparent" points="127,-10 127,-30 147,-30 147,-10 127,-10"/>
<text text-anchor="start" x="150.7251" y="-15.4" font-family="sans-serif" font-size="14.00" fill="#000000"> &#160;Module</text>
<polygon fill="#80b1d3" stroke="transparent" points="213,-10 213,-30 233,-30 233,-10 213,-10"/>
<text text-anchor="start" x="236.7812" y="-15.4" font-family="sans-serif" font-size="14.00" fill="#000000"> &#160;Bootstrap</text>
<polygon fill="#fdb462" stroke="transparent" points="310,-10 310,-30 330,-30 330,-10 310,-10"/>
<text text-anchor="start" x="333.6732" y="-15.4" font-family="sans-serif" font-size="14.00" fill="#000000"> &#160;Providers</text>
<polygon fill="#fb8072" stroke="transparent" points="406,-10 406,-30 426,-30 426,-10 406,-10"/>
<text text-anchor="start" x="429.7258" y="-15.4" font-family="sans-serif" font-size="14.00" fill="#000000"> &#160;Exports</text>
<g id="clust1" class="cluster">
<title>cluster_NetworkModule</title>
<polygon fill="none" stroke="#000000" stroke-dasharray="1,5" points="124,-70 124,-195 372,-195 372,-70 124,-70"/>
</g>
<g id="clust3" class="cluster">
<title>cluster_NetworkModule_imports</title>
<polygon fill="none" stroke="#000000" points="132,-78 132,-130 364,-130 364,-78 132,-78"/>
</g>
<!-- ConsulModule -->
<g id="node1" class="node">
<title>ConsulModule</title>
<polygon fill="#8dd3c7" stroke="#000000" points="355.7218,-122 352.7218,-126 331.7218,-126 328.7218,-122 256.2782,-122 256.2782,-86 355.7218,-86 355.7218,-122"/>
<text text-anchor="middle" x="306" y="-99.8" font-family="Times,serif" font-size="14.00" fill="#000000">ConsulModule</text>
</g>
<!-- NetworkModule -->
<g id="node3" class="node">
<title>NetworkModule</title>
<polygon fill="#8dd3c7" stroke="#000000" points="301.0298,-187 298.0298,-191 277.0298,-191 274.0298,-187 192.9702,-187 192.9702,-151 301.0298,-151 301.0298,-187"/>
<text text-anchor="middle" x="247" y="-164.8" font-family="Times,serif" font-size="14.00" fill="#000000">NetworkModule</text>
</g>
<!-- ConsulModule&#45;&gt;NetworkModule -->
<g id="edge1" class="edge">
<title>ConsulModule&#45;&gt;NetworkModule</title>
<path fill="none" stroke="#000000" d="M278.8268,-122.1061C278.8268,-122.1061 278.8268,-140.991 278.8268,-140.991"/>
<polygon fill="#000000" stroke="#000000" points="275.3269,-140.9909 278.8268,-150.991 282.3269,-140.991 275.3269,-140.9909"/>
</g>
<!-- RadiusModule -->
<g id="node2" class="node">
<title>RadiusModule</title>
<polygon fill="#8dd3c7" stroke="#000000" points="238.4372,-122 235.4372,-126 214.4372,-126 211.4372,-122 139.5628,-122 139.5628,-86 238.4372,-86 238.4372,-122"/>
<text text-anchor="middle" x="189" y="-99.8" font-family="Times,serif" font-size="14.00" fill="#000000">RadiusModule</text>
</g>
<!-- RadiusModule&#45;&gt;NetworkModule -->
<g id="edge2" class="edge">
<title>RadiusModule&#45;&gt;NetworkModule</title>
<path fill="none" stroke="#000000" d="M215.4769,-122.1061C215.4769,-122.1061 215.4769,-140.991 215.4769,-140.991"/>
<polygon fill="#000000" stroke="#000000" points="211.9769,-140.9909 215.4769,-150.991 218.9769,-140.991 211.9769,-140.9909"/>
</g>
</g>
</svg>
