<?xml version="1.0" encoding="UTF-8" standalone="no"?>
<!DOCTYPE svg PUBLIC "-//W3C//DTD SVG 1.1//EN"
 "http://www.w3.org/Graphics/SVG/1.1/DTD/svg11.dtd">
<!-- Generated by graphviz version 2.47.3 (20210619.1520)
 -->
<!-- Title: dependencies Pages: 1 -->
<svg width="272pt" height="174pt"
 viewBox="0.00 0.00 272.00 173.80" xmlns="http://www.w3.org/2000/svg" xmlns:xlink="http://www.w3.org/1999/xlink">
<g id="graph0" class="graph" transform="scale(1 1) rotate(0) translate(4 169.8)">
<title>dependencies</title>
<polygon fill="white" stroke="transparent" points="-4,4 -4,-169.8 268,-169.8 268,4 -4,4"/>
<text text-anchor="middle" x="132" y="-8.2" font-family="sans-serif" font-size="14.00">dependencies</text>
<g id="clust1" class="cluster">
<title>cluster_NetworkModule</title>
<polygon fill="none" stroke="black" stroke-dasharray="1,5" points="8,-32.8 8,-157.8 256,-157.8 256,-32.8 8,-32.8"/>
</g>
<g id="clust3" class="cluster">
<title>cluster_NetworkModule_imports</title>
<polygon fill="none" stroke="black" points="16,-40.8 16,-92.8 248,-92.8 248,-40.8 16,-40.8"/>
</g>
<!-- ConsulModule -->
<g id="node1" class="node">
<title>ConsulModule</title>
<polygon fill="#8dd3c7" stroke="black" points="239.72,-84.8 236.72,-88.8 215.72,-88.8 212.72,-84.8 140.28,-84.8 140.28,-48.8 239.72,-48.8 239.72,-84.8"/>
<text text-anchor="middle" x="190" y="-62.6" font-family="Times,serif" font-size="14.00">ConsulModule</text>
</g>
<!-- NetworkModule -->
<g id="node3" class="node">
<title>NetworkModule</title>
<polygon fill="#8dd3c7" stroke="black" points="185.03,-149.8 182.03,-153.8 161.03,-153.8 158.03,-149.8 76.97,-149.8 76.97,-113.8 185.03,-113.8 185.03,-149.8"/>
<text text-anchor="middle" x="131" y="-127.6" font-family="Times,serif" font-size="14.00">NetworkModule</text>
</g>
<!-- ConsulModule&#45;&gt;NetworkModule -->
<g id="edge1" class="edge">
<title>ConsulModule&#45;&gt;NetworkModule</title>
<path fill="none" stroke="black" d="M162.83,-84.91C162.83,-84.91 162.83,-103.79 162.83,-103.79"/>
<polygon fill="black" stroke="black" points="159.33,-103.79 162.83,-113.79 166.33,-103.79 159.33,-103.79"/>
</g>
<!-- RadiusModule -->
<g id="node2" class="node">
<title>RadiusModule</title>
<polygon fill="#8dd3c7" stroke="black" points="122.44,-84.8 119.44,-88.8 98.44,-88.8 95.44,-84.8 23.56,-84.8 23.56,-48.8 122.44,-48.8 122.44,-84.8"/>
<text text-anchor="middle" x="73" y="-62.6" font-family="Times,serif" font-size="14.00">RadiusModule</text>
</g>
<!-- RadiusModule&#45;&gt;NetworkModule -->
<g id="edge2" class="edge">
<title>RadiusModule&#45;&gt;NetworkModule</title>
<path fill="none" stroke="black" d="M99.48,-84.91C99.48,-84.91 99.48,-103.79 99.48,-103.79"/>
<polygon fill="black" stroke="black" points="95.98,-103.79 99.48,-113.79 102.98,-103.79 95.98,-103.79"/>
</g>
</g>
</svg>
