<?xml version="1.0" encoding="UTF-8" standalone="no"?>
<!DOCTYPE svg PUBLIC "-//W3C//DTD SVG 1.1//EN"
 "http://www.w3.org/Graphics/SVG/1.1/DTD/svg11.dtd">
<!-- Generated by graphviz version 2.47.3 (20210619.1520)
 -->
<!-- Title: dependencies Pages: 1 -->
<svg width="2130pt" height="174pt"
 viewBox="0.00 0.00 2130.00 173.80" xmlns="http://www.w3.org/2000/svg" xmlns:xlink="http://www.w3.org/1999/xlink">
<g id="graph0" class="graph" transform="scale(1 1) rotate(0) translate(4 169.8)">
<title>dependencies</title>
<polygon fill="white" stroke="transparent" points="-4,4 -4,-169.8 2126,-169.8 2126,4 -4,4"/>
<text text-anchor="middle" x="1061" y="-8.2" font-family="sans-serif" font-size="14.00">dependencies</text>
<g id="clust1" class="cluster">
<title>cluster_GalaxyModule</title>
<polygon fill="none" stroke="black" stroke-dasharray="1,5" points="8,-32.8 8,-157.8 2114,-157.8 2114,-32.8 8,-32.8"/>
</g>
<g id="clust2" class="cluster">
<title>cluster_GalaxyModule_declarations</title>
<polygon fill="none" stroke="black" points="550,-40.8 550,-92.8 2106,-92.8 2106,-40.8 550,-40.8"/>
</g>
<g id="clust12" class="cluster">
<title>cluster_GalaxyModule_imports</title>
<polygon fill="none" stroke="black" points="16,-40.8 16,-92.8 542,-92.8 542,-40.8 16,-40.8"/>
</g>
<!-- GalaxyComponent -->
<g id="node1" class="node">
<title>GalaxyComponent</title>
<polygon fill="#ffffb3" stroke="black" points="2097.76,-84.8 1976.24,-84.8 1976.24,-48.8 2097.76,-48.8 2097.76,-84.8"/>
<text text-anchor="middle" x="2037" y="-62.6" font-family="Times,serif" font-size="14.00">GalaxyComponent</text>
</g>
<!-- GalaxyModule -->
<g id="node10" class="node">
<title>GalaxyModule</title>
<polygon fill="#8dd3c7" stroke="black" points="1105.98,-149.8 1102.98,-153.8 1081.98,-153.8 1078.98,-149.8 1006.02,-149.8 1006.02,-113.8 1105.98,-113.8 1105.98,-149.8"/>
<text text-anchor="middle" x="1056" y="-127.6" font-family="Times,serif" font-size="14.00">GalaxyModule</text>
</g>
<!-- GalaxyComponent&#45;&gt;GalaxyModule -->
<g id="edge1" class="edge">
<title>GalaxyComponent&#45;&gt;GalaxyModule</title>
<path fill="none" stroke="black" d="M2037,-84.89C2037,-107.93 2037,-144.8 2037,-144.8 2037,-144.8 1116,-144.8 1116,-144.8"/>
<polygon fill="black" stroke="black" points="1116,-141.3 1106,-144.8 1116,-148.3 1116,-141.3"/>
</g>
<!-- MyContentComponent -->
<g id="node2" class="node">
<title>MyContentComponent</title>
<polygon fill="#ffffb3" stroke="black" points="1958.61,-84.8 1813.39,-84.8 1813.39,-48.8 1958.61,-48.8 1958.61,-84.8"/>
<text text-anchor="middle" x="1886" y="-62.6" font-family="Times,serif" font-size="14.00">MyContentComponent</text>
</g>
<!-- MyContentComponent&#45;&gt;GalaxyModule -->
<g id="edge2" class="edge">
<title>MyContentComponent&#45;&gt;GalaxyModule</title>
<path fill="none" stroke="black" d="M1886,-84.84C1886,-106.46 1886,-139.8 1886,-139.8 1886,-139.8 1116.05,-139.8 1116.05,-139.8"/>
<polygon fill="black" stroke="black" points="1116.05,-136.3 1106.05,-139.8 1116.05,-143.3 1116.05,-136.3"/>
</g>
<!-- MyImportComponent -->
<g id="node3" class="node">
<title>MyImportComponent</title>
<polygon fill="#ffffb3" stroke="black" points="1795.38,-84.8 1656.62,-84.8 1656.62,-48.8 1795.38,-48.8 1795.38,-84.8"/>
<text text-anchor="middle" x="1726" y="-62.6" font-family="Times,serif" font-size="14.00">MyImportComponent</text>
</g>
<!-- MyImportComponent&#45;&gt;GalaxyModule -->
<g id="edge3" class="edge">
<title>MyImportComponent&#45;&gt;GalaxyModule</title>
<path fill="none" stroke="black" d="M1726,-85.02C1726,-105.17 1726,-134.8 1726,-134.8 1726,-134.8 1116.08,-134.8 1116.08,-134.8"/>
<polygon fill="black" stroke="black" points="1116.08,-131.3 1106.08,-134.8 1116.08,-138.3 1116.08,-131.3"/>
</g>
<!-- MySettingsComponent -->
<g id="node4" class="node">
<title>MySettingsComponent</title>
<polygon fill="#ffffb3" stroke="black" points="1638.89,-84.8 1493.11,-84.8 1493.11,-48.8 1638.89,-48.8 1638.89,-84.8"/>
<text text-anchor="middle" x="1566" y="-62.6" font-family="Times,serif" font-size="14.00">MySettingsComponent</text>
</g>
<!-- MySettingsComponent&#45;&gt;GalaxyModule -->
<g id="edge4" class="edge">
<title>MySettingsComponent&#45;&gt;GalaxyModule</title>
<path fill="none" stroke="black" d="M1566,-85.02C1566,-103.63 1566,-129.8 1566,-129.8 1566,-129.8 1116.3,-129.8 1116.3,-129.8"/>
<polygon fill="black" stroke="black" points="1116.3,-126.3 1106.3,-129.8 1116.3,-133.3 1116.3,-126.3"/>
</g>
<!-- ProvidersComponent -->
<g id="node5" class="node">
<title>ProvidersComponent</title>
<polygon fill="#ffffb3" stroke="black" points="1475.49,-84.8 1340.51,-84.8 1340.51,-48.8 1475.49,-48.8 1475.49,-84.8"/>
<text text-anchor="middle" x="1408" y="-62.6" font-family="Times,serif" font-size="14.00">ProvidersComponent</text>
</g>
<!-- ProvidersComponent&#45;&gt;GalaxyModule -->
<g id="edge5" class="edge">
<title>ProvidersComponent&#45;&gt;GalaxyModule</title>
<path fill="none" stroke="black" d="M1408,-84.83C1408,-101.86 1408,-124.8 1408,-124.8 1408,-124.8 1116.06,-124.8 1116.06,-124.8"/>
<polygon fill="black" stroke="black" points="1116.06,-121.3 1106.06,-124.8 1116.06,-128.3 1116.06,-121.3"/>
</g>
<!-- RepoContentDetailComponent -->
<g id="node6" class="node">
<title>RepoContentDetailComponent</title>
<polygon fill="#ffffb3" stroke="black" points="1322.92,-84.8 1133.08,-84.8 1133.08,-48.8 1322.92,-48.8 1322.92,-84.8"/>
<text text-anchor="middle" x="1228" y="-62.6" font-family="Times,serif" font-size="14.00">RepoContentDetailComponent</text>
</g>
<!-- RepoContentDetailComponent&#45;&gt;GalaxyModule -->
<g id="edge6" class="edge">
<title>RepoContentDetailComponent&#45;&gt;GalaxyModule</title>
<path fill="none" stroke="black" d="M1228,-85.04C1228,-100.37 1228,-119.8 1228,-119.8 1228,-119.8 1116.21,-119.8 1116.21,-119.8"/>
<polygon fill="black" stroke="black" points="1116.21,-116.3 1106.21,-119.8 1116.21,-123.3 1116.21,-116.3"/>
</g>
<!-- SearchComponent -->
<g id="node7" class="node">
<title>SearchComponent</title>
<polygon fill="#ffffb3" stroke="black" points="1115.92,-84.8 996.08,-84.8 996.08,-48.8 1115.92,-48.8 1115.92,-84.8"/>
<text text-anchor="middle" x="1056" y="-62.6" font-family="Times,serif" font-size="14.00">SearchComponent</text>
</g>
<!-- SearchComponent&#45;&gt;GalaxyModule -->
<g id="edge7" class="edge">
<title>SearchComponent&#45;&gt;GalaxyModule</title>
<path fill="none" stroke="black" d="M1056,-84.91C1056,-84.91 1056,-103.79 1056,-103.79"/>
<polygon fill="black" stroke="black" points="1052.5,-103.79 1056,-113.79 1059.5,-103.79 1052.5,-103.79"/>
</g>
<!-- SelectNamespaceDialogComponent -->
<g id="node8" class="node">
<title>SelectNamespaceDialogComponent</title>
<polygon fill="#ffffb3" stroke="black" points="978.16,-84.8 759.84,-84.8 759.84,-48.8 978.16,-48.8 978.16,-84.8"/>
<text text-anchor="middle" x="869" y="-62.6" font-family="Times,serif" font-size="14.00">SelectNamespaceDialogComponent</text>
</g>
<!-- SelectNamespaceDialogComponent&#45;&gt;GalaxyModule -->
<g id="edge8" class="edge">
<title>SelectNamespaceDialogComponent&#45;&gt;GalaxyModule</title>
<path fill="none" stroke="black" d="M869,-85.04C869,-100.37 869,-119.8 869,-119.8 869,-119.8 995.89,-119.8 995.89,-119.8"/>
<polygon fill="black" stroke="black" points="995.89,-123.3 1005.89,-119.8 995.89,-116.3 995.89,-123.3"/>
</g>
<!-- SelectRepoDialogComponent -->
<g id="node9" class="node">
<title>SelectRepoDialogComponent</title>
<polygon fill="#ffffb3" stroke="black" points="741.69,-84.8 558.31,-84.8 558.31,-48.8 741.69,-48.8 741.69,-84.8"/>
<text text-anchor="middle" x="650" y="-62.6" font-family="Times,serif" font-size="14.00">SelectRepoDialogComponent</text>
</g>
<!-- SelectRepoDialogComponent&#45;&gt;GalaxyModule -->
<g id="edge9" class="edge">
<title>SelectRepoDialogComponent&#45;&gt;GalaxyModule</title>
<path fill="none" stroke="black" d="M650,-84.83C650,-101.86 650,-124.8 650,-124.8 650,-124.8 995.81,-124.8 995.81,-124.8"/>
<polygon fill="black" stroke="black" points="995.81,-128.3 1005.81,-124.8 995.81,-121.3 995.81,-128.3"/>
</g>
<!-- CommonUiModule -->
<g id="node11" class="node">
<title>CommonUiModule</title>
<polygon fill="#8dd3c7" stroke="black" points="533.67,-84.8 530.67,-88.8 509.67,-88.8 506.67,-84.8 408.33,-84.8 408.33,-48.8 533.67,-48.8 533.67,-84.8"/>
<text text-anchor="middle" x="471" y="-62.6" font-family="Times,serif" font-size="14.00">CommonUiModule</text>
</g>
<!-- CommonUiModule&#45;&gt;GalaxyModule -->
<g id="edge10" class="edge">
<title>CommonUiModule&#45;&gt;GalaxyModule</title>
<path fill="none" stroke="black" d="M471,-85.02C471,-103.63 471,-129.8 471,-129.8 471,-129.8 995.87,-129.8 995.87,-129.8"/>
<polygon fill="black" stroke="black" points="995.87,-133.3 1005.87,-129.8 995.87,-126.3 995.87,-133.3"/>
</g>
<!-- CoreModule -->
<g id="node12" class="node">
<title>CoreModule</title>
<polygon fill="#8dd3c7" stroke="black" points="390.26,-84.8 387.26,-88.8 366.26,-88.8 363.26,-84.8 303.74,-84.8 303.74,-48.8 390.26,-48.8 390.26,-84.8"/>
<text text-anchor="middle" x="347" y="-62.6" font-family="Times,serif" font-size="14.00">CoreModule</text>
</g>
<!-- CoreModule&#45;&gt;GalaxyModule -->
<g id="edge11" class="edge">
<title>CoreModule&#45;&gt;GalaxyModule</title>
<path fill="none" stroke="black" d="M347,-85.02C347,-105.17 347,-134.8 347,-134.8 347,-134.8 995.86,-134.8 995.86,-134.8"/>
<polygon fill="black" stroke="black" points="995.86,-138.3 1005.86,-134.8 995.86,-131.3 995.86,-138.3"/>
</g>
<!-- GalaxyRoutingModule -->
<g id="node13" class="node">
<title>GalaxyRoutingModule</title>
<polygon fill="#8dd3c7" stroke="black" points="285.59,-84.8 282.59,-88.8 261.59,-88.8 258.59,-84.8 140.41,-84.8 140.41,-48.8 285.59,-48.8 285.59,-84.8"/>
<text text-anchor="middle" x="213" y="-62.6" font-family="Times,serif" font-size="14.00">GalaxyRoutingModule</text>
</g>
<!-- GalaxyRoutingModule&#45;&gt;GalaxyModule -->
<g id="edge12" class="edge">
<title>GalaxyRoutingModule&#45;&gt;GalaxyModule</title>
<path fill="none" stroke="black" d="M213,-84.84C213,-106.46 213,-139.8 213,-139.8 213,-139.8 995.79,-139.8 995.79,-139.8"/>
<polygon fill="black" stroke="black" points="995.79,-143.3 1005.79,-139.8 995.79,-136.3 995.79,-143.3"/>
</g>
<!-- SharedModule -->
<g id="node14" class="node">
<title>SharedModule</title>
<polygon fill="#8dd3c7" stroke="black" points="122.42,-84.8 119.42,-88.8 98.42,-88.8 95.42,-84.8 23.58,-84.8 23.58,-48.8 122.42,-48.8 122.42,-84.8"/>
<text text-anchor="middle" x="73" y="-62.6" font-family="Times,serif" font-size="14.00">SharedModule</text>
</g>
<!-- SharedModule&#45;&gt;GalaxyModule -->
<g id="edge13" class="edge">
<title>SharedModule&#45;&gt;GalaxyModule</title>
<path fill="none" stroke="black" d="M73,-84.89C73,-107.93 73,-144.8 73,-144.8 73,-144.8 995.9,-144.8 995.9,-144.8"/>
<polygon fill="black" stroke="black" points="995.9,-148.3 1005.9,-144.8 995.9,-141.3 995.9,-148.3"/>
</g>
</g>
</svg>
