<?xml version="1.0" encoding="UTF-8" standalone="no"?>
<!DOCTYPE svg PUBLIC "-//W3C//DTD SVG 1.1//EN"
 "http://www.w3.org/Graphics/SVG/1.1/DTD/svg11.dtd">
<!-- Generated by graphviz version 2.47.3 (20210619.1520)
 -->
<!-- Title: dependencies Pages: 1 -->
<svg width="779pt" height="174pt"
 viewBox="0.00 0.00 779.00 173.80" xmlns="http://www.w3.org/2000/svg" xmlns:xlink="http://www.w3.org/1999/xlink">
<g id="graph0" class="graph" transform="scale(1 1) rotate(0) translate(4 169.8)">
<title>dependencies</title>
<polygon fill="white" stroke="transparent" points="-4,4 -4,-169.8 775,-169.8 775,4 -4,4"/>
<text text-anchor="middle" x="385.5" y="-8.2" font-family="sans-serif" font-size="14.00">dependencies</text>
<g id="clust1" class="cluster">
<title>cluster_ElasticsearchModule</title>
<polygon fill="none" stroke="black" stroke-dasharray="1,5" points="8,-32.8 8,-157.8 763,-157.8 763,-32.8 8,-32.8"/>
</g>
<g id="clust4" class="cluster">
<title>cluster_ElasticsearchModule_imports</title>
<polygon fill="none" stroke="black" points="196,-40.8 196,-92.8 755,-92.8 755,-40.8 196,-40.8"/>
</g>
<g id="clust2" class="cluster">
<title>cluster_ElasticsearchModule_declarations</title>
<polygon fill="none" stroke="black" points="16,-40.8 16,-92.8 188,-92.8 188,-40.8 16,-40.8"/>
</g>
<!-- ElasticsearchComponent -->
<g id="node1" class="node">
<title>ElasticsearchComponent</title>
<polygon fill="#ffffb3" stroke="black" points="179.68,-84.8 24.32,-84.8 24.32,-48.8 179.68,-48.8 179.68,-84.8"/>
<text text-anchor="middle" x="102" y="-62.6" font-family="Times,serif" font-size="14.00">ElasticsearchComponent</text>
</g>
<!-- ElasticsearchModule -->
<g id="node2" class="node">
<title>ElasticsearchModule</title>
<polygon fill="#8dd3c7" stroke="black" points="475.9,-149.8 472.9,-153.8 451.9,-153.8 448.9,-149.8 342.1,-149.8 342.1,-113.8 475.9,-113.8 475.9,-149.8"/>
<text text-anchor="middle" x="409" y="-127.6" font-family="Times,serif" font-size="14.00">ElasticsearchModule</text>
</g>
<!-- ElasticsearchComponent&#45;&gt;ElasticsearchModule -->
<g id="edge1" class="edge">
<title>ElasticsearchComponent&#45;&gt;ElasticsearchModule</title>
<path fill="none" stroke="black" d="M102,-85.08C102,-106.12 102,-137.8 102,-137.8 102,-137.8 332.01,-137.8 332.01,-137.8"/>
<polygon fill="black" stroke="black" points="332.01,-141.3 342.01,-137.8 332.01,-134.3 332.01,-141.3"/>
</g>
<!-- CommonUiModule -->
<g id="node3" class="node">
<title>CommonUiModule</title>
<polygon fill="#8dd3c7" stroke="black" points="746.67,-84.8 743.67,-88.8 722.67,-88.8 719.67,-84.8 621.33,-84.8 621.33,-48.8 746.67,-48.8 746.67,-84.8"/>
<text text-anchor="middle" x="684" y="-62.6" font-family="Times,serif" font-size="14.00">CommonUiModule</text>
</g>
<!-- CommonUiModule&#45;&gt;ElasticsearchModule -->
<g id="edge2" class="edge">
<title>CommonUiModule&#45;&gt;ElasticsearchModule</title>
<path fill="none" stroke="black" d="M684,-85.08C684,-106.12 684,-137.8 684,-137.8 684,-137.8 485.92,-137.8 485.92,-137.8"/>
<polygon fill="black" stroke="black" points="485.92,-134.3 475.92,-137.8 485.92,-141.3 485.92,-134.3"/>
</g>
<!-- CoreModule -->
<g id="node4" class="node">
<title>CoreModule</title>
<polygon fill="#8dd3c7" stroke="black" points="603.26,-84.8 600.26,-88.8 579.26,-88.8 576.26,-84.8 516.74,-84.8 516.74,-48.8 603.26,-48.8 603.26,-84.8"/>
<text text-anchor="middle" x="560" y="-62.6" font-family="Times,serif" font-size="14.00">CoreModule</text>
</g>
<!-- CoreModule&#45;&gt;ElasticsearchModule -->
<g id="edge3" class="edge">
<title>CoreModule&#45;&gt;ElasticsearchModule</title>
<path fill="none" stroke="black" d="M560,-84.82C560,-102.17 560,-125.8 560,-125.8 560,-125.8 486.11,-125.8 486.11,-125.8"/>
<polygon fill="black" stroke="black" points="486.11,-122.3 476.11,-125.8 486.11,-129.3 486.11,-122.3"/>
</g>
<!-- ElasticsearchRoutingModule -->
<g id="node5" class="node">
<title>ElasticsearchRoutingModule</title>
<polygon fill="#8dd3c7" stroke="black" points="498.02,-84.8 495.02,-88.8 474.02,-88.8 471.02,-84.8 319.98,-84.8 319.98,-48.8 498.02,-48.8 498.02,-84.8"/>
<text text-anchor="middle" x="409" y="-62.6" font-family="Times,serif" font-size="14.00">ElasticsearchRoutingModule</text>
</g>
<!-- ElasticsearchRoutingModule&#45;&gt;ElasticsearchModule -->
<g id="edge4" class="edge">
<title>ElasticsearchRoutingModule&#45;&gt;ElasticsearchModule</title>
<path fill="none" stroke="black" d="M409,-84.91C409,-84.91 409,-103.79 409,-103.79"/>
<polygon fill="black" stroke="black" points="405.5,-103.79 409,-113.79 412.5,-103.79 405.5,-103.79"/>
</g>
<!-- SharedModule -->
<g id="node6" class="node">
<title>SharedModule</title>
<polygon fill="#8dd3c7" stroke="black" points="302.42,-84.8 299.42,-88.8 278.42,-88.8 275.42,-84.8 203.58,-84.8 203.58,-48.8 302.42,-48.8 302.42,-84.8"/>
<text text-anchor="middle" x="253" y="-62.6" font-family="Times,serif" font-size="14.00">SharedModule</text>
</g>
<!-- SharedModule&#45;&gt;ElasticsearchModule -->
<g id="edge5" class="edge">
<title>SharedModule&#45;&gt;ElasticsearchModule</title>
<path fill="none" stroke="black" d="M253,-84.82C253,-102.17 253,-125.8 253,-125.8 253,-125.8 331.94,-125.8 331.94,-125.8"/>
<polygon fill="black" stroke="black" points="331.94,-129.3 341.94,-125.8 331.94,-122.3 331.94,-129.3"/>
</g>
</g>
</svg>
