<?xml version="1.0" encoding="UTF-8" standalone="no"?>
<!DOCTYPE svg PUBLIC "-//W3C//DTD SVG 1.1//EN"
 "http://www.w3.org/Graphics/SVG/1.1/DTD/svg11.dtd">
<!-- Generated by graphviz version 2.47.3 (20210619.1520)
 -->
<!-- Title: dependencies Pages: 1 -->
<svg width="330pt" height="174pt"
 viewBox="0.00 0.00 330.00 173.80" xmlns="http://www.w3.org/2000/svg" xmlns:xlink="http://www.w3.org/1999/xlink">
<g id="graph0" class="graph" transform="scale(1 1) rotate(0) translate(4 169.8)">
<title>dependencies</title>
<polygon fill="white" stroke="transparent" points="-4,4 -4,-169.8 326,-169.8 326,4 -4,4"/>
<text text-anchor="middle" x="161" y="-8.2" font-family="sans-serif" font-size="14.00">dependencies</text>
<g id="clust1" class="cluster">
<title>cluster_AdminIamModule</title>
<polygon fill="none" stroke="black" stroke-dasharray="1,5" points="8,-32.8 8,-157.8 314,-157.8 314,-32.8 8,-32.8"/>
</g>
<g id="clust3" class="cluster">
<title>cluster_AdminIamModule_imports</title>
<polygon fill="none" stroke="black" points="204,-40.8 204,-92.8 306,-92.8 306,-40.8 204,-40.8"/>
</g>
<g id="clust6" class="cluster">
<title>cluster_AdminIamModule_providers</title>
<polygon fill="none" stroke="black" points="16,-40.8 16,-92.8 196,-92.8 196,-40.8 16,-40.8"/>
</g>
<!-- CoreModule -->
<g id="node1" class="node">
<title>CoreModule</title>
<polygon fill="#8dd3c7" stroke="black" points="298.26,-84.8 295.26,-88.8 274.26,-88.8 271.26,-84.8 211.74,-84.8 211.74,-48.8 298.26,-48.8 298.26,-84.8"/>
<text text-anchor="middle" x="255" y="-62.6" font-family="Times,serif" font-size="14.00">CoreModule</text>
</g>
<!-- AdminIamModule -->
<g id="node2" class="node">
<title>AdminIamModule</title>
<polygon fill="#8dd3c7" stroke="black" points="236.2,-149.8 233.2,-153.8 212.2,-153.8 209.2,-149.8 115.8,-149.8 115.8,-113.8 236.2,-113.8 236.2,-149.8"/>
<text text-anchor="middle" x="176" y="-127.6" font-family="Times,serif" font-size="14.00">AdminIamModule</text>
</g>
<!-- CoreModule&#45;&gt;AdminIamModule -->
<g id="edge1" class="edge">
<title>CoreModule&#45;&gt;AdminIamModule</title>
<path fill="none" stroke="black" d="M223.86,-84.91C223.86,-84.91 223.86,-103.79 223.86,-103.79"/>
<polygon fill="black" stroke="black" points="220.36,-103.79 223.86,-113.79 227.36,-103.79 220.36,-103.79"/>
</g>
<!-- AdminIamService -->
<g id="node3" class="node">
<title>AdminIamService</title>
<ellipse fill="#fdb462" stroke="black" cx="106" cy="-66.8" rx="81.66" ry="18"/>
<text text-anchor="middle" x="106" y="-62.6" font-family="Times,serif" font-size="14.00">AdminIamService</text>
</g>
<!-- AdminIamService&#45;&gt;AdminIamModule -->
<g id="edge2" class="edge">
<title>AdminIamService&#45;&gt;AdminIamModule</title>
<path fill="none" stroke="black" d="M151.86,-81.88C151.86,-81.88 151.86,-103.56 151.86,-103.56"/>
<polygon fill="black" stroke="black" points="148.36,-103.56 151.86,-113.56 155.36,-103.56 148.36,-103.56"/>
</g>
</g>
</svg>
