<?xml version="1.0" encoding="UTF-8" standalone="no"?>
<!DOCTYPE svg PUBLIC "-//W3C//DTD SVG 1.1//EN"
 "http://www.w3.org/Graphics/SVG/1.1/DTD/svg11.dtd">
<!-- Generated by graphviz version 2.40.1 (20161225.0304)
 -->
<!-- Title: dependencies Pages: 1 -->
<svg width="504pt" height="211pt"
 viewBox="0.00 0.00 504.00 211.00" xmlns="http://www.w3.org/2000/svg" xmlns:xlink="http://www.w3.org/1999/xlink">
<g id="graph0" class="graph" transform="scale(1 1) rotate(0) translate(4 207)">
<title>dependencies</title>
<polygon fill="#ffffff" stroke="transparent" points="-4,4 -4,-207 500,-207 500,4 -4,4"/>
<text text-anchor="start" x="227.0091" y="-42.4" font-family="sans-serif" font-weight="bold" font-size="14.00" fill="#000000">Legend</text>
<polygon fill="#ffffb3" stroke="transparent" points="14,-10 14,-30 34,-30 34,-10 14,-10"/>
<text text-anchor="start" x="37.629" y="-15.4" font-family="sans-serif" font-size="14.00" fill="#000000"> &#160;Declarations</text>
<polygon fill="#8dd3c7" stroke="transparent" points="127,-10 127,-30 147,-30 147,-10 127,-10"/>
<text text-anchor="start" x="150.7251" y="-15.4" font-family="sans-serif" font-size="14.00" fill="#000000"> &#160;Module</text>
<polygon fill="#80b1d3" stroke="transparent" points="213,-10 213,-30 233,-30 233,-10 213,-10"/>
<text text-anchor="start" x="236.7812" y="-15.4" font-family="sans-serif" font-size="14.00" fill="#000000"> &#160;Bootstrap</text>
<polygon fill="#fdb462" stroke="transparent" points="310,-10 310,-30 330,-30 330,-10 310,-10"/>
<text text-anchor="start" x="333.6732" y="-15.4" font-family="sans-serif" font-size="14.00" fill="#000000"> &#160;Providers</text>
<polygon fill="#fb8072" stroke="transparent" points="406,-10 406,-30 426,-30 426,-10 406,-10"/>
<text text-anchor="start" x="429.7258" y="-15.4" font-family="sans-serif" font-size="14.00" fill="#000000"> &#160;Exports</text>
<g id="clust1" class="cluster">
<title>cluster_AdminIamModule</title>
<polygon fill="none" stroke="#000000" stroke-dasharray="1,5" points="95,-70 95,-195 401,-195 401,-70 95,-70"/>
</g>
<g id="clust3" class="cluster">
<title>cluster_AdminIamModule_imports</title>
<polygon fill="none" stroke="#000000" points="291,-78 291,-130 393,-130 393,-78 291,-78"/>
</g>
<g id="clust6" class="cluster">
<title>cluster_AdminIamModule_providers</title>
<polygon fill="none" stroke="#000000" points="103,-78 103,-130 283,-130 283,-78 103,-78"/>
</g>
<!-- CoreModule -->
<g id="node1" class="node">
<title>CoreModule</title>
<polygon fill="#8dd3c7" stroke="#000000" points="385.2619,-122 382.2619,-126 361.2619,-126 358.2619,-122 298.7381,-122 298.7381,-86 385.2619,-86 385.2619,-122"/>
<text text-anchor="middle" x="342" y="-99.8" font-family="Times,serif" font-size="14.00" fill="#000000">CoreModule</text>
</g>
<!-- AdminIamModule -->
<g id="node2" class="node">
<title>AdminIamModule</title>
<polygon fill="#8dd3c7" stroke="#000000" points="323.2036,-187 320.2036,-191 299.2036,-191 296.2036,-187 202.7964,-187 202.7964,-151 323.2036,-151 323.2036,-187"/>
<text text-anchor="middle" x="263" y="-164.8" font-family="Times,serif" font-size="14.00" fill="#000000">AdminIamModule</text>
</g>
<!-- CoreModule&#45;&gt;AdminIamModule -->
<g id="edge1" class="edge">
<title>CoreModule&#45;&gt;AdminIamModule</title>
<path fill="none" stroke="#000000" d="M310.8605,-122.1061C310.8605,-122.1061 310.8605,-140.991 310.8605,-140.991"/>
<polygon fill="#000000" stroke="#000000" points="307.3605,-140.9909 310.8605,-150.991 314.3605,-140.991 307.3605,-140.9909"/>
</g>
<!-- AdminIamService -->
<g id="node3" class="node">
<title>AdminIamService</title>
<ellipse fill="#fdb462" stroke="#000000" cx="193" cy="-104" rx="81.6596" ry="18"/>
<text text-anchor="middle" x="193" y="-99.8" font-family="Times,serif" font-size="14.00" fill="#000000">AdminIamService</text>
</g>
<!-- AdminIamService&#45;&gt;AdminIamModule -->
<g id="edge2" class="edge">
<title>AdminIamService&#45;&gt;AdminIamModule</title>
<path fill="none" stroke="#000000" d="M238.864,-119.0757C238.864,-119.0757 238.864,-140.7642 238.864,-140.7642"/>
<polygon fill="#000000" stroke="#000000" points="235.3641,-140.7642 238.864,-150.7642 242.3641,-140.7642 235.3641,-140.7642"/>
</g>
</g>
</svg>
