<?xml version="1.0" encoding="UTF-8" standalone="no"?>
<!DOCTYPE svg PUBLIC "-//W3C//DTD SVG 1.1//EN"
 "http://www.w3.org/Graphics/SVG/1.1/DTD/svg11.dtd">
<!-- Generated by graphviz version 2.40.1 (20161225.0304)
 -->
<!-- Title: dependencies Pages: 1 -->
<svg width="600pt" height="211pt"
 viewBox="0.00 0.00 600.00 211.00" xmlns="http://www.w3.org/2000/svg" xmlns:xlink="http://www.w3.org/1999/xlink">
<g id="graph0" class="graph" transform="scale(1 1) rotate(0) translate(4 207)">
<title>dependencies</title>
<polygon fill="#ffffff" stroke="transparent" points="-4,4 -4,-207 596,-207 596,4 -4,4"/>
<text text-anchor="start" x="275.0091" y="-42.4" font-family="sans-serif" font-weight="bold" font-size="14.00" fill="#000000">Legend</text>
<polygon fill="#ffffb3" stroke="transparent" points="62,-10 62,-30 82,-30 82,-10 62,-10"/>
<text text-anchor="start" x="85.629" y="-15.4" font-family="sans-serif" font-size="14.00" fill="#000000"> &#160;Declarations</text>
<polygon fill="#8dd3c7" stroke="transparent" points="175,-10 175,-30 195,-30 195,-10 175,-10"/>
<text text-anchor="start" x="198.7251" y="-15.4" font-family="sans-serif" font-size="14.00" fill="#000000"> &#160;Module</text>
<polygon fill="#80b1d3" stroke="transparent" points="261,-10 261,-30 281,-30 281,-10 261,-10"/>
<text text-anchor="start" x="284.7812" y="-15.4" font-family="sans-serif" font-size="14.00" fill="#000000"> &#160;Bootstrap</text>
<polygon fill="#fdb462" stroke="transparent" points="358,-10 358,-30 378,-30 378,-10 358,-10"/>
<text text-anchor="start" x="381.6732" y="-15.4" font-family="sans-serif" font-size="14.00" fill="#000000"> &#160;Providers</text>
<polygon fill="#fb8072" stroke="transparent" points="454,-10 454,-30 474,-30 474,-10 454,-10"/>
<text text-anchor="start" x="477.7258" y="-15.4" font-family="sans-serif" font-size="14.00" fill="#000000"> &#160;Exports</text>
<g id="clust1" class="cluster">
<title>cluster_StorageModule</title>
<polygon fill="none" stroke="#000000" stroke-dasharray="1,5" points="8,-70 8,-195 584,-195 584,-70 8,-70"/>
</g>
<g id="clust3" class="cluster">
<title>cluster_StorageModule_imports</title>
<polygon fill="none" stroke="#000000" points="16,-78 16,-130 576,-130 576,-78 16,-78"/>
</g>
<!-- ElasticsearchModule -->
<g id="node1" class="node">
<title>ElasticsearchModule</title>
<polygon fill="#8dd3c7" stroke="#000000" points="567.8976,-122 564.8976,-126 543.8976,-126 540.8976,-122 434.1024,-122 434.1024,-86 567.8976,-86 567.8976,-122"/>
<text text-anchor="middle" x="501" y="-99.8" font-family="Times,serif" font-size="14.00" fill="#000000">ElasticsearchModule</text>
</g>
<!-- StorageModule -->
<g id="node5" class="node">
<title>StorageModule</title>
<polygon fill="#8dd3c7" stroke="#000000" points="359.3133,-187 356.3133,-191 335.3133,-191 332.3133,-187 256.6867,-187 256.6867,-151 359.3133,-151 359.3133,-187"/>
<text text-anchor="middle" x="308" y="-164.8" font-family="Times,serif" font-size="14.00" fill="#000000">StorageModule</text>
</g>
<!-- ElasticsearchModule&#45;&gt;StorageModule -->
<g id="edge1" class="edge">
<title>ElasticsearchModule&#45;&gt;StorageModule</title>
<path fill="none" stroke="#000000" d="M501,-122.1061C501,-141.3391 501,-169 501,-169 501,-169 369.2138,-169 369.2138,-169"/>
<polygon fill="#000000" stroke="#000000" points="369.2138,-165.5001 359.2138,-169 369.2137,-172.5001 369.2138,-165.5001"/>
</g>
<!-- MinioModule -->
<g id="node2" class="node">
<title>MinioModule</title>
<polygon fill="#8dd3c7" stroke="#000000" points="415.7759,-122 412.7759,-126 391.7759,-126 388.7759,-122 322.2241,-122 322.2241,-86 415.7759,-86 415.7759,-122"/>
<text text-anchor="middle" x="369" y="-99.8" font-family="Times,serif" font-size="14.00" fill="#000000">MinioModule</text>
</g>
<!-- MinioModule&#45;&gt;StorageModule -->
<g id="edge2" class="edge">
<title>MinioModule&#45;&gt;StorageModule</title>
<path fill="none" stroke="#000000" d="M340.6343,-122.1061C340.6343,-122.1061 340.6343,-140.991 340.6343,-140.991"/>
<polygon fill="#000000" stroke="#000000" points="337.1344,-140.9909 340.6343,-150.991 344.1344,-140.991 337.1344,-140.9909"/>
</g>
<!-- MongodbModule -->
<g id="node3" class="node">
<title>MongodbModule</title>
<polygon fill="#8dd3c7" stroke="#000000" points="303.9944,-122 300.9944,-126 279.9944,-126 276.9944,-122 190.0056,-122 190.0056,-86 303.9944,-86 303.9944,-122"/>
<text text-anchor="middle" x="247" y="-99.8" font-family="Times,serif" font-size="14.00" fill="#000000">MongodbModule</text>
</g>
<!-- MongodbModule&#45;&gt;StorageModule -->
<g id="edge3" class="edge">
<title>MongodbModule&#45;&gt;StorageModule</title>
<path fill="none" stroke="#000000" d="M280.4204,-122.1061C280.4204,-122.1061 280.4204,-140.991 280.4204,-140.991"/>
<polygon fill="#000000" stroke="#000000" points="276.9205,-140.9909 280.4204,-150.991 283.9205,-140.991 276.9205,-140.9909"/>
</g>
<!-- StorageRoutingModule -->
<g id="node4" class="node">
<title>StorageRoutingModule</title>
<polygon fill="#8dd3c7" stroke="#000000" points="171.9312,-122 168.9312,-126 147.9312,-126 144.9312,-122 24.0688,-122 24.0688,-86 171.9312,-86 171.9312,-122"/>
<text text-anchor="middle" x="98" y="-99.8" font-family="Times,serif" font-size="14.00" fill="#000000">StorageRoutingModule</text>
</g>
<!-- StorageRoutingModule&#45;&gt;StorageModule -->
<g id="edge4" class="edge">
<title>StorageRoutingModule&#45;&gt;StorageModule</title>
<path fill="none" stroke="#000000" d="M98,-122.1061C98,-141.3391 98,-169 98,-169 98,-169 246.6282,-169 246.6282,-169"/>
<polygon fill="#000000" stroke="#000000" points="246.6283,-172.5001 256.6282,-169 246.6282,-165.5001 246.6283,-172.5001"/>
</g>
</g>
</svg>
