<?xml version="1.0" encoding="UTF-8" standalone="no"?>
<!DOCTYPE svg PUBLIC "-//W3C//DTD SVG 1.1//EN"
 "http://www.w3.org/Graphics/SVG/1.1/DTD/svg11.dtd">
<!-- Generated by graphviz version 2.47.3 (20210619.1520)
 -->
<!-- Title: dependencies Pages: 1 -->
<svg width="600pt" height="174pt"
 viewBox="0.00 0.00 600.00 173.80" xmlns="http://www.w3.org/2000/svg" xmlns:xlink="http://www.w3.org/1999/xlink">
<g id="graph0" class="graph" transform="scale(1 1) rotate(0) translate(4 169.8)">
<title>dependencies</title>
<polygon fill="white" stroke="transparent" points="-4,4 -4,-169.8 596,-169.8 596,4 -4,4"/>
<text text-anchor="middle" x="296" y="-8.2" font-family="sans-serif" font-size="14.00">dependencies</text>
<g id="clust1" class="cluster">
<title>cluster_StorageModule</title>
<polygon fill="none" stroke="black" stroke-dasharray="1,5" points="8,-32.8 8,-157.8 584,-157.8 584,-32.8 8,-32.8"/>
</g>
<g id="clust3" class="cluster">
<title>cluster_StorageModule_imports</title>
<polygon fill="none" stroke="black" points="16,-40.8 16,-92.8 576,-92.8 576,-40.8 16,-40.8"/>
</g>
<!-- ElasticsearchModule -->
<g id="node1" class="node">
<title>ElasticsearchModule</title>
<polygon fill="#8dd3c7" stroke="black" points="567.9,-84.8 564.9,-88.8 543.9,-88.8 540.9,-84.8 434.1,-84.8 434.1,-48.8 567.9,-48.8 567.9,-84.8"/>
<text text-anchor="middle" x="501" y="-62.6" font-family="Times,serif" font-size="14.00">ElasticsearchModule</text>
</g>
<!-- StorageModule -->
<g id="node5" class="node">
<title>StorageModule</title>
<polygon fill="#8dd3c7" stroke="black" points="359.31,-149.8 356.31,-153.8 335.31,-153.8 332.31,-149.8 256.69,-149.8 256.69,-113.8 359.31,-113.8 359.31,-149.8"/>
<text text-anchor="middle" x="308" y="-127.6" font-family="Times,serif" font-size="14.00">StorageModule</text>
</g>
<!-- ElasticsearchModule&#45;&gt;StorageModule -->
<g id="edge1" class="edge">
<title>ElasticsearchModule&#45;&gt;StorageModule</title>
<path fill="none" stroke="black" d="M501,-84.91C501,-104.14 501,-131.8 501,-131.8 501,-131.8 369.21,-131.8 369.21,-131.8"/>
<polygon fill="black" stroke="black" points="369.21,-128.3 359.21,-131.8 369.21,-135.3 369.21,-128.3"/>
</g>
<!-- MinioModule -->
<g id="node2" class="node">
<title>MinioModule</title>
<polygon fill="#8dd3c7" stroke="black" points="415.78,-84.8 412.78,-88.8 391.78,-88.8 388.78,-84.8 322.22,-84.8 322.22,-48.8 415.78,-48.8 415.78,-84.8"/>
<text text-anchor="middle" x="369" y="-62.6" font-family="Times,serif" font-size="14.00">MinioModule</text>
</g>
<!-- MinioModule&#45;&gt;StorageModule -->
<g id="edge2" class="edge">
<title>MinioModule&#45;&gt;StorageModule</title>
<path fill="none" stroke="black" d="M340.63,-84.91C340.63,-84.91 340.63,-103.79 340.63,-103.79"/>
<polygon fill="black" stroke="black" points="337.13,-103.79 340.63,-113.79 344.13,-103.79 337.13,-103.79"/>
</g>
<!-- MongodbModule -->
<g id="node3" class="node">
<title>MongodbModule</title>
<polygon fill="#8dd3c7" stroke="black" points="303.99,-84.8 300.99,-88.8 279.99,-88.8 276.99,-84.8 190.01,-84.8 190.01,-48.8 303.99,-48.8 303.99,-84.8"/>
<text text-anchor="middle" x="247" y="-62.6" font-family="Times,serif" font-size="14.00">MongodbModule</text>
</g>
<!-- MongodbModule&#45;&gt;StorageModule -->
<g id="edge3" class="edge">
<title>MongodbModule&#45;&gt;StorageModule</title>
<path fill="none" stroke="black" d="M280.42,-84.91C280.42,-84.91 280.42,-103.79 280.42,-103.79"/>
<polygon fill="black" stroke="black" points="276.92,-103.79 280.42,-113.79 283.92,-103.79 276.92,-103.79"/>
</g>
<!-- StorageRoutingModule -->
<g id="node4" class="node">
<title>StorageRoutingModule</title>
<polygon fill="#8dd3c7" stroke="black" points="171.93,-84.8 168.93,-88.8 147.93,-88.8 144.93,-84.8 24.07,-84.8 24.07,-48.8 171.93,-48.8 171.93,-84.8"/>
<text text-anchor="middle" x="98" y="-62.6" font-family="Times,serif" font-size="14.00">StorageRoutingModule</text>
</g>
<!-- StorageRoutingModule&#45;&gt;StorageModule -->
<g id="edge4" class="edge">
<title>StorageRoutingModule&#45;&gt;StorageModule</title>
<path fill="none" stroke="black" d="M98,-84.91C98,-104.14 98,-131.8 98,-131.8 98,-131.8 246.63,-131.8 246.63,-131.8"/>
<polygon fill="black" stroke="black" points="246.63,-135.3 256.63,-131.8 246.63,-128.3 246.63,-135.3"/>
</g>
</g>
</svg>
