<?xml version="1.0" encoding="UTF-8" standalone="no"?>
<!DOCTYPE svg PUBLIC "-//W3C//DTD SVG 1.1//EN"
 "http://www.w3.org/Graphics/SVG/1.1/DTD/svg11.dtd">
<!-- Generated by graphviz version 2.47.3 (20210619.1520)
 -->
<!-- Title: dependencies Pages: 1 -->
<svg width="338pt" height="174pt"
 viewBox="0.00 0.00 338.00 173.80" xmlns="http://www.w3.org/2000/svg" xmlns:xlink="http://www.w3.org/1999/xlink">
<g id="graph0" class="graph" transform="scale(1 1) rotate(0) translate(4 169.8)">
<title>dependencies</title>
<polygon fill="white" stroke="transparent" points="-4,4 -4,-169.8 334,-169.8 334,4 -4,4"/>
<text text-anchor="middle" x="165" y="-8.2" font-family="sans-serif" font-size="14.00">dependencies</text>
<g id="clust1" class="cluster">
<title>cluster_HomeModule</title>
<polygon fill="none" stroke="black" stroke-dasharray="1,5" points="8,-32.8 8,-157.8 322,-157.8 322,-32.8 8,-32.8"/>
</g>
<g id="clust3" class="cluster">
<title>cluster_HomeModule_imports</title>
<polygon fill="none" stroke="black" points="16,-40.8 16,-92.8 314,-92.8 314,-40.8 16,-40.8"/>
</g>
<!-- CommonUiModule -->
<g id="node1" class="node">
<title>CommonUiModule</title>
<polygon fill="#8dd3c7" stroke="black" points="305.67,-84.8 302.67,-88.8 281.67,-88.8 278.67,-84.8 180.33,-84.8 180.33,-48.8 305.67,-48.8 305.67,-84.8"/>
<text text-anchor="middle" x="243" y="-62.6" font-family="Times,serif" font-size="14.00">CommonUiModule</text>
</g>
<!-- HomeModule -->
<g id="node3" class="node">
<title>HomeModule</title>
<polygon fill="#8dd3c7" stroke="black" points="214.76,-149.8 211.76,-153.8 190.76,-153.8 187.76,-149.8 121.24,-149.8 121.24,-113.8 214.76,-113.8 214.76,-149.8"/>
<text text-anchor="middle" x="168" y="-127.6" font-family="Times,serif" font-size="14.00">HomeModule</text>
</g>
<!-- CommonUiModule&#45;&gt;HomeModule -->
<g id="edge1" class="edge">
<title>CommonUiModule&#45;&gt;HomeModule</title>
<path fill="none" stroke="black" d="M197.52,-84.91C197.52,-84.91 197.52,-103.79 197.52,-103.79"/>
<polygon fill="black" stroke="black" points="194.02,-103.79 197.52,-113.79 201.02,-103.79 194.02,-103.79"/>
</g>
<!-- HomeRoutingModule -->
<g id="node2" class="node">
<title>HomeRoutingModule</title>
<polygon fill="#8dd3c7" stroke="black" points="162.38,-84.8 159.38,-88.8 138.38,-88.8 135.38,-84.8 23.62,-84.8 23.62,-48.8 162.38,-48.8 162.38,-84.8"/>
<text text-anchor="middle" x="93" y="-62.6" font-family="Times,serif" font-size="14.00">HomeRoutingModule</text>
</g>
<!-- HomeRoutingModule&#45;&gt;HomeModule -->
<g id="edge2" class="edge">
<title>HomeRoutingModule&#45;&gt;HomeModule</title>
<path fill="none" stroke="black" d="M141.78,-84.91C141.78,-84.91 141.78,-103.79 141.78,-103.79"/>
<polygon fill="black" stroke="black" points="138.28,-103.79 141.78,-113.79 145.28,-103.79 138.28,-103.79"/>
</g>
</g>
</svg>
