<?xml version="1.0" encoding="UTF-8" standalone="no"?>
<!DOCTYPE svg PUBLIC "-//W3C//DTD SVG 1.1//EN"
 "http://www.w3.org/Graphics/SVG/1.1/DTD/svg11.dtd">
<!-- Generated by graphviz version 2.40.1 (20161225.0304)
 -->
<!-- Title: dependencies Pages: 1 -->
<svg width="884pt" height="284pt"
 viewBox="0.00 0.00 884.00 284.00" xmlns="http://www.w3.org/2000/svg" xmlns:xlink="http://www.w3.org/1999/xlink">
<g id="graph0" class="graph" transform="scale(1 1) rotate(0) translate(4 280)">
<title>dependencies</title>
<polygon fill="#ffffff" stroke="transparent" points="-4,4 -4,-280 880,-280 880,4 -4,4"/>
<text text-anchor="start" x="417.0091" y="-42.4" font-family="sans-serif" font-weight="bold" font-size="14.00" fill="#000000">Legend</text>
<polygon fill="#ffffb3" stroke="transparent" points="204,-10 204,-30 224,-30 224,-10 204,-10"/>
<text text-anchor="start" x="227.629" y="-15.4" font-family="sans-serif" font-size="14.00" fill="#000000"> &#160;Declarations</text>
<polygon fill="#8dd3c7" stroke="transparent" points="317,-10 317,-30 337,-30 337,-10 317,-10"/>
<text text-anchor="start" x="340.7251" y="-15.4" font-family="sans-serif" font-size="14.00" fill="#000000"> &#160;Module</text>
<polygon fill="#80b1d3" stroke="transparent" points="403,-10 403,-30 423,-30 423,-10 403,-10"/>
<text text-anchor="start" x="426.7812" y="-15.4" font-family="sans-serif" font-size="14.00" fill="#000000"> &#160;Bootstrap</text>
<polygon fill="#fdb462" stroke="transparent" points="500,-10 500,-30 520,-30 520,-10 500,-10"/>
<text text-anchor="start" x="523.6732" y="-15.4" font-family="sans-serif" font-size="14.00" fill="#000000"> &#160;Providers</text>
<polygon fill="#fb8072" stroke="transparent" points="596,-10 596,-30 616,-30 616,-10 596,-10"/>
<text text-anchor="start" x="619.7258" y="-15.4" font-family="sans-serif" font-size="14.00" fill="#000000"> &#160;Exports</text>
<g id="clust1" class="cluster">
<title>cluster_ProjectsModule</title>
<polygon fill="none" stroke="#000000" stroke-dasharray="1,5" points="8,-70 8,-268 868,-268 868,-70 8,-70"/>
</g>
<g id="clust3" class="cluster">
<title>cluster_ProjectsModule_imports</title>
<polygon fill="none" stroke="#000000" points="182,-78 182,-130 860,-130 860,-78 182,-78"/>
</g>
<g id="clust4" class="cluster">
<title>cluster_ProjectsModule_exports</title>
<polygon fill="none" stroke="#000000" points="411,-208 411,-260 533,-260 533,-208 411,-208"/>
</g>
<g id="clust6" class="cluster">
<title>cluster_ProjectsModule_providers</title>
<polygon fill="none" stroke="#000000" points="16,-78 16,-130 174,-130 174,-78 16,-78"/>
</g>
<!-- CloudproviderModule -->
<g id="node1" class="node">
<title>CloudproviderModule</title>
<polygon fill="#8dd3c7" stroke="#000000" points="851.7035,-122 848.7035,-126 827.7035,-126 824.7035,-122 710.2965,-122 710.2965,-86 851.7035,-86 851.7035,-122"/>
<text text-anchor="middle" x="781" y="-99.8" font-family="Times,serif" font-size="14.00" fill="#000000">CloudproviderModule</text>
</g>
<!-- ProjectsModule -->
<g id="node6" class="node">
<title>ProjectsModule</title>
<polygon fill="#8dd3c7" stroke="#000000" points="524.1486,-187 521.1486,-191 500.1486,-191 497.1486,-187 419.8514,-187 419.8514,-151 524.1486,-151 524.1486,-187"/>
<text text-anchor="middle" x="472" y="-164.8" font-family="Times,serif" font-size="14.00" fill="#000000">ProjectsModule</text>
</g>
<!-- CloudproviderModule&#45;&gt;ProjectsModule -->
<g id="edge1" class="edge">
<title>CloudproviderModule&#45;&gt;ProjectsModule</title>
<path fill="none" stroke="#000000" d="M781,-122.2843C781,-143.3211 781,-175 781,-175 781,-175 534.4176,-175 534.4176,-175"/>
<polygon fill="#000000" stroke="#000000" points="534.4177,-171.5001 524.4176,-175 534.4176,-178.5001 534.4177,-171.5001"/>
</g>
<!-- ConsulModule -->
<g id="node2" class="node">
<title>ConsulModule</title>
<polygon fill="#8dd3c7" stroke="#000000" points="692.7218,-122 689.7218,-126 668.7218,-126 665.7218,-122 593.2782,-122 593.2782,-86 692.7218,-86 692.7218,-122"/>
<text text-anchor="middle" x="643" y="-99.8" font-family="Times,serif" font-size="14.00" fill="#000000">ConsulModule</text>
</g>
<!-- ConsulModule&#45;&gt;ProjectsModule -->
<g id="edge2" class="edge">
<title>ConsulModule&#45;&gt;ProjectsModule</title>
<path fill="none" stroke="#000000" d="M643,-122.0225C643,-139.3734 643,-163 643,-163 643,-163 534.2348,-163 534.2348,-163"/>
<polygon fill="#000000" stroke="#000000" points="534.2348,-159.5001 524.2348,-163 534.2348,-166.5001 534.2348,-159.5001"/>
</g>
<!-- CoreModule -->
<g id="node3" class="node">
<title>CoreModule</title>
<polygon fill="#8dd3c7" stroke="#000000" points="575.2619,-122 572.2619,-126 551.2619,-126 548.2619,-122 488.7381,-122 488.7381,-86 575.2619,-86 575.2619,-122"/>
<text text-anchor="middle" x="532" y="-99.8" font-family="Times,serif" font-size="14.00" fill="#000000">CoreModule</text>
</g>
<!-- CoreModule&#45;&gt;ProjectsModule -->
<g id="edge3" class="edge">
<title>CoreModule&#45;&gt;ProjectsModule</title>
<path fill="none" stroke="#000000" d="M506.4716,-122.1061C506.4716,-122.1061 506.4716,-140.991 506.4716,-140.991"/>
<polygon fill="#000000" stroke="#000000" points="502.9717,-140.9909 506.4716,-150.991 509.9717,-140.991 502.9717,-140.9909"/>
</g>
<!-- TerraformModule -->
<g id="node4" class="node">
<title>TerraformModule</title>
<polygon fill="#8dd3c7" stroke="#000000" points="470.5646,-122 467.5646,-126 446.5646,-126 443.5646,-122 353.4354,-122 353.4354,-86 470.5646,-86 470.5646,-122"/>
<text text-anchor="middle" x="412" y="-99.8" font-family="Times,serif" font-size="14.00" fill="#000000">TerraformModule</text>
</g>
<!-- TerraformModule&#45;&gt;ProjectsModule -->
<g id="edge4" class="edge">
<title>TerraformModule&#45;&gt;ProjectsModule</title>
<path fill="none" stroke="#000000" d="M445.1042,-122.1061C445.1042,-122.1061 445.1042,-140.991 445.1042,-140.991"/>
<polygon fill="#000000" stroke="#000000" points="441.6042,-140.9909 445.1042,-150.991 448.6042,-140.991 441.6042,-140.9909"/>
</g>
<!-- TerraformStateModule -->
<g id="node5" class="node">
<title>TerraformStateModule</title>
<polygon fill="#8dd3c7" stroke="#000000" points="335.5576,-122 332.5576,-126 311.5576,-126 308.5576,-122 190.4424,-122 190.4424,-86 335.5576,-86 335.5576,-122"/>
<text text-anchor="middle" x="263" y="-99.8" font-family="Times,serif" font-size="14.00" fill="#000000">TerraformStateModule</text>
</g>
<!-- TerraformStateModule&#45;&gt;ProjectsModule -->
<g id="edge5" class="edge">
<title>TerraformStateModule&#45;&gt;ProjectsModule</title>
<path fill="none" stroke="#000000" d="M263,-122.0225C263,-139.3734 263,-163 263,-163 263,-163 409.7996,-163 409.7996,-163"/>
<polygon fill="#000000" stroke="#000000" points="409.7996,-166.5001 419.7996,-163 409.7996,-159.5001 409.7996,-166.5001"/>
</g>
<!-- ProjectsService  -->
<g id="node7" class="node">
<title>ProjectsService </title>
<polygon fill="#fb8072" stroke="#000000" points="525.0766,-252 418.9234,-252 418.9234,-216 525.0766,-216 525.0766,-252"/>
<text text-anchor="middle" x="472" y="-229.8" font-family="Times,serif" font-size="14.00" fill="#000000">ProjectsService </text>
</g>
<!-- ProjectsModule&#45;&gt;ProjectsService  -->
<g id="edge6" class="edge">
<title>ProjectsModule&#45;&gt;ProjectsService </title>
<path fill="none" stroke="#000000" stroke-dasharray="5,2" d="M472,-187.1061C472,-187.1061 472,-205.991 472,-205.991"/>
<polygon fill="#000000" stroke="#000000" points="468.5001,-205.9909 472,-215.991 475.5001,-205.991 468.5001,-205.9909"/>
</g>
<!-- ProjectsService -->
<g id="node8" class="node">
<title>ProjectsService</title>
<ellipse fill="#fdb462" stroke="#000000" cx="95" cy="-104" rx="71.1998" ry="18"/>
<text text-anchor="middle" x="95" y="-99.8" font-family="Times,serif" font-size="14.00" fill="#000000">ProjectsService</text>
</g>
<!-- ProjectsService&#45;&gt;ProjectsModule -->
<g id="edge7" class="edge">
<title>ProjectsService&#45;&gt;ProjectsModule</title>
<path fill="none" stroke="#000000" d="M95,-122.2843C95,-143.3211 95,-175 95,-175 95,-175 409.5798,-175 409.5798,-175"/>
<polygon fill="#000000" stroke="#000000" points="409.5798,-178.5001 419.5798,-175 409.5797,-171.5001 409.5798,-178.5001"/>
</g>
</g>
</svg>
