<?xml version="1.0" encoding="UTF-8" standalone="no"?>
<!DOCTYPE svg PUBLIC "-//W3C//DTD SVG 1.1//EN"
 "http://www.w3.org/Graphics/SVG/1.1/DTD/svg11.dtd">
<!-- Generated by graphviz version 2.40.1 (20161225.0304)
 -->
<!-- Title: dependencies Pages: 1 -->
<svg width="1243pt" height="284pt"
 viewBox="0.00 0.00 1243.00 284.00" xmlns="http://www.w3.org/2000/svg" xmlns:xlink="http://www.w3.org/1999/xlink">
<g id="graph0" class="graph" transform="scale(1 1) rotate(0) translate(4 280)">
<title>dependencies</title>
<polygon fill="#ffffff" stroke="transparent" points="-4,4 -4,-280 1239,-280 1239,4 -4,4"/>
<text text-anchor="start" x="596.5091" y="-42.4" font-family="sans-serif" font-weight="bold" font-size="14.00" fill="#000000">Legend</text>
<polygon fill="#ffffb3" stroke="transparent" points="383.5,-10 383.5,-30 403.5,-30 403.5,-10 383.5,-10"/>
<text text-anchor="start" x="407.129" y="-15.4" font-family="sans-serif" font-size="14.00" fill="#000000"> &#160;Declarations</text>
<polygon fill="#8dd3c7" stroke="transparent" points="496.5,-10 496.5,-30 516.5,-30 516.5,-10 496.5,-10"/>
<text text-anchor="start" x="520.2251" y="-15.4" font-family="sans-serif" font-size="14.00" fill="#000000"> &#160;Module</text>
<polygon fill="#80b1d3" stroke="transparent" points="582.5,-10 582.5,-30 602.5,-30 602.5,-10 582.5,-10"/>
<text text-anchor="start" x="606.2812" y="-15.4" font-family="sans-serif" font-size="14.00" fill="#000000"> &#160;Bootstrap</text>
<polygon fill="#fdb462" stroke="transparent" points="679.5,-10 679.5,-30 699.5,-30 699.5,-10 679.5,-10"/>
<text text-anchor="start" x="703.1732" y="-15.4" font-family="sans-serif" font-size="14.00" fill="#000000"> &#160;Providers</text>
<polygon fill="#fb8072" stroke="transparent" points="775.5,-10 775.5,-30 795.5,-30 795.5,-10 775.5,-10"/>
<text text-anchor="start" x="799.2258" y="-15.4" font-family="sans-serif" font-size="14.00" fill="#000000"> &#160;Exports</text>
<g id="clust1" class="cluster">
<title>cluster_SharedModule</title>
<polygon fill="none" stroke="#000000" stroke-dasharray="1,5" points="8,-70 8,-268 1227,-268 1227,-70 8,-70"/>
</g>
<g id="clust2" class="cluster">
<title>cluster_SharedModule_declarations</title>
<polygon fill="none" stroke="#000000" points="484,-78 484,-130 1219,-130 1219,-78 484,-78"/>
</g>
<g id="clust6" class="cluster">
<title>cluster_SharedModule_imports</title>
<polygon fill="none" stroke="#000000" points="230,-78 230,-130 476,-130 476,-78 230,-78"/>
</g>
<g id="clust7" class="cluster">
<title>cluster_SharedModule_exports</title>
<polygon fill="none" stroke="#000000" points="132,-208 132,-260 878,-260 878,-208 132,-208"/>
</g>
<g id="clust9" class="cluster">
<title>cluster_SharedModule_providers</title>
<polygon fill="none" stroke="#000000" points="16,-78 16,-130 222,-130 222,-78 16,-78"/>
</g>
<!-- TerraformModuleWizardComponent -->
<g id="node1" class="node">
<title>TerraformModuleWizardComponent</title>
<polygon fill="#ffffb3" stroke="#000000" points="1210.5924,-122 987.4076,-122 987.4076,-86 1210.5924,-86 1210.5924,-122"/>
<text text-anchor="middle" x="1099" y="-99.8" font-family="Times,serif" font-size="14.00" fill="#000000">TerraformModuleWizardComponent</text>
</g>
<!-- SharedModule -->
<g id="node4" class="node">
<title>SharedModule</title>
<polygon fill="#8dd3c7" stroke="#000000" points="553.4231,-187 550.4231,-191 529.4231,-191 526.4231,-187 454.5769,-187 454.5769,-151 553.4231,-151 553.4231,-187"/>
<text text-anchor="middle" x="504" y="-164.8" font-family="Times,serif" font-size="14.00" fill="#000000">SharedModule</text>
</g>
<!-- TerraformModuleWizardComponent&#45;&gt;SharedModule -->
<g id="edge1" class="edge">
<title>TerraformModuleWizardComponent&#45;&gt;SharedModule</title>
<path fill="none" stroke="#000000" d="M1099,-122.1061C1099,-141.3391 1099,-169 1099,-169 1099,-169 563.4515,-169 563.4515,-169"/>
<polygon fill="#000000" stroke="#000000" points="563.4515,-165.5001 553.4515,-169 563.4515,-172.5001 563.4515,-165.5001"/>
</g>
<!-- TerraformModuleWizardVarsDirective -->
<g id="node2" class="node">
<title>TerraformModuleWizardVarsDirective</title>
<polygon fill="#ffffb3" stroke="#000000" points="969.2689,-122 732.7311,-122 732.7311,-86 969.2689,-86 969.2689,-122"/>
<text text-anchor="middle" x="851" y="-99.8" font-family="Times,serif" font-size="14.00" fill="#000000">TerraformModuleWizardVarsDirective</text>
</g>
<!-- TerraformModuleWizardVarsDirective&#45;&gt;SharedModule -->
<g id="edge2" class="edge">
<title>TerraformModuleWizardVarsDirective&#45;&gt;SharedModule</title>
<path fill="none" stroke="#000000" d="M801.0808,-122.027C801.0808,-138.3976 801.0808,-160 801.0808,-160 801.0808,-160 563.3903,-160 563.3903,-160"/>
<polygon fill="#000000" stroke="#000000" points="563.3904,-156.5001 553.3903,-160 563.3903,-163.5001 563.3904,-156.5001"/>
</g>
<!-- TerraformRepresentationComponent -->
<g id="node3" class="node">
<title>TerraformRepresentationComponent</title>
<polygon fill="#ffffb3" stroke="#000000" points="714.3193,-122 491.6807,-122 491.6807,-86 714.3193,-86 714.3193,-122"/>
<text text-anchor="middle" x="603" y="-99.8" font-family="Times,serif" font-size="14.00" fill="#000000">TerraformRepresentationComponent</text>
</g>
<!-- TerraformRepresentationComponent&#45;&gt;SharedModule -->
<g id="edge3" class="edge">
<title>TerraformRepresentationComponent&#45;&gt;SharedModule</title>
<path fill="none" stroke="#000000" d="M522.4008,-122.1061C522.4008,-122.1061 522.4008,-140.991 522.4008,-140.991"/>
<polygon fill="#000000" stroke="#000000" points="518.9008,-140.9909 522.4008,-150.991 525.9008,-140.991 518.9008,-140.9909"/>
</g>
<!-- TerraformModuleWizardComponent  -->
<g id="node7" class="node">
<title>TerraformModuleWizardComponent </title>
<polygon fill="#fb8072" stroke="#000000" points="869.592,-252 642.408,-252 642.408,-216 869.592,-216 869.592,-252"/>
<text text-anchor="middle" x="756" y="-229.8" font-family="Times,serif" font-size="14.00" fill="#000000">TerraformModuleWizardComponent </text>
</g>
<!-- SharedModule&#45;&gt;TerraformModuleWizardComponent  -->
<g id="edge6" class="edge">
<title>SharedModule&#45;&gt;TerraformModuleWizardComponent </title>
<path fill="none" stroke="#000000" stroke-dasharray="5,2" d="M553.5186,-178C605.0883,-178 678.4318,-178 678.4318,-178 678.4318,-178 678.4318,-205.973 678.4318,-205.973"/>
<polygon fill="#000000" stroke="#000000" points="674.9319,-205.973 678.4318,-215.973 681.9319,-205.973 674.9319,-205.973"/>
</g>
<!-- TerraformModuleWizardVarsDirective  -->
<g id="node8" class="node">
<title>TerraformModuleWizardVarsDirective </title>
<polygon fill="#fb8072" stroke="#000000" points="624.269,-252 383.731,-252 383.731,-216 624.269,-216 624.269,-252"/>
<text text-anchor="middle" x="504" y="-229.8" font-family="Times,serif" font-size="14.00" fill="#000000">TerraformModuleWizardVarsDirective </text>
</g>
<!-- SharedModule&#45;&gt;TerraformModuleWizardVarsDirective  -->
<g id="edge7" class="edge">
<title>SharedModule&#45;&gt;TerraformModuleWizardVarsDirective </title>
<path fill="none" stroke="#000000" stroke-dasharray="5,2" d="M504,-187.1061C504,-187.1061 504,-205.991 504,-205.991"/>
<polygon fill="#000000" stroke="#000000" points="500.5001,-205.9909 504,-215.991 507.5001,-205.991 500.5001,-205.9909"/>
</g>
<!-- TerraformRepresentationComponent  -->
<g id="node9" class="node">
<title>TerraformRepresentationComponent </title>
<polygon fill="#fb8072" stroke="#000000" points="366.3194,-252 139.6806,-252 139.6806,-216 366.3194,-216 366.3194,-252"/>
<text text-anchor="middle" x="253" y="-229.8" font-family="Times,serif" font-size="14.00" fill="#000000">TerraformRepresentationComponent </text>
</g>
<!-- SharedModule&#45;&gt;TerraformRepresentationComponent  -->
<g id="edge8" class="edge">
<title>SharedModule&#45;&gt;TerraformRepresentationComponent </title>
<path fill="none" stroke="#000000" stroke-dasharray="5,2" d="M454.5227,-178C410.8787,-178 354.1636,-178 354.1636,-178 354.1636,-178 354.1636,-205.973 354.1636,-205.973"/>
<polygon fill="#000000" stroke="#000000" points="350.6637,-205.973 354.1636,-215.973 357.6637,-205.973 350.6637,-205.973"/>
</g>
<!-- CommonUiModule -->
<g id="node5" class="node">
<title>CommonUiModule</title>
<polygon fill="#8dd3c7" stroke="#000000" points="467.6652,-122 464.6652,-126 443.6652,-126 440.6652,-122 342.3348,-122 342.3348,-86 467.6652,-86 467.6652,-122"/>
<text text-anchor="middle" x="405" y="-99.8" font-family="Times,serif" font-size="14.00" fill="#000000">CommonUiModule</text>
</g>
<!-- CommonUiModule&#45;&gt;SharedModule -->
<g id="edge4" class="edge">
<title>CommonUiModule&#45;&gt;SharedModule</title>
<path fill="none" stroke="#000000" d="M461.3107,-122.1061C461.3107,-122.1061 461.3107,-140.991 461.3107,-140.991"/>
<polygon fill="#000000" stroke="#000000" points="457.8107,-140.9909 461.3107,-150.991 464.8107,-140.991 457.8107,-140.9909"/>
</g>
<!-- CoreModule -->
<g id="node6" class="node">
<title>CoreModule</title>
<polygon fill="#8dd3c7" stroke="#000000" points="324.2619,-122 321.2619,-126 300.2619,-126 297.2619,-122 237.7381,-122 237.7381,-86 324.2619,-86 324.2619,-122"/>
<text text-anchor="middle" x="281" y="-99.8" font-family="Times,serif" font-size="14.00" fill="#000000">CoreModule</text>
</g>
<!-- CoreModule&#45;&gt;SharedModule -->
<g id="edge5" class="edge">
<title>CoreModule&#45;&gt;SharedModule</title>
<path fill="none" stroke="#000000" d="M281,-122.027C281,-138.3976 281,-160 281,-160 281,-160 444.7856,-160 444.7856,-160"/>
<polygon fill="#000000" stroke="#000000" points="444.7857,-163.5001 454.7856,-160 444.7856,-156.5001 444.7857,-163.5001"/>
</g>
<!-- TerraformWebSocket -->
<g id="node10" class="node">
<title>TerraformWebSocket</title>
<ellipse fill="#fdb462" stroke="#000000" cx="119" cy="-104" rx="95.4443" ry="18"/>
<text text-anchor="middle" x="119" y="-99.8" font-family="Times,serif" font-size="14.00" fill="#000000">TerraformWebSocket</text>
</g>
<!-- TerraformWebSocket&#45;&gt;SharedModule -->
<g id="edge9" class="edge">
<title>TerraformWebSocket&#45;&gt;SharedModule</title>
<path fill="none" stroke="#000000" d="M177.0311,-118.4256C177.0311,-137.5751 177.0311,-169 177.0311,-169 177.0311,-169 444.6954,-169 444.6954,-169"/>
<polygon fill="#000000" stroke="#000000" points="444.6955,-172.5001 454.6954,-169 444.6954,-165.5001 444.6955,-172.5001"/>
</g>
</g>
</svg>
