<?xml version="1.0" encoding="UTF-8" standalone="no"?>
<!DOCTYPE svg PUBLIC "-//W3C//DTD SVG 1.1//EN"
 "http://www.w3.org/Graphics/SVG/1.1/DTD/svg11.dtd">
<!-- Generated by graphviz version 2.47.3 (20210619.1520)
 -->
<!-- Title: dependencies Pages: 1 -->
<svg width="1217pt" height="247pt"
 viewBox="0.00 0.00 1217.00 246.80" xmlns="http://www.w3.org/2000/svg" xmlns:xlink="http://www.w3.org/1999/xlink">
<g id="graph0" class="graph" transform="scale(1 1) rotate(0) translate(4 242.8)">
<title>dependencies</title>
<polygon fill="white" stroke="transparent" points="-4,4 -4,-242.8 1213,-242.8 1213,4 -4,4"/>
<text text-anchor="middle" x="604.5" y="-8.2" font-family="sans-serif" font-size="14.00">dependencies</text>
<g id="clust1" class="cluster">
<title>cluster_SharedModule</title>
<polygon fill="none" stroke="black" stroke-dasharray="1,5" points="8,-32.8 8,-230.8 1201,-230.8 1201,-32.8 8,-32.8"/>
</g>
<g id="clust7" class="cluster">
<title>cluster_SharedModule_exports</title>
<polygon fill="none" stroke="black" points="141,-170.8 141,-222.8 887,-222.8 887,-170.8 141,-170.8"/>
</g>
<g id="clust9" class="cluster">
<title>cluster_SharedModule_providers</title>
<polygon fill="none" stroke="black" points="1013,-40.8 1013,-92.8 1193,-92.8 1193,-40.8 1013,-40.8"/>
</g>
<g id="clust2" class="cluster">
<title>cluster_SharedModule_declarations</title>
<polygon fill="none" stroke="black" points="270,-40.8 270,-92.8 1005,-92.8 1005,-40.8 270,-40.8"/>
</g>
<g id="clust6" class="cluster">
<title>cluster_SharedModule_imports</title>
<polygon fill="none" stroke="black" points="16,-40.8 16,-92.8 262,-92.8 262,-40.8 16,-40.8"/>
</g>
<!-- TerraformModuleWizardComponent -->
<g id="node1" class="node">
<title>TerraformModuleWizardComponent</title>
<polygon fill="#ffffb3" stroke="black" points="996.59,-84.8 773.41,-84.8 773.41,-48.8 996.59,-48.8 996.59,-84.8"/>
<text text-anchor="middle" x="885" y="-62.6" font-family="Times,serif" font-size="14.00">TerraformModuleWizardComponent</text>
</g>
<!-- SharedModule -->
<g id="node4" class="node">
<title>SharedModule</title>
<polygon fill="#8dd3c7" stroke="black" points="562.42,-149.8 559.42,-153.8 538.42,-153.8 535.42,-149.8 463.58,-149.8 463.58,-113.8 562.42,-113.8 562.42,-149.8"/>
<text text-anchor="middle" x="513" y="-127.6" font-family="Times,serif" font-size="14.00">SharedModule</text>
</g>
<!-- TerraformModuleWizardComponent&#45;&gt;SharedModule -->
<g id="edge1" class="edge">
<title>TerraformModuleWizardComponent&#45;&gt;SharedModule</title>
<path fill="none" stroke="black" d="M825.88,-84.83C825.88,-101.2 825.88,-122.8 825.88,-122.8 825.88,-122.8 572.23,-122.8 572.23,-122.8"/>
<polygon fill="black" stroke="black" points="572.23,-119.3 562.23,-122.8 572.23,-126.3 572.23,-119.3"/>
</g>
<!-- TerraformModuleWizardVarsDirective -->
<g id="node2" class="node">
<title>TerraformModuleWizardVarsDirective</title>
<polygon fill="#ffffb3" stroke="black" points="755.27,-84.8 518.73,-84.8 518.73,-48.8 755.27,-48.8 755.27,-84.8"/>
<text text-anchor="middle" x="637" y="-62.6" font-family="Times,serif" font-size="14.00">TerraformModuleWizardVarsDirective</text>
</g>
<!-- TerraformModuleWizardVarsDirective&#45;&gt;SharedModule -->
<g id="edge2" class="edge">
<title>TerraformModuleWizardVarsDirective&#45;&gt;SharedModule</title>
<path fill="none" stroke="black" d="M540.41,-84.91C540.41,-84.91 540.41,-103.79 540.41,-103.79"/>
<polygon fill="black" stroke="black" points="536.91,-103.79 540.41,-113.79 543.91,-103.79 536.91,-103.79"/>
</g>
<!-- TerraformRepresentationComponent -->
<g id="node3" class="node">
<title>TerraformRepresentationComponent</title>
<polygon fill="#ffffb3" stroke="black" points="500.32,-84.8 277.68,-84.8 277.68,-48.8 500.32,-48.8 500.32,-84.8"/>
<text text-anchor="middle" x="389" y="-62.6" font-family="Times,serif" font-size="14.00">TerraformRepresentationComponent</text>
</g>
<!-- TerraformRepresentationComponent&#45;&gt;SharedModule -->
<g id="edge3" class="edge">
<title>TerraformRepresentationComponent&#45;&gt;SharedModule</title>
<path fill="none" stroke="black" d="M482.1,-84.91C482.1,-84.91 482.1,-103.79 482.1,-103.79"/>
<polygon fill="black" stroke="black" points="478.6,-103.79 482.1,-113.79 485.6,-103.79 478.6,-103.79"/>
</g>
<!-- TerraformModuleWizardComponent  -->
<g id="node7" class="node">
<title>TerraformModuleWizardComponent </title>
<polygon fill="#fb8072" stroke="black" points="878.59,-214.8 651.41,-214.8 651.41,-178.8 878.59,-178.8 878.59,-214.8"/>
<text text-anchor="middle" x="765" y="-192.6" font-family="Times,serif" font-size="14.00">TerraformModuleWizardComponent </text>
</g>
<!-- SharedModule&#45;&gt;TerraformModuleWizardComponent  -->
<g id="edge6" class="edge">
<title>SharedModule&#45;&gt;TerraformModuleWizardComponent </title>
<path fill="none" stroke="black" stroke-dasharray="5,2" d="M562.53,-140.8C618.95,-140.8 703.42,-140.8 703.42,-140.8 703.42,-140.8 703.42,-168.77 703.42,-168.77"/>
<polygon fill="black" stroke="black" points="699.92,-168.77 703.42,-178.77 706.92,-168.77 699.92,-168.77"/>
</g>
<!-- TerraformModuleWizardVarsDirective  -->
<g id="node8" class="node">
<title>TerraformModuleWizardVarsDirective </title>
<polygon fill="#fb8072" stroke="black" points="633.27,-214.8 392.73,-214.8 392.73,-178.8 633.27,-178.8 633.27,-214.8"/>
<text text-anchor="middle" x="513" y="-192.6" font-family="Times,serif" font-size="14.00">TerraformModuleWizardVarsDirective </text>
</g>
<!-- SharedModule&#45;&gt;TerraformModuleWizardVarsDirective  -->
<g id="edge7" class="edge">
<title>SharedModule&#45;&gt;TerraformModuleWizardVarsDirective </title>
<path fill="none" stroke="black" stroke-dasharray="5,2" d="M513,-149.91C513,-149.91 513,-168.79 513,-168.79"/>
<polygon fill="black" stroke="black" points="509.5,-168.79 513,-178.79 516.5,-168.79 509.5,-168.79"/>
</g>
<!-- TerraformRepresentationComponent  -->
<g id="node9" class="node">
<title>TerraformRepresentationComponent </title>
<polygon fill="#fb8072" stroke="black" points="375.32,-214.8 148.68,-214.8 148.68,-178.8 375.32,-178.8 375.32,-214.8"/>
<text text-anchor="middle" x="262" y="-192.6" font-family="Times,serif" font-size="14.00">TerraformRepresentationComponent </text>
</g>
<!-- SharedModule&#45;&gt;TerraformRepresentationComponent  -->
<g id="edge8" class="edge">
<title>SharedModule&#45;&gt;TerraformRepresentationComponent </title>
<path fill="none" stroke="black" stroke-dasharray="5,2" d="M463.48,-140.8C408.19,-140.8 326.38,-140.8 326.38,-140.8 326.38,-140.8 326.38,-168.77 326.38,-168.77"/>
<polygon fill="black" stroke="black" points="322.88,-168.77 326.38,-178.77 329.88,-168.77 322.88,-168.77"/>
</g>
<!-- CommonUiModule -->
<g id="node5" class="node">
<title>CommonUiModule</title>
<polygon fill="#8dd3c7" stroke="black" points="253.67,-84.8 250.67,-88.8 229.67,-88.8 226.67,-84.8 128.33,-84.8 128.33,-48.8 253.67,-48.8 253.67,-84.8"/>
<text text-anchor="middle" x="191" y="-62.6" font-family="Times,serif" font-size="14.00">CommonUiModule</text>
</g>
<!-- CommonUiModule&#45;&gt;SharedModule -->
<g id="edge4" class="edge">
<title>CommonUiModule&#45;&gt;SharedModule</title>
<path fill="none" stroke="black" d="M201.34,-84.83C201.34,-101.2 201.34,-122.8 201.34,-122.8 201.34,-122.8 453.62,-122.8 453.62,-122.8"/>
<polygon fill="black" stroke="black" points="453.62,-126.3 463.62,-122.8 453.62,-119.3 453.62,-126.3"/>
</g>
<!-- CoreModule -->
<g id="node6" class="node">
<title>CoreModule</title>
<polygon fill="#8dd3c7" stroke="black" points="110.26,-84.8 107.26,-88.8 86.26,-88.8 83.26,-84.8 23.74,-84.8 23.74,-48.8 110.26,-48.8 110.26,-84.8"/>
<text text-anchor="middle" x="67" y="-62.6" font-family="Times,serif" font-size="14.00">CoreModule</text>
</g>
<!-- CoreModule&#45;&gt;SharedModule -->
<g id="edge5" class="edge">
<title>CoreModule&#45;&gt;SharedModule</title>
<path fill="none" stroke="black" d="M67,-84.91C67,-104.14 67,-131.8 67,-131.8 67,-131.8 453.57,-131.8 453.57,-131.8"/>
<polygon fill="black" stroke="black" points="453.57,-135.3 463.57,-131.8 453.57,-128.3 453.57,-135.3"/>
</g>
<!-- SharedWebSocket -->
<g id="node10" class="node">
<title>SharedWebSocket</title>
<ellipse fill="#fdb462" stroke="black" cx="1103" cy="-66.8" rx="82.23" ry="18"/>
<text text-anchor="middle" x="1103" y="-62.6" font-family="Times,serif" font-size="14.00">SharedWebSocket</text>
</g>
<!-- SharedWebSocket&#45;&gt;SharedModule -->
<g id="edge9" class="edge">
<title>SharedWebSocket&#45;&gt;SharedModule</title>
<path fill="none" stroke="black" d="M1103,-84.91C1103,-104.14 1103,-131.8 1103,-131.8 1103,-131.8 572.29,-131.8 572.29,-131.8"/>
<polygon fill="black" stroke="black" points="572.29,-128.3 562.29,-131.8 572.29,-135.3 572.29,-128.3"/>
</g>
</g>
</svg>
