<?xml version="1.0" encoding="UTF-8" standalone="no"?>
<!DOCTYPE svg PUBLIC "-//W3C//DTD SVG 1.1//EN"
 "http://www.w3.org/Graphics/SVG/1.1/DTD/svg11.dtd">
<!-- Generated by graphviz version 2.47.3 (20210619.1520)
 -->
<!-- Title: dependencies Pages: 1 -->
<svg width="759pt" height="174pt"
 viewBox="0.00 0.00 759.00 173.80" xmlns="http://www.w3.org/2000/svg" xmlns:xlink="http://www.w3.org/1999/xlink">
<g id="graph0" class="graph" transform="scale(1 1) rotate(0) translate(4 169.8)">
<title>dependencies</title>
<polygon fill="white" stroke="transparent" points="-4,4 -4,-169.8 755,-169.8 755,4 -4,4"/>
<text text-anchor="middle" x="375.5" y="-8.2" font-family="sans-serif" font-size="14.00">dependencies</text>
<g id="clust1" class="cluster">
<title>cluster_KubernetesModule</title>
<polygon fill="none" stroke="black" stroke-dasharray="1,5" points="8,-32.8 8,-157.8 743,-157.8 743,-32.8 8,-32.8"/>
</g>
<g id="clust4" class="cluster">
<title>cluster_KubernetesModule_imports</title>
<polygon fill="none" stroke="black" points="186,-40.8 186,-92.8 735,-92.8 735,-40.8 186,-40.8"/>
</g>
<g id="clust2" class="cluster">
<title>cluster_KubernetesModule_declarations</title>
<polygon fill="none" stroke="black" points="16,-40.8 16,-92.8 178,-92.8 178,-40.8 16,-40.8"/>
</g>
<!-- KubernetesComponent -->
<g id="node1" class="node">
<title>KubernetesComponent</title>
<polygon fill="#ffffb3" stroke="black" points="169.58,-84.8 24.42,-84.8 24.42,-48.8 169.58,-48.8 169.58,-84.8"/>
<text text-anchor="middle" x="97" y="-62.6" font-family="Times,serif" font-size="14.00">KubernetesComponent</text>
</g>
<!-- KubernetesModule -->
<g id="node2" class="node">
<title>KubernetesModule</title>
<polygon fill="#8dd3c7" stroke="black" points="455.8,-149.8 452.8,-153.8 431.8,-153.8 428.8,-149.8 332.2,-149.8 332.2,-113.8 455.8,-113.8 455.8,-149.8"/>
<text text-anchor="middle" x="394" y="-127.6" font-family="Times,serif" font-size="14.00">KubernetesModule</text>
</g>
<!-- KubernetesComponent&#45;&gt;KubernetesModule -->
<g id="edge1" class="edge">
<title>KubernetesComponent&#45;&gt;KubernetesModule</title>
<path fill="none" stroke="black" d="M97,-85.08C97,-106.12 97,-137.8 97,-137.8 97,-137.8 322.1,-137.8 322.1,-137.8"/>
<polygon fill="black" stroke="black" points="322.1,-141.3 332.1,-137.8 322.1,-134.3 322.1,-141.3"/>
</g>
<!-- CommonUiModule -->
<g id="node3" class="node">
<title>CommonUiModule</title>
<polygon fill="#8dd3c7" stroke="black" points="726.67,-84.8 723.67,-88.8 702.67,-88.8 699.67,-84.8 601.33,-84.8 601.33,-48.8 726.67,-48.8 726.67,-84.8"/>
<text text-anchor="middle" x="664" y="-62.6" font-family="Times,serif" font-size="14.00">CommonUiModule</text>
</g>
<!-- CommonUiModule&#45;&gt;KubernetesModule -->
<g id="edge2" class="edge">
<title>CommonUiModule&#45;&gt;KubernetesModule</title>
<path fill="none" stroke="black" d="M664,-85.08C664,-106.12 664,-137.8 664,-137.8 664,-137.8 465.94,-137.8 465.94,-137.8"/>
<polygon fill="black" stroke="black" points="465.94,-134.3 455.94,-137.8 465.94,-141.3 465.94,-134.3"/>
</g>
<!-- CoreModule -->
<g id="node4" class="node">
<title>CoreModule</title>
<polygon fill="#8dd3c7" stroke="black" points="583.26,-84.8 580.26,-88.8 559.26,-88.8 556.26,-84.8 496.74,-84.8 496.74,-48.8 583.26,-48.8 583.26,-84.8"/>
<text text-anchor="middle" x="540" y="-62.6" font-family="Times,serif" font-size="14.00">CoreModule</text>
</g>
<!-- CoreModule&#45;&gt;KubernetesModule -->
<g id="edge3" class="edge">
<title>CoreModule&#45;&gt;KubernetesModule</title>
<path fill="none" stroke="black" d="M540,-84.82C540,-102.17 540,-125.8 540,-125.8 540,-125.8 465.92,-125.8 465.92,-125.8"/>
<polygon fill="black" stroke="black" points="465.92,-122.3 455.92,-125.8 465.92,-129.3 465.92,-122.3"/>
</g>
<!-- KubernetesRoutingModule -->
<g id="node5" class="node">
<title>KubernetesRoutingModule</title>
<polygon fill="#8dd3c7" stroke="black" points="478.41,-84.8 475.41,-88.8 454.41,-88.8 451.41,-84.8 309.59,-84.8 309.59,-48.8 478.41,-48.8 478.41,-84.8"/>
<text text-anchor="middle" x="394" y="-62.6" font-family="Times,serif" font-size="14.00">KubernetesRoutingModule</text>
</g>
<!-- KubernetesRoutingModule&#45;&gt;KubernetesModule -->
<g id="edge4" class="edge">
<title>KubernetesRoutingModule&#45;&gt;KubernetesModule</title>
<path fill="none" stroke="black" d="M394,-84.91C394,-84.91 394,-103.79 394,-103.79"/>
<polygon fill="black" stroke="black" points="390.5,-103.79 394,-113.79 397.5,-103.79 390.5,-103.79"/>
</g>
<!-- SharedModule -->
<g id="node6" class="node">
<title>SharedModule</title>
<polygon fill="#8dd3c7" stroke="black" points="292.42,-84.8 289.42,-88.8 268.42,-88.8 265.42,-84.8 193.58,-84.8 193.58,-48.8 292.42,-48.8 292.42,-84.8"/>
<text text-anchor="middle" x="243" y="-62.6" font-family="Times,serif" font-size="14.00">SharedModule</text>
</g>
<!-- SharedModule&#45;&gt;KubernetesModule -->
<g id="edge5" class="edge">
<title>SharedModule&#45;&gt;KubernetesModule</title>
<path fill="none" stroke="black" d="M243,-84.82C243,-102.17 243,-125.8 243,-125.8 243,-125.8 322.15,-125.8 322.15,-125.8"/>
<polygon fill="black" stroke="black" points="322.15,-129.3 332.15,-125.8 322.15,-122.3 322.15,-129.3"/>
</g>
</g>
</svg>
