<?xml version="1.0" encoding="UTF-8" standalone="no"?>
<!DOCTYPE svg PUBLIC "-//W3C//DTD SVG 1.1//EN"
 "http://www.w3.org/Graphics/SVG/1.1/DTD/svg11.dtd">
<!-- Generated by graphviz version 2.40.1 (20161225.0304)
 -->
<!-- Title: dependencies Pages: 1 -->
<svg width="759pt" height="211pt"
 viewBox="0.00 0.00 759.00 211.00" xmlns="http://www.w3.org/2000/svg" xmlns:xlink="http://www.w3.org/1999/xlink">
<g id="graph0" class="graph" transform="scale(1 1) rotate(0) translate(4 207)">
<title>dependencies</title>
<polygon fill="#ffffff" stroke="transparent" points="-4,4 -4,-207 755,-207 755,4 -4,4"/>
<text text-anchor="start" x="354.5091" y="-42.4" font-family="sans-serif" font-weight="bold" font-size="14.00" fill="#000000">Legend</text>
<polygon fill="#ffffb3" stroke="transparent" points="141.5,-10 141.5,-30 161.5,-30 161.5,-10 141.5,-10"/>
<text text-anchor="start" x="165.129" y="-15.4" font-family="sans-serif" font-size="14.00" fill="#000000"> &#160;Declarations</text>
<polygon fill="#8dd3c7" stroke="transparent" points="254.5,-10 254.5,-30 274.5,-30 274.5,-10 254.5,-10"/>
<text text-anchor="start" x="278.2251" y="-15.4" font-family="sans-serif" font-size="14.00" fill="#000000"> &#160;Module</text>
<polygon fill="#80b1d3" stroke="transparent" points="340.5,-10 340.5,-30 360.5,-30 360.5,-10 340.5,-10"/>
<text text-anchor="start" x="364.2812" y="-15.4" font-family="sans-serif" font-size="14.00" fill="#000000"> &#160;Bootstrap</text>
<polygon fill="#fdb462" stroke="transparent" points="437.5,-10 437.5,-30 457.5,-30 457.5,-10 437.5,-10"/>
<text text-anchor="start" x="461.1732" y="-15.4" font-family="sans-serif" font-size="14.00" fill="#000000"> &#160;Providers</text>
<polygon fill="#fb8072" stroke="transparent" points="533.5,-10 533.5,-30 553.5,-30 553.5,-10 533.5,-10"/>
<text text-anchor="start" x="557.2258" y="-15.4" font-family="sans-serif" font-size="14.00" fill="#000000"> &#160;Exports</text>
<g id="clust1" class="cluster">
<title>cluster_KubernetesModule</title>
<polygon fill="none" stroke="#000000" stroke-dasharray="1,5" points="8,-70 8,-195 743,-195 743,-70 8,-70"/>
</g>
<g id="clust2" class="cluster">
<title>cluster_KubernetesModule_declarations</title>
<polygon fill="none" stroke="#000000" points="573,-78 573,-130 735,-130 735,-78 573,-78"/>
</g>
<g id="clust4" class="cluster">
<title>cluster_KubernetesModule_imports</title>
<polygon fill="none" stroke="#000000" points="16,-78 16,-130 565,-130 565,-78 16,-78"/>
</g>
<!-- KubernetesComponent -->
<g id="node1" class="node">
<title>KubernetesComponent</title>
<polygon fill="#ffffb3" stroke="#000000" points="726.5786,-122 581.4214,-122 581.4214,-86 726.5786,-86 726.5786,-122"/>
<text text-anchor="middle" x="654" y="-99.8" font-family="Times,serif" font-size="14.00" fill="#000000">KubernetesComponent</text>
</g>
<!-- KubernetesModule -->
<g id="node2" class="node">
<title>KubernetesModule</title>
<polygon fill="#8dd3c7" stroke="#000000" points="431.7964,-187 428.7964,-191 407.7964,-191 404.7964,-187 308.2036,-187 308.2036,-151 431.7964,-151 431.7964,-187"/>
<text text-anchor="middle" x="370" y="-164.8" font-family="Times,serif" font-size="14.00" fill="#000000">KubernetesModule</text>
</g>
<!-- KubernetesComponent&#45;&gt;KubernetesModule -->
<g id="edge1" class="edge">
<title>KubernetesComponent&#45;&gt;KubernetesModule</title>
<path fill="none" stroke="#000000" d="M654,-122.1061C654,-141.3391 654,-169 654,-169 654,-169 441.9741,-169 441.9741,-169"/>
<polygon fill="#000000" stroke="#000000" points="441.9741,-165.5001 431.9741,-169 441.974,-172.5001 441.9741,-165.5001"/>
</g>
<!-- CommonUiModule -->
<g id="node3" class="node">
<title>CommonUiModule</title>
<polygon fill="#8dd3c7" stroke="#000000" points="556.6652,-122 553.6652,-126 532.6652,-126 529.6652,-122 431.3348,-122 431.3348,-86 556.6652,-86 556.6652,-122"/>
<text text-anchor="middle" x="494" y="-99.8" font-family="Times,serif" font-size="14.00" fill="#000000">CommonUiModule</text>
</g>
<!-- CommonUiModule&#45;&gt;KubernetesModule -->
<g id="edge2" class="edge">
<title>CommonUiModule&#45;&gt;KubernetesModule</title>
<path fill="none" stroke="#000000" d="M431.0692,-104C425.7064,-104 422.2742,-104 422.2742,-104 422.2742,-104 422.2742,-140.8939 422.2742,-140.8939"/>
<polygon fill="#000000" stroke="#000000" points="418.7743,-140.8938 422.2742,-150.8939 425.7743,-140.8939 418.7743,-140.8938"/>
</g>
<!-- CoreModule -->
<g id="node4" class="node">
<title>CoreModule</title>
<polygon fill="#8dd3c7" stroke="#000000" points="413.2619,-122 410.2619,-126 389.2619,-126 386.2619,-122 326.7381,-122 326.7381,-86 413.2619,-86 413.2619,-122"/>
<text text-anchor="middle" x="370" y="-99.8" font-family="Times,serif" font-size="14.00" fill="#000000">CoreModule</text>
</g>
<!-- CoreModule&#45;&gt;KubernetesModule -->
<g id="edge3" class="edge">
<title>CoreModule&#45;&gt;KubernetesModule</title>
<path fill="none" stroke="#000000" d="M370,-122.1061C370,-122.1061 370,-140.991 370,-140.991"/>
<polygon fill="#000000" stroke="#000000" points="366.5001,-140.9909 370,-150.991 373.5001,-140.991 366.5001,-140.9909"/>
</g>
<!-- KubernetesRoutingModule -->
<g id="node5" class="node">
<title>KubernetesRoutingModule</title>
<polygon fill="#8dd3c7" stroke="#000000" points="308.4143,-122 305.4143,-126 284.4143,-126 281.4143,-122 139.5857,-122 139.5857,-86 308.4143,-86 308.4143,-122"/>
<text text-anchor="middle" x="224" y="-99.8" font-family="Times,serif" font-size="14.00" fill="#000000">KubernetesRoutingModule</text>
</g>
<!-- KubernetesRoutingModule&#45;&gt;KubernetesModule -->
<g id="edge4" class="edge">
<title>KubernetesRoutingModule&#45;&gt;KubernetesModule</title>
<path fill="none" stroke="#000000" d="M308.5218,-104C314.0606,-104 317.4856,-104 317.4856,-104 317.4856,-104 317.4856,-140.8939 317.4856,-140.8939"/>
<polygon fill="#000000" stroke="#000000" points="313.9857,-140.8938 317.4856,-150.8939 320.9857,-140.8939 313.9857,-140.8938"/>
</g>
<!-- SharedModule -->
<g id="node6" class="node">
<title>SharedModule</title>
<polygon fill="#8dd3c7" stroke="#000000" points="122.4231,-122 119.4231,-126 98.4231,-126 95.4231,-122 23.5769,-122 23.5769,-86 122.4231,-86 122.4231,-122"/>
<text text-anchor="middle" x="73" y="-99.8" font-family="Times,serif" font-size="14.00" fill="#000000">SharedModule</text>
</g>
<!-- SharedModule&#45;&gt;KubernetesModule -->
<g id="edge5" class="edge">
<title>SharedModule&#45;&gt;KubernetesModule</title>
<path fill="none" stroke="#000000" d="M73,-122.1061C73,-141.3391 73,-169 73,-169 73,-169 298.1006,-169 298.1006,-169"/>
<polygon fill="#000000" stroke="#000000" points="298.1006,-172.5001 308.1006,-169 298.1006,-165.5001 298.1006,-172.5001"/>
</g>
</g>
</svg>
