<?xml version="1.0" encoding="UTF-8" standalone="no"?>
<!DOCTYPE svg PUBLIC "-//W3C//DTD SVG 1.1//EN"
 "http://www.w3.org/Graphics/SVG/1.1/DTD/svg11.dtd">
<!-- Generated by graphviz version 2.47.3 (20210619.1520)
 -->
<!-- Title: dependencies Pages: 1 -->
<svg width="204pt" height="174pt"
 viewBox="0.00 0.00 204.00 173.80" xmlns="http://www.w3.org/2000/svg" xmlns:xlink="http://www.w3.org/1999/xlink">
<g id="graph0" class="graph" transform="scale(1 1) rotate(0) translate(4 169.8)">
<title>dependencies</title>
<polygon fill="white" stroke="transparent" points="-4,4 -4,-169.8 200,-169.8 200,4 -4,4"/>
<text text-anchor="middle" x="98" y="-8.2" font-family="sans-serif" font-size="14.00">dependencies</text>
<g id="clust1" class="cluster">
<title>cluster_AnsibleModule</title>
<polygon fill="none" stroke="black" stroke-dasharray="1,5" points="8,-32.8 8,-157.8 188,-157.8 188,-32.8 8,-32.8"/>
</g>
<g id="clust3" class="cluster">
<title>cluster_AnsibleModule_imports</title>
<polygon fill="none" stroke="black" points="16,-40.8 16,-92.8 180,-92.8 180,-40.8 16,-40.8"/>
</g>
<!-- AnsibleRoutingModule -->
<g id="node1" class="node">
<title>AnsibleRoutingModule</title>
<polygon fill="#8dd3c7" stroke="black" points="172.21,-84.8 169.21,-88.8 148.21,-88.8 145.21,-84.8 23.79,-84.8 23.79,-48.8 172.21,-48.8 172.21,-84.8"/>
<text text-anchor="middle" x="98" y="-62.6" font-family="Times,serif" font-size="14.00">AnsibleRoutingModule</text>
</g>
<!-- AnsibleModule -->
<g id="node2" class="node">
<title>AnsibleModule</title>
<polygon fill="#8dd3c7" stroke="black" points="149.6,-149.8 146.6,-153.8 125.6,-153.8 122.6,-149.8 46.4,-149.8 46.4,-113.8 149.6,-113.8 149.6,-149.8"/>
<text text-anchor="middle" x="98" y="-127.6" font-family="Times,serif" font-size="14.00">AnsibleModule</text>
</g>
<!-- AnsibleRoutingModule&#45;&gt;AnsibleModule -->
<g id="edge1" class="edge">
<title>AnsibleRoutingModule&#45;&gt;AnsibleModule</title>
<path fill="none" stroke="black" d="M98,-84.91C98,-84.91 98,-103.79 98,-103.79"/>
<polygon fill="black" stroke="black" points="94.5,-103.79 98,-113.79 101.5,-103.79 94.5,-103.79"/>
</g>
</g>
</svg>
