<?xml version="1.0" encoding="UTF-8" standalone="no"?>
<!DOCTYPE svg PUBLIC "-//W3C//DTD SVG 1.1//EN"
 "http://www.w3.org/Graphics/SVG/1.1/DTD/svg11.dtd">
<!-- Generated by graphviz version 2.47.3 (20210619.1520)
 -->
<!-- Title: dependencies Pages: 1 -->
<svg width="894pt" height="247pt"
 viewBox="0.00 0.00 894.00 246.80" xmlns="http://www.w3.org/2000/svg" xmlns:xlink="http://www.w3.org/1999/xlink">
<g id="graph0" class="graph" transform="scale(1 1) rotate(0) translate(4 242.8)">
<title>dependencies</title>
<polygon fill="white" stroke="transparent" points="-4,4 -4,-242.8 890,-242.8 890,4 -4,4"/>
<text text-anchor="middle" x="443" y="-8.2" font-family="sans-serif" font-size="14.00">dependencies</text>
<g id="clust1" class="cluster">
<title>cluster_InstancesModule</title>
<polygon fill="none" stroke="black" stroke-dasharray="1,5" points="8,-32.8 8,-230.8 878,-230.8 878,-32.8 8,-32.8"/>
</g>
<g id="clust3" class="cluster">
<title>cluster_InstancesModule_imports</title>
<polygon fill="none" stroke="black" points="192,-40.8 192,-92.8 870,-92.8 870,-40.8 192,-40.8"/>
</g>
<g id="clust4" class="cluster">
<title>cluster_InstancesModule_exports</title>
<polygon fill="none" stroke="black" points="417,-170.8 417,-222.8 547,-222.8 547,-170.8 417,-170.8"/>
</g>
<g id="clust6" class="cluster">
<title>cluster_InstancesModule_providers</title>
<polygon fill="none" stroke="black" points="16,-40.8 16,-92.8 184,-92.8 184,-40.8 16,-40.8"/>
</g>
<!-- CloudproviderModule -->
<g id="node1" class="node">
<title>CloudproviderModule</title>
<polygon fill="#8dd3c7" stroke="black" points="861.7,-84.8 858.7,-88.8 837.7,-88.8 834.7,-84.8 720.3,-84.8 720.3,-48.8 861.7,-48.8 861.7,-84.8"/>
<text text-anchor="middle" x="791" y="-62.6" font-family="Times,serif" font-size="14.00">CloudproviderModule</text>
</g>
<!-- InstancesModule -->
<g id="node6" class="node">
<title>InstancesModule</title>
<polygon fill="#8dd3c7" stroke="black" points="537.63,-149.8 534.63,-153.8 513.63,-153.8 510.63,-149.8 426.37,-149.8 426.37,-113.8 537.63,-113.8 537.63,-149.8"/>
<text text-anchor="middle" x="482" y="-127.6" font-family="Times,serif" font-size="14.00">InstancesModule</text>
</g>
<!-- CloudproviderModule&#45;&gt;InstancesModule -->
<g id="edge1" class="edge">
<title>CloudproviderModule&#45;&gt;InstancesModule</title>
<path fill="none" stroke="black" d="M791,-85.08C791,-106.12 791,-137.8 791,-137.8 791,-137.8 547.96,-137.8 547.96,-137.8"/>
<polygon fill="black" stroke="black" points="547.96,-134.3 537.96,-137.8 547.96,-141.3 547.96,-134.3"/>
</g>
<!-- ConsulModule -->
<g id="node2" class="node">
<title>ConsulModule</title>
<polygon fill="#8dd3c7" stroke="black" points="702.72,-84.8 699.72,-88.8 678.72,-88.8 675.72,-84.8 603.28,-84.8 603.28,-48.8 702.72,-48.8 702.72,-84.8"/>
<text text-anchor="middle" x="653" y="-62.6" font-family="Times,serif" font-size="14.00">ConsulModule</text>
</g>
<!-- ConsulModule&#45;&gt;InstancesModule -->
<g id="edge2" class="edge">
<title>ConsulModule&#45;&gt;InstancesModule</title>
<path fill="none" stroke="black" d="M653,-84.82C653,-102.17 653,-125.8 653,-125.8 653,-125.8 547.99,-125.8 547.99,-125.8"/>
<polygon fill="black" stroke="black" points="547.99,-122.3 537.99,-125.8 547.99,-129.3 547.99,-122.3"/>
</g>
<!-- CoreModule -->
<g id="node3" class="node">
<title>CoreModule</title>
<polygon fill="#8dd3c7" stroke="black" points="585.26,-84.8 582.26,-88.8 561.26,-88.8 558.26,-84.8 498.74,-84.8 498.74,-48.8 585.26,-48.8 585.26,-84.8"/>
<text text-anchor="middle" x="542" y="-62.6" font-family="Times,serif" font-size="14.00">CoreModule</text>
</g>
<!-- CoreModule&#45;&gt;InstancesModule -->
<g id="edge3" class="edge">
<title>CoreModule&#45;&gt;InstancesModule</title>
<path fill="none" stroke="black" d="M518.22,-84.91C518.22,-84.91 518.22,-103.79 518.22,-103.79"/>
<polygon fill="black" stroke="black" points="514.72,-103.79 518.22,-113.79 521.72,-103.79 514.72,-103.79"/>
</g>
<!-- TerraformModule -->
<g id="node4" class="node">
<title>TerraformModule</title>
<polygon fill="#8dd3c7" stroke="black" points="480.56,-84.8 477.56,-88.8 456.56,-88.8 453.56,-84.8 363.44,-84.8 363.44,-48.8 480.56,-48.8 480.56,-84.8"/>
<text text-anchor="middle" x="422" y="-62.6" font-family="Times,serif" font-size="14.00">TerraformModule</text>
</g>
<!-- TerraformModule&#45;&gt;InstancesModule -->
<g id="edge4" class="edge">
<title>TerraformModule&#45;&gt;InstancesModule</title>
<path fill="none" stroke="black" d="M453.36,-84.91C453.36,-84.91 453.36,-103.79 453.36,-103.79"/>
<polygon fill="black" stroke="black" points="449.86,-103.79 453.36,-113.79 456.86,-103.79 449.86,-103.79"/>
</g>
<!-- TerraformStateModule -->
<g id="node5" class="node">
<title>TerraformStateModule</title>
<polygon fill="#8dd3c7" stroke="black" points="345.56,-84.8 342.56,-88.8 321.56,-88.8 318.56,-84.8 200.44,-84.8 200.44,-48.8 345.56,-48.8 345.56,-84.8"/>
<text text-anchor="middle" x="273" y="-62.6" font-family="Times,serif" font-size="14.00">TerraformStateModule</text>
</g>
<!-- TerraformStateModule&#45;&gt;InstancesModule -->
<g id="edge5" class="edge">
<title>TerraformStateModule&#45;&gt;InstancesModule</title>
<path fill="none" stroke="black" d="M273,-84.82C273,-102.17 273,-125.8 273,-125.8 273,-125.8 416.27,-125.8 416.27,-125.8"/>
<polygon fill="black" stroke="black" points="416.27,-129.3 426.27,-125.8 416.27,-122.3 416.27,-129.3"/>
</g>
<!-- InstancesService  -->
<g id="node7" class="node">
<title>InstancesService </title>
<polygon fill="#fb8072" stroke="black" points="538.56,-214.8 425.44,-214.8 425.44,-178.8 538.56,-178.8 538.56,-214.8"/>
<text text-anchor="middle" x="482" y="-192.6" font-family="Times,serif" font-size="14.00">InstancesService </text>
</g>
<!-- InstancesModule&#45;&gt;InstancesService  -->
<g id="edge6" class="edge">
<title>InstancesModule&#45;&gt;InstancesService </title>
<path fill="none" stroke="black" stroke-dasharray="5,2" d="M482,-149.91C482,-149.91 482,-168.79 482,-168.79"/>
<polygon fill="black" stroke="black" points="478.5,-168.79 482,-178.79 485.5,-168.79 478.5,-168.79"/>
</g>
<!-- InstancesService -->
<g id="node8" class="node">
<title>InstancesService</title>
<ellipse fill="#fdb462" stroke="black" cx="100" cy="-66.8" rx="75.84" ry="18"/>
<text text-anchor="middle" x="100" y="-62.6" font-family="Times,serif" font-size="14.00">InstancesService</text>
</g>
<!-- InstancesService&#45;&gt;InstancesModule -->
<g id="edge7" class="edge">
<title>InstancesService&#45;&gt;InstancesModule</title>
<path fill="none" stroke="black" d="M100,-85.08C100,-106.12 100,-137.8 100,-137.8 100,-137.8 416.04,-137.8 416.04,-137.8"/>
<polygon fill="black" stroke="black" points="416.04,-141.3 426.04,-137.8 416.04,-134.3 416.04,-141.3"/>
</g>
</g>
</svg>
