<?xml version="1.0" encoding="UTF-8" standalone="no"?>
<!DOCTYPE svg PUBLIC "-//W3C//DTD SVG 1.1//EN"
 "http://www.w3.org/Graphics/SVG/1.1/DTD/svg11.dtd">
<!-- Generated by graphviz version 2.47.3 (20210619.1520)
 -->
<!-- Title: dependencies Pages: 1 -->
<svg width="304pt" height="247pt"
 viewBox="0.00 0.00 304.00 246.80" xmlns="http://www.w3.org/2000/svg" xmlns:xlink="http://www.w3.org/1999/xlink">
<g id="graph0" class="graph" transform="scale(1 1) rotate(0) translate(4 242.8)">
<title>dependencies</title>
<polygon fill="white" stroke="transparent" points="-4,4 -4,-242.8 300,-242.8 300,4 -4,4"/>
<text text-anchor="middle" x="148" y="-8.2" font-family="sans-serif" font-size="14.00">dependencies</text>
<g id="clust1" class="cluster">
<title>cluster_FlavorsModule</title>
<polygon fill="none" stroke="black" stroke-dasharray="1,5" points="8,-32.8 8,-230.8 288,-230.8 288,-32.8 8,-32.8"/>
</g>
<g id="clust4" class="cluster">
<title>cluster_FlavorsModule_exports</title>
<polygon fill="none" stroke="black" points="96,-170.8 96,-222.8 216,-222.8 216,-170.8 96,-170.8"/>
</g>
<g id="clust3" class="cluster">
<title>cluster_FlavorsModule_imports</title>
<polygon fill="none" stroke="black" points="178,-40.8 178,-92.8 280,-92.8 280,-40.8 178,-40.8"/>
</g>
<g id="clust6" class="cluster">
<title>cluster_FlavorsModule_providers</title>
<polygon fill="none" stroke="black" points="16,-40.8 16,-92.8 170,-92.8 170,-40.8 16,-40.8"/>
</g>
<!-- CoreModule -->
<g id="node1" class="node">
<title>CoreModule</title>
<polygon fill="#8dd3c7" stroke="black" points="272.26,-84.8 269.26,-88.8 248.26,-88.8 245.26,-84.8 185.74,-84.8 185.74,-48.8 272.26,-48.8 272.26,-84.8"/>
<text text-anchor="middle" x="229" y="-62.6" font-family="Times,serif" font-size="14.00">CoreModule</text>
</g>
<!-- FlavorsModule -->
<g id="node2" class="node">
<title>FlavorsModule</title>
<polygon fill="#8dd3c7" stroke="black" points="206.54,-149.8 203.54,-153.8 182.54,-153.8 179.54,-149.8 105.46,-149.8 105.46,-113.8 206.54,-113.8 206.54,-149.8"/>
<text text-anchor="middle" x="156" y="-127.6" font-family="Times,serif" font-size="14.00">FlavorsModule</text>
</g>
<!-- CoreModule&#45;&gt;FlavorsModule -->
<g id="edge1" class="edge">
<title>CoreModule&#45;&gt;FlavorsModule</title>
<path fill="none" stroke="black" d="M196.2,-84.91C196.2,-84.91 196.2,-103.79 196.2,-103.79"/>
<polygon fill="black" stroke="black" points="192.7,-103.79 196.2,-113.79 199.7,-103.79 192.7,-103.79"/>
</g>
<!-- FlavorsService  -->
<g id="node3" class="node">
<title>FlavorsService </title>
<polygon fill="#fb8072" stroke="black" points="207.97,-214.8 104.03,-214.8 104.03,-178.8 207.97,-178.8 207.97,-214.8"/>
<text text-anchor="middle" x="156" y="-192.6" font-family="Times,serif" font-size="14.00">FlavorsService </text>
</g>
<!-- FlavorsModule&#45;&gt;FlavorsService  -->
<g id="edge2" class="edge">
<title>FlavorsModule&#45;&gt;FlavorsService </title>
<path fill="none" stroke="black" stroke-dasharray="5,2" d="M156,-149.91C156,-149.91 156,-168.79 156,-168.79"/>
<polygon fill="black" stroke="black" points="152.5,-168.79 156,-178.79 159.5,-168.79 152.5,-168.79"/>
</g>
<!-- FlavorsService -->
<g id="node4" class="node">
<title>FlavorsService</title>
<ellipse fill="#fdb462" stroke="black" cx="93" cy="-66.8" rx="68.92" ry="18"/>
<text text-anchor="middle" x="93" y="-62.6" font-family="Times,serif" font-size="14.00">FlavorsService</text>
</g>
<!-- FlavorsService&#45;&gt;FlavorsModule -->
<g id="edge3" class="edge">
<title>FlavorsService&#45;&gt;FlavorsModule</title>
<path fill="none" stroke="black" d="M133.59,-81.55C133.59,-81.55 133.59,-103.39 133.59,-103.39"/>
<polygon fill="black" stroke="black" points="130.09,-103.39 133.59,-113.39 137.09,-103.39 130.09,-103.39"/>
</g>
</g>
</svg>
