<?xml version="1.0" encoding="UTF-8" standalone="no"?>
<!DOCTYPE svg PUBLIC "-//W3C//DTD SVG 1.1//EN"
 "http://www.w3.org/Graphics/SVG/1.1/DTD/svg11.dtd">
<!-- Generated by graphviz version 2.40.1 (20161225.0304)
 -->
<!-- Title: dependencies Pages: 1 -->
<svg width="504pt" height="284pt"
 viewBox="0.00 0.00 504.00 284.00" xmlns="http://www.w3.org/2000/svg" xmlns:xlink="http://www.w3.org/1999/xlink">
<g id="graph0" class="graph" transform="scale(1 1) rotate(0) translate(4 280)">
<title>dependencies</title>
<polygon fill="#ffffff" stroke="transparent" points="-4,4 -4,-280 500,-280 500,4 -4,4"/>
<text text-anchor="start" x="227.0091" y="-42.4" font-family="sans-serif" font-weight="bold" font-size="14.00" fill="#000000">Legend</text>
<polygon fill="#ffffb3" stroke="transparent" points="14,-10 14,-30 34,-30 34,-10 14,-10"/>
<text text-anchor="start" x="37.629" y="-15.4" font-family="sans-serif" font-size="14.00" fill="#000000"> &#160;Declarations</text>
<polygon fill="#8dd3c7" stroke="transparent" points="127,-10 127,-30 147,-30 147,-10 127,-10"/>
<text text-anchor="start" x="150.7251" y="-15.4" font-family="sans-serif" font-size="14.00" fill="#000000"> &#160;Module</text>
<polygon fill="#80b1d3" stroke="transparent" points="213,-10 213,-30 233,-30 233,-10 213,-10"/>
<text text-anchor="start" x="236.7812" y="-15.4" font-family="sans-serif" font-size="14.00" fill="#000000"> &#160;Bootstrap</text>
<polygon fill="#fdb462" stroke="transparent" points="310,-10 310,-30 330,-30 330,-10 310,-10"/>
<text text-anchor="start" x="333.6732" y="-15.4" font-family="sans-serif" font-size="14.00" fill="#000000"> &#160;Providers</text>
<polygon fill="#fb8072" stroke="transparent" points="406,-10 406,-30 426,-30 426,-10 406,-10"/>
<text text-anchor="start" x="429.7258" y="-15.4" font-family="sans-serif" font-size="14.00" fill="#000000"> &#160;Exports</text>
<g id="clust1" class="cluster">
<title>cluster_FlavorsModule</title>
<polygon fill="none" stroke="#000000" stroke-dasharray="1,5" points="108,-70 108,-268 388,-268 388,-70 108,-70"/>
</g>
<g id="clust3" class="cluster">
<title>cluster_FlavorsModule_imports</title>
<polygon fill="none" stroke="#000000" points="278,-78 278,-130 380,-130 380,-78 278,-78"/>
</g>
<g id="clust4" class="cluster">
<title>cluster_FlavorsModule_exports</title>
<polygon fill="none" stroke="#000000" points="196,-208 196,-260 316,-260 316,-208 196,-208"/>
</g>
<g id="clust6" class="cluster">
<title>cluster_FlavorsModule_providers</title>
<polygon fill="none" stroke="#000000" points="116,-78 116,-130 270,-130 270,-78 116,-78"/>
</g>
<!-- CoreModule -->
<g id="node1" class="node">
<title>CoreModule</title>
<polygon fill="#8dd3c7" stroke="#000000" points="372.2619,-122 369.2619,-126 348.2619,-126 345.2619,-122 285.7381,-122 285.7381,-86 372.2619,-86 372.2619,-122"/>
<text text-anchor="middle" x="329" y="-99.8" font-family="Times,serif" font-size="14.00" fill="#000000">CoreModule</text>
</g>
<!-- FlavorsModule -->
<g id="node2" class="node">
<title>FlavorsModule</title>
<polygon fill="#8dd3c7" stroke="#000000" points="306.5438,-187 303.5438,-191 282.5438,-191 279.5438,-187 205.4562,-187 205.4562,-151 306.5438,-151 306.5438,-187"/>
<text text-anchor="middle" x="256" y="-164.8" font-family="Times,serif" font-size="14.00" fill="#000000">FlavorsModule</text>
</g>
<!-- CoreModule&#45;&gt;FlavorsModule -->
<g id="edge1" class="edge">
<title>CoreModule&#45;&gt;FlavorsModule</title>
<path fill="none" stroke="#000000" d="M296.1953,-122.1061C296.1953,-122.1061 296.1953,-140.991 296.1953,-140.991"/>
<polygon fill="#000000" stroke="#000000" points="292.6954,-140.9909 296.1953,-150.991 299.6954,-140.991 292.6954,-140.9909"/>
</g>
<!-- FlavorsService  -->
<g id="node3" class="node">
<title>FlavorsService </title>
<polygon fill="#fb8072" stroke="#000000" points="307.9717,-252 204.0283,-252 204.0283,-216 307.9717,-216 307.9717,-252"/>
<text text-anchor="middle" x="256" y="-229.8" font-family="Times,serif" font-size="14.00" fill="#000000">FlavorsService </text>
</g>
<!-- FlavorsModule&#45;&gt;FlavorsService  -->
<g id="edge2" class="edge">
<title>FlavorsModule&#45;&gt;FlavorsService </title>
<path fill="none" stroke="#000000" stroke-dasharray="5,2" d="M256,-187.1061C256,-187.1061 256,-205.991 256,-205.991"/>
<polygon fill="#000000" stroke="#000000" points="252.5001,-205.9909 256,-215.991 259.5001,-205.991 252.5001,-205.9909"/>
</g>
<!-- FlavorsService -->
<g id="node4" class="node">
<title>FlavorsService</title>
<ellipse fill="#fdb462" stroke="#000000" cx="193" cy="-104" rx="68.9158" ry="18"/>
<text text-anchor="middle" x="193" y="-99.8" font-family="Times,serif" font-size="14.00" fill="#000000">FlavorsService</text>
</g>
<!-- FlavorsService&#45;&gt;FlavorsModule -->
<g id="edge3" class="edge">
<title>FlavorsService&#45;&gt;FlavorsModule</title>
<path fill="none" stroke="#000000" d="M233.5932,-118.7495C233.5932,-118.7495 233.5932,-140.5882 233.5932,-140.5882"/>
<polygon fill="#000000" stroke="#000000" points="230.0933,-140.5881 233.5932,-150.5882 237.0933,-140.5882 230.0933,-140.5881"/>
</g>
</g>
</svg>
