<?xml version="1.0" encoding="UTF-8" standalone="no"?>
<!DOCTYPE svg PUBLIC "-//W3C//DTD SVG 1.1//EN"
 "http://www.w3.org/Graphics/SVG/1.1/DTD/svg11.dtd">
<!-- Generated by graphviz version 2.40.1 (20161225.0304)
 -->
<!-- Title: dependencies Pages: 1 -->
<svg width="550pt" height="284pt"
 viewBox="0.00 0.00 550.00 284.00" xmlns="http://www.w3.org/2000/svg" xmlns:xlink="http://www.w3.org/1999/xlink">
<g id="graph0" class="graph" transform="scale(1 1) rotate(0) translate(4 280)">
<title>dependencies</title>
<polygon fill="#ffffff" stroke="transparent" points="-4,4 -4,-280 546,-280 546,4 -4,4"/>
<text text-anchor="start" x="250.0091" y="-42.4" font-family="sans-serif" font-weight="bold" font-size="14.00" fill="#000000">Legend</text>
<polygon fill="#ffffb3" stroke="transparent" points="37,-10 37,-30 57,-30 57,-10 37,-10"/>
<text text-anchor="start" x="60.629" y="-15.4" font-family="sans-serif" font-size="14.00" fill="#000000"> &#160;Declarations</text>
<polygon fill="#8dd3c7" stroke="transparent" points="150,-10 150,-30 170,-30 170,-10 150,-10"/>
<text text-anchor="start" x="173.7251" y="-15.4" font-family="sans-serif" font-size="14.00" fill="#000000"> &#160;Module</text>
<polygon fill="#80b1d3" stroke="transparent" points="236,-10 236,-30 256,-30 256,-10 236,-10"/>
<text text-anchor="start" x="259.7812" y="-15.4" font-family="sans-serif" font-size="14.00" fill="#000000"> &#160;Bootstrap</text>
<polygon fill="#fdb462" stroke="transparent" points="333,-10 333,-30 353,-30 353,-10 333,-10"/>
<text text-anchor="start" x="356.6732" y="-15.4" font-family="sans-serif" font-size="14.00" fill="#000000"> &#160;Providers</text>
<polygon fill="#fb8072" stroke="transparent" points="429,-10 429,-30 449,-30 449,-10 429,-10"/>
<text text-anchor="start" x="452.7258" y="-15.4" font-family="sans-serif" font-size="14.00" fill="#000000"> &#160;Exports</text>
<g id="clust1" class="cluster">
<title>cluster_TerraformStateModule</title>
<polygon fill="none" stroke="#000000" stroke-dasharray="1,5" points="8,-70 8,-268 534,-268 534,-70 8,-70"/>
</g>
<g id="clust3" class="cluster">
<title>cluster_TerraformStateModule_imports</title>
<polygon fill="none" stroke="#000000" points="424,-78 424,-130 526,-130 526,-78 424,-78"/>
</g>
<g id="clust4" class="cluster">
<title>cluster_TerraformStateModule_exports</title>
<polygon fill="none" stroke="#000000" points="243,-208 243,-260 405,-260 405,-208 243,-208"/>
</g>
<g id="clust6" class="cluster">
<title>cluster_TerraformStateModule_providers</title>
<polygon fill="none" stroke="#000000" points="16,-78 16,-130 416,-130 416,-78 16,-78"/>
</g>
<!-- CoreModule -->
<g id="node1" class="node">
<title>CoreModule</title>
<polygon fill="#8dd3c7" stroke="#000000" points="518.2619,-122 515.2619,-126 494.2619,-126 491.2619,-122 431.7381,-122 431.7381,-86 518.2619,-86 518.2619,-122"/>
<text text-anchor="middle" x="475" y="-99.8" font-family="Times,serif" font-size="14.00" fill="#000000">CoreModule</text>
</g>
<!-- TerraformStateModule -->
<g id="node2" class="node">
<title>TerraformStateModule</title>
<polygon fill="#8dd3c7" stroke="#000000" points="396.5576,-187 393.5576,-191 372.5576,-191 369.5576,-187 251.4424,-187 251.4424,-151 396.5576,-151 396.5576,-187"/>
<text text-anchor="middle" x="324" y="-164.8" font-family="Times,serif" font-size="14.00" fill="#000000">TerraformStateModule</text>
</g>
<!-- CoreModule&#45;&gt;TerraformStateModule -->
<g id="edge1" class="edge">
<title>CoreModule&#45;&gt;TerraformStateModule</title>
<path fill="none" stroke="#000000" d="M475,-122.1061C475,-141.3391 475,-169 475,-169 475,-169 406.8462,-169 406.8462,-169"/>
<polygon fill="#000000" stroke="#000000" points="406.8462,-165.5001 396.8462,-169 406.8462,-172.5001 406.8462,-165.5001"/>
</g>
<!-- TerraformStateService  -->
<g id="node3" class="node">
<title>TerraformStateService </title>
<polygon fill="#fb8072" stroke="#000000" points="397.4854,-252 250.5146,-252 250.5146,-216 397.4854,-216 397.4854,-252"/>
<text text-anchor="middle" x="324" y="-229.8" font-family="Times,serif" font-size="14.00" fill="#000000">TerraformStateService </text>
</g>
<!-- TerraformStateModule&#45;&gt;TerraformStateService  -->
<g id="edge2" class="edge">
<title>TerraformStateModule&#45;&gt;TerraformStateService </title>
<path fill="none" stroke="#000000" stroke-dasharray="5,2" d="M324,-187.1061C324,-187.1061 324,-205.991 324,-205.991"/>
<polygon fill="#000000" stroke="#000000" points="320.5001,-205.9909 324,-215.991 327.5001,-205.991 320.5001,-205.9909"/>
</g>
<!-- BasicAuthStrategy -->
<g id="node4" class="node">
<title>BasicAuthStrategy</title>
<ellipse fill="#fdb462" stroke="#000000" cx="324" cy="-104" rx="83.9643" ry="18"/>
<text text-anchor="middle" x="324" y="-99.8" font-family="Times,serif" font-size="14.00" fill="#000000">BasicAuthStrategy</text>
</g>
<!-- BasicAuthStrategy&#45;&gt;TerraformStateModule -->
<g id="edge3" class="edge">
<title>BasicAuthStrategy&#45;&gt;TerraformStateModule</title>
<path fill="none" stroke="#000000" d="M324,-122.1061C324,-122.1061 324,-140.991 324,-140.991"/>
<polygon fill="#000000" stroke="#000000" points="320.5001,-140.9909 324,-150.991 327.5001,-140.991 320.5001,-140.9909"/>
</g>
<!-- TerraformStateService -->
<g id="node5" class="node">
<title>TerraformStateService</title>
<ellipse fill="#fdb462" stroke="#000000" cx="123" cy="-104" rx="98.9472" ry="18"/>
<text text-anchor="middle" x="123" y="-99.8" font-family="Times,serif" font-size="14.00" fill="#000000">TerraformStateService</text>
</g>
<!-- TerraformStateService&#45;&gt;TerraformStateModule -->
<g id="edge4" class="edge">
<title>TerraformStateService&#45;&gt;TerraformStateModule</title>
<path fill="none" stroke="#000000" d="M123,-122.1061C123,-141.3391 123,-169 123,-169 123,-169 241.4344,-169 241.4344,-169"/>
<polygon fill="#000000" stroke="#000000" points="241.4344,-172.5001 251.4344,-169 241.4344,-165.5001 241.4344,-172.5001"/>
</g>
</g>
</svg>
