<?xml version="1.0" encoding="UTF-8" standalone="no"?>
<!DOCTYPE svg PUBLIC "-//W3C//DTD SVG 1.1//EN"
 "http://www.w3.org/Graphics/SVG/1.1/DTD/svg11.dtd">
<!-- Generated by graphviz version 2.47.3 (20210619.1520)
 -->
<!-- Title: dependencies Pages: 1 -->
<svg width="550pt" height="247pt"
 viewBox="0.00 0.00 550.00 246.80" xmlns="http://www.w3.org/2000/svg" xmlns:xlink="http://www.w3.org/1999/xlink">
<g id="graph0" class="graph" transform="scale(1 1) rotate(0) translate(4 242.8)">
<title>dependencies</title>
<polygon fill="white" stroke="transparent" points="-4,4 -4,-242.8 546,-242.8 546,4 -4,4"/>
<text text-anchor="middle" x="271" y="-8.2" font-family="sans-serif" font-size="14.00">dependencies</text>
<g id="clust1" class="cluster">
<title>cluster_TerraformStateModule</title>
<polygon fill="none" stroke="black" stroke-dasharray="1,5" points="8,-32.8 8,-230.8 534,-230.8 534,-32.8 8,-32.8"/>
</g>
<g id="clust3" class="cluster">
<title>cluster_TerraformStateModule_imports</title>
<polygon fill="none" stroke="black" points="424,-40.8 424,-92.8 526,-92.8 526,-40.8 424,-40.8"/>
</g>
<g id="clust4" class="cluster">
<title>cluster_TerraformStateModule_exports</title>
<polygon fill="none" stroke="black" points="243,-170.8 243,-222.8 405,-222.8 405,-170.8 243,-170.8"/>
</g>
<g id="clust6" class="cluster">
<title>cluster_TerraformStateModule_providers</title>
<polygon fill="none" stroke="black" points="16,-40.8 16,-92.8 416,-92.8 416,-40.8 16,-40.8"/>
</g>
<!-- CoreModule -->
<g id="node1" class="node">
<title>CoreModule</title>
<polygon fill="#8dd3c7" stroke="black" points="518.26,-84.8 515.26,-88.8 494.26,-88.8 491.26,-84.8 431.74,-84.8 431.74,-48.8 518.26,-48.8 518.26,-84.8"/>
<text text-anchor="middle" x="475" y="-62.6" font-family="Times,serif" font-size="14.00">CoreModule</text>
</g>
<!-- TerraformStateModule -->
<g id="node2" class="node">
<title>TerraformStateModule</title>
<polygon fill="#8dd3c7" stroke="black" points="396.56,-149.8 393.56,-153.8 372.56,-153.8 369.56,-149.8 251.44,-149.8 251.44,-113.8 396.56,-113.8 396.56,-149.8"/>
<text text-anchor="middle" x="324" y="-127.6" font-family="Times,serif" font-size="14.00">TerraformStateModule</text>
</g>
<!-- CoreModule&#45;&gt;TerraformStateModule -->
<g id="edge1" class="edge">
<title>CoreModule&#45;&gt;TerraformStateModule</title>
<path fill="none" stroke="black" d="M475,-84.91C475,-104.14 475,-131.8 475,-131.8 475,-131.8 406.85,-131.8 406.85,-131.8"/>
<polygon fill="black" stroke="black" points="406.85,-128.3 396.85,-131.8 406.85,-135.3 406.85,-128.3"/>
</g>
<!-- TerraformStateService  -->
<g id="node3" class="node">
<title>TerraformStateService </title>
<polygon fill="#fb8072" stroke="black" points="397.49,-214.8 250.51,-214.8 250.51,-178.8 397.49,-178.8 397.49,-214.8"/>
<text text-anchor="middle" x="324" y="-192.6" font-family="Times,serif" font-size="14.00">TerraformStateService </text>
</g>
<!-- TerraformStateModule&#45;&gt;TerraformStateService  -->
<g id="edge2" class="edge">
<title>TerraformStateModule&#45;&gt;TerraformStateService </title>
<path fill="none" stroke="black" stroke-dasharray="5,2" d="M324,-149.91C324,-149.91 324,-168.79 324,-168.79"/>
<polygon fill="black" stroke="black" points="320.5,-168.79 324,-178.79 327.5,-168.79 320.5,-168.79"/>
</g>
<!-- BasicAuthStrategy -->
<g id="node4" class="node">
<title>BasicAuthStrategy</title>
<ellipse fill="#fdb462" stroke="black" cx="324" cy="-66.8" rx="83.96" ry="18"/>
<text text-anchor="middle" x="324" y="-62.6" font-family="Times,serif" font-size="14.00">BasicAuthStrategy</text>
</g>
<!-- BasicAuthStrategy&#45;&gt;TerraformStateModule -->
<g id="edge3" class="edge">
<title>BasicAuthStrategy&#45;&gt;TerraformStateModule</title>
<path fill="none" stroke="black" d="M324,-84.91C324,-84.91 324,-103.79 324,-103.79"/>
<polygon fill="black" stroke="black" points="320.5,-103.79 324,-113.79 327.5,-103.79 320.5,-103.79"/>
</g>
<!-- TerraformStateService -->
<g id="node5" class="node">
<title>TerraformStateService</title>
<ellipse fill="#fdb462" stroke="black" cx="123" cy="-66.8" rx="98.95" ry="18"/>
<text text-anchor="middle" x="123" y="-62.6" font-family="Times,serif" font-size="14.00">TerraformStateService</text>
</g>
<!-- TerraformStateService&#45;&gt;TerraformStateModule -->
<g id="edge4" class="edge">
<title>TerraformStateService&#45;&gt;TerraformStateModule</title>
<path fill="none" stroke="black" d="M123,-84.91C123,-104.14 123,-131.8 123,-131.8 123,-131.8 241.43,-131.8 241.43,-131.8"/>
<polygon fill="black" stroke="black" points="241.43,-135.3 251.43,-131.8 241.43,-128.3 241.43,-135.3"/>
</g>
</g>
</svg>
