<?xml version="1.0" encoding="UTF-8" standalone="no"?>
<!DOCTYPE svg PUBLIC "-//W3C//DTD SVG 1.1//EN"
 "http://www.w3.org/Graphics/SVG/1.1/DTD/svg11.dtd">
<!-- Generated by graphviz version 2.40.1 (20161225.0304)
 -->
<!-- Title: dependencies Pages: 1 -->
<svg width="904pt" height="284pt"
 viewBox="0.00 0.00 904.00 284.00" xmlns="http://www.w3.org/2000/svg" xmlns:xlink="http://www.w3.org/1999/xlink">
<g id="graph0" class="graph" transform="scale(1 1) rotate(0) translate(4 280)">
<title>dependencies</title>
<polygon fill="#ffffff" stroke="transparent" points="-4,4 -4,-280 900,-280 900,4 -4,4"/>
<text text-anchor="start" x="427.0091" y="-42.4" font-family="sans-serif" font-weight="bold" font-size="14.00" fill="#000000">Legend</text>
<polygon fill="#ffffb3" stroke="transparent" points="214,-10 214,-30 234,-30 234,-10 214,-10"/>
<text text-anchor="start" x="237.629" y="-15.4" font-family="sans-serif" font-size="14.00" fill="#000000"> &#160;Declarations</text>
<polygon fill="#8dd3c7" stroke="transparent" points="327,-10 327,-30 347,-30 347,-10 327,-10"/>
<text text-anchor="start" x="350.7251" y="-15.4" font-family="sans-serif" font-size="14.00" fill="#000000"> &#160;Module</text>
<polygon fill="#80b1d3" stroke="transparent" points="413,-10 413,-30 433,-30 433,-10 413,-10"/>
<text text-anchor="start" x="436.7812" y="-15.4" font-family="sans-serif" font-size="14.00" fill="#000000"> &#160;Bootstrap</text>
<polygon fill="#fdb462" stroke="transparent" points="510,-10 510,-30 530,-30 530,-10 510,-10"/>
<text text-anchor="start" x="533.6732" y="-15.4" font-family="sans-serif" font-size="14.00" fill="#000000"> &#160;Providers</text>
<polygon fill="#fb8072" stroke="transparent" points="606,-10 606,-30 626,-30 626,-10 606,-10"/>
<text text-anchor="start" x="629.7258" y="-15.4" font-family="sans-serif" font-size="14.00" fill="#000000"> &#160;Exports</text>
<g id="clust1" class="cluster">
<title>cluster_RabbitmqModule</title>
<polygon fill="none" stroke="#000000" stroke-dasharray="1,5" points="8,-70 8,-268 888,-268 888,-70 8,-70"/>
</g>
<g id="clust3" class="cluster">
<title>cluster_RabbitmqModule_imports</title>
<polygon fill="none" stroke="#000000" points="202,-78 202,-130 880,-130 880,-78 202,-78"/>
</g>
<g id="clust4" class="cluster">
<title>cluster_RabbitmqModule_exports</title>
<polygon fill="none" stroke="#000000" points="423,-208 423,-260 561,-260 561,-208 423,-208"/>
</g>
<g id="clust6" class="cluster">
<title>cluster_RabbitmqModule_providers</title>
<polygon fill="none" stroke="#000000" points="16,-78 16,-130 194,-130 194,-78 16,-78"/>
</g>
<!-- CloudproviderModule -->
<g id="node1" class="node">
<title>CloudproviderModule</title>
<polygon fill="#8dd3c7" stroke="#000000" points="871.7035,-122 868.7035,-126 847.7035,-126 844.7035,-122 730.2965,-122 730.2965,-86 871.7035,-86 871.7035,-122"/>
<text text-anchor="middle" x="801" y="-99.8" font-family="Times,serif" font-size="14.00" fill="#000000">CloudproviderModule</text>
</g>
<!-- RabbitmqModule -->
<g id="node6" class="node">
<title>RabbitmqModule</title>
<polygon fill="#8dd3c7" stroke="#000000" points="549.273,-187 546.273,-191 525.273,-191 522.273,-187 434.727,-187 434.727,-151 549.273,-151 549.273,-187"/>
<text text-anchor="middle" x="492" y="-164.8" font-family="Times,serif" font-size="14.00" fill="#000000">RabbitmqModule</text>
</g>
<!-- CloudproviderModule&#45;&gt;RabbitmqModule -->
<g id="edge1" class="edge">
<title>CloudproviderModule&#45;&gt;RabbitmqModule</title>
<path fill="none" stroke="#000000" d="M801,-122.2843C801,-143.3211 801,-175 801,-175 801,-175 559.3964,-175 559.3964,-175"/>
<polygon fill="#000000" stroke="#000000" points="559.3964,-171.5001 549.3964,-175 559.3963,-178.5001 559.3964,-171.5001"/>
</g>
<!-- ConsulModule -->
<g id="node2" class="node">
<title>ConsulModule</title>
<polygon fill="#8dd3c7" stroke="#000000" points="712.7218,-122 709.7218,-126 688.7218,-126 685.7218,-122 613.2782,-122 613.2782,-86 712.7218,-86 712.7218,-122"/>
<text text-anchor="middle" x="663" y="-99.8" font-family="Times,serif" font-size="14.00" fill="#000000">ConsulModule</text>
</g>
<!-- ConsulModule&#45;&gt;RabbitmqModule -->
<g id="edge2" class="edge">
<title>ConsulModule&#45;&gt;RabbitmqModule</title>
<path fill="none" stroke="#000000" d="M663,-122.0225C663,-139.3734 663,-163 663,-163 663,-163 559.4162,-163 559.4162,-163"/>
<polygon fill="#000000" stroke="#000000" points="559.4163,-159.5001 549.4162,-163 559.4162,-166.5001 559.4163,-159.5001"/>
</g>
<!-- CoreModule -->
<g id="node3" class="node">
<title>CoreModule</title>
<polygon fill="#8dd3c7" stroke="#000000" points="595.2619,-122 592.2619,-126 571.2619,-126 568.2619,-122 508.7381,-122 508.7381,-86 595.2619,-86 595.2619,-122"/>
<text text-anchor="middle" x="552" y="-99.8" font-family="Times,serif" font-size="14.00" fill="#000000">CoreModule</text>
</g>
<!-- CoreModule&#45;&gt;RabbitmqModule -->
<g id="edge3" class="edge">
<title>CoreModule&#45;&gt;RabbitmqModule</title>
<path fill="none" stroke="#000000" d="M529.0028,-122.1061C529.0028,-122.1061 529.0028,-140.991 529.0028,-140.991"/>
<polygon fill="#000000" stroke="#000000" points="525.5029,-140.9909 529.0028,-150.991 532.5029,-140.991 525.5029,-140.9909"/>
</g>
<!-- TerraformModule -->
<g id="node4" class="node">
<title>TerraformModule</title>
<polygon fill="#8dd3c7" stroke="#000000" points="490.5646,-122 487.5646,-126 466.5646,-126 463.5646,-122 373.4354,-122 373.4354,-86 490.5646,-86 490.5646,-122"/>
<text text-anchor="middle" x="432" y="-99.8" font-family="Times,serif" font-size="14.00" fill="#000000">TerraformModule</text>
</g>
<!-- TerraformModule&#45;&gt;RabbitmqModule -->
<g id="edge4" class="edge">
<title>TerraformModule&#45;&gt;RabbitmqModule</title>
<path fill="none" stroke="#000000" d="M462.573,-122.1061C462.573,-122.1061 462.573,-140.991 462.573,-140.991"/>
<polygon fill="#000000" stroke="#000000" points="459.073,-140.9909 462.573,-150.991 466.073,-140.991 459.073,-140.9909"/>
</g>
<!-- TerraformStateModule -->
<g id="node5" class="node">
<title>TerraformStateModule</title>
<polygon fill="#8dd3c7" stroke="#000000" points="355.5576,-122 352.5576,-126 331.5576,-126 328.5576,-122 210.4424,-122 210.4424,-86 355.5576,-86 355.5576,-122"/>
<text text-anchor="middle" x="283" y="-99.8" font-family="Times,serif" font-size="14.00" fill="#000000">TerraformStateModule</text>
</g>
<!-- TerraformStateModule&#45;&gt;RabbitmqModule -->
<g id="edge5" class="edge">
<title>TerraformStateModule&#45;&gt;RabbitmqModule</title>
<path fill="none" stroke="#000000" d="M283,-122.0225C283,-139.3734 283,-163 283,-163 283,-163 424.6134,-163 424.6134,-163"/>
<polygon fill="#000000" stroke="#000000" points="424.6134,-166.5001 434.6134,-163 424.6134,-159.5001 424.6134,-166.5001"/>
</g>
<!-- RabbitMQService  -->
<g id="node7" class="node">
<title>RabbitMQService </title>
<polygon fill="#fb8072" stroke="#000000" points="552.8617,-252 431.1383,-252 431.1383,-216 552.8617,-216 552.8617,-252"/>
<text text-anchor="middle" x="492" y="-229.8" font-family="Times,serif" font-size="14.00" fill="#000000">RabbitMQService </text>
</g>
<!-- RabbitmqModule&#45;&gt;RabbitMQService  -->
<g id="edge6" class="edge">
<title>RabbitmqModule&#45;&gt;RabbitMQService </title>
<path fill="none" stroke="#000000" stroke-dasharray="5,2" d="M492,-187.1061C492,-187.1061 492,-205.991 492,-205.991"/>
<polygon fill="#000000" stroke="#000000" points="488.5001,-205.9909 492,-215.991 495.5001,-205.991 488.5001,-205.9909"/>
</g>
<!-- RabbitMQService -->
<g id="node8" class="node">
<title>RabbitMQService</title>
<ellipse fill="#fdb462" stroke="#000000" cx="105" cy="-104" rx="81.0975" ry="18"/>
<text text-anchor="middle" x="105" y="-99.8" font-family="Times,serif" font-size="14.00" fill="#000000">RabbitMQService</text>
</g>
<!-- RabbitMQService&#45;&gt;RabbitmqModule -->
<g id="edge7" class="edge">
<title>RabbitMQService&#45;&gt;RabbitmqModule</title>
<path fill="none" stroke="#000000" d="M105,-122.2843C105,-143.3211 105,-175 105,-175 105,-175 424.4801,-175 424.4801,-175"/>
<polygon fill="#000000" stroke="#000000" points="424.4801,-178.5001 434.4801,-175 424.48,-171.5001 424.4801,-178.5001"/>
</g>
</g>
</svg>
