<?xml version="1.0" encoding="UTF-8" standalone="no"?>
<!DOCTYPE svg PUBLIC "-//W3C//DTD SVG 1.1//EN"
 "http://www.w3.org/Graphics/SVG/1.1/DTD/svg11.dtd">
<!-- Generated by graphviz version 2.47.3 (20210619.1520)
 -->
<!-- Title: dependencies Pages: 1 -->
<svg width="904pt" height="247pt"
 viewBox="0.00 0.00 904.00 246.80" xmlns="http://www.w3.org/2000/svg" xmlns:xlink="http://www.w3.org/1999/xlink">
<g id="graph0" class="graph" transform="scale(1 1) rotate(0) translate(4 242.8)">
<title>dependencies</title>
<polygon fill="white" stroke="transparent" points="-4,4 -4,-242.8 900,-242.8 900,4 -4,4"/>
<text text-anchor="middle" x="448" y="-8.2" font-family="sans-serif" font-size="14.00">dependencies</text>
<g id="clust1" class="cluster">
<title>cluster_RabbitmqModule</title>
<polygon fill="none" stroke="black" stroke-dasharray="1,5" points="8,-32.8 8,-230.8 888,-230.8 888,-32.8 8,-32.8"/>
</g>
<g id="clust6" class="cluster">
<title>cluster_RabbitmqModule_providers</title>
<polygon fill="none" stroke="black" points="702,-40.8 702,-92.8 880,-92.8 880,-40.8 702,-40.8"/>
</g>
<g id="clust4" class="cluster">
<title>cluster_RabbitmqModule_exports</title>
<polygon fill="none" stroke="black" points="352,-170.8 352,-222.8 490,-222.8 490,-170.8 352,-170.8"/>
</g>
<g id="clust3" class="cluster">
<title>cluster_RabbitmqModule_imports</title>
<polygon fill="none" stroke="black" points="16,-40.8 16,-92.8 694,-92.8 694,-40.8 16,-40.8"/>
</g>
<!-- CloudproviderModule -->
<g id="node1" class="node">
<title>CloudproviderModule</title>
<polygon fill="#8dd3c7" stroke="black" points="685.7,-84.8 682.7,-88.8 661.7,-88.8 658.7,-84.8 544.3,-84.8 544.3,-48.8 685.7,-48.8 685.7,-84.8"/>
<text text-anchor="middle" x="615" y="-62.6" font-family="Times,serif" font-size="14.00">CloudproviderModule</text>
</g>
<!-- RabbitmqModule -->
<g id="node6" class="node">
<title>RabbitmqModule</title>
<polygon fill="#8dd3c7" stroke="black" points="478.27,-149.8 475.27,-153.8 454.27,-153.8 451.27,-149.8 363.73,-149.8 363.73,-113.8 478.27,-113.8 478.27,-149.8"/>
<text text-anchor="middle" x="421" y="-127.6" font-family="Times,serif" font-size="14.00">RabbitmqModule</text>
</g>
<!-- CloudproviderModule&#45;&gt;RabbitmqModule -->
<g id="edge1" class="edge">
<title>CloudproviderModule&#45;&gt;RabbitmqModule</title>
<path fill="none" stroke="black" d="M615,-84.82C615,-102.17 615,-125.8 615,-125.8 615,-125.8 488.42,-125.8 488.42,-125.8"/>
<polygon fill="black" stroke="black" points="488.42,-122.3 478.42,-125.8 488.42,-129.3 488.42,-122.3"/>
</g>
<!-- ConsulModule -->
<g id="node2" class="node">
<title>ConsulModule</title>
<polygon fill="#8dd3c7" stroke="black" points="526.72,-84.8 523.72,-88.8 502.72,-88.8 499.72,-84.8 427.28,-84.8 427.28,-48.8 526.72,-48.8 526.72,-84.8"/>
<text text-anchor="middle" x="477" y="-62.6" font-family="Times,serif" font-size="14.00">ConsulModule</text>
</g>
<!-- ConsulModule&#45;&gt;RabbitmqModule -->
<g id="edge2" class="edge">
<title>ConsulModule&#45;&gt;RabbitmqModule</title>
<path fill="none" stroke="black" d="M452.89,-84.91C452.89,-84.91 452.89,-103.79 452.89,-103.79"/>
<polygon fill="black" stroke="black" points="449.39,-103.79 452.89,-113.79 456.39,-103.79 449.39,-103.79"/>
</g>
<!-- CoreModule -->
<g id="node3" class="node">
<title>CoreModule</title>
<polygon fill="#8dd3c7" stroke="black" points="409.26,-84.8 406.26,-88.8 385.26,-88.8 382.26,-84.8 322.74,-84.8 322.74,-48.8 409.26,-48.8 409.26,-84.8"/>
<text text-anchor="middle" x="366" y="-62.6" font-family="Times,serif" font-size="14.00">CoreModule</text>
</g>
<!-- CoreModule&#45;&gt;RabbitmqModule -->
<g id="edge3" class="edge">
<title>CoreModule&#45;&gt;RabbitmqModule</title>
<path fill="none" stroke="black" d="M386.5,-84.91C386.5,-84.91 386.5,-103.79 386.5,-103.79"/>
<polygon fill="black" stroke="black" points="383,-103.79 386.5,-113.79 390,-103.79 383,-103.79"/>
</g>
<!-- TerraformModule -->
<g id="node4" class="node">
<title>TerraformModule</title>
<polygon fill="#8dd3c7" stroke="black" points="304.56,-84.8 301.56,-88.8 280.56,-88.8 277.56,-84.8 187.44,-84.8 187.44,-48.8 304.56,-48.8 304.56,-84.8"/>
<text text-anchor="middle" x="246" y="-62.6" font-family="Times,serif" font-size="14.00">TerraformModule</text>
</g>
<!-- TerraformModule&#45;&gt;RabbitmqModule -->
<g id="edge4" class="edge">
<title>TerraformModule&#45;&gt;RabbitmqModule</title>
<path fill="none" stroke="black" d="M246,-84.82C246,-102.17 246,-125.8 246,-125.8 246,-125.8 353.7,-125.8 353.7,-125.8"/>
<polygon fill="black" stroke="black" points="353.7,-129.3 363.7,-125.8 353.7,-122.3 353.7,-129.3"/>
</g>
<!-- TerraformStateModule -->
<g id="node5" class="node">
<title>TerraformStateModule</title>
<polygon fill="#8dd3c7" stroke="black" points="169.56,-84.8 166.56,-88.8 145.56,-88.8 142.56,-84.8 24.44,-84.8 24.44,-48.8 169.56,-48.8 169.56,-84.8"/>
<text text-anchor="middle" x="97" y="-62.6" font-family="Times,serif" font-size="14.00">TerraformStateModule</text>
</g>
<!-- TerraformStateModule&#45;&gt;RabbitmqModule -->
<g id="edge5" class="edge">
<title>TerraformStateModule&#45;&gt;RabbitmqModule</title>
<path fill="none" stroke="black" d="M97,-85.08C97,-106.12 97,-137.8 97,-137.8 97,-137.8 353.45,-137.8 353.45,-137.8"/>
<polygon fill="black" stroke="black" points="353.45,-141.3 363.45,-137.8 353.45,-134.3 353.45,-141.3"/>
</g>
<!-- RabbitMQService  -->
<g id="node7" class="node">
<title>RabbitMQService </title>
<polygon fill="#fb8072" stroke="black" points="481.86,-214.8 360.14,-214.8 360.14,-178.8 481.86,-178.8 481.86,-214.8"/>
<text text-anchor="middle" x="421" y="-192.6" font-family="Times,serif" font-size="14.00">RabbitMQService </text>
</g>
<!-- RabbitmqModule&#45;&gt;RabbitMQService  -->
<g id="edge6" class="edge">
<title>RabbitmqModule&#45;&gt;RabbitMQService </title>
<path fill="none" stroke="black" stroke-dasharray="5,2" d="M421,-149.91C421,-149.91 421,-168.79 421,-168.79"/>
<polygon fill="black" stroke="black" points="417.5,-168.79 421,-178.79 424.5,-168.79 417.5,-168.79"/>
</g>
<!-- RabbitMQService -->
<g id="node8" class="node">
<title>RabbitMQService</title>
<ellipse fill="#fdb462" stroke="black" cx="791" cy="-66.8" rx="81.1" ry="18"/>
<text text-anchor="middle" x="791" y="-62.6" font-family="Times,serif" font-size="14.00">RabbitMQService</text>
</g>
<!-- RabbitMQService&#45;&gt;RabbitmqModule -->
<g id="edge7" class="edge">
<title>RabbitMQService&#45;&gt;RabbitmqModule</title>
<path fill="none" stroke="black" d="M791,-85.08C791,-106.12 791,-137.8 791,-137.8 791,-137.8 488.41,-137.8 488.41,-137.8"/>
<polygon fill="black" stroke="black" points="488.41,-134.3 478.41,-137.8 488.41,-141.3 488.41,-134.3"/>
</g>
</g>
</svg>
