<?xml version="1.0" encoding="UTF-8" standalone="no"?>
<!DOCTYPE svg PUBLIC "-//W3C//DTD SVG 1.1//EN"
 "http://www.w3.org/Graphics/SVG/1.1/DTD/svg11.dtd">
<!-- Generated by graphviz version 2.47.3 (20210619.1520)
 -->
<!-- Title: dependencies Pages: 1 -->
<svg width="1354pt" height="174pt"
 viewBox="0.00 0.00 1354.00 173.80" xmlns="http://www.w3.org/2000/svg" xmlns:xlink="http://www.w3.org/1999/xlink">
<g id="graph0" class="graph" transform="scale(1 1) rotate(0) translate(4 169.8)">
<title>dependencies</title>
<polygon fill="white" stroke="transparent" points="-4,4 -4,-169.8 1350,-169.8 1350,4 -4,4"/>
<text text-anchor="middle" x="673" y="-8.2" font-family="sans-serif" font-size="14.00">dependencies</text>
<g id="clust1" class="cluster">
<title>cluster_PostgresqlModule</title>
<polygon fill="none" stroke="black" stroke-dasharray="1,5" points="8,-32.8 8,-157.8 1338,-157.8 1338,-32.8 8,-32.8"/>
</g>
<g id="clust7" class="cluster">
<title>cluster_PostgresqlModule_imports</title>
<polygon fill="none" stroke="black" points="786,-40.8 786,-92.8 1330,-92.8 1330,-40.8 786,-40.8"/>
</g>
<g id="clust2" class="cluster">
<title>cluster_PostgresqlModule_declarations</title>
<polygon fill="none" stroke="black" points="16,-40.8 16,-92.8 778,-92.8 778,-40.8 16,-40.8"/>
</g>
<!-- PostgresqlComponent -->
<g id="node1" class="node">
<title>PostgresqlComponent</title>
<polygon fill="#ffffb3" stroke="black" points="769.66,-84.8 630.34,-84.8 630.34,-48.8 769.66,-48.8 769.66,-84.8"/>
<text text-anchor="middle" x="700" y="-62.6" font-family="Times,serif" font-size="14.00">PostgresqlComponent</text>
</g>
<!-- PostgresqlModule -->
<g id="node5" class="node">
<title>PostgresqlModule</title>
<polygon fill="#8dd3c7" stroke="black" points="829.88,-149.8 826.88,-153.8 805.88,-153.8 802.88,-149.8 712.12,-149.8 712.12,-113.8 829.88,-113.8 829.88,-149.8"/>
<text text-anchor="middle" x="771" y="-127.6" font-family="Times,serif" font-size="14.00">PostgresqlModule</text>
</g>
<!-- PostgresqlComponent&#45;&gt;PostgresqlModule -->
<g id="edge1" class="edge">
<title>PostgresqlComponent&#45;&gt;PostgresqlModule</title>
<path fill="none" stroke="black" d="M740.95,-84.91C740.95,-84.91 740.95,-103.79 740.95,-103.79"/>
<polygon fill="black" stroke="black" points="737.45,-103.79 740.95,-113.79 744.45,-103.79 737.45,-103.79"/>
</g>
<!-- PostgresqlStatusComponent -->
<g id="node2" class="node">
<title>PostgresqlStatusComponent</title>
<polygon fill="#ffffb3" stroke="black" points="611.88,-84.8 438.12,-84.8 438.12,-48.8 611.88,-48.8 611.88,-84.8"/>
<text text-anchor="middle" x="525" y="-62.6" font-family="Times,serif" font-size="14.00">PostgresqlStatusComponent</text>
</g>
<!-- PostgresqlStatusComponent&#45;&gt;PostgresqlModule -->
<g id="edge2" class="edge">
<title>PostgresqlStatusComponent&#45;&gt;PostgresqlModule</title>
<path fill="none" stroke="black" d="M525,-84.83C525,-101.2 525,-122.8 525,-122.8 525,-122.8 702.08,-122.8 702.08,-122.8"/>
<polygon fill="black" stroke="black" points="702.08,-126.3 712.08,-122.8 702.08,-119.3 702.08,-126.3"/>
</g>
<!-- PostgresqlViewComponent -->
<g id="node3" class="node">
<title>PostgresqlViewComponent</title>
<polygon fill="#ffffb3" stroke="black" points="419.98,-84.8 250.02,-84.8 250.02,-48.8 419.98,-48.8 419.98,-84.8"/>
<text text-anchor="middle" x="335" y="-62.6" font-family="Times,serif" font-size="14.00">PostgresqlViewComponent</text>
</g>
<!-- PostgresqlViewComponent&#45;&gt;PostgresqlModule -->
<g id="edge3" class="edge">
<title>PostgresqlViewComponent&#45;&gt;PostgresqlModule</title>
<path fill="none" stroke="black" d="M335,-84.91C335,-104.14 335,-131.8 335,-131.8 335,-131.8 701.75,-131.8 701.75,-131.8"/>
<polygon fill="black" stroke="black" points="701.75,-135.3 711.75,-131.8 701.75,-128.3 701.75,-135.3"/>
</g>
<!-- PostgresqlWizardVarsComponent -->
<g id="node4" class="node">
<title>PostgresqlWizardVarsComponent</title>
<polygon fill="#ffffb3" stroke="black" points="231.78,-84.8 24.22,-84.8 24.22,-48.8 231.78,-48.8 231.78,-84.8"/>
<text text-anchor="middle" x="128" y="-62.6" font-family="Times,serif" font-size="14.00">PostgresqlWizardVarsComponent</text>
</g>
<!-- PostgresqlWizardVarsComponent&#45;&gt;PostgresqlModule -->
<g id="edge4" class="edge">
<title>PostgresqlWizardVarsComponent&#45;&gt;PostgresqlModule</title>
<path fill="none" stroke="black" d="M128,-85.09C128,-107.01 128,-140.8 128,-140.8 128,-140.8 701.95,-140.8 701.95,-140.8"/>
<polygon fill="black" stroke="black" points="701.95,-144.3 711.95,-140.8 701.95,-137.3 701.95,-144.3"/>
</g>
<!-- CommonUiModule -->
<g id="node6" class="node">
<title>CommonUiModule</title>
<polygon fill="#8dd3c7" stroke="black" points="1321.67,-84.8 1318.67,-88.8 1297.67,-88.8 1294.67,-84.8 1196.33,-84.8 1196.33,-48.8 1321.67,-48.8 1321.67,-84.8"/>
<text text-anchor="middle" x="1259" y="-62.6" font-family="Times,serif" font-size="14.00">CommonUiModule</text>
</g>
<!-- CommonUiModule&#45;&gt;PostgresqlModule -->
<g id="edge5" class="edge">
<title>CommonUiModule&#45;&gt;PostgresqlModule</title>
<path fill="none" stroke="black" d="M1259,-85.09C1259,-107.01 1259,-140.8 1259,-140.8 1259,-140.8 840.35,-140.8 840.35,-140.8"/>
<polygon fill="black" stroke="black" points="840.35,-137.3 830.35,-140.8 840.35,-144.3 840.35,-137.3"/>
</g>
<!-- CoreModule -->
<g id="node7" class="node">
<title>CoreModule</title>
<polygon fill="#8dd3c7" stroke="black" points="1178.26,-84.8 1175.26,-88.8 1154.26,-88.8 1151.26,-84.8 1091.74,-84.8 1091.74,-48.8 1178.26,-48.8 1178.26,-84.8"/>
<text text-anchor="middle" x="1135" y="-62.6" font-family="Times,serif" font-size="14.00">CoreModule</text>
</g>
<!-- CoreModule&#45;&gt;PostgresqlModule -->
<g id="edge6" class="edge">
<title>CoreModule&#45;&gt;PostgresqlModule</title>
<path fill="none" stroke="black" d="M1135,-84.91C1135,-104.14 1135,-131.8 1135,-131.8 1135,-131.8 839.89,-131.8 839.89,-131.8"/>
<polygon fill="black" stroke="black" points="839.89,-128.3 829.89,-131.8 839.89,-135.3 839.89,-128.3"/>
</g>
<!-- PostgresqlRoutingModule -->
<g id="node8" class="node">
<title>PostgresqlRoutingModule</title>
<polygon fill="#8dd3c7" stroke="black" points="1073.5,-84.8 1070.5,-88.8 1049.5,-88.8 1046.5,-84.8 910.5,-84.8 910.5,-48.8 1073.5,-48.8 1073.5,-84.8"/>
<text text-anchor="middle" x="992" y="-62.6" font-family="Times,serif" font-size="14.00">PostgresqlRoutingModule</text>
</g>
<!-- PostgresqlRoutingModule&#45;&gt;PostgresqlModule -->
<g id="edge7" class="edge">
<title>PostgresqlRoutingModule&#45;&gt;PostgresqlModule</title>
<path fill="none" stroke="black" d="M992,-84.83C992,-101.2 992,-122.8 992,-122.8 992,-122.8 839.93,-122.8 839.93,-122.8"/>
<polygon fill="black" stroke="black" points="839.93,-119.3 829.93,-122.8 839.93,-126.3 839.93,-119.3"/>
</g>
<!-- SharedModule -->
<g id="node9" class="node">
<title>SharedModule</title>
<polygon fill="#8dd3c7" stroke="black" points="892.42,-84.8 889.42,-88.8 868.42,-88.8 865.42,-84.8 793.58,-84.8 793.58,-48.8 892.42,-48.8 892.42,-84.8"/>
<text text-anchor="middle" x="843" y="-62.6" font-family="Times,serif" font-size="14.00">SharedModule</text>
</g>
<!-- SharedModule&#45;&gt;PostgresqlModule -->
<g id="edge8" class="edge">
<title>SharedModule&#45;&gt;PostgresqlModule</title>
<path fill="none" stroke="black" d="M811.86,-84.91C811.86,-84.91 811.86,-103.79 811.86,-103.79"/>
<polygon fill="black" stroke="black" points="808.36,-103.79 811.86,-113.79 815.36,-103.79 808.36,-103.79"/>
</g>
</g>
</svg>
