<?xml version="1.0" encoding="UTF-8" standalone="no"?>
<!DOCTYPE svg PUBLIC "-//W3C//DTD SVG 1.1//EN"
 "http://www.w3.org/Graphics/SVG/1.1/DTD/svg11.dtd">
<!-- Generated by graphviz version 2.47.3 (20210619.1520)
 -->
<!-- Title: dependencies Pages: 1 -->
<svg width="393pt" height="174pt"
 viewBox="0.00 0.00 393.00 173.80" xmlns="http://www.w3.org/2000/svg" xmlns:xlink="http://www.w3.org/1999/xlink">
<g id="graph0" class="graph" transform="scale(1 1) rotate(0) translate(4 169.8)">
<title>dependencies</title>
<polygon fill="white" stroke="transparent" points="-4,4 -4,-169.8 389,-169.8 389,4 -4,4"/>
<text text-anchor="middle" x="192.5" y="-8.2" font-family="sans-serif" font-size="14.00">dependencies</text>
<g id="clust1" class="cluster">
<title>cluster_BuildModule</title>
<polygon fill="none" stroke="black" stroke-dasharray="1,5" points="8,-32.8 8,-157.8 377,-157.8 377,-32.8 8,-32.8"/>
</g>
<g id="clust3" class="cluster">
<title>cluster_BuildModule_imports</title>
<polygon fill="none" stroke="black" points="16,-40.8 16,-92.8 369,-92.8 369,-40.8 16,-40.8"/>
</g>
<!-- DroneciModule -->
<g id="node1" class="node">
<title>DroneciModule</title>
<polygon fill="#8dd3c7" stroke="black" points="361.14,-84.8 358.14,-88.8 337.14,-88.8 334.14,-84.8 256.86,-84.8 256.86,-48.8 361.14,-48.8 361.14,-84.8"/>
<text text-anchor="middle" x="309" y="-62.6" font-family="Times,serif" font-size="14.00">DroneciModule</text>
</g>
<!-- BuildModule -->
<g id="node4" class="node">
<title>BuildModule</title>
<polygon fill="#8dd3c7" stroke="black" points="236.17,-149.8 233.17,-153.8 212.17,-153.8 209.17,-149.8 145.83,-149.8 145.83,-113.8 236.17,-113.8 236.17,-149.8"/>
<text text-anchor="middle" x="191" y="-127.6" font-family="Times,serif" font-size="14.00">BuildModule</text>
</g>
<!-- DroneciModule&#45;&gt;BuildModule -->
<g id="edge1" class="edge">
<title>DroneciModule&#45;&gt;BuildModule</title>
<path fill="none" stroke="black" d="M309,-84.91C309,-104.14 309,-131.8 309,-131.8 309,-131.8 246.28,-131.8 246.28,-131.8"/>
<polygon fill="black" stroke="black" points="246.28,-128.3 236.28,-131.8 246.28,-135.3 246.28,-128.3"/>
</g>
<!-- GitlabModule -->
<g id="node2" class="node">
<title>GitlabModule</title>
<polygon fill="#8dd3c7" stroke="black" points="238.04,-84.8 235.04,-88.8 214.04,-88.8 211.04,-84.8 143.96,-84.8 143.96,-48.8 238.04,-48.8 238.04,-84.8"/>
<text text-anchor="middle" x="191" y="-62.6" font-family="Times,serif" font-size="14.00">GitlabModule</text>
</g>
<!-- GitlabModule&#45;&gt;BuildModule -->
<g id="edge2" class="edge">
<title>GitlabModule&#45;&gt;BuildModule</title>
<path fill="none" stroke="black" d="M191,-84.91C191,-84.91 191,-103.79 191,-103.79"/>
<polygon fill="black" stroke="black" points="187.5,-103.79 191,-113.79 194.5,-103.79 187.5,-103.79"/>
</g>
<!-- JenkinsModule -->
<g id="node3" class="node">
<title>JenkinsModule</title>
<polygon fill="#8dd3c7" stroke="black" points="125.55,-84.8 122.55,-88.8 101.55,-88.8 98.55,-84.8 24.45,-84.8 24.45,-48.8 125.55,-48.8 125.55,-84.8"/>
<text text-anchor="middle" x="75" y="-62.6" font-family="Times,serif" font-size="14.00">JenkinsModule</text>
</g>
<!-- JenkinsModule&#45;&gt;BuildModule -->
<g id="edge3" class="edge">
<title>JenkinsModule&#45;&gt;BuildModule</title>
<path fill="none" stroke="black" d="M75,-84.91C75,-104.14 75,-131.8 75,-131.8 75,-131.8 135.82,-131.8 135.82,-131.8"/>
<polygon fill="black" stroke="black" points="135.82,-135.3 145.82,-131.8 135.82,-128.3 135.82,-135.3"/>
</g>
</g>
</svg>
