<?xml version="1.0" encoding="UTF-8" standalone="no"?>
<!DOCTYPE svg PUBLIC "-//W3C//DTD SVG 1.1//EN"
 "http://www.w3.org/Graphics/SVG/1.1/DTD/svg11.dtd">
<!-- Generated by graphviz version 2.47.3 (20210619.1520)
 -->
<!-- Title: dependencies Pages: 1 -->
<svg width="684pt" height="174pt"
 viewBox="0.00 0.00 684.00 173.80" xmlns="http://www.w3.org/2000/svg" xmlns:xlink="http://www.w3.org/1999/xlink">
<g id="graph0" class="graph" transform="scale(1 1) rotate(0) translate(4 169.8)">
<title>dependencies</title>
<polygon fill="white" stroke="transparent" points="-4,4 -4,-169.8 680,-169.8 680,4 -4,4"/>
<text text-anchor="middle" x="338" y="-8.2" font-family="sans-serif" font-size="14.00">dependencies</text>
<g id="clust1" class="cluster">
<title>cluster_MqttModule</title>
<polygon fill="none" stroke="black" stroke-dasharray="1,5" points="8,-32.8 8,-157.8 668,-157.8 668,-32.8 8,-32.8"/>
</g>
<g id="clust2" class="cluster">
<title>cluster_MqttModule_declarations</title>
<polygon fill="none" stroke="black" points="536,-40.8 536,-92.8 660,-92.8 660,-40.8 536,-40.8"/>
</g>
<g id="clust4" class="cluster">
<title>cluster_MqttModule_imports</title>
<polygon fill="none" stroke="black" points="16,-40.8 16,-92.8 528,-92.8 528,-40.8 16,-40.8"/>
</g>
<!-- MqttComponent -->
<g id="node1" class="node">
<title>MqttComponent</title>
<polygon fill="#ffffb3" stroke="black" points="652.06,-84.8 543.94,-84.8 543.94,-48.8 652.06,-48.8 652.06,-84.8"/>
<text text-anchor="middle" x="598" y="-62.6" font-family="Times,serif" font-size="14.00">MqttComponent</text>
</g>
<!-- MqttModule -->
<g id="node2" class="node">
<title>MqttModule</title>
<polygon fill="#8dd3c7" stroke="black" points="376.28,-149.8 373.28,-153.8 352.28,-153.8 349.28,-149.8 289.72,-149.8 289.72,-113.8 376.28,-113.8 376.28,-149.8"/>
<text text-anchor="middle" x="333" y="-127.6" font-family="Times,serif" font-size="14.00">MqttModule</text>
</g>
<!-- MqttComponent&#45;&gt;MqttModule -->
<g id="edge1" class="edge">
<title>MqttComponent&#45;&gt;MqttModule</title>
<path fill="none" stroke="black" d="M598,-85.08C598,-106.12 598,-137.8 598,-137.8 598,-137.8 386.46,-137.8 386.46,-137.8"/>
<polygon fill="black" stroke="black" points="386.46,-134.3 376.46,-137.8 386.46,-141.3 386.46,-134.3"/>
</g>
<!-- CommonUiModule -->
<g id="node3" class="node">
<title>CommonUiModule</title>
<polygon fill="#8dd3c7" stroke="black" points="519.67,-84.8 516.67,-88.8 495.67,-88.8 492.67,-84.8 394.33,-84.8 394.33,-48.8 519.67,-48.8 519.67,-84.8"/>
<text text-anchor="middle" x="457" y="-62.6" font-family="Times,serif" font-size="14.00">CommonUiModule</text>
</g>
<!-- CommonUiModule&#45;&gt;MqttModule -->
<g id="edge2" class="edge">
<title>CommonUiModule&#45;&gt;MqttModule</title>
<path fill="none" stroke="black" d="M457,-84.82C457,-102.17 457,-125.8 457,-125.8 457,-125.8 386.37,-125.8 386.37,-125.8"/>
<polygon fill="black" stroke="black" points="386.37,-122.3 376.37,-125.8 386.37,-129.3 386.37,-122.3"/>
</g>
<!-- CoreModule -->
<g id="node4" class="node">
<title>CoreModule</title>
<polygon fill="#8dd3c7" stroke="black" points="376.26,-84.8 373.26,-88.8 352.26,-88.8 349.26,-84.8 289.74,-84.8 289.74,-48.8 376.26,-48.8 376.26,-84.8"/>
<text text-anchor="middle" x="333" y="-62.6" font-family="Times,serif" font-size="14.00">CoreModule</text>
</g>
<!-- CoreModule&#45;&gt;MqttModule -->
<g id="edge3" class="edge">
<title>CoreModule&#45;&gt;MqttModule</title>
<path fill="none" stroke="black" d="M333,-84.91C333,-84.91 333,-103.79 333,-103.79"/>
<polygon fill="black" stroke="black" points="329.5,-103.79 333,-113.79 336.5,-103.79 329.5,-103.79"/>
</g>
<!-- MqttRoutingModule -->
<g id="node5" class="node">
<title>MqttRoutingModule</title>
<polygon fill="#8dd3c7" stroke="black" points="271.89,-84.8 268.89,-88.8 247.89,-88.8 244.89,-84.8 140.11,-84.8 140.11,-48.8 271.89,-48.8 271.89,-84.8"/>
<text text-anchor="middle" x="206" y="-62.6" font-family="Times,serif" font-size="14.00">MqttRoutingModule</text>
</g>
<!-- MqttRoutingModule&#45;&gt;MqttModule -->
<g id="edge4" class="edge">
<title>MqttRoutingModule&#45;&gt;MqttModule</title>
<path fill="none" stroke="black" d="M206,-84.82C206,-102.17 206,-125.8 206,-125.8 206,-125.8 279.65,-125.8 279.65,-125.8"/>
<polygon fill="black" stroke="black" points="279.65,-129.3 289.65,-125.8 279.65,-122.3 279.65,-129.3"/>
</g>
<!-- SharedModule -->
<g id="node6" class="node">
<title>SharedModule</title>
<polygon fill="#8dd3c7" stroke="black" points="122.42,-84.8 119.42,-88.8 98.42,-88.8 95.42,-84.8 23.58,-84.8 23.58,-48.8 122.42,-48.8 122.42,-84.8"/>
<text text-anchor="middle" x="73" y="-62.6" font-family="Times,serif" font-size="14.00">SharedModule</text>
</g>
<!-- SharedModule&#45;&gt;MqttModule -->
<g id="edge5" class="edge">
<title>SharedModule&#45;&gt;MqttModule</title>
<path fill="none" stroke="black" d="M73,-85.08C73,-106.12 73,-137.8 73,-137.8 73,-137.8 279.48,-137.8 279.48,-137.8"/>
<polygon fill="black" stroke="black" points="279.48,-141.3 289.48,-137.8 279.48,-134.3 279.48,-141.3"/>
</g>
</g>
</svg>
