<?xml version="1.0" encoding="UTF-8" standalone="no"?>
<!DOCTYPE svg PUBLIC "-//W3C//DTD SVG 1.1//EN"
 "http://www.w3.org/Graphics/SVG/1.1/DTD/svg11.dtd">
<!-- Generated by graphviz version 2.47.3 (20210619.1520)
 -->
<!-- Title: dependencies Pages: 1 -->
<svg width="740pt" height="174pt"
 viewBox="0.00 0.00 740.00 173.80" xmlns="http://www.w3.org/2000/svg" xmlns:xlink="http://www.w3.org/1999/xlink">
<g id="graph0" class="graph" transform="scale(1 1) rotate(0) translate(4 169.8)">
<title>dependencies</title>
<polygon fill="white" stroke="transparent" points="-4,4 -4,-169.8 736,-169.8 736,4 -4,4"/>
<text text-anchor="middle" x="366" y="-8.2" font-family="sans-serif" font-size="14.00">dependencies</text>
<g id="clust1" class="cluster">
<title>cluster_OpenshiftModule</title>
<polygon fill="none" stroke="black" stroke-dasharray="1,5" points="8,-32.8 8,-157.8 724,-157.8 724,-32.8 8,-32.8"/>
</g>
<g id="clust2" class="cluster">
<title>cluster_OpenshiftModule_declarations</title>
<polygon fill="none" stroke="black" points="564,-40.8 564,-92.8 716,-92.8 716,-40.8 564,-40.8"/>
</g>
<g id="clust4" class="cluster">
<title>cluster_OpenshiftModule_imports</title>
<polygon fill="none" stroke="black" points="16,-40.8 16,-92.8 556,-92.8 556,-40.8 16,-40.8"/>
</g>
<!-- OpenshiftComponent -->
<g id="node1" class="node">
<title>OpenshiftComponent</title>
<polygon fill="#ffffb3" stroke="black" points="708.04,-84.8 571.96,-84.8 571.96,-48.8 708.04,-48.8 708.04,-84.8"/>
<text text-anchor="middle" x="640" y="-62.6" font-family="Times,serif" font-size="14.00">OpenshiftComponent</text>
</g>
<!-- OpenshiftModule -->
<g id="node2" class="node">
<title>OpenshiftModule</title>
<polygon fill="#8dd3c7" stroke="black" points="418.26,-149.8 415.26,-153.8 394.26,-153.8 391.26,-149.8 303.74,-149.8 303.74,-113.8 418.26,-113.8 418.26,-149.8"/>
<text text-anchor="middle" x="361" y="-127.6" font-family="Times,serif" font-size="14.00">OpenshiftModule</text>
</g>
<!-- OpenshiftComponent&#45;&gt;OpenshiftModule -->
<g id="edge1" class="edge">
<title>OpenshiftComponent&#45;&gt;OpenshiftModule</title>
<path fill="none" stroke="black" d="M640,-84.91C640,-104.14 640,-131.8 640,-131.8 640,-131.8 428.47,-131.8 428.47,-131.8"/>
<polygon fill="black" stroke="black" points="428.47,-128.3 418.47,-131.8 428.47,-135.3 428.47,-128.3"/>
</g>
<!-- CommonUiModule -->
<g id="node3" class="node">
<title>CommonUiModule</title>
<polygon fill="#8dd3c7" stroke="black" points="547.67,-84.8 544.67,-88.8 523.67,-88.8 520.67,-84.8 422.33,-84.8 422.33,-48.8 547.67,-48.8 547.67,-84.8"/>
<text text-anchor="middle" x="485" y="-62.6" font-family="Times,serif" font-size="14.00">CommonUiModule</text>
</g>
<!-- CommonUiModule&#45;&gt;OpenshiftModule -->
<g id="edge2" class="edge">
<title>CommonUiModule&#45;&gt;OpenshiftModule</title>
<path fill="none" stroke="black" d="M422.24,-66.8C415.7,-66.8 411.38,-66.8 411.38,-66.8 411.38,-66.8 411.38,-103.69 411.38,-103.69"/>
<polygon fill="black" stroke="black" points="407.88,-103.69 411.38,-113.69 414.88,-103.69 407.88,-103.69"/>
</g>
<!-- CoreModule -->
<g id="node4" class="node">
<title>CoreModule</title>
<polygon fill="#8dd3c7" stroke="black" points="404.26,-84.8 401.26,-88.8 380.26,-88.8 377.26,-84.8 317.74,-84.8 317.74,-48.8 404.26,-48.8 404.26,-84.8"/>
<text text-anchor="middle" x="361" y="-62.6" font-family="Times,serif" font-size="14.00">CoreModule</text>
</g>
<!-- CoreModule&#45;&gt;OpenshiftModule -->
<g id="edge3" class="edge">
<title>CoreModule&#45;&gt;OpenshiftModule</title>
<path fill="none" stroke="black" d="M361,-84.91C361,-84.91 361,-103.79 361,-103.79"/>
<polygon fill="black" stroke="black" points="357.5,-103.79 361,-113.79 364.5,-103.79 357.5,-103.79"/>
</g>
<!-- OpenshiftRoutingModule -->
<g id="node5" class="node">
<title>OpenshiftRoutingModule</title>
<polygon fill="#8dd3c7" stroke="black" points="299.88,-84.8 296.88,-88.8 275.88,-88.8 272.88,-84.8 140.12,-84.8 140.12,-48.8 299.88,-48.8 299.88,-84.8"/>
<text text-anchor="middle" x="220" y="-62.6" font-family="Times,serif" font-size="14.00">OpenshiftRoutingModule</text>
</g>
<!-- OpenshiftRoutingModule&#45;&gt;OpenshiftModule -->
<g id="edge4" class="edge">
<title>OpenshiftRoutingModule&#45;&gt;OpenshiftModule</title>
<path fill="none" stroke="black" d="M300.22,-66.8C306.59,-66.8 310.62,-66.8 310.62,-66.8 310.62,-66.8 310.62,-103.69 310.62,-103.69"/>
<polygon fill="black" stroke="black" points="307.12,-103.69 310.62,-113.69 314.12,-103.69 307.12,-103.69"/>
</g>
<!-- SharedModule -->
<g id="node6" class="node">
<title>SharedModule</title>
<polygon fill="#8dd3c7" stroke="black" points="122.42,-84.8 119.42,-88.8 98.42,-88.8 95.42,-84.8 23.58,-84.8 23.58,-48.8 122.42,-48.8 122.42,-84.8"/>
<text text-anchor="middle" x="73" y="-62.6" font-family="Times,serif" font-size="14.00">SharedModule</text>
</g>
<!-- SharedModule&#45;&gt;OpenshiftModule -->
<g id="edge5" class="edge">
<title>SharedModule&#45;&gt;OpenshiftModule</title>
<path fill="none" stroke="black" d="M73,-84.91C73,-104.14 73,-131.8 73,-131.8 73,-131.8 293.41,-131.8 293.41,-131.8"/>
<polygon fill="black" stroke="black" points="293.41,-135.3 303.41,-131.8 293.41,-128.3 293.41,-135.3"/>
</g>
</g>
</svg>
