<?xml version="1.0" encoding="UTF-8" standalone="no"?>
<!DOCTYPE svg PUBLIC "-//W3C//DTD SVG 1.1//EN"
 "http://www.w3.org/Graphics/SVG/1.1/DTD/svg11.dtd">
<!-- Generated by graphviz version 2.47.3 (20210619.1520)
 -->
<!-- Title: dependencies Pages: 1 -->
<svg width="290pt" height="247pt"
 viewBox="0.00 0.00 290.00 246.80" xmlns="http://www.w3.org/2000/svg" xmlns:xlink="http://www.w3.org/1999/xlink">
<g id="graph0" class="graph" transform="scale(1 1) rotate(0) translate(4 242.8)">
<title>dependencies</title>
<polygon fill="white" stroke="transparent" points="-4,4 -4,-242.8 286,-242.8 286,4 -4,4"/>
<text text-anchor="middle" x="141" y="-8.2" font-family="sans-serif" font-size="14.00">dependencies</text>
<g id="clust1" class="cluster">
<title>cluster_DisksModule</title>
<polygon fill="none" stroke="black" stroke-dasharray="1,5" points="8,-32.8 8,-230.8 274,-230.8 274,-32.8 8,-32.8"/>
</g>
<g id="clust6" class="cluster">
<title>cluster_DisksModule_providers</title>
<polygon fill="none" stroke="black" points="126,-40.8 126,-92.8 266,-92.8 266,-40.8 126,-40.8"/>
</g>
<g id="clust3" class="cluster">
<title>cluster_DisksModule_imports</title>
<polygon fill="none" stroke="black" points="16,-40.8 16,-92.8 118,-92.8 118,-40.8 16,-40.8"/>
</g>
<g id="clust4" class="cluster">
<title>cluster_DisksModule_exports</title>
<polygon fill="none" stroke="black" points="78,-170.8 78,-222.8 188,-222.8 188,-170.8 78,-170.8"/>
</g>
<!-- CoreModule -->
<g id="node1" class="node">
<title>CoreModule</title>
<polygon fill="#8dd3c7" stroke="black" points="110.26,-84.8 107.26,-88.8 86.26,-88.8 83.26,-84.8 23.74,-84.8 23.74,-48.8 110.26,-48.8 110.26,-84.8"/>
<text text-anchor="middle" x="67" y="-62.6" font-family="Times,serif" font-size="14.00">CoreModule</text>
</g>
<!-- DisksModule -->
<g id="node2" class="node">
<title>DisksModule</title>
<polygon fill="#8dd3c7" stroke="black" points="178.94,-149.8 175.94,-153.8 154.94,-153.8 151.94,-149.8 87.06,-149.8 87.06,-113.8 178.94,-113.8 178.94,-149.8"/>
<text text-anchor="middle" x="133" y="-127.6" font-family="Times,serif" font-size="14.00">DisksModule</text>
</g>
<!-- CoreModule&#45;&gt;DisksModule -->
<g id="edge1" class="edge">
<title>CoreModule&#45;&gt;DisksModule</title>
<path fill="none" stroke="black" d="M98.83,-84.91C98.83,-84.91 98.83,-103.79 98.83,-103.79"/>
<polygon fill="black" stroke="black" points="95.33,-103.79 98.83,-113.79 102.33,-103.79 95.33,-103.79"/>
</g>
<!-- DisksService  -->
<g id="node3" class="node">
<title>DisksService </title>
<polygon fill="#fb8072" stroke="black" points="179.86,-214.8 86.14,-214.8 86.14,-178.8 179.86,-178.8 179.86,-214.8"/>
<text text-anchor="middle" x="133" y="-192.6" font-family="Times,serif" font-size="14.00">DisksService </text>
</g>
<!-- DisksModule&#45;&gt;DisksService  -->
<g id="edge2" class="edge">
<title>DisksModule&#45;&gt;DisksService </title>
<path fill="none" stroke="black" stroke-dasharray="5,2" d="M133,-149.91C133,-149.91 133,-168.79 133,-168.79"/>
<polygon fill="black" stroke="black" points="129.5,-168.79 133,-178.79 136.5,-168.79 129.5,-168.79"/>
</g>
<!-- DisksService -->
<g id="node4" class="node">
<title>DisksService</title>
<ellipse fill="#fdb462" stroke="black" cx="196" cy="-66.8" rx="61.97" ry="18"/>
<text text-anchor="middle" x="196" y="-62.6" font-family="Times,serif" font-size="14.00">DisksService</text>
</g>
<!-- DisksService&#45;&gt;DisksModule -->
<g id="edge3" class="edge">
<title>DisksService&#45;&gt;DisksModule</title>
<path fill="none" stroke="black" d="M156.37,-80.9C156.37,-80.9 156.37,-103.52 156.37,-103.52"/>
<polygon fill="black" stroke="black" points="152.87,-103.52 156.37,-113.52 159.87,-103.52 152.87,-103.52"/>
</g>
</g>
</svg>
