<?xml version="1.0" encoding="UTF-8" standalone="no"?>
<!DOCTYPE svg PUBLIC "-//W3C//DTD SVG 1.1//EN"
 "http://www.w3.org/Graphics/SVG/1.1/DTD/svg11.dtd">
<!-- Generated by graphviz version 2.40.1 (20161225.0304)
 -->
<!-- Title: dependencies Pages: 1 -->
<svg width="504pt" height="284pt"
 viewBox="0.00 0.00 504.00 284.00" xmlns="http://www.w3.org/2000/svg" xmlns:xlink="http://www.w3.org/1999/xlink">
<g id="graph0" class="graph" transform="scale(1 1) rotate(0) translate(4 280)">
<title>dependencies</title>
<polygon fill="#ffffff" stroke="transparent" points="-4,4 -4,-280 500,-280 500,4 -4,4"/>
<text text-anchor="start" x="227.0091" y="-42.4" font-family="sans-serif" font-weight="bold" font-size="14.00" fill="#000000">Legend</text>
<polygon fill="#ffffb3" stroke="transparent" points="14,-10 14,-30 34,-30 34,-10 14,-10"/>
<text text-anchor="start" x="37.629" y="-15.4" font-family="sans-serif" font-size="14.00" fill="#000000"> &#160;Declarations</text>
<polygon fill="#8dd3c7" stroke="transparent" points="127,-10 127,-30 147,-30 147,-10 127,-10"/>
<text text-anchor="start" x="150.7251" y="-15.4" font-family="sans-serif" font-size="14.00" fill="#000000"> &#160;Module</text>
<polygon fill="#80b1d3" stroke="transparent" points="213,-10 213,-30 233,-30 233,-10 213,-10"/>
<text text-anchor="start" x="236.7812" y="-15.4" font-family="sans-serif" font-size="14.00" fill="#000000"> &#160;Bootstrap</text>
<polygon fill="#fdb462" stroke="transparent" points="310,-10 310,-30 330,-30 330,-10 310,-10"/>
<text text-anchor="start" x="333.6732" y="-15.4" font-family="sans-serif" font-size="14.00" fill="#000000"> &#160;Providers</text>
<polygon fill="#fb8072" stroke="transparent" points="406,-10 406,-30 426,-30 426,-10 406,-10"/>
<text text-anchor="start" x="429.7258" y="-15.4" font-family="sans-serif" font-size="14.00" fill="#000000"> &#160;Exports</text>
<g id="clust1" class="cluster">
<title>cluster_DisksModule</title>
<polygon fill="none" stroke="#000000" stroke-dasharray="1,5" points="115,-70 115,-268 381,-268 381,-70 115,-70"/>
</g>
<g id="clust3" class="cluster">
<title>cluster_DisksModule_imports</title>
<polygon fill="none" stroke="#000000" points="271,-78 271,-130 373,-130 373,-78 271,-78"/>
</g>
<g id="clust4" class="cluster">
<title>cluster_DisksModule_exports</title>
<polygon fill="none" stroke="#000000" points="200,-208 200,-260 310,-260 310,-208 200,-208"/>
</g>
<g id="clust6" class="cluster">
<title>cluster_DisksModule_providers</title>
<polygon fill="none" stroke="#000000" points="123,-78 123,-130 263,-130 263,-78 123,-78"/>
</g>
<!-- CoreModule -->
<g id="node1" class="node">
<title>CoreModule</title>
<polygon fill="#8dd3c7" stroke="#000000" points="365.2619,-122 362.2619,-126 341.2619,-126 338.2619,-122 278.7381,-122 278.7381,-86 365.2619,-86 365.2619,-122"/>
<text text-anchor="middle" x="322" y="-99.8" font-family="Times,serif" font-size="14.00" fill="#000000">CoreModule</text>
</g>
<!-- DisksModule -->
<g id="node2" class="node">
<title>DisksModule</title>
<polygon fill="#8dd3c7" stroke="#000000" points="300.9372,-187 297.9372,-191 276.9372,-191 273.9372,-187 209.0628,-187 209.0628,-151 300.9372,-151 300.9372,-187"/>
<text text-anchor="middle" x="255" y="-164.8" font-family="Times,serif" font-size="14.00" fill="#000000">DisksModule</text>
</g>
<!-- CoreModule&#45;&gt;DisksModule -->
<g id="edge1" class="edge">
<title>CoreModule&#45;&gt;DisksModule</title>
<path fill="none" stroke="#000000" d="M289.6687,-122.1061C289.6687,-122.1061 289.6687,-140.991 289.6687,-140.991"/>
<polygon fill="#000000" stroke="#000000" points="286.1687,-140.9909 289.6687,-150.991 293.1687,-140.991 286.1687,-140.9909"/>
</g>
<!-- DisksService  -->
<g id="node3" class="node">
<title>DisksService </title>
<polygon fill="#fb8072" stroke="#000000" points="301.8647,-252 208.1353,-252 208.1353,-216 301.8647,-216 301.8647,-252"/>
<text text-anchor="middle" x="255" y="-229.8" font-family="Times,serif" font-size="14.00" fill="#000000">DisksService </text>
</g>
<!-- DisksModule&#45;&gt;DisksService  -->
<g id="edge2" class="edge">
<title>DisksModule&#45;&gt;DisksService </title>
<path fill="none" stroke="#000000" stroke-dasharray="5,2" d="M255,-187.1061C255,-187.1061 255,-205.991 255,-205.991"/>
<polygon fill="#000000" stroke="#000000" points="251.5001,-205.9909 255,-215.991 258.5001,-205.991 251.5001,-205.9909"/>
</g>
<!-- DisksService -->
<g id="node4" class="node">
<title>DisksService</title>
<ellipse fill="#fdb462" stroke="#000000" cx="193" cy="-104" rx="61.9731" ry="18"/>
<text text-anchor="middle" x="193" y="-99.8" font-family="Times,serif" font-size="14.00" fill="#000000">DisksService</text>
</g>
<!-- DisksService&#45;&gt;DisksModule -->
<g id="edge3" class="edge">
<title>DisksService&#45;&gt;DisksModule</title>
<path fill="none" stroke="#000000" d="M232.1342,-118.104C232.1342,-118.104 232.1342,-140.7209 232.1342,-140.7209"/>
<polygon fill="#000000" stroke="#000000" points="228.6343,-140.7209 232.1342,-150.7209 235.6343,-140.7209 228.6343,-140.7209"/>
</g>
</g>
</svg>
