<?xml version="1.0" encoding="UTF-8" standalone="no"?>
<!DOCTYPE svg PUBLIC "-//W3C//DTD SVG 1.1//EN"
 "http://www.w3.org/Graphics/SVG/1.1/DTD/svg11.dtd">
<!-- Generated by graphviz version 2.47.3 (20210619.1520)
 -->
<!-- Title: dependencies Pages: 1 -->
<svg width="1223pt" height="174pt"
 viewBox="0.00 0.00 1223.00 173.80" xmlns="http://www.w3.org/2000/svg" xmlns:xlink="http://www.w3.org/1999/xlink">
<g id="graph0" class="graph" transform="scale(1 1) rotate(0) translate(4 169.8)">
<title>dependencies</title>
<polygon fill="white" stroke="transparent" points="-4,4 -4,-169.8 1219,-169.8 1219,4 -4,4"/>
<text text-anchor="middle" x="607.5" y="-8.2" font-family="sans-serif" font-size="14.00">dependencies</text>
<g id="clust1" class="cluster">
<title>cluster_CloudprovidersModule</title>
<polygon fill="none" stroke="black" stroke-dasharray="1,5" points="8,-32.8 8,-157.8 1207,-157.8 1207,-32.8 8,-32.8"/>
</g>
<g id="clust2" class="cluster">
<title>cluster_CloudprovidersModule_declarations</title>
<polygon fill="none" stroke="black" points="591,-40.8 591,-92.8 1199,-92.8 1199,-40.8 591,-40.8"/>
</g>
<g id="clust6" class="cluster">
<title>cluster_CloudprovidersModule_imports</title>
<polygon fill="none" stroke="black" points="16,-40.8 16,-92.8 583,-92.8 583,-40.8 16,-40.8"/>
</g>
<!-- CloudproviderEditComponent -->
<g id="node1" class="node">
<title>CloudproviderEditComponent</title>
<polygon fill="#ffffb3" stroke="black" points="1191.32,-84.8 1004.68,-84.8 1004.68,-48.8 1191.32,-48.8 1191.32,-84.8"/>
<text text-anchor="middle" x="1098" y="-62.6" font-family="Times,serif" font-size="14.00">CloudproviderEditComponent</text>
</g>
<!-- CloudprovidersModule -->
<g id="node4" class="node">
<title>CloudprovidersModule</title>
<polygon fill="#8dd3c7" stroke="black" points="555.15,-149.8 552.15,-153.8 531.15,-153.8 528.15,-149.8 408.85,-149.8 408.85,-113.8 555.15,-113.8 555.15,-149.8"/>
<text text-anchor="middle" x="482" y="-127.6" font-family="Times,serif" font-size="14.00">CloudprovidersModule</text>
</g>
<!-- CloudproviderEditComponent&#45;&gt;CloudprovidersModule -->
<g id="edge1" class="edge">
<title>CloudproviderEditComponent&#45;&gt;CloudprovidersModule</title>
<path fill="none" stroke="black" d="M1098,-85.09C1098,-107.01 1098,-140.8 1098,-140.8 1098,-140.8 565.39,-140.8 565.39,-140.8"/>
<polygon fill="black" stroke="black" points="565.39,-137.3 555.39,-140.8 565.39,-144.3 565.39,-137.3"/>
</g>
<!-- CloudprovidersComponent -->
<g id="node2" class="node">
<title>CloudprovidersComponent</title>
<polygon fill="#ffffb3" stroke="black" points="987.43,-84.8 818.57,-84.8 818.57,-48.8 987.43,-48.8 987.43,-84.8"/>
<text text-anchor="middle" x="903" y="-62.6" font-family="Times,serif" font-size="14.00">CloudprovidersComponent</text>
</g>
<!-- CloudprovidersComponent&#45;&gt;CloudprovidersModule -->
<g id="edge2" class="edge">
<title>CloudprovidersComponent&#45;&gt;CloudprovidersModule</title>
<path fill="none" stroke="black" d="M903,-84.91C903,-104.14 903,-131.8 903,-131.8 903,-131.8 565.33,-131.8 565.33,-131.8"/>
<polygon fill="black" stroke="black" points="565.33,-128.3 555.33,-131.8 565.33,-135.3 565.33,-128.3"/>
</g>
<!-- ImageToBuildDialogComponent -->
<g id="node3" class="node">
<title>ImageToBuildDialogComponent</title>
<polygon fill="#ffffb3" stroke="black" points="800.59,-84.8 599.41,-84.8 599.41,-48.8 800.59,-48.8 800.59,-84.8"/>
<text text-anchor="middle" x="700" y="-62.6" font-family="Times,serif" font-size="14.00">ImageToBuildDialogComponent</text>
</g>
<!-- ImageToBuildDialogComponent&#45;&gt;CloudprovidersModule -->
<g id="edge3" class="edge">
<title>ImageToBuildDialogComponent&#45;&gt;CloudprovidersModule</title>
<path fill="none" stroke="black" d="M700,-84.83C700,-101.2 700,-122.8 700,-122.8 700,-122.8 565.2,-122.8 565.2,-122.8"/>
<polygon fill="black" stroke="black" points="565.2,-119.3 555.2,-122.8 565.2,-126.3 565.2,-119.3"/>
</g>
<!-- CloudproviderRoutingModule -->
<g id="node5" class="node">
<title>CloudproviderRoutingModule</title>
<polygon fill="#8dd3c7" stroke="black" points="575.32,-84.8 572.32,-88.8 551.32,-88.8 548.32,-84.8 388.68,-84.8 388.68,-48.8 575.32,-48.8 575.32,-84.8"/>
<text text-anchor="middle" x="482" y="-62.6" font-family="Times,serif" font-size="14.00">CloudproviderRoutingModule</text>
</g>
<!-- CloudproviderRoutingModule&#45;&gt;CloudprovidersModule -->
<g id="edge4" class="edge">
<title>CloudproviderRoutingModule&#45;&gt;CloudprovidersModule</title>
<path fill="none" stroke="black" d="M482,-84.91C482,-84.91 482,-103.79 482,-103.79"/>
<polygon fill="black" stroke="black" points="478.5,-103.79 482,-113.79 485.5,-103.79 478.5,-103.79"/>
</g>
<!-- CommonUiModule -->
<g id="node6" class="node">
<title>CommonUiModule</title>
<polygon fill="#8dd3c7" stroke="black" points="370.67,-84.8 367.67,-88.8 346.67,-88.8 343.67,-84.8 245.33,-84.8 245.33,-48.8 370.67,-48.8 370.67,-84.8"/>
<text text-anchor="middle" x="308" y="-62.6" font-family="Times,serif" font-size="14.00">CommonUiModule</text>
</g>
<!-- CommonUiModule&#45;&gt;CloudprovidersModule -->
<g id="edge5" class="edge">
<title>CommonUiModule&#45;&gt;CloudprovidersModule</title>
<path fill="none" stroke="black" d="M308,-84.83C308,-101.2 308,-122.8 308,-122.8 308,-122.8 398.71,-122.8 398.71,-122.8"/>
<polygon fill="black" stroke="black" points="398.71,-126.3 408.71,-122.8 398.71,-119.3 398.71,-126.3"/>
</g>
<!-- CoreModule -->
<g id="node7" class="node">
<title>CoreModule</title>
<polygon fill="#8dd3c7" stroke="black" points="227.26,-84.8 224.26,-88.8 203.26,-88.8 200.26,-84.8 140.74,-84.8 140.74,-48.8 227.26,-48.8 227.26,-84.8"/>
<text text-anchor="middle" x="184" y="-62.6" font-family="Times,serif" font-size="14.00">CoreModule</text>
</g>
<!-- CoreModule&#45;&gt;CloudprovidersModule -->
<g id="edge6" class="edge">
<title>CoreModule&#45;&gt;CloudprovidersModule</title>
<path fill="none" stroke="black" d="M184,-84.91C184,-104.14 184,-131.8 184,-131.8 184,-131.8 398.72,-131.8 398.72,-131.8"/>
<polygon fill="black" stroke="black" points="398.72,-135.3 408.72,-131.8 398.72,-128.3 398.72,-135.3"/>
</g>
<!-- SharedModule -->
<g id="node8" class="node">
<title>SharedModule</title>
<polygon fill="#8dd3c7" stroke="black" points="122.42,-84.8 119.42,-88.8 98.42,-88.8 95.42,-84.8 23.58,-84.8 23.58,-48.8 122.42,-48.8 122.42,-84.8"/>
<text text-anchor="middle" x="73" y="-62.6" font-family="Times,serif" font-size="14.00">SharedModule</text>
</g>
<!-- SharedModule&#45;&gt;CloudprovidersModule -->
<g id="edge7" class="edge">
<title>SharedModule&#45;&gt;CloudprovidersModule</title>
<path fill="none" stroke="black" d="M73,-85.09C73,-107.01 73,-140.8 73,-140.8 73,-140.8 398.41,-140.8 398.41,-140.8"/>
<polygon fill="black" stroke="black" points="398.41,-144.3 408.41,-140.8 398.41,-137.3 398.41,-144.3"/>
</g>
</g>
</svg>
