<?xml version="1.0" encoding="UTF-8" standalone="no"?>
<!DOCTYPE svg PUBLIC "-//W3C//DTD SVG 1.1//EN"
 "http://www.w3.org/Graphics/SVG/1.1/DTD/svg11.dtd">
<!-- Generated by graphviz version 2.40.1 (20161225.0304)
 -->
<!-- Title: dependencies Pages: 1 -->
<svg width="1003pt" height="211pt"
 viewBox="0.00 0.00 1003.00 211.00" xmlns="http://www.w3.org/2000/svg" xmlns:xlink="http://www.w3.org/1999/xlink">
<g id="graph0" class="graph" transform="scale(1 1) rotate(0) translate(4 207)">
<title>dependencies</title>
<polygon fill="#ffffff" stroke="transparent" points="-4,4 -4,-207 999,-207 999,4 -4,4"/>
<text text-anchor="start" x="476.5091" y="-42.4" font-family="sans-serif" font-weight="bold" font-size="14.00" fill="#000000">Legend</text>
<polygon fill="#ffffb3" stroke="transparent" points="263.5,-10 263.5,-30 283.5,-30 283.5,-10 263.5,-10"/>
<text text-anchor="start" x="287.129" y="-15.4" font-family="sans-serif" font-size="14.00" fill="#000000"> &#160;Declarations</text>
<polygon fill="#8dd3c7" stroke="transparent" points="376.5,-10 376.5,-30 396.5,-30 396.5,-10 376.5,-10"/>
<text text-anchor="start" x="400.2251" y="-15.4" font-family="sans-serif" font-size="14.00" fill="#000000"> &#160;Module</text>
<polygon fill="#80b1d3" stroke="transparent" points="462.5,-10 462.5,-30 482.5,-30 482.5,-10 462.5,-10"/>
<text text-anchor="start" x="486.2812" y="-15.4" font-family="sans-serif" font-size="14.00" fill="#000000"> &#160;Bootstrap</text>
<polygon fill="#fdb462" stroke="transparent" points="559.5,-10 559.5,-30 579.5,-30 579.5,-10 559.5,-10"/>
<text text-anchor="start" x="583.1732" y="-15.4" font-family="sans-serif" font-size="14.00" fill="#000000"> &#160;Providers</text>
<polygon fill="#fb8072" stroke="transparent" points="655.5,-10 655.5,-30 675.5,-30 675.5,-10 655.5,-10"/>
<text text-anchor="start" x="679.2258" y="-15.4" font-family="sans-serif" font-size="14.00" fill="#000000"> &#160;Exports</text>
<g id="clust1" class="cluster">
<title>cluster_CloudprovidersModule</title>
<polygon fill="none" stroke="#000000" stroke-dasharray="1,5" points="8,-70 8,-195 987,-195 987,-70 8,-70"/>
</g>
<g id="clust2" class="cluster">
<title>cluster_CloudprovidersModule_declarations</title>
<polygon fill="none" stroke="#000000" points="591,-78 591,-130 979,-130 979,-78 591,-78"/>
</g>
<g id="clust5" class="cluster">
<title>cluster_CloudprovidersModule_imports</title>
<polygon fill="none" stroke="#000000" points="16,-78 16,-130 583,-130 583,-78 16,-78"/>
</g>
<!-- CloudproviderEditComponent -->
<g id="node1" class="node">
<title>CloudproviderEditComponent</title>
<polygon fill="#ffffb3" stroke="#000000" points="971.3201,-122 784.6799,-122 784.6799,-86 971.3201,-86 971.3201,-122"/>
<text text-anchor="middle" x="878" y="-99.8" font-family="Times,serif" font-size="14.00" fill="#000000">CloudproviderEditComponent</text>
</g>
<!-- CloudprovidersModule -->
<g id="node3" class="node">
<title>CloudprovidersModule</title>
<polygon fill="#8dd3c7" stroke="#000000" points="468.1484,-187 465.1484,-191 444.1484,-191 441.1484,-187 321.8516,-187 321.8516,-151 468.1484,-151 468.1484,-187"/>
<text text-anchor="middle" x="395" y="-164.8" font-family="Times,serif" font-size="14.00" fill="#000000">CloudprovidersModule</text>
</g>
<!-- CloudproviderEditComponent&#45;&gt;CloudprovidersModule -->
<g id="edge1" class="edge">
<title>CloudproviderEditComponent&#45;&gt;CloudprovidersModule</title>
<path fill="none" stroke="#000000" d="M878,-122.2843C878,-143.3211 878,-175 878,-175 878,-175 478.3573,-175 478.3573,-175"/>
<polygon fill="#000000" stroke="#000000" points="478.3573,-171.5001 468.3573,-175 478.3573,-178.5001 478.3573,-171.5001"/>
</g>
<!-- CloudprovidersComponent -->
<g id="node2" class="node">
<title>CloudprovidersComponent</title>
<polygon fill="#ffffb3" stroke="#000000" points="767.4312,-122 598.5688,-122 598.5688,-86 767.4312,-86 767.4312,-122"/>
<text text-anchor="middle" x="683" y="-99.8" font-family="Times,serif" font-size="14.00" fill="#000000">CloudprovidersComponent</text>
</g>
<!-- CloudprovidersComponent&#45;&gt;CloudprovidersModule -->
<g id="edge2" class="edge">
<title>CloudprovidersComponent&#45;&gt;CloudprovidersModule</title>
<path fill="none" stroke="#000000" d="M683,-122.0225C683,-139.3734 683,-163 683,-163 683,-163 478.4197,-163 478.4197,-163"/>
<polygon fill="#000000" stroke="#000000" points="478.4198,-159.5001 468.4197,-163 478.4197,-166.5001 478.4198,-159.5001"/>
</g>
<!-- CloudproviderRoutingModule -->
<g id="node4" class="node">
<title>CloudproviderRoutingModule</title>
<polygon fill="#8dd3c7" stroke="#000000" points="575.3215,-122 572.3215,-126 551.3215,-126 548.3215,-122 388.6785,-122 388.6785,-86 575.3215,-86 575.3215,-122"/>
<text text-anchor="middle" x="482" y="-99.8" font-family="Times,serif" font-size="14.00" fill="#000000">CloudproviderRoutingModule</text>
</g>
<!-- CloudproviderRoutingModule&#45;&gt;CloudprovidersModule -->
<g id="edge3" class="edge">
<title>CloudproviderRoutingModule&#45;&gt;CloudprovidersModule</title>
<path fill="none" stroke="#000000" d="M428.5817,-122.1061C428.5817,-122.1061 428.5817,-140.991 428.5817,-140.991"/>
<polygon fill="#000000" stroke="#000000" points="425.0818,-140.9909 428.5817,-150.991 432.0818,-140.991 425.0818,-140.9909"/>
</g>
<!-- CommonUiModule -->
<g id="node5" class="node">
<title>CommonUiModule</title>
<polygon fill="#8dd3c7" stroke="#000000" points="370.6652,-122 367.6652,-126 346.6652,-126 343.6652,-122 245.3348,-122 245.3348,-86 370.6652,-86 370.6652,-122"/>
<text text-anchor="middle" x="308" y="-99.8" font-family="Times,serif" font-size="14.00" fill="#000000">CommonUiModule</text>
</g>
<!-- CommonUiModule&#45;&gt;CloudprovidersModule -->
<g id="edge4" class="edge">
<title>CommonUiModule&#45;&gt;CloudprovidersModule</title>
<path fill="none" stroke="#000000" d="M346.2542,-122.1061C346.2542,-122.1061 346.2542,-140.991 346.2542,-140.991"/>
<polygon fill="#000000" stroke="#000000" points="342.7543,-140.9909 346.2542,-150.991 349.7543,-140.991 342.7543,-140.9909"/>
</g>
<!-- CoreModule -->
<g id="node6" class="node">
<title>CoreModule</title>
<polygon fill="#8dd3c7" stroke="#000000" points="227.2619,-122 224.2619,-126 203.2619,-126 200.2619,-122 140.7381,-122 140.7381,-86 227.2619,-86 227.2619,-122"/>
<text text-anchor="middle" x="184" y="-99.8" font-family="Times,serif" font-size="14.00" fill="#000000">CoreModule</text>
</g>
<!-- CoreModule&#45;&gt;CloudprovidersModule -->
<g id="edge5" class="edge">
<title>CoreModule&#45;&gt;CloudprovidersModule</title>
<path fill="none" stroke="#000000" d="M184,-122.0225C184,-139.3734 184,-163 184,-163 184,-163 311.7946,-163 311.7946,-163"/>
<polygon fill="#000000" stroke="#000000" points="311.7946,-166.5001 321.7946,-163 311.7946,-159.5001 311.7946,-166.5001"/>
</g>
<!-- SharedModule -->
<g id="node7" class="node">
<title>SharedModule</title>
<polygon fill="#8dd3c7" stroke="#000000" points="122.4231,-122 119.4231,-126 98.4231,-126 95.4231,-122 23.5769,-122 23.5769,-86 122.4231,-86 122.4231,-122"/>
<text text-anchor="middle" x="73" y="-99.8" font-family="Times,serif" font-size="14.00" fill="#000000">SharedModule</text>
</g>
<!-- SharedModule&#45;&gt;CloudprovidersModule -->
<g id="edge6" class="edge">
<title>SharedModule&#45;&gt;CloudprovidersModule</title>
<path fill="none" stroke="#000000" d="M73,-122.2843C73,-143.3211 73,-175 73,-175 73,-175 311.5303,-175 311.5303,-175"/>
<polygon fill="#000000" stroke="#000000" points="311.5303,-178.5001 321.5303,-175 311.5303,-171.5001 311.5303,-178.5001"/>
</g>
</g>
</svg>
