<?xml version="1.0" encoding="UTF-8" standalone="no"?>
<!DOCTYPE svg PUBLIC "-//W3C//DTD SVG 1.1//EN"
 "http://www.w3.org/Graphics/SVG/1.1/DTD/svg11.dtd">
<!-- Generated by graphviz version 2.47.3 (20210619.1520)
 -->
<!-- Title: dependencies Pages: 1 -->
<svg width="1556pt" height="174pt"
 viewBox="0.00 0.00 1556.00 173.80" xmlns="http://www.w3.org/2000/svg" xmlns:xlink="http://www.w3.org/1999/xlink">
<g id="graph0" class="graph" transform="scale(1 1) rotate(0) translate(4 169.8)">
<title>dependencies</title>
<polygon fill="white" stroke="transparent" points="-4,4 -4,-169.8 1552,-169.8 1552,4 -4,4"/>
<text text-anchor="middle" x="774" y="-8.2" font-family="sans-serif" font-size="14.00">dependencies</text>
<g id="clust1" class="cluster">
<title>cluster_AppModule</title>
<polygon fill="none" stroke="black" stroke-dasharray="1,5" points="8,-32.8 8,-157.8 1540,-157.8 1540,-32.8 8,-32.8"/>
</g>
<g id="clust3" class="cluster">
<title>cluster_AppModule_imports</title>
<polygon fill="none" stroke="black" points="154,-40.8 154,-92.8 1532,-92.8 1532,-40.8 154,-40.8"/>
</g>
<g id="clust6" class="cluster">
<title>cluster_AppModule_providers</title>
<polygon fill="none" stroke="black" points="16,-40.8 16,-92.8 146,-92.8 146,-40.8 16,-40.8"/>
</g>
<!-- AdminIamModule -->
<g id="node1" class="node">
<title>AdminIamModule</title>
<polygon fill="#8dd3c7" stroke="black" points="1524.2,-84.8 1521.2,-88.8 1500.2,-88.8 1497.2,-84.8 1403.8,-84.8 1403.8,-48.8 1524.2,-48.8 1524.2,-84.8"/>
<text text-anchor="middle" x="1464" y="-62.6" font-family="Times,serif" font-size="14.00">AdminIamModule</text>
</g>
<!-- AppModule -->
<g id="node12" class="node">
<title>AppModule</title>
<polygon fill="#8dd3c7" stroke="black" points="830.66,-149.8 827.66,-153.8 806.66,-153.8 803.66,-149.8 747.34,-149.8 747.34,-113.8 830.66,-113.8 830.66,-149.8"/>
<text text-anchor="middle" x="789" y="-127.6" font-family="Times,serif" font-size="14.00">AppModule</text>
</g>
<!-- AdminIamModule&#45;&gt;AppModule -->
<g id="edge1" class="edge">
<title>AdminIamModule&#45;&gt;AppModule</title>
<path fill="none" stroke="black" d="M1464,-84.89C1464,-107.93 1464,-144.8 1464,-144.8 1464,-144.8 840.71,-144.8 840.71,-144.8"/>
<polygon fill="black" stroke="black" points="840.71,-141.3 830.71,-144.8 840.71,-148.3 840.71,-141.3"/>
</g>
<!-- BuildModule -->
<g id="node2" class="node">
<title>BuildModule</title>
<polygon fill="#8dd3c7" stroke="black" points="1386.17,-84.8 1383.17,-88.8 1362.17,-88.8 1359.17,-84.8 1295.83,-84.8 1295.83,-48.8 1386.17,-48.8 1386.17,-84.8"/>
<text text-anchor="middle" x="1341" y="-62.6" font-family="Times,serif" font-size="14.00">BuildModule</text>
</g>
<!-- BuildModule&#45;&gt;AppModule -->
<g id="edge2" class="edge">
<title>BuildModule&#45;&gt;AppModule</title>
<path fill="none" stroke="black" d="M1341,-85.08C1341,-106.12 1341,-137.8 1341,-137.8 1341,-137.8 840.94,-137.8 840.94,-137.8"/>
<polygon fill="black" stroke="black" points="840.94,-134.3 830.94,-137.8 840.94,-141.3 840.94,-134.3"/>
</g>
<!-- CloudproviderModule -->
<g id="node3" class="node">
<title>CloudproviderModule</title>
<polygon fill="#8dd3c7" stroke="black" points="1277.7,-84.8 1274.7,-88.8 1253.7,-88.8 1250.7,-84.8 1136.3,-84.8 1136.3,-48.8 1277.7,-48.8 1277.7,-84.8"/>
<text text-anchor="middle" x="1207" y="-62.6" font-family="Times,serif" font-size="14.00">CloudproviderModule</text>
</g>
<!-- CloudproviderModule&#45;&gt;AppModule -->
<g id="edge3" class="edge">
<title>CloudproviderModule&#45;&gt;AppModule</title>
<path fill="none" stroke="black" d="M1207,-84.91C1207,-104.14 1207,-131.8 1207,-131.8 1207,-131.8 840.99,-131.8 840.99,-131.8"/>
<polygon fill="black" stroke="black" points="840.99,-128.3 830.99,-131.8 840.99,-135.3 840.99,-128.3"/>
</g>
<!-- ComputeModule -->
<g id="node4" class="node">
<title>ComputeModule</title>
<polygon fill="#8dd3c7" stroke="black" points="1118.38,-84.8 1115.38,-88.8 1094.38,-88.8 1091.38,-84.8 1007.62,-84.8 1007.62,-48.8 1118.38,-48.8 1118.38,-84.8"/>
<text text-anchor="middle" x="1063" y="-62.6" font-family="Times,serif" font-size="14.00">ComputeModule</text>
</g>
<!-- ComputeModule&#45;&gt;AppModule -->
<g id="edge4" class="edge">
<title>ComputeModule&#45;&gt;AppModule</title>
<path fill="none" stroke="black" d="M1063,-84.82C1063,-102.17 1063,-125.8 1063,-125.8 1063,-125.8 840.91,-125.8 840.91,-125.8"/>
<polygon fill="black" stroke="black" points="840.91,-122.3 830.91,-125.8 840.91,-129.3 840.91,-122.3"/>
</g>
<!-- CoreModule -->
<g id="node5" class="node">
<title>CoreModule</title>
<polygon fill="#8dd3c7" stroke="black" points="989.26,-84.8 986.26,-88.8 965.26,-88.8 962.26,-84.8 902.74,-84.8 902.74,-48.8 989.26,-48.8 989.26,-84.8"/>
<text text-anchor="middle" x="946" y="-62.6" font-family="Times,serif" font-size="14.00">CoreModule</text>
</g>
<!-- CoreModule&#45;&gt;AppModule -->
<g id="edge5" class="edge">
<title>CoreModule&#45;&gt;AppModule</title>
<path fill="none" stroke="black" d="M946,-85.04C946,-100.37 946,-119.8 946,-119.8 946,-119.8 840.66,-119.8 840.66,-119.8"/>
<polygon fill="black" stroke="black" points="840.66,-116.3 830.66,-119.8 840.66,-123.3 840.66,-116.3"/>
</g>
<!-- IamModule -->
<g id="node6" class="node">
<title>IamModule</title>
<polygon fill="#8dd3c7" stroke="black" points="884.82,-84.8 881.82,-88.8 860.82,-88.8 857.82,-84.8 803.18,-84.8 803.18,-48.8 884.82,-48.8 884.82,-84.8"/>
<text text-anchor="middle" x="844" y="-62.6" font-family="Times,serif" font-size="14.00">IamModule</text>
</g>
<!-- IamModule&#45;&gt;AppModule -->
<g id="edge6" class="edge">
<title>IamModule&#45;&gt;AppModule</title>
<path fill="none" stroke="black" d="M817.09,-84.91C817.09,-84.91 817.09,-103.79 817.09,-103.79"/>
<polygon fill="black" stroke="black" points="813.59,-103.79 817.09,-113.79 820.59,-103.79 813.59,-103.79"/>
</g>
<!-- ImagesModule -->
<g id="node7" class="node">
<title>ImagesModule</title>
<polygon fill="#8dd3c7" stroke="black" points="784.97,-84.8 781.97,-88.8 760.97,-88.8 757.97,-84.8 685.03,-84.8 685.03,-48.8 784.97,-48.8 784.97,-84.8"/>
<text text-anchor="middle" x="735" y="-62.6" font-family="Times,serif" font-size="14.00">ImagesModule</text>
</g>
<!-- ImagesModule&#45;&gt;AppModule -->
<g id="edge7" class="edge">
<title>ImagesModule&#45;&gt;AppModule</title>
<path fill="none" stroke="black" d="M766.08,-84.91C766.08,-84.91 766.08,-103.79 766.08,-103.79"/>
<polygon fill="black" stroke="black" points="762.58,-103.79 766.08,-113.79 769.58,-103.79 762.58,-103.79"/>
</g>
<!-- MessagingModule -->
<g id="node8" class="node">
<title>MessagingModule</title>
<polygon fill="#8dd3c7" stroke="black" points="667.2,-84.8 664.2,-88.8 643.2,-88.8 640.2,-84.8 546.8,-84.8 546.8,-48.8 667.2,-48.8 667.2,-84.8"/>
<text text-anchor="middle" x="607" y="-62.6" font-family="Times,serif" font-size="14.00">MessagingModule</text>
</g>
<!-- MessagingModule&#45;&gt;AppModule -->
<g id="edge8" class="edge">
<title>MessagingModule&#45;&gt;AppModule</title>
<path fill="none" stroke="black" d="M607,-85.04C607,-100.37 607,-119.8 607,-119.8 607,-119.8 737.25,-119.8 737.25,-119.8"/>
<polygon fill="black" stroke="black" points="737.25,-123.3 747.25,-119.8 737.25,-116.3 737.25,-123.3"/>
</g>
<!-- NetworkModule -->
<g id="node9" class="node">
<title>NetworkModule</title>
<polygon fill="#8dd3c7" stroke="black" points="529.03,-84.8 526.03,-88.8 505.03,-88.8 502.03,-84.8 420.97,-84.8 420.97,-48.8 529.03,-48.8 529.03,-84.8"/>
<text text-anchor="middle" x="475" y="-62.6" font-family="Times,serif" font-size="14.00">NetworkModule</text>
</g>
<!-- NetworkModule&#45;&gt;AppModule -->
<g id="edge9" class="edge">
<title>NetworkModule&#45;&gt;AppModule</title>
<path fill="none" stroke="black" d="M475,-84.82C475,-102.17 475,-125.8 475,-125.8 475,-125.8 737.3,-125.8 737.3,-125.8"/>
<polygon fill="black" stroke="black" points="737.3,-129.3 747.3,-125.8 737.3,-122.3 737.3,-129.3"/>
</g>
<!-- ProjectsModule -->
<g id="node10" class="node">
<title>ProjectsModule</title>
<polygon fill="#8dd3c7" stroke="black" points="402.15,-84.8 399.15,-88.8 378.15,-88.8 375.15,-84.8 297.85,-84.8 297.85,-48.8 402.15,-48.8 402.15,-84.8"/>
<text text-anchor="middle" x="350" y="-62.6" font-family="Times,serif" font-size="14.00">ProjectsModule</text>
</g>
<!-- ProjectsModule&#45;&gt;AppModule -->
<g id="edge10" class="edge">
<title>ProjectsModule&#45;&gt;AppModule</title>
<path fill="none" stroke="black" d="M350,-84.91C350,-104.14 350,-131.8 350,-131.8 350,-131.8 737.3,-131.8 737.3,-131.8"/>
<polygon fill="black" stroke="black" points="737.3,-135.3 747.3,-131.8 737.3,-128.3 737.3,-135.3"/>
</g>
<!-- TerraformModule -->
<g id="node11" class="node">
<title>TerraformModule</title>
<polygon fill="#8dd3c7" stroke="black" points="279.56,-84.8 276.56,-88.8 255.56,-88.8 252.56,-84.8 162.44,-84.8 162.44,-48.8 279.56,-48.8 279.56,-84.8"/>
<text text-anchor="middle" x="221" y="-62.6" font-family="Times,serif" font-size="14.00">TerraformModule</text>
</g>
<!-- TerraformModule&#45;&gt;AppModule -->
<g id="edge11" class="edge">
<title>TerraformModule&#45;&gt;AppModule</title>
<path fill="none" stroke="black" d="M221,-85.08C221,-106.12 221,-137.8 221,-137.8 221,-137.8 737.23,-137.8 737.23,-137.8"/>
<polygon fill="black" stroke="black" points="737.23,-141.3 747.23,-137.8 737.23,-134.3 737.23,-141.3"/>
</g>
<!-- AppService -->
<g id="node13" class="node">
<title>AppService</title>
<ellipse fill="#fdb462" stroke="black" cx="81" cy="-66.8" rx="56.74" ry="18"/>
<text text-anchor="middle" x="81" y="-62.6" font-family="Times,serif" font-size="14.00">AppService</text>
</g>
<!-- AppService&#45;&gt;AppModule -->
<g id="edge12" class="edge">
<title>AppService&#45;&gt;AppModule</title>
<path fill="none" stroke="black" d="M81,-84.89C81,-107.93 81,-144.8 81,-144.8 81,-144.8 737.09,-144.8 737.09,-144.8"/>
<polygon fill="black" stroke="black" points="737.09,-148.3 747.09,-144.8 737.09,-141.3 737.09,-148.3"/>
</g>
</g>
</svg>
