<?xml version="1.0" encoding="UTF-8" standalone="no"?>
<!DOCTYPE svg PUBLIC "-//W3C//DTD SVG 1.1//EN"
 "http://www.w3.org/Graphics/SVG/1.1/DTD/svg11.dtd">
<!-- Generated by graphviz version 2.47.3 (20210619.1520)
 -->
<!-- Title: dependencies Pages: 1 -->
<svg width="610pt" height="174pt"
 viewBox="0.00 0.00 610.00 173.80" xmlns="http://www.w3.org/2000/svg" xmlns:xlink="http://www.w3.org/1999/xlink">
<g id="graph0" class="graph" transform="scale(1 1) rotate(0) translate(4 169.8)">
<title>dependencies</title>
<polygon fill="white" stroke="transparent" points="-4,4 -4,-169.8 606,-169.8 606,4 -4,4"/>
<text text-anchor="middle" x="301" y="-8.2" font-family="sans-serif" font-size="14.00">dependencies</text>
<g id="clust1" class="cluster">
<title>cluster_MonitoringModule</title>
<polygon fill="none" stroke="black" stroke-dasharray="1,5" points="8,-32.8 8,-157.8 594,-157.8 594,-32.8 8,-32.8"/>
</g>
<g id="clust3" class="cluster">
<title>cluster_MonitoringModule_imports</title>
<polygon fill="none" stroke="black" points="16,-40.8 16,-92.8 586,-92.8 586,-40.8 16,-40.8"/>
</g>
<!-- DashboardModule -->
<g id="node1" class="node">
<title>DashboardModule</title>
<polygon fill="#8dd3c7" stroke="black" points="578.19,-84.8 575.19,-88.8 554.19,-88.8 551.19,-84.8 457.81,-84.8 457.81,-48.8 578.19,-48.8 578.19,-84.8"/>
<text text-anchor="middle" x="518" y="-62.6" font-family="Times,serif" font-size="14.00">DashboardModule</text>
</g>
<!-- MonitoringModule -->
<g id="node5" class="node">
<title>MonitoringModule</title>
<polygon fill="#8dd3c7" stroke="black" points="369.83,-149.8 366.83,-153.8 345.83,-153.8 342.83,-149.8 246.17,-149.8 246.17,-113.8 369.83,-113.8 369.83,-149.8"/>
<text text-anchor="middle" x="308" y="-127.6" font-family="Times,serif" font-size="14.00">MonitoringModule</text>
</g>
<!-- DashboardModule&#45;&gt;MonitoringModule -->
<g id="edge1" class="edge">
<title>DashboardModule&#45;&gt;MonitoringModule</title>
<path fill="none" stroke="black" d="M518,-84.91C518,-104.14 518,-131.8 518,-131.8 518,-131.8 379.87,-131.8 379.87,-131.8"/>
<polygon fill="black" stroke="black" points="379.87,-128.3 369.87,-131.8 379.87,-135.3 379.87,-128.3"/>
</g>
<!-- LoggingModule -->
<g id="node2" class="node">
<title>LoggingModule</title>
<polygon fill="#8dd3c7" stroke="black" points="439.49,-84.8 436.49,-88.8 415.49,-88.8 412.49,-84.8 332.51,-84.8 332.51,-48.8 439.49,-48.8 439.49,-84.8"/>
<text text-anchor="middle" x="386" y="-62.6" font-family="Times,serif" font-size="14.00">LoggingModule</text>
</g>
<!-- LoggingModule&#45;&gt;MonitoringModule -->
<g id="edge2" class="edge">
<title>LoggingModule&#45;&gt;MonitoringModule</title>
<path fill="none" stroke="black" d="M351.08,-84.91C351.08,-84.91 351.08,-103.79 351.08,-103.79"/>
<polygon fill="black" stroke="black" points="347.58,-103.79 351.08,-113.79 354.58,-103.79 347.58,-103.79"/>
</g>
<!-- MonitoringRoutingModule -->
<g id="node3" class="node">
<title>MonitoringRoutingModule</title>
<polygon fill="#8dd3c7" stroke="black" points="314.45,-84.8 311.45,-88.8 290.45,-88.8 287.45,-84.8 145.55,-84.8 145.55,-48.8 314.45,-48.8 314.45,-84.8"/>
<text text-anchor="middle" x="230" y="-62.6" font-family="Times,serif" font-size="14.00">MonitoringRoutingModule</text>
</g>
<!-- MonitoringRoutingModule&#45;&gt;MonitoringModule -->
<g id="edge3" class="edge">
<title>MonitoringRoutingModule&#45;&gt;MonitoringModule</title>
<path fill="none" stroke="black" d="M280.28,-84.91C280.28,-84.91 280.28,-103.79 280.28,-103.79"/>
<polygon fill="black" stroke="black" points="276.78,-103.79 280.28,-113.79 283.78,-103.79 276.78,-103.79"/>
</g>
<!-- TracingModule -->
<g id="node4" class="node">
<title>TracingModule</title>
<polygon fill="#8dd3c7" stroke="black" points="127.58,-84.8 124.58,-88.8 103.58,-88.8 100.58,-84.8 24.42,-84.8 24.42,-48.8 127.58,-48.8 127.58,-84.8"/>
<text text-anchor="middle" x="76" y="-62.6" font-family="Times,serif" font-size="14.00">TracingModule</text>
</g>
<!-- TracingModule&#45;&gt;MonitoringModule -->
<g id="edge4" class="edge">
<title>TracingModule&#45;&gt;MonitoringModule</title>
<path fill="none" stroke="black" d="M76,-84.91C76,-104.14 76,-131.8 76,-131.8 76,-131.8 236.13,-131.8 236.13,-131.8"/>
<polygon fill="black" stroke="black" points="236.13,-135.3 246.13,-131.8 236.13,-128.3 236.13,-135.3"/>
</g>
</g>
</svg>
