<?xml version="1.0" encoding="UTF-8" standalone="no"?>
<!DOCTYPE svg PUBLIC "-//W3C//DTD SVG 1.1//EN"
 "http://www.w3.org/Graphics/SVG/1.1/DTD/svg11.dtd">
<!-- Generated by graphviz version 2.40.1 (20161225.0304)
 -->
<!-- Title: dependencies Pages: 1 -->
<svg width="610pt" height="211pt"
 viewBox="0.00 0.00 610.00 211.00" xmlns="http://www.w3.org/2000/svg" xmlns:xlink="http://www.w3.org/1999/xlink">
<g id="graph0" class="graph" transform="scale(1 1) rotate(0) translate(4 207)">
<title>dependencies</title>
<polygon fill="#ffffff" stroke="transparent" points="-4,4 -4,-207 606,-207 606,4 -4,4"/>
<text text-anchor="start" x="280.0091" y="-42.4" font-family="sans-serif" font-weight="bold" font-size="14.00" fill="#000000">Legend</text>
<polygon fill="#ffffb3" stroke="transparent" points="67,-10 67,-30 87,-30 87,-10 67,-10"/>
<text text-anchor="start" x="90.629" y="-15.4" font-family="sans-serif" font-size="14.00" fill="#000000"> &#160;Declarations</text>
<polygon fill="#8dd3c7" stroke="transparent" points="180,-10 180,-30 200,-30 200,-10 180,-10"/>
<text text-anchor="start" x="203.7251" y="-15.4" font-family="sans-serif" font-size="14.00" fill="#000000"> &#160;Module</text>
<polygon fill="#80b1d3" stroke="transparent" points="266,-10 266,-30 286,-30 286,-10 266,-10"/>
<text text-anchor="start" x="289.7812" y="-15.4" font-family="sans-serif" font-size="14.00" fill="#000000"> &#160;Bootstrap</text>
<polygon fill="#fdb462" stroke="transparent" points="363,-10 363,-30 383,-30 383,-10 363,-10"/>
<text text-anchor="start" x="386.6732" y="-15.4" font-family="sans-serif" font-size="14.00" fill="#000000"> &#160;Providers</text>
<polygon fill="#fb8072" stroke="transparent" points="459,-10 459,-30 479,-30 479,-10 459,-10"/>
<text text-anchor="start" x="482.7258" y="-15.4" font-family="sans-serif" font-size="14.00" fill="#000000"> &#160;Exports</text>
<g id="clust1" class="cluster">
<title>cluster_MonitoringModule</title>
<polygon fill="none" stroke="#000000" stroke-dasharray="1,5" points="8,-70 8,-195 594,-195 594,-70 8,-70"/>
</g>
<g id="clust3" class="cluster">
<title>cluster_MonitoringModule_imports</title>
<polygon fill="none" stroke="#000000" points="16,-78 16,-130 586,-130 586,-78 16,-78"/>
</g>
<!-- DashboardModule -->
<g id="node1" class="node">
<title>DashboardModule</title>
<polygon fill="#8dd3c7" stroke="#000000" points="578.191,-122 575.191,-126 554.191,-126 551.191,-122 457.809,-122 457.809,-86 578.191,-86 578.191,-122"/>
<text text-anchor="middle" x="518" y="-99.8" font-family="Times,serif" font-size="14.00" fill="#000000">DashboardModule</text>
</g>
<!-- MonitoringModule -->
<g id="node5" class="node">
<title>MonitoringModule</title>
<polygon fill="#8dd3c7" stroke="#000000" points="369.8272,-187 366.8272,-191 345.8272,-191 342.8272,-187 246.1728,-187 246.1728,-151 369.8272,-151 369.8272,-187"/>
<text text-anchor="middle" x="308" y="-164.8" font-family="Times,serif" font-size="14.00" fill="#000000">MonitoringModule</text>
</g>
<!-- DashboardModule&#45;&gt;MonitoringModule -->
<g id="edge1" class="edge">
<title>DashboardModule&#45;&gt;MonitoringModule</title>
<path fill="none" stroke="#000000" d="M518,-122.1061C518,-141.3391 518,-169 518,-169 518,-169 379.8711,-169 379.8711,-169"/>
<polygon fill="#000000" stroke="#000000" points="379.8711,-165.5001 369.8711,-169 379.8711,-172.5001 379.8711,-165.5001"/>
</g>
<!-- LoggingModule -->
<g id="node2" class="node">
<title>LoggingModule</title>
<polygon fill="#8dd3c7" stroke="#000000" points="439.493,-122 436.493,-126 415.493,-126 412.493,-122 332.507,-122 332.507,-86 439.493,-86 439.493,-122"/>
<text text-anchor="middle" x="386" y="-99.8" font-family="Times,serif" font-size="14.00" fill="#000000">LoggingModule</text>
</g>
<!-- LoggingModule&#45;&gt;MonitoringModule -->
<g id="edge2" class="edge">
<title>LoggingModule&#45;&gt;MonitoringModule</title>
<path fill="none" stroke="#000000" d="M351.0834,-122.1061C351.0834,-122.1061 351.0834,-140.991 351.0834,-140.991"/>
<polygon fill="#000000" stroke="#000000" points="347.5835,-140.9909 351.0834,-150.991 354.5835,-140.991 347.5835,-140.9909"/>
</g>
<!-- MonitoringRoutingModule -->
<g id="node3" class="node">
<title>MonitoringRoutingModule</title>
<polygon fill="#8dd3c7" stroke="#000000" points="314.4452,-122 311.4452,-126 290.4452,-126 287.4452,-122 145.5548,-122 145.5548,-86 314.4452,-86 314.4452,-122"/>
<text text-anchor="middle" x="230" y="-99.8" font-family="Times,serif" font-size="14.00" fill="#000000">MonitoringRoutingModule</text>
</g>
<!-- MonitoringRoutingModule&#45;&gt;MonitoringModule -->
<g id="edge3" class="edge">
<title>MonitoringRoutingModule&#45;&gt;MonitoringModule</title>
<path fill="none" stroke="#000000" d="M280.2795,-122.1061C280.2795,-122.1061 280.2795,-140.991 280.2795,-140.991"/>
<polygon fill="#000000" stroke="#000000" points="276.7795,-140.9909 280.2795,-150.991 283.7795,-140.991 276.7795,-140.9909"/>
</g>
<!-- TracingModule -->
<g id="node4" class="node">
<title>TracingModule</title>
<polygon fill="#8dd3c7" stroke="#000000" points="127.5828,-122 124.5828,-126 103.5828,-126 100.5828,-122 24.4172,-122 24.4172,-86 127.5828,-86 127.5828,-122"/>
<text text-anchor="middle" x="76" y="-99.8" font-family="Times,serif" font-size="14.00" fill="#000000">TracingModule</text>
</g>
<!-- TracingModule&#45;&gt;MonitoringModule -->
<g id="edge4" class="edge">
<title>TracingModule&#45;&gt;MonitoringModule</title>
<path fill="none" stroke="#000000" d="M76,-122.1061C76,-141.3391 76,-169 76,-169 76,-169 236.133,-169 236.133,-169"/>
<polygon fill="#000000" stroke="#000000" points="236.1331,-172.5001 246.133,-169 236.133,-165.5001 236.1331,-172.5001"/>
</g>
</g>
</svg>
