<svg id="Layer_1" data-name="Layer 1" xmlns="http://www.w3.org/2000/svg" viewBox="0 0 90.901 100.3">
  <title>Artboard 35</title>
  <g>
    <path d="M45.2,100.3c11.9,0,45.7-7.6,45.7-41.6,0-10.4-1.9-19.5-5.7-27a17.616,17.616,0,0,0,4-11.8A13.706,13.706,0,0,0,75.4,7a15.584,15.584,0,0,0-11.8,5.7,29.928,29.928,0,0,0-3.2-1l1.3-1.4a2.905,2.905,0,0,0,.5-3.2,3.077,3.077,0,0,0-2.8-1.8,39.525,39.525,0,0,0-7.9.9c-.3-1.7-.6-3.5-.7-3.8A2.911,2.911,0,0,0,48.7.1a2.2,2.2,0,0,0-.8-.1,2.836,2.836,0,0,0-2.2,1,49.574,49.574,0,0,0-5,6.4,27.581,27.581,0,0,0-5.4-.5c-2.4,0-4.2.2-4.3.2a2.845,2.845,0,0,0-2.4,1.8,2.973,2.973,0,0,0,.4,3,1.238,1.238,0,0,1,.2.3c-.7.2-1.3.4-1.9.6A15.428,15.428,0,0,0,15.5,7.1a14.091,14.091,0,0,0-8.8,3.1,13.656,13.656,0,0,0-5,9.8,17.617,17.617,0,0,0,4,11.8C1.9,39.3,0,48.4,0,58.8-.2,92.7,33.4,100.3,45.2,100.3Z" fill="#2d2413"/>
    <g>
      <g>
        <g>
          <path d="M12.5,34c6.8,4.2,18.1,6.6,16.3-9.4C27.2,10.9,15.4,6.7,8.4,12.4,1.5,18.1,4.3,28.8,12.5,34Z" fill="#9e5b25"/>
          <path d="M14.1,33.2c4.2,2.6,11.3,4.1,10.2-5.8-1-8.6-8.4-11.1-12.7-7.6C7.3,23.2,9,30,14.1,33.2Z" fill="#4e3012"/>
        </g>
        <g>
          <path d="M78.2,34c-6.8,4.2-18.1,6.6-16.3-9.4C63.5,10.9,75.3,6.7,82.3,12.4,89.2,18.1,86.4,28.8,78.2,34Z" fill="#9e5b25"/>
          <path d="M76.6,33.2c-4.2,2.6-11.3,4.1-10.2-5.8,1-8.6,8.4-11.1,12.7-7.6C83.5,23.2,81.7,30,76.6,33.2Z" fill="#4e3012"/>
        </g>
      </g>
      <path d="M2.8,58.7c0-24.1,10.9-45.9,42.5-45.9S87.8,34.6,87.8,58.7c0,32.8-33.8,38.6-42.7,38.6C36.3,97.3,2.8,91.5,2.8,58.7Z" fill="#9e5b25"/>
      <path d="M61.9,69.5c0,9.1-5,23.5-16.5,23.5S28.9,78.6,28.9,69.5s7.4-12.1,16.5-12.1S61.9,60.4,61.9,69.5Z" fill="#f4d17c"/>
      <path d="M54.2,59.8c0,4.9-.9,8.8-8.8,8.8s-8.8-3.9-8.8-8.8C36.5,54.9,54.2,54.9,54.2,59.8Z" fill="#010101"/>
      <path d="M36.5,16.1a61.839,61.839,0,0,1-5.3-6.2s7.2-.9,10.9.9c.7-2.5,5.7-8,5.7-8s1,5.4,1.2,7.1c4-1.8,10.4-1.8,10.4-1.8l-7.7,8.4" fill="#9e5b25"/>
      <g>
        <g>
          <g>
            <path d="M41.4,77h4V88a9.864,9.864,0,0,1-4-1C40.1,86,41.4,77,41.4,77Z" fill="#faefd4"/>
            <path d="M45.7,88.3h-.3a10.225,10.225,0,0,1-4.1-1.1c-1.4-1-.4-8.7-.1-10.3v-.3h4.6V88.3Zm-4-11c-.6,4.3-.8,8.9-.1,9.3a10.4,10.4,0,0,0,3.5,1V77.3Z" fill="#010101"/>
          </g>
          <g>
            <path d="M49.4,77h-4V88a9.864,9.864,0,0,0,4-1C50.7,86,49.4,77,49.4,77Z" fill="#faefd4"/>
            <path d="M45.1,88.3V76.7h4.6V77c.2,1.5,1.3,9.3-.1,10.3a10.616,10.616,0,0,1-4.1,1.1Zm.6-11V87.6a8.948,8.948,0,0,0,3.5-1c.7-.5.5-5.1-.1-9.3Z" fill="#010101"/>
          </g>
        </g>
        <path d="M54.2,77.5H36.6a.9.9,0,1,1,0-1.8H54.2a.9.9,0,1,1,0,1.8Z" fill="#010101"/>
      </g>
      <g>
        <path d="M17.1,57.4c.7-10.2,10.4-10.7,13.7-1.6C30.8,55.8,25.4,50.6,17.1,57.4Z" fill="#010101"/>
        <path d="M61.9,57.4c.7-10.2,10.4-10.7,13.7-1.6C75.6,55.8,70.2,50.6,61.9,57.4Z" fill="#010101"/>
      </g>
      <g>
        <path d="M31.5,42s-.8,0-1.9-.1a5.161,5.161,0,0,1-1.1-.2l-1.2-.3c-.4-.1-.8-.3-1.2-.4a11.726,11.726,0,0,1-1.1-.5,13.735,13.735,0,0,1-2-1.3c-.6-.5-1.2-.9-1.6-1.3A14.671,14.671,0,0,1,20,36.5a.212.212,0,1,1,.3-.3,16.339,16.339,0,0,0,1.6.9c.5.3,1.1.5,1.7.8a15.175,15.175,0,0,0,2,.6l1,.2c.3,0,.7.1,1,.1h.8c.3,0,.4.1.7,0a15.151,15.151,0,0,1,1.9-.4,1.844,1.844,0,1,1,.8,3.6C31.8,41.9,31.7,42,31.5,42Z" fill="#4e3012"/>
        <path d="M59.6,38.3s.8.2,1.9.4a1.634,1.634,0,0,0,.7,0H63c.3,0,.6-.1,1-.1l1-.2c.7-.2,1.4-.4,2-.6a13.765,13.765,0,0,0,1.7-.8,16.339,16.339,0,0,0,1.6-.9c.1-.1.2,0,.3.1a.188.188,0,0,1,0,.3,14.671,14.671,0,0,1-1.4,1.4c-.4.4-1,.8-1.6,1.3s-1.3.8-2,1.3a11.726,11.726,0,0,0-1.1.5,2.451,2.451,0,0,1-1.2.4l-1.2.3a5.161,5.161,0,0,1-1.1.2,14.886,14.886,0,0,0-1.9.1,1.851,1.851,0,0,1-.1-3.7Z" fill="#4e3012"/>
      </g>
      <g>
        <circle cx="70.601" cy="69.4" r="5.1" fill="#eb6426"/>
        <circle cx="20.301" cy="69.4" r="5.1" fill="#eb6426"/>
      </g>
    </g>
  </g>
</svg>
