<svg id="Layer_1" data-name="Layer 1" xmlns="http://www.w3.org/2000/svg" viewBox="0 0 92.8 131.6">
  <title>Artboard 36</title>
  <g>
    <path d="M84,20.2c-1.5-6-3.1-12.2-4-17.6A3.112,3.112,0,0,0,77.7.1c-.2,0-.4-.1-.6-.1a2.973,2.973,0,0,0-2.5,1.4,104.063,104.063,0,0,1-8.8,11.4c-6.2,7.4-11.2,13.3-10.3,25.5,0,.4.1.7.1,1.1a56.158,56.158,0,0,0-9.2-.7,56.158,56.158,0,0,0-9.2.7c0-.4.1-.7.1-1.1.8-12.2-4.1-18.1-10.3-25.5A127.765,127.765,0,0,1,18.2,1.4,2.973,2.973,0,0,0,15.7,0a1.269,1.269,0,0,0-.6.1,2.987,2.987,0,0,0-2.3,2.5c-.9,5.4-2.4,11.6-4,17.6C5.2,34.6,1.4,49.5,5.6,59A38.107,38.107,0,0,0,0,79.4c0,28.4,23.8,45.8,40,50.6a15.492,15.492,0,0,0,6.4,1.6,14.8,14.8,0,0,0,6.9-1.8c13.8-4.4,39.5-20.4,39.5-50.3a38.106,38.106,0,0,0-5.6-20.4C91.4,49.5,87.6,34.7,84,20.2Z" fill="#2d2413"/>
    <g>
      <g>
        <g>
          <path d="M10.3,61c10.5-8.6,22.9-6.2,24-22.9C35.4,22.2,26,18.7,15.7,3,12.4,23.1.8,50.4,10.3,61Z" fill="#da7d27"/>
          <path d="M13.4,54.9c5-4.1,11-3,11.5-11,.5-7.6-8.9-16.8-8.9-16.8S8.8,49.9,13.4,54.9Z" fill="#6e4019"/>
        </g>
        <g>
          <path d="M82.4,61c-10.5-8.6-22.9-6.2-24-22.9C57.3,22.2,66.7,18.7,77,3,80.3,23.1,91.9,50.4,82.4,61Z" fill="#da7d27"/>
          <path d="M79.4,54.9c-5-4.1-11-3-11.5-11-.5-7.6,8.9-16.8,8.9-16.8S83.9,49.9,79.4,54.9Z" fill="#6e4019"/>
        </g>
      </g>
      <path d="M2.9,79.4c0-24.6,21.3-37.7,43.4-37.7S89.7,54.8,89.7,79.4c0,33.5-34.5,48.7-43.6,48.7C37.1,128,2.9,112.8,2.9,79.4Z" fill="#da7d27"/>
      <path d="M63.2,109.4c0,9.3-9.1,19.1-16.9,19.1s-16.9-9.8-16.9-19.1S37,97,46.3,97C55.7,97,63.2,100,63.2,109.4Z" fill="#f9f1dc"/>
      <path d="M54.3,102.4c0,4.4-6.2,7.9-7.9,7.9s-7.9-3.5-7.9-7.9c0-2.1,4,.6,7.9.6C50.4,103,54.3,100.2,54.3,102.4Z" fill="#6e4019"/>
      <g>
        <g>
          <circle cx="63.2" cy="88.1" r="7.6" fill="#231f20"/>
          <circle cx="65.3" cy="86.4" r="2.9" fill="#fff"/>
        </g>
        <g>
          <circle cx="29.5" cy="88.1" r="7.6" fill="#231f20"/>
          <circle cx="30.8" cy="86.4" r="2.9" fill="#fff"/>
        </g>
      </g>
      <path d="M46.4,114.2h0c-1.5,9.9-7.9,5.6-7.9,5.6,0,1.5,3.9,2.3,7.9,2.3,3.9,0,7.9-.8,7.9-2.3C54.3,119.8,47.9,124.1,46.4,114.2Z" fill="#010101"/>
      <g>
        <g>
          <path d="M90.7,104h0l-11.5-.7c-.4,0-.6-.3-.6-.7s.3-.6.7-.6l11.5.7c.4,0,.6.3.6.7A.73.73,0,0,1,90.7,104Z" fill="#231f20"/>
          <path d="M88.6,112.8a.367.367,0,0,1-.3-.1l-11.5-5.3a.6.6,0,0,1,.5-1.1l11.5,5.3a.553.553,0,0,1,.3.8A.458.458,0,0,1,88.6,112.8Z" fill="#231f20"/>
          <path d="M83.6,119.6a.52.52,0,0,1-.4-.2l-9-8.7a.561.561,0,0,1,0-.9.631.631,0,0,1,.9,0l9,8.7a.561.561,0,0,1,0,.9C84,119.6,83.8,119.6,83.6,119.6Z" fill="#231f20"/>
        </g>
        <g>
          <path d="M2,104a.645.645,0,0,1-.6-.6c0-.4.2-.7.6-.7l11.5-.7c.4,0,.7.2.7.6s-.2.7-.6.7L2,104Z" fill="#231f20"/>
          <path d="M4.1,112.8a.622.622,0,0,1-.6-.4.63.63,0,0,1,.3-.8l11.5-5.3a.6.6,0,0,1,.5,1.1L4.3,112.7A.349.349,0,0,1,4.1,112.8Z" fill="#231f20"/>
          <path d="M9.1,119.6c-.2,0-.3-.1-.5-.2a.746.746,0,0,1,0-.9l9-8.7a.636.636,0,0,1,.9.9l-9,8.7A.4.4,0,0,1,9.1,119.6Z" fill="#231f20"/>
        </g>
      </g>
      <g>
        <path d="M28.8,98.6l-6.6.7a4.457,4.457,0,1,0,4.6,6.2l2.7-6.1c0-.1.1-.2,0-.3A.752.752,0,0,0,28.8,98.6Z" fill="#e16a49"/>
        <path d="M63.9,98.6l6.6.7a4.457,4.457,0,1,1-4.6,6.2l-2.7-6.1c0-.1-.1-.2,0-.3A.752.752,0,0,1,63.9,98.6Z" fill="#e16a49"/>
      </g>
      <g>
        <path d="M29.7,71.7a3.224,3.224,0,0,0-.6-.2l-.6-.3c-.2-.1-.4-.1-.6-.2s-.6-.1-.9-.2a3.4,3.4,0,0,0-1-.1,9.858,9.858,0,0,0-2.4.1A18.426,18.426,0,0,0,19.1,72c-1.2.5-2,.9-2,.9-.1.1-.3,0-.4-.1s0-.2,0-.3a22.433,22.433,0,0,1,6.2-4,9.241,9.241,0,0,1,2.7-.8,6.884,6.884,0,0,1,1.3-.2c.4,0,.8-.1,1.3-.1h1.2c.3,0,.5.1.7.1a1.452,1.452,0,0,1,.6.1,2.165,2.165,0,0,1-.5,4.3C30,71.8,29.9,71.7,29.7,71.7Z" fill="#6e4019"/>
        <path d="M61.9,67.6a2.8,2.8,0,0,0,.6-.1c.2,0,.4-.1.7-.1h1.2c.4,0,.8.1,1.3.1a5.854,5.854,0,0,1,1.3.2,27.559,27.559,0,0,1,2.7.8,22.433,22.433,0,0,1,6.2,4,.3.3,0,0,1,0,.4.188.188,0,0,1-.3,0s-.8-.4-2-.9a18.426,18.426,0,0,0-4.5-1.2,19.273,19.273,0,0,0-2.4-.1,3.084,3.084,0,0,0-1,.1c-.3.1-.7.1-.9.2s-.4.1-.6.2a3.321,3.321,0,0,0-.6.3,3.224,3.224,0,0,0-.6.2,2.154,2.154,0,1,1-1.6-4A4.36,4.36,0,0,1,61.9,67.6Z" fill="#6e4019"/>
      </g>
    </g>
  </g>
</svg>
