<?xml version="1.0" encoding="utf-8"?>
<!-- Svg Vector Icons : http://www.onlinewebfonts.com/icon -->
<!DOCTYPE svg PUBLIC "-//W3C//DTD SVG 1.1//EN" "http://www.w3.org/Graphics/SVG/1.1/DTD/svg11.dtd">
<svg version="1.1" xmlns="http://www.w3.org/2000/svg" xmlns:xlink="http://www.w3.org/1999/xlink" x="0px" y="0px" viewBox="0 0 1000 1000" enable-background="new 0 0 1000 1000" xml:space="preserve">
<metadata> Svg Vector Icons : http://www.onlinewebfonts.com/icon </metadata>
<g><g><path d="M566.6,477.3c3.2,25.3-6.9,45.5-30.4,60.7c-23.5,15.2-45.8,16.4-67.1,3.6c-15.6-6.8-26.4-18.4-32.2-34.9c-5.8-16.4-5.9-32.9-0.3-49.3c5.6-16.4,16-28.1,31.3-34.9c14.4-7.2,29-9.6,43.6-7.2c14.6,2.4,27.5,9.5,38.5,21.3C561.1,448.5,566.6,462.1,566.6,477.3z M633.3,464.7c-5.6-42.9-28.3-75.8-68-98.6c-39.7-22.9-79.2-25.5-118.5-7.8c-25.3,11.2-45.4,29-60.4,53.2s-22,50.2-20.7,77.9c1.6,36.5,17.1,67.6,46.6,93.2s62.6,36.9,99.5,33.7c36.5-3.2,67-20,91.4-50.5C627.7,535.2,637.8,501.5,633.3,464.7L633.3,464.7z M777.1,138.7c-8-10.8-19.2-19.7-33.7-26.8c-14.4-7-26.1-11.4-34.9-13.2c-8.8-1.8-23.1-4.3-42.7-7.5c-116.7-18.8-230.1-18.4-340.4,1.2c-17.2,2.8-30.5,5.2-39.7,7.2c-9.2,2-20.2,6.4-33.1,13.2s-22.9,15.4-30.1,25.9c12,11.2,27.3,20.3,45.7,27.4c18.4,7,33.2,11.4,44.2,13.2c11,1.8,28.6,4.1,52.6,6.9c91.4,11.6,181.2,11.8,269.4,0.6c25.3-3.2,43.2-5.6,53.8-7.2c10.6-1.6,25.2-5.9,43.6-12.9C750.4,159.7,765.4,150.3,777.1,138.7L777.1,138.7z M811.3,761.1c-3.2,10.4-6.3,25.8-9.3,46c-3,20.2-5.8,37.1-8.4,50.5c-2.6,13.4-8.3,27.5-17.1,42.1c-8.8,14.6-20.4,26-34.9,34c-34.5,19.2-72.5,33.6-114,43c-41.5,9.4-82,13.8-121.5,13.2c-39.5-0.6-79.9-4.3-121.2-11.1c-18.4-3.2-34.8-6.8-49-10.8s-29.6-9.4-46-16.2c-16.4-6.8-31.1-15.5-43.9-26.2s-23.3-23-31.3-37c-10-38.5-21.4-97-34.3-175.6l3.6-9.6l10.8-5.4c89.4,59.3,190.9,89,304.6,89s215.4-29.7,305.2-89c8.4,2.4,13.2,7,14.4,13.8c1.2,6.8,0.2,15.8-3,27.1C813,750.1,811.3,757.5,811.3,761.1L811.3,761.1z M920.2,183.2c-10.4,67-32.7,198.3-66.8,393.9c-2,12-7.4,23.3-16.2,33.7c-8.8,10.4-17.5,18.4-26.2,24.1c-8.6,5.6-19.5,11.8-32.8,18.6c-101,50.5-223.3,68.2-366.8,52.9C312,695.6,233,667.7,174.5,622.8c-6-4.8-11.1-10.1-15.3-15.9c-4.2-5.8-7.6-12.8-10.2-21c-2.6-8.2-4.4-15-5.4-20.4c-1-5.4-2.2-13.3-3.6-23.8c-1.4-10.4-2.5-17.4-3.3-21c-3.6-20-8.9-50.1-15.9-90.2c-7-40.1-12.6-72.5-16.8-97.1c-4.2-24.7-8.9-54.2-14.1-88.7c-5.2-34.5-9.6-66.2-13.2-95c1.2-10.4,4.7-20.1,10.5-29.2s12.1-16.5,18.9-22.6c6.8-6,15.8-12,27.1-18c11.2-6,20.4-10.5,27.7-13.5c7.2-3,16.8-6.7,28.9-11.1c50.1-18.4,112.9-31.3,188.2-38.5c151.9-14.8,287.5-4.8,406.5,30.1c62.1,18.4,105.2,42.9,129.3,73.4c6.4,8,9.7,18.2,9.9,30.7C923.7,163.2,922.6,174,920.2,183.2L920.2,183.2z"/></g></g>
</svg>