<?xml version="1.0" encoding="utf-8"?>
<!-- Svg Vector Icons : http://www.onlinewebfonts.com/icon -->
<!DOCTYPE svg PUBLIC "-//W3C//DTD SVG 1.1//EN" "http://www.w3.org/Graphics/SVG/1.1/DTD/svg11.dtd">
<svg version="1.1" xmlns="http://www.w3.org/2000/svg" xmlns:xlink="http://www.w3.org/1999/xlink" x="0px" y="0px" viewBox="0 0 1000 1000" enable-background="new 0 0 1000 1000" xml:space="preserve">
<metadata> Svg Vector Icons : http://www.onlinewebfonts.com/icon </metadata>
<g><g><g><path d="M500,990c270.6,0,490-219.4,490-490S770.6,10,500,10S10,229.4,10,500S229.4,990,500,990z M643.6,92.9c72.1,25.4,135.5,69.5,184.3,126.4L647.4,403.6c-17.8-27.1-42.9-49.1-72.4-63L643.6,92.9z M572.9,72.9L552.3,330c-9.5-2.9-19.3-5-29.1-6.3L489.6,66.9C517.5,66.2,545.4,68.2,572.9,72.9z M500,419.2c44.6,0,80.8,36.2,80.8,80.8c0,44.6-36.2,80.8-80.8,80.8c-44.6,0-80.8-36.2-80.8-80.8C419.2,455.4,455.4,419.2,500,419.2z M388.8,636.6c25.4,20.6,56,33.7,88.2,38l-88,242.5c-72.4-19.3-139.6-57.3-193.8-111.3L388.8,636.6z"/></g></g><g></g><g></g><g></g><g></g><g></g><g></g><g></g><g></g><g></g><g></g><g></g><g></g><g></g><g></g><g></g></g>
</svg>