<?xml version="1.0" encoding="utf-8"?>
<!-- Svg Vector Icons : http://www.onlinewebfonts.com/icon -->
<!DOCTYPE svg PUBLIC "-//W3C//DTD SVG 1.1//EN" "http://www.w3.org/Graphics/SVG/1.1/DTD/svg11.dtd">
<svg version="1.1" xmlns="http://www.w3.org/2000/svg" xmlns:xlink="http://www.w3.org/1999/xlink" x="0px" y="0px" viewBox="0 0 1000 1000" enable-background="new 0 0 1000 1000" xml:space="preserve">
<metadata> Svg Vector Icons : http://www.onlinewebfonts.com/icon </metadata>
<g><path d="M794.4,720.3c0-43.1,0-59.9,0-59.9s1.5-69-54.3-69c-55.8,0-64.5,0-64.5,0v66h32.5c0,0,23.9,1,23.9,31.5c0,30.5,0,63.7,0,63.7s4.1,38.8,48.7,38.8c0,0-49.2,2.8-49.2,48c0,45.2,0,53,0,53s2.8,34.3-27.7,34.3c-30.4,0-456.3,0-456.3,0s-25.4-0.8-25.4-36.5c0-35.8,0-357.3,0-357.3s0.8-49-50.8-49c0,0,51-3.6,51-42.9c0-39.3,0-151,0-151s2.8-27.7,27.4-27.7c24.6,0,27.9,0.3,27.9,0.3V199h-68c0,0-49.2,0-49.2,64.7c0,64.7,0,150,0,150s-0.8,41.4-41.1,41.4V514h18.3c0,0,22.3-1.3,22.3,26.6c0,27.9,0,384.9,0,384.9s-2,64.5,57.6,64.5c59.6,0,523.2,0,523.2,0s53-3.6,53-64.5c0-60.9,0-68.5,0-68.5s-0.3-37.6,41.4-37.6v-56.8C835.2,762.6,794.4,763.4,794.4,720.3z"/><path d="M385.8,548.2L280,733.2l0,0l-27.7,48.2c0,0-7.9,12.7,44.9,43.1c52.8,30.2,62.9,18.8,62.9,18.8l5.6-9.9l0,0l144.1-251l5.1-8.4c25.1,7.4,51.8,11.2,79.2,11.2c111.4,0,207.8-63.9,254.5-157.3c20.3-39.3,32-84,32-131.4c0-113.4-66.2-211.4-162.4-257.1C680.2,20.4,637.3,10,591.9,10c-157.1,0-284.5,127.4-284.5,284.5c0,32.2,5.3,63.2,15.2,92.1c15.7,49.5,44.7,93.4,82.7,127.1L385.8,548.2C385.8,548,385.8,548.2,385.8,548.2z M390.6,297.5C390.6,184.1,482.5,92,596.2,92c113.4,0,205.5,91.9,205.5,205.5c0,113.4-91.9,205.5-205.5,205.5S390.6,411.2,390.6,297.5z"/></g>
</svg>