<?xml version="1.0" encoding="utf-8"?>
<!-- Svg Vector Icons : http://www.onlinewebfonts.com/icon -->
<!DOCTYPE svg PUBLIC "-//W3C//DTD SVG 1.1//EN" "http://www.w3.org/Graphics/SVG/1.1/DTD/svg11.dtd">
<svg version="1.1" xmlns="http://www.w3.org/2000/svg" xmlns:xlink="http://www.w3.org/1999/xlink" x="0px" y="0px" viewBox="0 0 1000 1000" enable-background="new 0 0 1000 1000" xml:space="preserve">
<metadata> Svg Vector Icons : http://www.onlinewebfonts.com/icon </metadata>
<g><g><g><g><path d="M147.2,10v980h705.6V10H147.2z M485.6,902.4H223.6v-276l91.6,84.9c-30.2,13.2-51.4,43.4-51.4,78.5c0,47.2,38.4,85.6,85.7,85.6c47.3,0,85.6-38.4,85.6-85.6c0-2.4-0.5-4.5-0.7-6.9c0.1-0.1,0.2-0.1,0.3-0.2l51.1,0.9C485.6,783.6,485.6,902.4,485.6,902.4z M397.1,783.1c0.2,2.3,1.2,4.3,1.2,6.6c0,27-21.9,48.9-48.9,48.9c-27.1,0-49-21.9-49-48.9c0-27.2,21.9-49,49-49c4.4,0,8.2,1.4,12.3,2.5c77.5-59.3,223.8-168.7,226.7-165.5C590.9,580.6,464.7,713.3,397.1,783.1z M542,671.5c93.2-101.8,83.1-113.8,76.5-121.2c-16.6-18.3-16.6-18.3-167.8,94.7l-26,19.8c-124.1-33.1-215.9-146.1-215.9-280.7c0-160.7,130.3-291,290.8-291c160.8,0,290.9,130.3,290.9,291C790.5,530.3,682.6,651,542,671.5z"/><path d="M499.6,297.7c-47.7,0-86.4,38.8-86.4,86.5c0,47.8,38.8,86.4,86.4,86.4c47.9,0,86.5-38.6,86.5-86.4C586.1,336.5,547.4,297.7,499.6,297.7z"/></g></g><g></g><g></g><g></g><g></g><g></g><g></g><g></g><g></g><g></g><g></g><g></g><g></g><g></g><g></g><g></g></g><g></g><g></g><g></g><g></g><g></g><g></g><g></g><g></g><g></g><g></g><g></g><g></g><g></g><g></g><g></g></g>
</svg>