<?xml version="1.0" encoding="utf-8"?>
<!-- Svg Vector Icons : http://www.onlinewebfonts.com/icon -->
<!DOCTYPE svg PUBLIC "-//W3C//DTD SVG 1.1//EN" "http://www.w3.org/Graphics/SVG/1.1/DTD/svg11.dtd">
<svg version="1.1" xmlns="http://www.w3.org/2000/svg" xmlns:xlink="http://www.w3.org/1999/xlink" x="0px" y="0px" viewBox="0 0 1000 1000" enable-background="new 0 0 1000 1000" xml:space="preserve">
<metadata> Svg Vector Icons : http://www.onlinewebfonts.com/icon </metadata>
<g><g><path d="M710.3,45.4c-154.5,0-279.7,125.2-279.7,279.7c0,21.4,2.4,42.2,7,62.2L10,814.7v69.9l69.9,69.9h139.9l69.9-69.9v-69.9h69.9v-69.9h69.9v-69.9h139.9l77.4-77.4c20.4,4.7,41.6,7.2,63.5,7.2C864.8,604.7,990,479.5,990,325S864.7,45.4,710.3,45.4L710.3,45.4z M429.6,535L79.9,884.7v-69.9l349.6-349.6V535z M779.2,325.2c-38.6,0-69.9-31.4-69.9-69.9c0-38.6,31.4-69.9,69.9-69.9c38.6,0,69.9,31.4,69.9,69.9C849.2,293.9,817.8,325.2,779.2,325.2z"/></g></g>
</svg>