<?xml version="1.0" encoding="utf-8"?>
<!-- Svg Vector Icons : http://www.onlinewebfonts.com/icon -->
<!DOCTYPE svg PUBLIC "-//W3C//DTD SVG 1.1//EN" "http://www.w3.org/Graphics/SVG/1.1/DTD/svg11.dtd">
<svg version="1.1" xmlns="http://www.w3.org/2000/svg" xmlns:xlink="http://www.w3.org/1999/xlink" x="0px" y="0px" viewBox="0 0 1000 1000" enable-background="new 0 0 1000 1000" xml:space="preserve">
<metadata> Svg Vector Icons : http://www.onlinewebfonts.com/icon </metadata>
<g><path d="M924.3,401.6H615.9c-15.2,0-27.8-12.6-27.8-27.8v-321c0-23.9-19.1-42.7-42.7-42.7H435c-23.9,0-42.7,19.1-42.7,42.7v318.8c-0.3,16.6-13.5,30.1-30.3,30.1l-100.8,0.8c-16.6,0-30.1-13.5-30.1-30.1l0.8-319.6c0-23.9-19.1-42.7-42.7-42.7H79.1c-23.9,0-42.7,19.1-42.7,42.7v899.1c0,21.3,17.4,38.2,38.2,38.2h850.8c21.3,0,38.2-17.4,38.2-38.2V439.5C962.2,418.1,945.6,401.6,924.3,401.6L924.3,401.6z M779.9,739.5c0,27.8-22.2,50-50,50h-87.1c-27.8,0-50-22.2-50-50v-87.4c0-27.8,22.2-50,50-50h87.1c27.8,0,50,22.2,50,50V739.5L779.9,739.5z"/></g>
</svg>