<?xml version="1.0" encoding="utf-8"?>
<!-- Svg Vector Icons : http://www.onlinewebfonts.com/icon -->
<!DOCTYPE svg PUBLIC "-//W3C//DTD SVG 1.1//EN" "http://www.w3.org/Graphics/SVG/1.1/DTD/svg11.dtd">
<svg version="1.1" xmlns="http://www.w3.org/2000/svg" xmlns:xlink="http://www.w3.org/1999/xlink" x="0px" y="0px" viewBox="0 0 1000 1000" enable-background="new 0 0 1000 1000" xml:space="preserve">
<metadata> Svg Vector Icons : http://www.onlinewebfonts.com/icon </metadata>
<g><g transform="translate(0.000000,499.000000) scale(0.100000,-0.100000)"><path d="M4591.4,4736.2c-1502.2-124.4-2855.2-922.4-3691.5-2179.7C452.1,1882.9,188,1113.6,119.1,288.8C109.6,162.5,100,1.7,100-69.1v-130.1h407.6h405.7l5.7,225.8c51.7,2237.1,1963.4,4007.3,4233.1,3921.2c1330-51.7,2531.8-721.5,3264.7-1825.7c413.4-621.9,658.3-1414.2,658.3-2122.3v-199h413.3H9900l-11.5,235.4c-24.9,480.3-67,769.3-172.2,1152c-355.9,1297.5-1253.5,2395.9-2470.6,3023.6C6445.8,4623.3,5496.6,4810.8,4591.4,4736.2z"/><path d="M4568.5,2707.7c-1173.1-179.9-2103.1-1050.6-2365.3-2216c-21.1-89.9-42.1-283.2-49.8-426.8l-11.5-264.1h403.8h405.7v130.1c0,734.9,449.7,1450.6,1119.5,1783.6c1046.8,520.5,2294.5,89.9,2782.5-960.7c118.6-254.5,193.3-585.6,193.3-861.2v-91.9h401.9h401.9v124.4c0,193.3-36.4,474.6-86.1,671.7c-266,1050.6-1098.5,1842.9-2191.2,2084C5404.7,2719.2,4750.3,2736.4,4568.5,2707.7z"/><path d="M4780.9,348.1c-537.7-225.8-581.8-928.1-78.5-1226.7c30.6-19.1-23-195.2-562.6-1909.9c-327.2-1039.1-591.3-1896.5-587.5-1906c11.5-17.2,239.2-88,248.8-76.6c3.8,3.8,42.1,122.5,86.1,260.3c61.2,199,86.1,254.5,112.9,254.5C4113-4260,6375-4482,6392.2-4491.6c11.5-7.7,38.3-68.9,61.3-137.8c23-68.9,49.7-130.1,59.3-135.9c11.5-5.8,76.5,3.8,143.5,22.9c91.9,26.8,122.5,44,116.8,65.1c-3.8,15.3-319.6,876.5-702.3,1911.8L5377.9-882.4l63.2,49.8c105.3,80.4,168.4,156.9,223.9,269.8c44,90,51.7,128.2,51.7,277.5c0,156.9-5.7,185.6-63.1,300.4c-116.7,237.3-319.6,365.5-597.1,375.1C4918.7,394.1,4876.6,388.3,4780.9,348.1z M5230.6-1326.4c72.7-195.2,128.2-355.9,126.3-359.8c-7.7-5.7-495.7,145.4-509,156.9c-7.7,7.7,107.2,394.2,153.1,522.4c11.5,30.6,30.6,42.1,57.4,38.3C5092.8-972.3,5121.5-1033.6,5230.6-1326.4z M5014.4-1894.7c116.7-26.8,214.3-55.5,214.3-61.3c-1.9-13.4-656.4-482.2-673.6-482.2c-5.7,0,32.5,137.8,86.1,306.2c76.5,241.1,103.3,304.3,128.2,296.6C4784.7-1839.2,4895.7-1866,5014.4-1894.7z M5697.5-2587.5c95.7-260.3,149.3-424.8,134-424.8c-28.7,0-1041,262.2-1087,281.3c-24.9,11.5,55.5,76.5,363.6,296.6c220.1,155,405.7,279.4,415.3,275.6C5533-2160.7,5611.4-2354,5697.5-2587.5z M5012.4-3109.9c323.4-84.2,591.3-156.9,597.1-160.8c3.8-5.7-13.4-17.2-38.3-26.8c-24.9-9.6-363.6-147.3-752.1-306.2c-386.6-160.7-711.9-289-719.5-285.1c-7.7,3.8,47.8,199,124.4,438.2c162.7,512.9,156.9,495.7,179.9,495.7C4415.4-2954.9,4689-3023.8,5012.4-3109.9z M6145.4-3796.9c78.5-210.5,135.9-388.5,130.1-394.2c-9.6-11.5-1678.3,156.9-1689.8,170.3c-5.7,5.7,1375.9,599,1408.5,604.7C5999.9-3414.2,6066.9-3586.4,6145.4-3796.9z"/></g></g>
</svg>