<?xml version="1.0" encoding="utf-8"?>
<!-- Svg Vector Icons : http://www.onlinewebfonts.com/icon -->
<!DOCTYPE svg PUBLIC "-//W3C//DTD SVG 1.1//EN" "http://www.w3.org/Graphics/SVG/1.1/DTD/svg11.dtd">
<svg version="1.1" xmlns="http://www.w3.org/2000/svg" xmlns:xlink="http://www.w3.org/1999/xlink" x="0px" y="0px" viewBox="0 0 1000 1000" enable-background="new 0 0 1000 1000" xml:space="preserve">
<metadata> Svg Vector Icons : http://www.onlinewebfonts.com/icon </metadata>
<g><g transform="translate(0.000000,214.000000) scale(0.100000,-0.100000)"><path d="M2181.8-2860v-4183.2h2828.1h2828.1V-2860v4183.2H5009.8H2181.8V-2860z M3501.5-2141.2c78.6-74.6,110-157.1,121.8-294.6c19.6-176.8,7.8-208.2-106.1-337.8c-70.7-82.5-153.2-145.3-188.5-145.3c-47.1,0-39.3-23.6,35.3-106.1c82.5-90.3,255.3-353.5,443.8-667.7c19.6-35.3-7.8-51.1-102.1-51.1c-121.7,0-145.3,23.6-314.2,306.4c-216,361.4-239.6,384.9-432.1,420.3l-149.3,27.5v-377.1v-377.1h-117.8h-117.8v868.1v868.1l412.4-15.7C3371.9-2035.2,3403.3-2043,3501.5-2141.2z M4876.3-2298.3c58.9-157.1,208.2-546,333.9-864.1l223.9-581.3h-129.6c-121.8,0-133.6,11.8-216,235.7l-86.4,235.7h-361.4h-361.4l-82.5-223.9c-70.7-208.2-90.3-227.8-208.2-239.6c-94.3-11.8-121.8,0-110,39.3c11.8,27.5,157.1,416.3,329.9,864.1l310.3,817h125.7C4762.4-2015.5,4774.1-2031.2,4876.3-2298.3z M6239.2-2691.1c157.1-361.4,290.7-659.9,302.5-659.9s153.2,294.6,318.1,659.9l294.6,656l145.3,11.8l145.3,11.8v-864.1v-868.1h-117.8h-117.8l-7.9,656l-11.8,659.9l-290.7-659.9c-204.2-455.6-310.3-656-353.5-656c-43.2,0-153.2,200.3-357.4,667.7l-294.6,671.7l-11.8-671.7l-7.9-667.7h-117.8h-117.8v868.1v864.1l161-11.8l161.1-11.8L6239.2-2691.1z"/><path d="M2810.2-2506.5v-294.6h208.2c251.4,0,381,106.1,381,306.4c0,196.4-113.9,282.8-373.1,282.8h-216V-2506.5z"/><path d="M4507.1-2663.6c-70.7-188.5-125.7-357.4-125.7-377.1s121.8-35.4,271-35.4h274.9l-117.8,322.1C4636.7-2278.7,4644.5-2282.6,4507.1-2663.6z"/><path d="M100,655.4V223.4h707h707v432.1v432.1H807H100V655.4z"/><path d="M8493.8,1063.9c-15.7-15.7-27.5-212.1-27.5-436V223.4l718.8,7.9L9900,243v412.4v412.4l-691.3,11.8C8831.6,1083.6,8509.5,1075.7,8493.8,1063.9z"/><path d="M100-1092.5v-412.4h707h707v412.4V-680H807H100V-1092.5z"/><path d="M8493.8-703.6c-15.7-15.7-27.5-204.2-27.5-416.4v-384.9h718.8H9900l-7.9,400.6l-3.9,404.6l-683.5,11.8C8827.7-684,8509.5-691.8,8493.8-703.6z"/><path d="M100-2860v-412.4h707h707v412.4v412.4H807H100V-2860z"/><path d="M8466.3-2860v-412.4h718.8H9900l-7.9,400.6l-3.9,404.6l-711,11.8l-710.9,7.9V-2860z"/><path d="M100-4627.5V-5040h707h707v412.4v412.4H807H100V-4627.5z"/><path d="M8466.3-4627.5V-5040h699.2c384.9,0,711,7.9,718.8,15.7c7.9,7.8,11.8,196.4,3.9,412.4l-11.8,396.7h-707h-703.1V-4627.5z"/><path d="M100-6355.8v-412.4h707h707v412.4v412.4H807H100V-6355.8z"/><path d="M8466.3-6355.8v-412.4h703.1h707l11.8,396.7c7.9,216,3.9,404.6-3.9,412.4c-7.8,7.9-333.9,15.7-718.8,15.7h-699.2V-6355.8z"/></g></g>
</svg>