<?xml version="1.0" encoding="utf-8"?>
<!-- Svg Vector Icons : http://www.onlinewebfonts.com/icon -->
<!DOCTYPE svg PUBLIC "-//W3C//DTD SVG 1.1//EN" "http://www.w3.org/Graphics/SVG/1.1/DTD/svg11.dtd">
<svg version="1.1" xmlns="http://www.w3.org/2000/svg" xmlns:xlink="http://www.w3.org/1999/xlink" x="0px" y="0px" viewBox="0 0 1000 1000" enable-background="new 0 0 1000 1000" xml:space="preserve">
<metadata> Svg Vector Icons : http://www.onlinewebfonts.com/icon </metadata>
<g><path d="M988.9,649.6c-1,2.1-2.8,3.9-5.1,4.8L503.5,845.3c-1.1,0.5-2.4,0.7-3.6,0.7s-2.5-0.3-3.6-0.7L16.2,654.4c-2.3-1-4.1-2.7-5.1-4.8c-0.6,1.2-1,2.6-1,4.1c0.1,3.9,0.1,132.1,0,136c0,3.9,2.4,7.4,6.1,8.8l480.3,190.9c1.1,0.4,2.4,0.7,3.6,0.7c1.2,0,2.5-0.2,3.6-0.7l480.3-190.9c3.7-1.5,6-5,6.2-8.8c-0.1-3.9-0.1-132.1,0-136C989.9,652.2,989.5,650.8,988.9,649.6z"/><path d="M988.9,426.2c-1,2.1-2.8,3.9-5.1,4.8L503.5,621.9c-1.1,0.5-2.4,0.7-3.6,0.7s-2.5-0.3-3.6-0.7L16.2,431c-2.3-1-4.1-2.7-5.1-4.8c-0.6,1.3-1,2.7-1,4.1c0.1,3.9,0.1,132.1,0,136c0.1,3.9,2.5,7.5,6.2,8.9L496.4,766c1.1,0.4,2.4,0.7,3.6,0.7c1.2,0,2.5-0.2,3.6-0.7l480.3-190.9c3.7-1.5,6-5,6.2-8.8c-0.1-3.9-0.1-132.1,0-136C989.9,428.9,989.5,427.5,988.9,426.2z"/><path d="M989.9,210.4c-0.1-3.9-2.5-7.4-6.2-8.8L503.5,10.6c-1.1-0.4-2.4-0.7-3.6-0.7s-2.5,0.2-3.6,0.7L16.2,201.5c-3.7,1.5-6.1,5-6.2,8.9c0.1,3.9,0.1,132.1,0,136c0.1,3.9,2.5,7.4,6.2,8.9l480.3,190.9c1.1,0.4,2.4,0.7,3.6,0.7c1.2,0,2.5-0.2,3.6-0.7l480.3-190.9c3.7-1.5,6-5,6.2-8.8C989.8,342.5,989.8,214.4,989.9,210.4z M335.8,126.8l91.3-17.6l-19.4-39c-0.4-0.8-0.3-1.7,0.3-2.3c0.6-0.6,1.5-0.8,2.2-0.5l77.7,30l91.7-17.7c0.9-0.1,1.8,0.3,2.2,1.1c0.4,0.9,0.2,1.9-0.5,2.5l-40.9,34.4l76.7,29.7c1,0.3,1.5,1.4,1.2,2.4c-0.2,0.9-1.1,1.6-2.1,1.5L510,143.6l-44.2,37.3c-0.3,0.3-0.8,0.5-1.3,0.5c-0.1,0-0.3,0-0.4-0.1c-0.6-0.1-1.1-0.5-1.4-1l-20.9-41.6l-105.8-7.7c-1-0.1-1.8-0.9-1.9-1.9C334.2,127.9,334.8,127,335.8,126.8z M259.1,263.4c-30.9,0-60.2-5-82.5-14.1c-22.4-9.2-34.7-21.4-34.6-34.3c0.1-12.4,11.5-23.7,32.4-31.9c19.7-7.7,46-12,74.1-12c30.3,0,59.3,4.8,81.4,13.7c23,9.1,35.7,21.4,35.7,34.6c0.1,12.2-11,23.4-31,31.5C314.7,259,288,263.4,259.1,263.4z M570.7,281.1l-49.3,93.9c-0.3,0.7-1,1.1-1.8,1.1c-0.3,0-0.5-0.1-0.8-0.1l-174.3-71.1c-0.8-0.3-1.4-1.2-1.2-2.2c0.1-0.9,0.9-1.6,1.8-1.7l223.7-22.7c0.7-0.1,1.5,0.3,1.9,0.9C571,279.6,571,280.4,570.7,281.1z M857.9,217.9l-120.3,49.4c-0.3,0.1-0.5,0.1-0.8,0.1c-0.3,0-0.6-0.1-0.8-0.1L599.2,211c-0.7-0.3-1.2-1.1-1.2-1.9c0-0.8,0.5-1.6,1.2-1.9l120.8-48c0.5-0.2,1-0.2,1.5,0l136.3,54.9c0.8,0.3,1.2,1,1.2,1.9C859.1,216.9,858.7,217.7,857.9,217.9z"/></g>
</svg>