<?xml version="1.0" encoding="utf-8"?>
<!-- Svg Vector Icons : http://www.onlinewebfonts.com/icon -->
<!DOCTYPE svg PUBLIC "-//W3C//DTD SVG 1.1//EN" "http://www.w3.org/Graphics/SVG/1.1/DTD/svg11.dtd">
<svg version="1.1" xmlns="http://www.w3.org/2000/svg" xmlns:xlink="http://www.w3.org/1999/xlink" x="0px" y="0px" viewBox="0 0 1000 1000" enable-background="new 0 0 1000 1000" xml:space="preserve">
<metadata> Svg Vector Icons : http://www.onlinewebfonts.com/icon </metadata>
<g><g transform="translate(0.000000,511.000000) scale(0.100000,-0.100000)"><path d="M1449.8,3996c-79.4-43.1-124.8-118-124.8-206.4c0-47.6,68.1-456,149.7-905.1l149.7-821.2l-13.6-328.9l-13.6-331.2l176.9-964.1l177-964.1l367.5-6.8c211-2.3,367.5,2.3,367.5,15.9c0,27.2-358.4,2025.8-376.6,2105.2c-9.1,36.3-45.4,129.3-81.7,211c-118,258.6-131.6,313-292.6,1191c-86.2,474.1-167.9,884.7-181.5,912c-29.5,54.4-149.7,120.2-217.8,120.2C1513.3,4023.2,1474.7,4009.6,1449.8,3996z"/><path d="M8346.1,3989.2c-38.6-20.4-81.7-54.4-95.3-77.1c-13.6-22.7-93-412.9-174.7-866.6c-172.4-957.3-170.1-946-290.4-1206.8c-83.9-186-102.1-267.7-281.3-1265.8C7400.1-12.5,7313.9-502.5,7313.9-516.1c0-13.6,138.4-18.2,367.5-15.9l367.5,6.8l176.9,975.5l176.9,975.5l-11.3,328.9l-13.6,328.9l149.7,809.9c81.7,444.6,147.5,841.6,147.5,880.2c0,95.3-52.2,190.6-124.8,222.3C8473.1,4032.3,8430,4030,8346.1,3989.2z"/><path d="M968.8-763.4c-118-70.3-142.9-147.5-142.9-431v-249.5H5000h4174.1v249.5c0,283.6-24.9,360.7-142.9,431C8960.8-718,8886-718,5000-718S1039.2-718,968.8-763.4z"/><path d="M242.9-1670.8C109.1-1752.4,100-1795.6,100-2351.3c0-555.8,9.1-598.9,142.9-680.6c61.3-38.6,115.7-45.4,333.5-45.4l260.9-2.3L565-3179.4c-149.7-56.7-315.3-118-367.5-138.4L100-3354v-224.6v-224.6h4900h4900v224.6v224.6l-152,59c-86.2,31.7-245,93-358.4,136.1l-204.2,79.4H9435c206.4,2.3,263.1,9.1,322.1,47.6c133.8,81.7,142.9,124.8,142.9,680.6c0,555.8-9.1,598.9-142.9,680.5c-70.3,45.4-152,45.4-4757.1,45.4C394.9-1625.4,313.2-1625.4,242.9-1670.8z M5324.4-2020.1c233.7-97.5,290.4-401.5,108.9-583c-147.5-147.5-356.1-147.5-503.6,0C4648.4-2324.1,4959.2-1865.9,5324.4-2020.1z M6776.2-2020.1c233.7-97.5,290.4-401.5,108.9-583c-147.5-147.5-356.2-147.5-503.6,0C6100.2-2324.1,6411-1865.9,6776.2-2020.1z M8228.1-2020.1c233.7-97.5,290.4-401.5,108.9-583c-147.5-147.5-356.1-147.5-503.6,0C7552.1-2324.1,7862.9-1865.9,8228.1-2020.1z"/></g></g>
</svg>