<?xml version="1.0" encoding="utf-8"?>
<!-- Svg Vector Icons : http://www.onlinewebfonts.com/icon -->
<!DOCTYPE svg PUBLIC "-//W3C//DTD SVG 1.1//EN" "http://www.w3.org/Graphics/SVG/1.1/DTD/svg11.dtd">
<svg version="1.1" xmlns="http://www.w3.org/2000/svg" xmlns:xlink="http://www.w3.org/1999/xlink" x="0px" y="0px" viewBox="0 0 1000 1000" enable-background="new 0 0 1000 1000" xml:space="preserve">
<metadata> Svg Vector Icons : http://www.onlinewebfonts.com/icon </metadata>
<g><g transform="translate(0.000000,511.000000) scale(0.100000,-0.100000)"><path d="M352,4962.4c-104.5-47.9-172-117.6-217.7-224.3c-28.3-69.7-32.7-222.1-32.7-1023.4c0-936.3,2.2-942.8,50.1-1027.7c26.1-47.9,84.9-115.4,130.6-152.4l84.9-67.5h4633.5h4633.6l84.9,67.5c45.7,34.8,104.5,108.9,132.8,161.1c47.9,95.8,47.9,104.5,47.9,1034.3c0,864.4-4.3,942.8-41.4,1023.4c-47.9,104.5-117.5,172-224.2,217.7c-71.9,28.3-574.9,32.7-4637.9,32.7C613.3,5003.7,434.8,5001.6,352,4962.4z M9534.2,4640.1c37-32.7,39.2-89.3,39.2-905.8c0-781.7-4.3-875.3-37-912.3c-32.7-37-202.5-39.2-4531.2-39.2c-4154.5,0-4500.7,2.2-4537.7,37c-37,32.7-39.2,89.3-39.2,905.8c0,781.7,4.4,875.3,37,912.3c32.7,37,202.5,39.2,4531.2,39.2C9151,4677.1,9497.2,4675,9534.2,4640.1z"/><path d="M2684,4065.3c-34.8-50.1-26.1-102.3,26.1-143.7c45.7-37,3401.1-41.4,3468.6-6.5c47.9,26.1,56.7,128.5,15.3,169.8c-19.6,19.6-437.6,26.1-1750.6,26.1H2716.7L2684,4065.3z"/><path d="M1188.1,3917.2c-71.9-71.9-84.9-98-84.9-178.5c0-165.5,108.9-278.7,267.8-280.9c167.7,0,276.5,108.9,276.5,276.5c-2.2,159-115.4,267.8-280.9,267.8C1286.1,4002.1,1260,3989.1,1188.1,3917.2z"/><path d="M7082.4,3960.8c-82.7-56.6-119.8-124.1-121.9-226.5c0-165.5,108.9-276.5,272.2-276.5c159,0,272.2,117.6,272.2,283.1c0,78.4-13.1,104.5-84.9,176.4c-71.8,71.9-98,84.9-178.5,84.9C7182.6,4002.1,7119.5,3984.7,7082.4,3960.8z"/><path d="M7940.3,3973.8c-28.3-15.2-76.2-61-104.5-102.3c-117.6-172,10.9-413.7,217.7-413.7c106.7,0,217.7,58.8,259.1,135c39.2,71.9,32.7,215.6-13.1,285.2C8225.6,3991.2,8062.2,4034.8,7940.3,3973.8z"/><path d="M8765.6,3969.5c-121.9-65.3-174.2-252.6-108.9-376.7c41.4-76.2,152.4-135,259.1-135c206.9,0,335.3,241.7,217.7,413.7c-28.3,41.4-76.2,87.1-104.5,102.3C8957.2,4010.8,8835.2,4008.7,8765.6,3969.5z"/><path d="M2710.2,3540.5c-61-50.1-63.1-104.5-6.5-161.1l52.3-52.3h1672.3c1299.9,0,1685.3,6.5,1726.7,28.3c65.3,32.7,82.8,126.3,32.7,176.4c-32.7,30.5-196,34.8-1739.8,34.8C3117.3,3566.6,2736.3,3560.1,2710.2,3540.5z"/><path d="M630.7,1933.6c-254.8-10.9-265.6-13.1-348.4-78.4c-45.7-37-104.5-104.5-130.6-152.4c-50.1-84.9-50.1-91.4-50.1-1032.1c0-875.3,4.4-953.7,41.4-1034.3c47.9-104.5,117.6-172,224.3-217.7c71.9-28.3,574.8-32.7,4633.5-32.7c4058.7,0,4561.7,4.4,4633.6,32.7c106.7,45.7,176.4,113.2,224.2,217.7c37,80.6,41.4,159,41.4,1029.9c0,894.9-2.2,947.2-43.5,1025.6c-52.3,104.5-182.9,215.6-274.3,233C9499.3,1940.1,1000.9,1948.8,630.7,1933.6z M9538.6,1572.1c30.5-28.3,34.8-141.5,34.8-905.8c0-783.9-4.3-877.5-37-914.5c-32.7-37-202.5-39.2-4531.2-39.2c-4154.5,0-4500.7,2.2-4537.7,37c-37,32.7-39.2,89.3-39.2,912.3c0,768.6,4.4,881.9,34.8,910.2c30.5,30.5,472.5,34.8,4537.7,34.8C9066.1,1607,9508.1,1602.6,9538.6,1572.1z"/><path d="M2703.6,1010.4c-56.6-56.6-54.4-111,6.5-159c26.1-21.8,407.2-28.3,1735.4-28.3c1622.2,0,1704.9,2.2,1737.6,39.2c50,56.6,45.7,126.3-10.9,165.5c-43.6,30.5-243.9,34.8-1733.2,34.8H2755.9L2703.6,1010.4z"/><path d="M1238.2,901.5c-80.6-43.5-135-143.7-135-250.4c0-80.6,13.1-106.7,84.9-178.6c71.9-71.9,98-84.9,176.4-84.9c219.9,0,352.7,217.7,250.4,413.7C1554,918.9,1360.2,971.2,1238.2,901.5z"/><path d="M7086.8,897.1c-76.2-41.4-126.3-137.2-126.3-241.7c2.2-158.9,115.4-267.8,280.9-267.8c80.5,0,106.7,13.1,178.5,84.9c71.9,71.9,84.9,98,84.9,178.6c0,106.7-54.4,206.9-135,250.4C7302.4,940.7,7158.6,938.5,7086.8,897.1z"/><path d="M7888.1,864.5c-176.4-154.6-95.8-439.8,132.9-470.3c213.4-28.3,365.8,143.7,309.2,346.2C8277.8,932,8040.5,999.5,7888.1,864.5z"/><path d="M8726.4,875.4c-113.2-95.8-132.8-254.8-43.6-381c91.5-130.6,309.2-141.5,415.9-21.8c115.4,128.5,106.7,283.1-17.4,391.9C8979,955.9,8826.6,960.3,8726.4,875.4z"/><path d="M2710.2,470.4c-52.3-43.5-61-95.8-26.1-145.9l32.7-45.7h1726.7c1313,0,1731,6.5,1750.6,26.1c41.4,41.4,32.7,143.7-15.3,169.8C6111.3,509.6,2755.9,505.2,2710.2,470.4z"/><path d="M4922.4-1424c-89.3-41.4-95.8-100.2-95.8-755.6v-624.9l-124.1-39.2c-304.8-95.8-542.2-331-651-642.3l-50.1-143.7l-1726.7-4.4c-949.3-2.2-1807.3-4.4-1907.4-4.4c-148.1-2.2-185.1-8.7-222.1-45.7c-65.3-65.3-58.8-180.7,13.1-237.4c58.8-45.7,69.7-45.7,1955.3-45.7h1896.5l37-126.3c45.7-156.8,187.2-372.3,309.2-472.5c50.1-41.4,159-106.7,243.9-145.9c143.7-67.5,163.3-71.9,400.6-71.9s256.9,4.4,400.6,71.9c84.9,39.2,193.8,104.5,243.9,145.9c122,100.2,263.5,315.7,309.2,472.5l37,126.3h1755c1744.2,0,1755,0,1813.8,45.7c71.9,56.6,80.5,187.3,15.2,246.1c-39.2,34.8-165.5,39.2-1809.4,41.4l-1765.9,4.4l-50.1,143.7c-111.1,317.9-359.3,555.2-681.5,651.1l-93.6,28.3v627.1c0,664.1-6.5,714.2-102.3,757.8C5009.5-1393.5,4983.4-1393.5,4922.4-1424z M5299.1-3207.3c394.1-187.3,489.9-709.9,191.6-1038.6c-254.7-285.3-725.1-285.3-979.8,0c-411.5,455.1-47.9,1173.6,566.1,1110.5C5124.9-3139.8,5225.1-3172.5,5299.1-3207.3z"/><path d="M4929-3438.1c-74-84.9-41.4-163.3,82.7-193.8c89.3-19.6,137.2-65.3,154.6-148.1c19.6-93.6,47.9-121.9,119.8-121.9c111.1,0,137.2,117.6,61,278.7C5264.3-3455.5,5013.9-3344.5,4929-3438.1z"/></g></g>
</svg>