<?xml version="1.0" encoding="utf-8"?>
<!-- Svg Vector Icons : http://www.onlinewebfonts.com/icon -->
<!DOCTYPE svg PUBLIC "-//W3C//DTD SVG 1.1//EN" "http://www.w3.org/Graphics/SVG/1.1/DTD/svg11.dtd">
<svg version="1.1" xmlns="http://www.w3.org/2000/svg" xmlns:xlink="http://www.w3.org/1999/xlink" x="0px" y="0px" viewBox="0 0 1000 1000" enable-background="new 0 0 1000 1000" xml:space="preserve">
<metadata> Svg Vector Icons : http://www.onlinewebfonts.com/icon </metadata>
<g><g transform="translate(0.000000,512.000000) scale(0.100000,-0.100000)"><path d="M975.8,5001.7c-92-28.8-216.6-159.1-245.4-255c-17.3-59.4-23-427.5-23-1481.9c0-770.7,3.8-1401.4,9.6-1401.4s72.8,17.3,149.5,40.3c214.7,61.3,567.5,70.9,799.4,21.1c99.7-23,201.3-46,226.2-53.7l42.2-11.5v1405.2c0,962.4-7.7,1432.1-21.1,1483.8c-26.8,97.8-155.3,222.4-260.7,255C1556.7,5032.3,1069.8,5030.4,975.8,5001.7z"/><path d="M4311.6,4995.9c-214.7-57.5-400.7-222.4-483.1-425.6l-44.1-109.3l-5.7-1863.4l-3.8-1865.3h-695.9h-694l-86.3,116.9c-145.7,201.3-356.6,350.8-603.9,433.3c-130.4,42.2-187.9,51.8-373.8,51.8c-187.9,0-243.5-7.7-377.7-53.7C141.9,1017.9-157.2,57.4,349-623.2c214.7-287.6,609.6-485,972-485c366.2,0,764.9,201.3,973.9,490.8l90.1,122.7h694h695.9l3.8-1863.4l5.7-1865.3l46-115c63.3-157.2,237.7-331.7,394.9-394.9l115-46h2501.8H9344l115,46c157.2,63.3,331.7,237.7,394.9,394.9l46,115V118.8V4461l-44.1,109.3c-82.4,203.2-274.2,371.9-487,429.4C9213.7,5040,4465,5036.2,4311.6,4995.9z M9296.1,3799.6v-613.5H6842.2H4388.3v613.5v613.5h2453.9h2453.9V3799.6z M9296.1,1959.2v-613.5H6842.2H4388.3v613.5v613.5h2453.9h2453.9V1959.2z M9296.1,118.8v-613.5H6842.2H4388.3v613.5v613.5h2453.9h2453.9V118.8z M7917.7-1158c76.7-38.3,136.1-132.3,147.6-230.1c30.7-281.8-312.5-442.9-515.7-239.6C7298.5-1376.6,7599.5-993.2,7917.7-1158z M9144.6-1158c76.7-38.3,136.1-132.3,147.6-230.1c30.7-281.8-312.5-442.9-515.7-239.6C8525.4-1376.6,8826.4-993.2,9144.6-1158z"/><path d="M707.5-3029.1c0-960.5,7.7-1430.2,21.1-1481.9c26.8-95.8,161-230,260.7-256.9c95.9-26.8,569.4-26.8,667.2,0c99.7,28.8,228.1,157.2,256.9,256.9c21.1,76.7,32.6,2885.3,11.5,2885.3c-5.7,0-76.7-19.2-157.2-42.2c-126.5-36.4-195.5-44.1-446.7-44.1c-281.8,0-362.3,11.5-579,78.6C709.4-1623.9,707.5-1698.7,707.5-3029.1z"/></g></g>
</svg>