<?xml version="1.0" encoding="utf-8"?>
<!-- Svg Vector Icons : http://www.onlinewebfonts.com/icon -->
<!DOCTYPE svg PUBLIC "-//W3C//DTD SVG 1.1//EN" "http://www.w3.org/Graphics/SVG/1.1/DTD/svg11.dtd">
<svg version="1.1" xmlns="http://www.w3.org/2000/svg" xmlns:xlink="http://www.w3.org/1999/xlink" x="0px" y="0px" viewBox="0 0 1000 1000" enable-background="new 0 0 1000 1000" xml:space="preserve">
<metadata> Svg Vector Icons : http://www.onlinewebfonts.com/icon </metadata>
<g><g transform="translate(0.000000,511.000000) scale(0.100000,-0.100000)"><path d="M3163,4993.5c-74.9-30.7-138.3-128.7-151.8-234.4c-5.8-55.7-9.6-876.2-5.8-1821.6c5.8-1600.7,7.7-1723.6,40.3-1781.3c65.3-121.1,61.5-121.1,964.6-121.1h816.7V535.4V37.8L3199.5,32c-1814-5.8-1710.2,1.9-1825.5-138.4c-92.2-113.4-105.7-182.5-115.3-582.2l-9.6-370.9H753.3c-472.7,0-495.8-1.9-545.7-40.4C96.2-1186.3,100-1151.7,100-2379.6c0-1262.5-3.8-1224,134.5-1297.1c61.5-32.7,138.4-34.6,1191.4-34.6s1128,1.9,1189.4,34.6c36.5,19.2,82.6,65.4,101.8,101.9c32.7,61.5,34.6,136.4,34.6,1195.2c0,1227.9,3.8,1193.3-107.6,1279.7c-50,38.4-73,40.4-547.6,40.4h-497.7V-752c0,320.9,17.3,403.5,86.5,430.4c17.3,5.8,732.1,11.5,1587.2,11.5h1554.5v-912.7v-912.7h-484.2c-532.3,0-551.5-3.8-624.5-113.4l-44.2-65.3v-1145.3c0-1101.1,1.9-1147.2,38.4-1206.7c74.9-124.9,34.6-121.1,1287.4-121.1s1212.5-3.8,1287.4,121.1c36.5,59.6,38.4,103.8,38.4,1204.8c0,1101-1.9,1145.2-38.4,1204.8c-69.2,115.3-99.9,121.1-634.1,121.1h-480.4v912.7V-310h1573.8h1575.7l38.4-50c36.5-48,40.3-76.9,40.3-374.7v-324.7h-497.7c-474.6,0-497.7-1.9-547.6-40.4c-111.4-86.5-107.6-51.9-107.6-1279.7c0-1262.5-3.8-1224,134.5-1297.1c61.5-32.7,138.4-34.6,1191.4-34.6c1053,0,1129.9,1.9,1191.4,34.6c138.4,73,134.5,34.6,134.5,1297.1c0,1227.9,3.8,1193.3-107.6,1279.7c-50,38.4-73,40.4-545.7,40.4h-495.8l-7.7,359.3c-9.6,378.5-25,461.2-113.4,584.2c-21.1,30.8-74.9,74.9-119.1,99.9L8430,26.2L6802.4,32l-1629.5,5.8v497.7V1035h816.7c901.2,0,901.2,0,962.7,117.2c26.9,51.9,28.8,246,28.8,1781.3c0,947.3,0,1769.8,0,1825.5c-1.9,86.5-11.5,109.5-67.3,172.9l-65.3,71.1l-1823.6,3.8C4023.8,5008.8,3186,5003.1,3163,4993.5z"/></g></g>
</svg>