<?xml version="1.0" encoding="UTF-8" standalone="no"?>
<!DOCTYPE svg PUBLIC "-//W3C//DTD SVG 1.1//EN"
 "http://www.w3.org/Graphics/SVG/1.1/DTD/svg11.dtd">
<!-- Generated by graphviz version 2.47.3 (20210619.1520)
 -->
<!-- Title: dependencies Pages: 1 -->
<svg width="870pt" height="247pt"
 viewBox="0.00 0.00 870.00 246.80" xmlns="http://www.w3.org/2000/svg" xmlns:xlink="http://www.w3.org/1999/xlink">
<g id="graph0" class="graph" transform="scale(1 1) rotate(0) translate(4 242.8)">
<title>dependencies</title>
<polygon fill="white" stroke="transparent" points="-4,4 -4,-242.8 866,-242.8 866,4 -4,4"/>
<text text-anchor="middle" x="431" y="-8.2" font-family="sans-serif" font-size="14.00">dependencies</text>
<g id="clust1" class="cluster">
<title>cluster_GitlabModule</title>
<polygon fill="none" stroke="black" stroke-dasharray="1,5" points="8,-32.8 8,-230.8 854,-230.8 854,-32.8 8,-32.8"/>
</g>
<g id="clust4" class="cluster">
<title>cluster_GitlabModule_exports</title>
<polygon fill="none" stroke="black" points="365,-170.8 365,-222.8 477,-222.8 477,-170.8 365,-170.8"/>
</g>
<g id="clust6" class="cluster">
<title>cluster_GitlabModule_providers</title>
<polygon fill="none" stroke="black" points="702,-40.8 702,-92.8 846,-92.8 846,-40.8 702,-40.8"/>
</g>
<g id="clust3" class="cluster">
<title>cluster_GitlabModule_imports</title>
<polygon fill="none" stroke="black" points="16,-40.8 16,-92.8 694,-92.8 694,-40.8 16,-40.8"/>
</g>
<!-- CloudproviderModule -->
<g id="node1" class="node">
<title>CloudproviderModule</title>
<polygon fill="#8dd3c7" stroke="black" points="685.7,-84.8 682.7,-88.8 661.7,-88.8 658.7,-84.8 544.3,-84.8 544.3,-48.8 685.7,-48.8 685.7,-84.8"/>
<text text-anchor="middle" x="615" y="-62.6" font-family="Times,serif" font-size="14.00">CloudproviderModule</text>
</g>
<!-- GitlabModule -->
<g id="node6" class="node">
<title>GitlabModule</title>
<polygon fill="#8dd3c7" stroke="black" points="468.04,-149.8 465.04,-153.8 444.04,-153.8 441.04,-149.8 373.96,-149.8 373.96,-113.8 468.04,-113.8 468.04,-149.8"/>
<text text-anchor="middle" x="421" y="-127.6" font-family="Times,serif" font-size="14.00">GitlabModule</text>
</g>
<!-- CloudproviderModule&#45;&gt;GitlabModule -->
<g id="edge1" class="edge">
<title>CloudproviderModule&#45;&gt;GitlabModule</title>
<path fill="none" stroke="black" d="M615,-84.82C615,-102.17 615,-125.8 615,-125.8 615,-125.8 478.46,-125.8 478.46,-125.8"/>
<polygon fill="black" stroke="black" points="478.46,-122.3 468.46,-125.8 478.46,-129.3 478.46,-122.3"/>
</g>
<!-- ConsulModule -->
<g id="node2" class="node">
<title>ConsulModule</title>
<polygon fill="#8dd3c7" stroke="black" points="526.72,-84.8 523.72,-88.8 502.72,-88.8 499.72,-84.8 427.28,-84.8 427.28,-48.8 526.72,-48.8 526.72,-84.8"/>
<text text-anchor="middle" x="477" y="-62.6" font-family="Times,serif" font-size="14.00">ConsulModule</text>
</g>
<!-- ConsulModule&#45;&gt;GitlabModule -->
<g id="edge2" class="edge">
<title>ConsulModule&#45;&gt;GitlabModule</title>
<path fill="none" stroke="black" d="M447.83,-84.91C447.83,-84.91 447.83,-103.79 447.83,-103.79"/>
<polygon fill="black" stroke="black" points="444.33,-103.79 447.83,-113.79 451.33,-103.79 444.33,-103.79"/>
</g>
<!-- CoreModule -->
<g id="node3" class="node">
<title>CoreModule</title>
<polygon fill="#8dd3c7" stroke="black" points="409.26,-84.8 406.26,-88.8 385.26,-88.8 382.26,-84.8 322.74,-84.8 322.74,-48.8 409.26,-48.8 409.26,-84.8"/>
<text text-anchor="middle" x="366" y="-62.6" font-family="Times,serif" font-size="14.00">CoreModule</text>
</g>
<!-- CoreModule&#45;&gt;GitlabModule -->
<g id="edge3" class="edge">
<title>CoreModule&#45;&gt;GitlabModule</title>
<path fill="none" stroke="black" d="M391.55,-84.91C391.55,-84.91 391.55,-103.79 391.55,-103.79"/>
<polygon fill="black" stroke="black" points="388.05,-103.79 391.55,-113.79 395.05,-103.79 388.05,-103.79"/>
</g>
<!-- TerraformModule -->
<g id="node4" class="node">
<title>TerraformModule</title>
<polygon fill="#8dd3c7" stroke="black" points="304.56,-84.8 301.56,-88.8 280.56,-88.8 277.56,-84.8 187.44,-84.8 187.44,-48.8 304.56,-48.8 304.56,-84.8"/>
<text text-anchor="middle" x="246" y="-62.6" font-family="Times,serif" font-size="14.00">TerraformModule</text>
</g>
<!-- TerraformModule&#45;&gt;GitlabModule -->
<g id="edge4" class="edge">
<title>TerraformModule&#45;&gt;GitlabModule</title>
<path fill="none" stroke="black" d="M246,-84.82C246,-102.17 246,-125.8 246,-125.8 246,-125.8 363.64,-125.8 363.64,-125.8"/>
<polygon fill="black" stroke="black" points="363.64,-129.3 373.64,-125.8 363.64,-122.3 363.64,-129.3"/>
</g>
<!-- TerraformStateModule -->
<g id="node5" class="node">
<title>TerraformStateModule</title>
<polygon fill="#8dd3c7" stroke="black" points="169.56,-84.8 166.56,-88.8 145.56,-88.8 142.56,-84.8 24.44,-84.8 24.44,-48.8 169.56,-48.8 169.56,-84.8"/>
<text text-anchor="middle" x="97" y="-62.6" font-family="Times,serif" font-size="14.00">TerraformStateModule</text>
</g>
<!-- TerraformStateModule&#45;&gt;GitlabModule -->
<g id="edge5" class="edge">
<title>TerraformStateModule&#45;&gt;GitlabModule</title>
<path fill="none" stroke="black" d="M97,-85.08C97,-106.12 97,-137.8 97,-137.8 97,-137.8 363.89,-137.8 363.89,-137.8"/>
<polygon fill="black" stroke="black" points="363.89,-141.3 373.89,-137.8 363.89,-134.3 363.89,-141.3"/>
</g>
<!-- GitlabService  -->
<g id="node7" class="node">
<title>GitlabService </title>
<polygon fill="#fb8072" stroke="black" points="469.47,-214.8 372.53,-214.8 372.53,-178.8 469.47,-178.8 469.47,-214.8"/>
<text text-anchor="middle" x="421" y="-192.6" font-family="Times,serif" font-size="14.00">GitlabService </text>
</g>
<!-- GitlabModule&#45;&gt;GitlabService  -->
<g id="edge6" class="edge">
<title>GitlabModule&#45;&gt;GitlabService </title>
<path fill="none" stroke="black" stroke-dasharray="5,2" d="M421,-149.91C421,-149.91 421,-168.79 421,-168.79"/>
<polygon fill="black" stroke="black" points="417.5,-168.79 421,-178.79 424.5,-168.79 417.5,-168.79"/>
</g>
<!-- GitlabService -->
<g id="node8" class="node">
<title>GitlabService</title>
<ellipse fill="#fdb462" stroke="black" cx="774" cy="-66.8" rx="64.26" ry="18"/>
<text text-anchor="middle" x="774" y="-62.6" font-family="Times,serif" font-size="14.00">GitlabService</text>
</g>
<!-- GitlabService&#45;&gt;GitlabModule -->
<g id="edge7" class="edge">
<title>GitlabService&#45;&gt;GitlabModule</title>
<path fill="none" stroke="black" d="M774,-85.08C774,-106.12 774,-137.8 774,-137.8 774,-137.8 478.24,-137.8 478.24,-137.8"/>
<polygon fill="black" stroke="black" points="478.24,-134.3 468.24,-137.8 478.24,-141.3 478.24,-134.3"/>
</g>
</g>
</svg>
