<?xml version="1.0" encoding="UTF-8" standalone="no"?>
<!DOCTYPE svg PUBLIC "-//W3C//DTD SVG 1.1//EN"
 "http://www.w3.org/Graphics/SVG/1.1/DTD/svg11.dtd">
<!-- Generated by graphviz version 2.47.3 (20210619.1520)
 -->
<!-- Title: dependencies Pages: 1 -->
<svg width="788pt" height="174pt"
 viewBox="0.00 0.00 788.00 173.80" xmlns="http://www.w3.org/2000/svg" xmlns:xlink="http://www.w3.org/1999/xlink">
<g id="graph0" class="graph" transform="scale(1 1) rotate(0) translate(4 169.8)">
<title>dependencies</title>
<polygon fill="white" stroke="transparent" points="-4,4 -4,-169.8 784,-169.8 784,4 -4,4"/>
<text text-anchor="middle" x="390" y="-8.2" font-family="sans-serif" font-size="14.00">dependencies</text>
<g id="clust1" class="cluster">
<title>cluster_DockerswarmModule</title>
<polygon fill="none" stroke="black" stroke-dasharray="1,5" points="8,-32.8 8,-157.8 772,-157.8 772,-32.8 8,-32.8"/>
</g>
<g id="clust2" class="cluster">
<title>cluster_DockerswarmModule_declarations</title>
<polygon fill="none" stroke="black" points="588,-40.8 588,-92.8 764,-92.8 764,-40.8 588,-40.8"/>
</g>
<g id="clust4" class="cluster">
<title>cluster_DockerswarmModule_imports</title>
<polygon fill="none" stroke="black" points="16,-40.8 16,-92.8 580,-92.8 580,-40.8 16,-40.8"/>
</g>
<!-- DockerswarmComponent -->
<g id="node1" class="node">
<title>DockerswarmComponent</title>
<polygon fill="#ffffb3" stroke="black" points="755.85,-84.8 596.15,-84.8 596.15,-48.8 755.85,-48.8 755.85,-84.8"/>
<text text-anchor="middle" x="676" y="-62.6" font-family="Times,serif" font-size="14.00">DockerswarmComponent</text>
</g>
<!-- DockerswarmModule -->
<g id="node2" class="node">
<title>DockerswarmModule</title>
<polygon fill="#8dd3c7" stroke="black" points="454.06,-149.8 451.06,-153.8 430.06,-153.8 427.06,-149.8 315.94,-149.8 315.94,-113.8 454.06,-113.8 454.06,-149.8"/>
<text text-anchor="middle" x="385" y="-127.6" font-family="Times,serif" font-size="14.00">DockerswarmModule</text>
</g>
<!-- DockerswarmComponent&#45;&gt;DockerswarmModule -->
<g id="edge1" class="edge">
<title>DockerswarmComponent&#45;&gt;DockerswarmModule</title>
<path fill="none" stroke="black" d="M676,-84.91C676,-104.14 676,-131.8 676,-131.8 676,-131.8 464.33,-131.8 464.33,-131.8"/>
<polygon fill="black" stroke="black" points="464.33,-128.3 454.33,-131.8 464.33,-135.3 464.33,-128.3"/>
</g>
<!-- CommonUiModule -->
<g id="node3" class="node">
<title>CommonUiModule</title>
<polygon fill="#8dd3c7" stroke="black" points="571.67,-84.8 568.67,-88.8 547.67,-88.8 544.67,-84.8 446.33,-84.8 446.33,-48.8 571.67,-48.8 571.67,-84.8"/>
<text text-anchor="middle" x="509" y="-62.6" font-family="Times,serif" font-size="14.00">CommonUiModule</text>
</g>
<!-- CommonUiModule&#45;&gt;DockerswarmModule -->
<g id="edge2" class="edge">
<title>CommonUiModule&#45;&gt;DockerswarmModule</title>
<path fill="none" stroke="black" d="M450.1,-84.91C450.1,-84.91 450.1,-103.79 450.1,-103.79"/>
<polygon fill="black" stroke="black" points="446.6,-103.79 450.1,-113.79 453.6,-103.79 446.6,-103.79"/>
</g>
<!-- CoreModule -->
<g id="node4" class="node">
<title>CoreModule</title>
<polygon fill="#8dd3c7" stroke="black" points="428.26,-84.8 425.26,-88.8 404.26,-88.8 401.26,-84.8 341.74,-84.8 341.74,-48.8 428.26,-48.8 428.26,-84.8"/>
<text text-anchor="middle" x="385" y="-62.6" font-family="Times,serif" font-size="14.00">CoreModule</text>
</g>
<!-- CoreModule&#45;&gt;DockerswarmModule -->
<g id="edge3" class="edge">
<title>CoreModule&#45;&gt;DockerswarmModule</title>
<path fill="none" stroke="black" d="M385,-84.91C385,-84.91 385,-103.79 385,-103.79"/>
<polygon fill="black" stroke="black" points="381.5,-103.79 385,-113.79 388.5,-103.79 381.5,-103.79"/>
</g>
<!-- DockerswarmRoutingModule -->
<g id="node5" class="node">
<title>DockerswarmRoutingModule</title>
<polygon fill="#8dd3c7" stroke="black" points="323.68,-84.8 320.68,-88.8 299.68,-88.8 296.68,-84.8 140.32,-84.8 140.32,-48.8 323.68,-48.8 323.68,-84.8"/>
<text text-anchor="middle" x="232" y="-62.6" font-family="Times,serif" font-size="14.00">DockerswarmRoutingModule</text>
</g>
<!-- DockerswarmRoutingModule&#45;&gt;DockerswarmModule -->
<g id="edge4" class="edge">
<title>DockerswarmRoutingModule&#45;&gt;DockerswarmModule</title>
<path fill="none" stroke="black" d="M319.78,-84.91C319.78,-84.91 319.78,-103.79 319.78,-103.79"/>
<polygon fill="black" stroke="black" points="316.28,-103.79 319.78,-113.79 323.28,-103.79 316.28,-103.79"/>
</g>
<!-- SharedModule -->
<g id="node6" class="node">
<title>SharedModule</title>
<polygon fill="#8dd3c7" stroke="black" points="122.42,-84.8 119.42,-88.8 98.42,-88.8 95.42,-84.8 23.58,-84.8 23.58,-48.8 122.42,-48.8 122.42,-84.8"/>
<text text-anchor="middle" x="73" y="-62.6" font-family="Times,serif" font-size="14.00">SharedModule</text>
</g>
<!-- SharedModule&#45;&gt;DockerswarmModule -->
<g id="edge5" class="edge">
<title>SharedModule&#45;&gt;DockerswarmModule</title>
<path fill="none" stroke="black" d="M73,-84.91C73,-104.14 73,-131.8 73,-131.8 73,-131.8 305.76,-131.8 305.76,-131.8"/>
<polygon fill="black" stroke="black" points="305.76,-135.3 315.76,-131.8 305.76,-128.3 305.76,-135.3"/>
</g>
</g>
</svg>
