<?xml version="1.0" encoding="UTF-8" standalone="no"?>
<!DOCTYPE svg PUBLIC "-//W3C//DTD SVG 1.1//EN"
 "http://www.w3.org/Graphics/SVG/1.1/DTD/svg11.dtd">
<!-- Generated by graphviz version 2.47.3 (20210619.1520)
 -->
<!-- Title: dependencies Pages: 1 -->
<svg width="709pt" height="174pt"
 viewBox="0.00 0.00 709.00 173.80" xmlns="http://www.w3.org/2000/svg" xmlns:xlink="http://www.w3.org/1999/xlink">
<g id="graph0" class="graph" transform="scale(1 1) rotate(0) translate(4 169.8)">
<title>dependencies</title>
<polygon fill="white" stroke="transparent" points="-4,4 -4,-169.8 705,-169.8 705,4 -4,4"/>
<text text-anchor="middle" x="350.5" y="-8.2" font-family="sans-serif" font-size="14.00">dependencies</text>
<g id="clust1" class="cluster">
<title>cluster_HarborModule</title>
<polygon fill="none" stroke="black" stroke-dasharray="1,5" points="8,-32.8 8,-157.8 693,-157.8 693,-32.8 8,-32.8"/>
</g>
<g id="clust4" class="cluster">
<title>cluster_HarborModule_imports</title>
<polygon fill="none" stroke="black" points="160,-40.8 160,-92.8 685,-92.8 685,-40.8 160,-40.8"/>
</g>
<g id="clust2" class="cluster">
<title>cluster_HarborModule_declarations</title>
<polygon fill="none" stroke="black" points="16,-40.8 16,-92.8 152,-92.8 152,-40.8 16,-40.8"/>
</g>
<!-- HarborComponent -->
<g id="node1" class="node">
<title>HarborComponent</title>
<polygon fill="#ffffb3" stroke="black" points="144.47,-84.8 23.53,-84.8 23.53,-48.8 144.47,-48.8 144.47,-84.8"/>
<text text-anchor="middle" x="84" y="-62.6" font-family="Times,serif" font-size="14.00">HarborComponent</text>
</g>
<!-- HarborModule -->
<g id="node2" class="node">
<title>HarborModule</title>
<polygon fill="#8dd3c7" stroke="black" points="405.69,-149.8 402.69,-153.8 381.69,-153.8 378.69,-149.8 306.31,-149.8 306.31,-113.8 405.69,-113.8 405.69,-149.8"/>
<text text-anchor="middle" x="356" y="-127.6" font-family="Times,serif" font-size="14.00">HarborModule</text>
</g>
<!-- HarborComponent&#45;&gt;HarborModule -->
<g id="edge1" class="edge">
<title>HarborComponent&#45;&gt;HarborModule</title>
<path fill="none" stroke="black" d="M84,-85.08C84,-106.12 84,-137.8 84,-137.8 84,-137.8 296.11,-137.8 296.11,-137.8"/>
<polygon fill="black" stroke="black" points="296.11,-141.3 306.11,-137.8 296.11,-134.3 296.11,-141.3"/>
</g>
<!-- CommonUiModule -->
<g id="node3" class="node">
<title>CommonUiModule</title>
<polygon fill="#8dd3c7" stroke="black" points="676.67,-84.8 673.67,-88.8 652.67,-88.8 649.67,-84.8 551.33,-84.8 551.33,-48.8 676.67,-48.8 676.67,-84.8"/>
<text text-anchor="middle" x="614" y="-62.6" font-family="Times,serif" font-size="14.00">CommonUiModule</text>
</g>
<!-- CommonUiModule&#45;&gt;HarborModule -->
<g id="edge2" class="edge">
<title>CommonUiModule&#45;&gt;HarborModule</title>
<path fill="none" stroke="black" d="M614,-85.08C614,-106.12 614,-137.8 614,-137.8 614,-137.8 415.74,-137.8 415.74,-137.8"/>
<polygon fill="black" stroke="black" points="415.75,-134.3 405.74,-137.8 415.74,-141.3 415.75,-134.3"/>
</g>
<!-- CoreModule -->
<g id="node4" class="node">
<title>CoreModule</title>
<polygon fill="#8dd3c7" stroke="black" points="533.26,-84.8 530.26,-88.8 509.26,-88.8 506.26,-84.8 446.74,-84.8 446.74,-48.8 533.26,-48.8 533.26,-84.8"/>
<text text-anchor="middle" x="490" y="-62.6" font-family="Times,serif" font-size="14.00">CoreModule</text>
</g>
<!-- CoreModule&#45;&gt;HarborModule -->
<g id="edge3" class="edge">
<title>CoreModule&#45;&gt;HarborModule</title>
<path fill="none" stroke="black" d="M490,-84.82C490,-102.17 490,-125.8 490,-125.8 490,-125.8 415.9,-125.8 415.9,-125.8"/>
<polygon fill="black" stroke="black" points="415.9,-122.3 405.9,-125.8 415.9,-129.3 415.9,-122.3"/>
</g>
<!-- HarborRoutingModule -->
<g id="node5" class="node">
<title>HarborRoutingModule</title>
<polygon fill="#8dd3c7" stroke="black" points="428.31,-84.8 425.31,-88.8 404.31,-88.8 401.31,-84.8 283.69,-84.8 283.69,-48.8 428.31,-48.8 428.31,-84.8"/>
<text text-anchor="middle" x="356" y="-62.6" font-family="Times,serif" font-size="14.00">HarborRoutingModule</text>
</g>
<!-- HarborRoutingModule&#45;&gt;HarborModule -->
<g id="edge4" class="edge">
<title>HarborRoutingModule&#45;&gt;HarborModule</title>
<path fill="none" stroke="black" d="M356,-84.91C356,-84.91 356,-103.79 356,-103.79"/>
<polygon fill="black" stroke="black" points="352.5,-103.79 356,-113.79 359.5,-103.79 352.5,-103.79"/>
</g>
<!-- SharedModule -->
<g id="node6" class="node">
<title>SharedModule</title>
<polygon fill="#8dd3c7" stroke="black" points="266.42,-84.8 263.42,-88.8 242.42,-88.8 239.42,-84.8 167.58,-84.8 167.58,-48.8 266.42,-48.8 266.42,-84.8"/>
<text text-anchor="middle" x="217" y="-62.6" font-family="Times,serif" font-size="14.00">SharedModule</text>
</g>
<!-- SharedModule&#45;&gt;HarborModule -->
<g id="edge5" class="edge">
<title>SharedModule&#45;&gt;HarborModule</title>
<path fill="none" stroke="black" d="M217,-84.82C217,-102.17 217,-125.8 217,-125.8 217,-125.8 296.21,-125.8 296.21,-125.8"/>
<polygon fill="black" stroke="black" points="296.21,-129.3 306.21,-125.8 296.21,-122.3 296.21,-129.3"/>
</g>
</g>
</svg>
