<?xml version="1.0" encoding="UTF-8" standalone="no"?>
<!DOCTYPE svg PUBLIC "-//W3C//DTD SVG 1.1//EN"
 "http://www.w3.org/Graphics/SVG/1.1/DTD/svg11.dtd">
<!-- Generated by graphviz version 2.47.3 (20210619.1520)
 -->
<!-- Title: dependencies Pages: 1 -->
<svg width="306pt" height="247pt"
 viewBox="0.00 0.00 306.00 246.80" xmlns="http://www.w3.org/2000/svg" xmlns:xlink="http://www.w3.org/1999/xlink">
<g id="graph0" class="graph" transform="scale(1 1) rotate(0) translate(4 242.8)">
<title>dependencies</title>
<polygon fill="white" stroke="transparent" points="-4,4 -4,-242.8 302,-242.8 302,4 -4,4"/>
<text text-anchor="middle" x="149" y="-8.2" font-family="sans-serif" font-size="14.00">dependencies</text>
<g id="clust1" class="cluster">
<title>cluster_TerraformModule</title>
<polygon fill="none" stroke="black" stroke-dasharray="1,5" points="8,-32.8 8,-230.8 290,-230.8 290,-32.8 8,-32.8"/>
</g>
<g id="clust3" class="cluster">
<title>cluster_TerraformModule_imports</title>
<polygon fill="none" stroke="black" points="16,-40.8 16,-92.8 282,-92.8 282,-40.8 16,-40.8"/>
</g>
<g id="clust4" class="cluster">
<title>cluster_TerraformModule_exports</title>
<polygon fill="none" stroke="black" points="59,-170.8 59,-222.8 239,-222.8 239,-170.8 59,-170.8"/>
</g>
<!-- CoreModule -->
<g id="node1" class="node">
<title>CoreModule</title>
<polygon fill="#8dd3c7" stroke="black" points="274.26,-84.8 271.26,-88.8 250.26,-88.8 247.26,-84.8 187.74,-84.8 187.74,-48.8 274.26,-48.8 274.26,-84.8"/>
<text text-anchor="middle" x="231" y="-62.6" font-family="Times,serif" font-size="14.00">CoreModule</text>
</g>
<!-- TerraformModule -->
<g id="node3" class="node">
<title>TerraformModule</title>
<polygon fill="#8dd3c7" stroke="black" points="207.56,-149.8 204.56,-153.8 183.56,-153.8 180.56,-149.8 90.44,-149.8 90.44,-113.8 207.56,-113.8 207.56,-149.8"/>
<text text-anchor="middle" x="149" y="-127.6" font-family="Times,serif" font-size="14.00">TerraformModule</text>
</g>
<!-- CoreModule&#45;&gt;TerraformModule -->
<g id="edge1" class="edge">
<title>CoreModule&#45;&gt;TerraformModule</title>
<path fill="none" stroke="black" d="M197.58,-84.91C197.58,-84.91 197.58,-103.79 197.58,-103.79"/>
<polygon fill="black" stroke="black" points="194.08,-103.79 197.58,-113.79 201.08,-103.79 194.08,-103.79"/>
</g>
<!-- TerraformStateModule -->
<g id="node2" class="node">
<title>TerraformStateModule</title>
<polygon fill="#8dd3c7" stroke="black" points="169.56,-84.8 166.56,-88.8 145.56,-88.8 142.56,-84.8 24.44,-84.8 24.44,-48.8 169.56,-48.8 169.56,-84.8"/>
<text text-anchor="middle" x="97" y="-62.6" font-family="Times,serif" font-size="14.00">TerraformStateModule</text>
</g>
<!-- TerraformStateModule&#45;&gt;TerraformModule -->
<g id="edge2" class="edge">
<title>TerraformStateModule&#45;&gt;TerraformModule</title>
<path fill="none" stroke="black" d="M130,-84.91C130,-84.91 130,-103.79 130,-103.79"/>
<polygon fill="black" stroke="black" points="126.5,-103.79 130,-113.79 133.5,-103.79 126.5,-103.79"/>
</g>
<!-- TerraformTasksProcessor  -->
<g id="node4" class="node">
<title>TerraformTasksProcessor </title>
<polygon fill="#fb8072" stroke="black" points="231.09,-214.8 66.91,-214.8 66.91,-178.8 231.09,-178.8 231.09,-214.8"/>
<text text-anchor="middle" x="149" y="-192.6" font-family="Times,serif" font-size="14.00">TerraformTasksProcessor </text>
</g>
<!-- TerraformModule&#45;&gt;TerraformTasksProcessor  -->
<g id="edge3" class="edge">
<title>TerraformModule&#45;&gt;TerraformTasksProcessor </title>
<path fill="none" stroke="black" stroke-dasharray="5,2" d="M149,-149.91C149,-149.91 149,-168.79 149,-168.79"/>
<polygon fill="black" stroke="black" points="145.5,-168.79 149,-178.79 152.5,-168.79 145.5,-168.79"/>
</g>
</g>
</svg>
