<svg id="Layer_1" data-name="Layer 1" xmlns="http://www.w3.org/2000/svg" viewBox="0 0 94.581 106.8">
  <title>Artboard 11</title>
  <g>
    <path d="M23.628,97.6c2.6,2.1,12,9.2,24.1,9.2h0c8.2,0,15.8-3.2,22.6-9.6,7.9-.7,17.4-5,21.8-13.6,6.3-12.4-.7-27.6-7.9-38.4-2.8-16.8-18.9-29.8-32.6-31.7-7.1-3.5-14.3-9.2-15.8-11.9a2.883,2.883,0,0,0-2.6-1.6h-.4a3,3,0,0,0-2.5,2.2,16.769,16.769,0,0,0,.4,9.8,20.918,20.918,0,0,1-3-1.1,3.079,3.079,0,0,0-1.3-.3,3.371,3.371,0,0,0-1.7.5,2.824,2.824,0,0,0-1.3,2.6,14.6,14.6,0,0,0,2.1,6.9c-9.2,5.4-13.7,17.6-15.7,25.3-9.3,13-12,24.6-8.1,34.5C5.628,90,15.328,95.9,23.628,97.6Z" fill="#2d2413"/>
    <g>
      <path d="M81.328,46.4c-2.2-15.5-17.2-28.3-30.6-29.9-7.3-3.5-15.5-9.7-17.6-13.4-2.1,7.9,3.8,13.7,3.8,13.7s-6.6-1.2-10.5-3.1a12.492,12.492,0,0,0,3.7,8.2c-10.3,3.4-15.3,16.5-17.6,25.4-22.5,31.1.3,45.3,12.4,47.5,0,0,22.4,20.6,44-.5C81.828,93.8,105.028,81.4,81.328,46.4Z" fill="#f2f2f2"/>
      <g>
        <circle cx="66.728" cy="62.1" r="7.2" fill="#231f20"/>
        <circle cx="68.728" cy="60.5" r="2.5" fill="#fff"/>
      </g>
      <g>
        <circle cx="27.828" cy="62.1" r="7.2" fill="#231f20"/>
        <circle cx="29.828" cy="60.5" r="2.5" fill="#fff"/>
      </g>
      <g>
        <path d="M47.228,61.4c-9.1,0-11,12.4-16.4,16.9-1,.6-1.7,1.1-1.7,1.1,5.2,12.3,5.6,17.1,18,17.1s12.4-3.9,18.2-17.1C56.928,74.4,57.228,61.4,47.228,61.4Z" fill="#f89a2a"/>
        <path d="M47.228,90.6c-5.5,0-6.9-1.9-8.1-3.6-1-1.4-1.8-2.5-5.5-2.5a1,1,0,0,1,0-2c4.7,0,6,1.8,7.1,3.3s2,2.8,6.5,2.8,5.5-1.3,6.7-2.9c1.2-1.5,2.5-3.3,7.1-3.3a1,1,0,0,1,0,2c-3.5,0-4.4,1.1-5.5,2.5C54.128,88.7,52.728,90.6,47.228,90.6Z" fill="#231f20"/>
      </g>
      <g>
        <path d="M52.328,68.1a6.74,6.74,0,0,0,.4,1.2.519.519,0,0,0,.2.4,2.186,2.186,0,0,1,.3.5,7.008,7.008,0,0,0,.8,1,12.4,12.4,0,0,0,3.1,2.3c.1,0,.1.1.1.2s-.1.1-.2.1a14.418,14.418,0,0,1-3.9-1.5,11.313,11.313,0,0,1-1.3-1l-.6-.6a2.65,2.65,0,0,1-.5-.6c-.4-.6-.7-1.1-.7-1.1a1.235,1.235,0,0,1,2.1-1.3C52.328,67.9,52.328,68,52.328,68.1Z" fill="#7e5923"/>
        <path d="M44.328,69.1a11.62,11.62,0,0,0-.7,1.1c-.1.1-.3.4-.5.6l-.6.6a11.323,11.323,0,0,1-1.3,1,14.418,14.418,0,0,1-3.9,1.5c-.1,0-.2,0-.2-.1s0-.1.1-.2a12.4,12.4,0,0,0,3.1-2.3c.3-.4.6-.7.8-1,.1-.2.2-.3.3-.5s.2-.2.2-.4c.2-.7.4-1.2.4-1.2a1.2,1.2,0,1,1,2.3.7C44.428,68.9,44.428,69,44.328,69.1Z" fill="#7e5923"/>
      </g>
      <path d="M32.628,47.1s-.5-.2-1.2-.4c-.2-.1-.3,0-.4,0h-.4c-.1-.1-.3.1-.5.1l-.6.2a4.128,4.128,0,0,0-1.1.7,3.631,3.631,0,0,0-.9.8,9.4,9.4,0,0,0-.8.9.187.187,0,0,1-.3,0c-.1,0-.1-.1-.1-.2,0,0,.2-.5.5-1.2.2-.4.4-.7.7-1.2a11.988,11.988,0,0,1,1.1-1.2l.7-.5c.3-.2.5-.4.8-.4a6.784,6.784,0,0,1,1.7-.4h1.3a1.5,1.5,0,0,1,0,3C32.928,47.2,32.828,47.1,32.628,47.1Z" fill="#504d4e"/>
      <path d="M63.028,44.2h1.3a6.785,6.785,0,0,1,1.7.4c.3.1.5.3.8.4l.7.5a9.115,9.115,0,0,1,2.3,3.6c0,.1,0,.2-.1.2s-.2,0-.2-.1a9.4,9.4,0,0,0-.8-.9,7.27,7.27,0,0,0-.9-.8c-.3-.3-.8-.4-1.1-.7l-.6-.2a4.329,4.329,0,0,1-.5-.1h-.8c-.7.2-1.2.4-1.2.4a1.456,1.456,0,0,1-.8-2.8c-.2.2,0,.1.2.1Z" fill="#504d4e"/>
      <path d="M80.328,79.6c-.9,2-4.1,2.5-7.1,1.1s-4.8-4.1-3.9-6.1,4.1-2.5,7.1-1.1C79.528,74.8,81.228,77.6,80.328,79.6Z" fill="#f26a32"/>
      <path d="M14.228,79.6c.9,2,4.1,2.5,7.1,1.1s4.8-4.1,3.9-6.1-4.1-2.5-7.1-1.1C15.028,74.8,13.328,77.6,14.228,79.6Z" fill="#f26a32"/>
    </g>
  </g>
</svg>
