<?xml version="1.0" encoding="utf-8"?>
<!-- Svg Vector Icons : http://www.onlinewebfonts.com/icon -->
<!DOCTYPE svg PUBLIC "-//W3C//DTD SVG 1.1//EN" "http://www.w3.org/Graphics/SVG/1.1/DTD/svg11.dtd">
<svg version="1.1" xmlns="http://www.w3.org/2000/svg" xmlns:xlink="http://www.w3.org/1999/xlink" x="0px" y="0px" viewBox="0 0 1000 1000" enable-background="new 0 0 1000 1000" xml:space="preserve">
<metadata> Svg Vector Icons : http://www.onlinewebfonts.com/icon </metadata>
<g><path d="M688.5,273.8H311.5c-20.8,0-37.7,16.9-37.7,37.7v376.9c0,20.8,16.9,37.7,37.7,37.7h376.9c20.8,0,37.7-16.9,37.7-37.7V311.5C726.2,290.7,709.3,273.8,688.5,273.8z"/><path d="M952.3,537.7c20.8,0,37.7-16.9,37.7-37.7c0-20.8-16.9-37.7-37.7-37.7h-75.4V349.2h75.4c20.8,0,37.7-16.9,37.7-37.7c0-20.8-16.9-37.7-37.7-37.7h-75.4v-75.4c0-41.6-33.8-75.4-75.4-75.4h-75.4V47.7c0-20.8-16.9-37.7-37.7-37.7c-20.8,0-37.7,16.9-37.7,37.7v75.4H537.7V47.7c0-20.8-16.9-37.7-37.7-37.7c-20.8,0-37.7,16.9-37.7,37.7v75.4H349.2V47.7c0-20.8-16.9-37.7-37.7-37.7c-20.8,0-37.7,16.9-37.7,37.7v75.4h-75.4c-41.6,0-75.4,33.8-75.4,75.4v75.4H47.7c-20.8,0-37.7,16.9-37.7,37.7c0,20.8,16.9,37.7,37.7,37.7h75.4v113.1H47.7C26.9,462.3,10,479.2,10,500c0,20.8,16.9,37.7,37.7,37.7h75.4v113.1H47.7c-20.8,0-37.7,16.9-37.7,37.7c0,20.8,16.9,37.7,37.7,37.7h75.4v75.4c0,41.6,33.8,75.4,75.4,75.4h75.4v75.4c0,20.8,16.9,37.7,37.7,37.7c20.8,0,37.7-16.9,37.7-37.7v-75.4h113.1v75.4c0,20.8,16.9,37.7,37.7,37.7c20.8,0,37.7-16.9,37.7-37.7v-75.4h113.1v75.4c0,20.8,16.9,37.7,37.7,37.7c20.8,0,37.7-16.9,37.7-37.7v-75.4h75.4c41.6,0,75.4-33.8,75.4-75.4v-75.4h75.4c20.8,0,37.7-16.9,37.7-37.7c0-20.8-16.9-37.7-37.7-37.7h-75.4V537.7H952.3z M801.5,801.5H236.2c-20.8,0-37.7-16.9-37.7-37.7V198.5h565.4c20.8,0,37.7,16.9,37.7,37.7V801.5z"/></g>
</svg>