<?xml version="1.0" encoding="utf-8"?>
<!-- Svg Vector Icons : http://www.onlinewebfonts.com/icon -->
<!DOCTYPE svg PUBLIC "-//W3C//DTD SVG 1.1//EN" "http://www.w3.org/Graphics/SVG/1.1/DTD/svg11.dtd">
<svg version="1.1" xmlns="http://www.w3.org/2000/svg" xmlns:xlink="http://www.w3.org/1999/xlink" x="0px" y="0px" viewBox="0 0 1000 1000" enable-background="new 0 0 1000 1000" xml:space="preserve">
<metadata> Svg Vector Icons : http://www.onlinewebfonts.com/icon </metadata>
<g><path d="M640,287.1c-7.8-1-24.5-2-49-2h-33.3v95H595c26.4,0,45-2,53.8-5.9c8.8-3.9,15.7-8.8,21.5-16.6c4.9-7.8,7.8-16.6,7.8-26.4c0-12.7-3.9-21.5-10.8-30.4C660.6,293.9,651.7,289,640,287.1z"/><path d="M864.2,251.8c-19.6-47-49-90.1-85.2-125.3c-35.2-35.2-78.3-64.6-125.3-85.2C606.7,21.7,553.8,10,500,10c-54.8,0-106.7,10.8-153.7,31.3c-47,19.6-90.1,49-125.3,85.2c-35.2,35.2-64.6,78.3-85.2,125.3c-20.6,47-31.3,98.9-31.3,153.7c0,54.8,10.8,106.7,31.3,153.7c11.7,28.4,26.4,53.8,45,79.3c0,0,282,331.9,285.9,336.8c3.9,3.9,9.8,7.8,14.7,10.8c5.9,2.9,12.7,3.9,18.6,3.9c6.9,0,12.7-1,18.6-3.9c5.9-2.9,10.8-5.9,14.7-10.8c3.9-3.9,285.9-336.8,285.9-336.8c17.6-24.5,33.3-50.9,45-79.3c19.6-47,31.3-99.9,31.3-153.7C895.5,351.7,883.8,298.8,864.2,251.8z M426.6,563.1H359V227.3h67.6V563.1z M736.9,383c-7.8,13.7-17.6,25.5-28.4,33.3c-11.7,7.8-23.5,12.7-35.2,15.7c-16.6,3.9-40.1,4.9-70.5,4.9h-44.1v127.3h-67.6V228.3h108.7c41.1,0,67.6,1,80.3,4.9c19.6,4.9,35.2,15.7,48,33.3c12.7,17.6,19.6,38.2,19.6,65.6C748.7,351.7,744.8,369.3,736.9,383z"/></g>
</svg>