<?xml version="1.0" encoding="utf-8"?>
<!-- Svg Vector Icons : http://www.onlinewebfonts.com/icon -->
<!DOCTYPE svg PUBLIC "-//W3C//DTD SVG 1.1//EN" "http://www.w3.org/Graphics/SVG/1.1/DTD/svg11.dtd">
<svg version="1.1" xmlns="http://www.w3.org/2000/svg" xmlns:xlink="http://www.w3.org/1999/xlink" x="0px" y="0px" viewBox="0 0 1000 1000" enable-background="new 0 0 1000 1000" xml:space="preserve">
<metadata> Svg Vector Icons : http://www.onlinewebfonts.com/icon </metadata>
<g><path d="M539.4,894.1c-10.4,8.9-16,22-16,35.5v27h-31.5c0,0-0.1-6.9-0.1-19.4c0-10.4,2-20.5,5.8-30.3c8.8-22.6,10.4-47,10.4-51V743.8h-7.9c-7.9,0-15.9-0.1-23.5-0.4v112.3c0,7.6-5.1,23.5-9.4,38c-0.8-0.8-4.6-1.8-5.8-2.5c-26-22.8-67.9-72.9-73.8-153.7C243.4,721.1,126.7,673,62.3,606.7v179.7C64.3,898.9,259.3,990,499.7,990c240.4,0,435.6-91,437.6-203.7V607.4c-64.5,66.5-181,114.5-325.7,130.9C605.2,824.2,564.3,872.8,539.4,894.1z M500.1,420c241.7,0,437.6-91.8,437.6-205.1C937.7,101.6,741.7,10,500.1,10C258.4,10,62.6,101.8,62.6,215.1C62.6,328.3,258.4,420,500.1,420z M388,698.4c7.5-83.6,59.4-151.7,88.5-184v190.7c7.6,0.1,15.6,0.4,23.5,0.4h7.6V496.8c15.1,14.3,98.7,83,104.9,201.9C798.4,675.5,935.9,596.4,937.3,502V322.3c-80,82.5-241.7,136.8-437.1,136.8c-195.4,0-357.1-54.3-437.7-137.2v179.7C64,596,201.6,675.4,388,698.4z"/></g>
</svg>