<?xml version="1.0" encoding="utf-8"?>
<!-- Svg Vector Icons : http://www.onlinewebfonts.com/icon -->
<!DOCTYPE svg PUBLIC "-//W3C//DTD SVG 1.1//EN" "http://www.w3.org/Graphics/SVG/1.1/DTD/svg11.dtd">
<svg version="1.1" xmlns="http://www.w3.org/2000/svg" xmlns:xlink="http://www.w3.org/1999/xlink" x="0px" y="0px" viewBox="0 0 1000 1000" enable-background="new 0 0 1000 1000" xml:space="preserve">
<metadata> Svg Vector Icons : http://www.onlinewebfonts.com/icon </metadata>
<g><g><path d="M248.3,335.7c10.7,0,21,1.5,30.7,4.6c36.7-41.2,77.5-78.7,121.6-111.8c-1.9-7.8-2.9-15.9-2.9-24.2c0-11.6,1.9-22.7,5.4-33.1C353.6,135.8,299.9,106,242.7,83c-53.5,33.1-100.2,76.2-137.5,126.8c27.6,49,60.5,94.6,97.9,136.2C216.7,339.4,232,335.7,248.3,335.7L248.3,335.7z M144,439.9c0-14.6,3.1-28.6,8.5-41.2C119,361.9,88.7,322.3,62.2,280C28.9,346.2,10,420.9,10,500.1c0,91.6,25.2,177.2,69,250.6c15.7-88.1,45.3-171.4,86.3-247.8C151.9,485.4,144,463.5,144,439.9L144,439.9z M501.9,100c27.5,0,52.5,10.7,71.2,28.2c54.4-23.4,111.6-41.4,171.2-52.8C672.3,33.8,588.9,10,500,10c-60.7,0-118.7,11.1-172.3,31.3c42.6,21,83.1,45.5,121.3,73.2C464.4,105.3,482.5,100,501.9,100L501.9,100z M657.7,591c6.5-13.5,15.7-25.5,27.1-34.9c-30.8-94.6-79.5-181.3-142.3-255.8c-12.5,5.3-26.2,8.2-40.7,8.2c-22.6,0-43.5-7.3-60.6-19.4c-37.8,28.7-72.8,60.9-104.6,96c10,15.9,15.8,34.7,15.8,54.9c0,10.8-1.7,21.3-4.8,31.2C439.2,532.2,544.4,574.1,657.7,591L657.7,591z M792.9,731.7c1.4,19.8,2.2,39.6,2.2,59.7c0,35.4-2.2,70.2-6.5,104.4C871.7,835.2,935,749,966.9,648.8c-37.8,9.2-76.6,15.7-116.2,19.4C841.5,696.8,820.3,719.8,792.9,731.7L792.9,731.7z M633.3,661.1c-121-20.1-233.1-66.3-330.7-132.3c-15.9,9.7-34.5,15.4-54.4,15.4c-7.4,0-14.5-0.7-21.4-2.2c-46.7,88.5-76.6,187.3-85.2,292.1c46.7,50.1,103.5,90.4,167.5,117.4C388.6,829.3,499.6,728.4,633.3,661.1z M828.9,136.8c-78.6,7.6-153.5,27.4-223.3,56.9c0.3,3.5,0.5,7,0.5,10.5c0,16.5-3.9,32-10.7,45.7c69.8,82,123.9,177.3,158.1,281.8c42.4,0.9,78.7,26.7,94.3,63.6c47.2-4.8,93.1-13.8,137.3-26.8c3.2-22.4,4.9-45.3,4.9-68.5C989.9,356,927.8,226.5,828.9,136.8L828.9,136.8z M685.8,716.7C561,775.2,456.6,865.2,381,975.3c38.1,9.5,77.9,14.6,119,14.6c73.9,0,143.9-16.5,206.7-45.7c10.1-49.4,15.4-100.5,15.4-152.8c0-18.9-0.9-37.7-2.3-56.2C707.3,731.2,695.7,725,685.8,716.7L685.8,716.7z"/></g></g>
</svg>