<?xml version="1.0" encoding="utf-8"?>
<!-- Svg Vector Icons : http://www.onlinewebfonts.com/icon -->
<!DOCTYPE svg PUBLIC "-//W3C//DTD SVG 1.1//EN" "http://www.w3.org/Graphics/SVG/1.1/DTD/svg11.dtd">
<svg version="1.1" xmlns="http://www.w3.org/2000/svg" xmlns:xlink="http://www.w3.org/1999/xlink" x="0px" y="0px" viewBox="0 0 1000 1000" enable-background="new 0 0 1000 1000" xml:space="preserve">
<metadata> Svg Vector Icons : http://www.onlinewebfonts.com/icon </metadata>
<g><g><path d="M434.7,663.3L500,990l65.3-326.7c-20.4,2-43.9,3.1-65.3,3.1C478.6,666.4,455.1,665.4,434.7,663.3z M694,358.1c-33.7-17.4-63.3-60.2-63.3-86.8V206c0-22.5,12.3-39.8,23.5-53.1c15.3-13.3,24.5-29.6,24.5-45.9c0-54.1-62.3-97-178.6-97c-116.4,0-178.6,42.9-178.6,97c0,16.3,9.2,32.7,24.5,45.9c11.2,13.3,23.5,30.6,23.5,53.1v65.3c0,26.5-29.6,69.4-63.3,86.8c-38.8,19.4-71.5,55.1-71.5,89.8C234.6,523.5,337.7,599,500,599c162.3,0,265.4-74.5,265.4-151.1C765.4,414.3,733.8,378.5,694,358.1z"/></g></g>
</svg>