<?xml version="1.0" encoding="utf-8"?>
<!-- Svg Vector Icons : http://www.onlinewebfonts.com/icon -->
<!DOCTYPE svg PUBLIC "-//W3C//DTD SVG 1.1//EN" "http://www.w3.org/Graphics/SVG/1.1/DTD/svg11.dtd">
<svg version="1.1" xmlns="http://www.w3.org/2000/svg" xmlns:xlink="http://www.w3.org/1999/xlink" x="0px" y="0px" viewBox="0 0 1000 1000" enable-background="new 0 0 1000 1000" xml:space="preserve">
<metadata> Svg Vector Icons : http://www.onlinewebfonts.com/icon </metadata>
<g><g id="_x33_e91140ac1bfb9903b91c1b0ca09020a"><path d="M776.7,333.1c2-12.8,3.8-25,4.1-38.5c-32.2-4-69.1-3.1-83.7,17.8c-28.4,40.5,27,139.9,50.7,182.3c6.1,10.9,10.5,18.8,12.5,23.7c2.2,5.4,4.7,10.3,7.2,14.8c16.3-34.6,12.1-69.7,8-103.8c-2-16.9-4.1-34.3-3.6-51.1C772.4,361.1,774.6,346.9,776.7,333.1z M749.6,325.3c-2.6,2.8-8.1,7.5-15.7,8.6c-1,0.1-2,0.2-2.9,0.2c-11.1,0-20.7-8.7-21.5-14.3c-0.9-6.8,10.1-11.9,21.6-13.5c2.5-0.3,5-0.5,7.4-0.5c9.9,0,16.4,2.9,17.1,7.6C755.9,316.4,753.6,321.1,749.6,325.3z M636.2,73.7c20.3-4.2,48.1-8.1,79.3-7.5c78.9,1.7,141.2,31.2,185.4,87.7c33.9,43.3-3.4,240.3-111.4,410.2c-1.1-1.4-2.2-2.7-3.3-4.1c-0.4-0.6-0.9-1.1-1.4-1.7c27.9-46.1,22.4-91.7,17.6-132.1c-2-16.6-3.9-32.3-3.4-47c0.5-15.6,2.6-29,4.6-41.9c2.5-15.9,5-32.4,4.3-51.9c0.5-2,0.7-4.4,0.5-7.3c-1.8-18.7-23.1-74.5-66.5-125C718.1,125.5,683.5,94.5,636.2,73.7z M337.6,569.5c3.1,3.2,6.3,6.3,9.7,9.1c-13.3,14.3-42.3,45.8-73.1,82.9c-21.8,26.2-36.9,21.2-41.8,19.6c-32.3-10.8-69.7-79-102.7-187.2C101.1,400.3,84.4,306.2,83,279.8c-4.2-83.5,16.1-141.6,60.1-172.9c71.7-50.9,189.7-20.4,237.1-5c-0.7,0.7-1.4,1.3-2.1,2c-77.8,78.5-75.9,212.7-75.7,220.9c0,3.2,0.3,7.6,0.6,13.8c1.3,22.6,3.8,64.6-2.8,112.1C294.1,495,307.7,538.2,337.6,569.5z M772.2,586.5c-15.4,4.4-43.1,14.7-40.5,66c-2,25.7-16.5,146.2-23.8,188.7c-9.7,56.2-30.4,77.2-88.6,89.7c-60.3,12.9-81.7-17.9-95.8-53c-9.1-22.7-13.5-125.1-10.4-238.3c0-1.5-0.2-3-0.6-4.3c-0.4-2.6-0.9-5.3-1.7-8c-4.7-16.5-16.2-30.2-30-35.9c-4.3-1.8-10.8-4.5-18.8-4.5c-3,0-5.9,0.4-8.7,1.1c2.6-10.6,7-22.6,11.9-35.5l2-5.5c2.3-6.2,5.2-12.5,8.2-19.3c16.4-36.4,38.8-86.3,14.5-198.9c-9.1-42.2-39.6-62.8-85.8-58c-27.7,2.9-53,14-65.7,20.4c-2.7,1.4-5.2,2.7-7.6,4c3.5-42.5,16.8-121.8,66.6-172.2c31.4-31.7,73.2-47.4,124.2-46.5c100.3,1.6,164.7,53.1,201,96c31.3,37,48.2,74.2,55,94.3c-50.8-5.2-85.4,4.9-103,29.9c-38.1,54.5,20.9,160.3,49.2,211.2c5.2,9.3,9.7,17.4,11.1,20.8c9.2,22.4,21.2,37.3,29.9,48.2C767.6,580.4,770.2,583.6,772.2,586.5z M484.7,634.7c1.1,3.9,2.4,11.3-1.7,17.1c-20.7,29-49.3,43.7-84.8,43.7c-11.7,0-24.1-1.6-36.9-4.8c-7.5-1.9-14.2-5.1-18.2-7.8c3.3-1.6,9.2-3.7,19.4-5.8c49.3-10.2,56.9-17.3,73.5-38.4c3.8-4.8,8.1-10.3,14.1-17c4.5-5.1,8.6-7.6,12-7.6c2.4,0,5.1,1,8.4,2.4C476.5,619,482.3,626.5,484.7,634.7z M909.2,617.8c0.2,0,0.4-0.1,0.6-0.1c-7.5,7.1-20.5,16.5-38.8,25c-15.8,7.3-42.1,12.8-67.1,14c-27.7,1.3-41.7-3.1-45-5.8c-1.5-31.9,10.3-35.3,22.9-38.8c2-0.6,3.9-1.1,5.8-1.7c1.2,0.9,2.4,1.9,3.8,2.8C813.6,627.8,853.2,629.4,909.2,617.8z M439.7,542.9l2-5.4c2.6-7,5.7-13.8,8.9-21c15.7-34.8,35.1-78.1,12.7-182c-4.3-20.1-14.8-31.7-31.9-35.7c-37.5-8.6-90.2,19.6-101.5,29.7c0.1,2.3,0.3,5.2,0.5,8.4c1.4,23.5,4,67.3-3,117.5c-5,35.9,5.9,70.9,30.1,96.1c19,19.8,43.9,30.8,69.6,30.8C429.8,569.3,434.6,556.6,439.7,542.9z M404.3,333c-1.8-2.3-4.6-6.9-4-10.9c0.8-6,8-9.6,19.3-9.6c2.5,0,5.1,0.2,7.7,0.6c12.2,1.7,24.7,7.4,23.5,16.1c-0.9,6.5-11.3,16.2-23.7,16.2c-1.1,0-2.2-0.1-3.3-0.2C416.6,344.2,409.3,339.6,404.3,333z M974,600.2c-4.1-18.4-20.7-39.8-54.3-39.8c-6.7,0-14,0.8-22.3,2.5c-15.9,3.3-30.1,5.3-42.3,6.1c42.8-73.3,77.2-155.8,97.1-233.1c18.5-71.5,32.4-167-5.9-215.9C890.1,48,807.8,10,708.3,10c-56.1,0-101.8,12.5-115.7,16.8c-21.9-3.8-45.4-5.9-70-6.3c-1.6,0-3.3,0-4.9,0c-44.2,0-83.9,10-117.8,29.9C369,39.9,309.3,23.1,247.1,23.1c-70,0-125.1,20.6-163.8,61.3c-42.9,45.1-62.4,112.3-58,199.9c1.8,36.7,23,146.5,53.3,241.8c46.8,147.2,98.4,215.8,162.2,215.8c20,0,39-7,56.5-20.8c15.3,16.7,37.6,24.3,49.9,27.3c17.4,4.3,34.5,6.6,50.9,6.6c21.9,0,42.6-3.8,61.5-11.4c0.1,4.1,0.2,8,0.3,11.5c0.2,8,0.4,15.8,0.7,23.1c2,49.8,5.4,88.5,15.5,115.8c0.5,1.4,1.2,3.6,2,6c4.4,13.6,11.1,34,26.5,52.6c20.3,24.5,49.1,37.4,83.5,37.4c11,0,22.7-1.3,34.9-3.9c36.9-7.9,78.8-20,109.4-63.4c28.6-40.7,42.5-101.6,45-197.5l1.1-9.4l5.3,0.4c3.4,0.2,6.9,0.2,10.4,0.2c35.8,0,75.5-7.7,101.1-19.6C916.6,686.8,985.2,650.7,974,600.2z M882.5,667.4c-22,10.2-57.1,16.7-87.6,16.7c-14.6,0-28.1-1.5-38.6-4.8c-5,45.7-15.5,130.8-21.7,166.5c-11.5,66.7-41.2,97-109.7,111.7c-11.7,2.5-22.3,3.6-31.9,3.6c-65.6,0-86.4-51.9-94.9-73.2c-10.4-26-14-111.1-13.3-197.6c-23.6,21.3-53.1,32.5-86.8,32.5c-13.9,0-28.6-1.9-43.5-5.6c-4.3-1.1-42.3-11.3-41.8-35.5c0.5-22.2,32.1-28.7,44.1-31.2c41.9-8.6,44.6-12.1,57.6-28.6c2.6-3.3,5.7-7.3,9.5-11.7c0-0.5-0.1-1-0.1-1.5c-18.8-0.5-37.2-5.5-53.9-14.5c-11.3,12-42,45.2-74.9,84.8c-19.8,23.8-38.8,30.8-54.3,30.8c-6.3,0-12.1-1.2-17.1-2.8c-42.5-14.2-83-83.2-120.2-205c-28.3-92.6-46.2-189.3-47.7-220.7c-4.7-93.4,19.4-159.5,71.6-196.5C221,18.4,372,69.3,405,81.6c32.5-22.2,71.7-33,117.2-32.3c24.8,0.4,47.5,3.6,68.4,8.8c9.9-4.4,61.1-19.8,121.5-19.2c88,0.9,160.7,34.9,210.3,98.2c33.4,42.7,11.4,146.7,0.3,189.5c-23,88.9-65.5,184.2-117.3,263c7.8,5.8,31.7,15.3,98.2,1.5c22.4-4.6,35.9-0.5,40.1,12.1C951.9,627.7,907.2,655.9,882.5,667.4z"/></g></g>
</svg>