<?xml version="1.0" encoding="UTF-8" standalone="no"?>
<!DOCTYPE svg PUBLIC "-//W3C//DTD SVG 1.1//EN"
 "http://www.w3.org/Graphics/SVG/1.1/DTD/svg11.dtd">
<!-- Generated by graphviz version 2.47.3 (20210619.1520)
 -->
<!-- Title: dependencies Pages: 1 -->
<svg width="282pt" height="174pt"
 viewBox="0.00 0.00 282.00 173.80" xmlns="http://www.w3.org/2000/svg" xmlns:xlink="http://www.w3.org/1999/xlink">
<g id="graph0" class="graph" transform="scale(1 1) rotate(0) translate(4 169.8)">
<title>dependencies</title>
<polygon fill="white" stroke="transparent" points="-4,4 -4,-169.8 278,-169.8 278,4 -4,4"/>
<text text-anchor="middle" x="137" y="-8.2" font-family="sans-serif" font-size="14.00">dependencies</text>
<g id="clust1" class="cluster">
<title>cluster_MessagingModule</title>
<polygon fill="none" stroke="black" stroke-dasharray="1,5" points="8,-32.8 8,-157.8 266,-157.8 266,-32.8 8,-32.8"/>
</g>
<g id="clust3" class="cluster">
<title>cluster_MessagingModule_imports</title>
<polygon fill="none" stroke="black" points="16,-40.8 16,-92.8 258,-92.8 258,-40.8 16,-40.8"/>
</g>
<!-- KafkaModule -->
<g id="node1" class="node">
<title>KafkaModule</title>
<polygon fill="#8dd3c7" stroke="black" points="249.75,-84.8 246.75,-88.8 225.75,-88.8 222.75,-84.8 156.25,-84.8 156.25,-48.8 249.75,-48.8 249.75,-84.8"/>
<text text-anchor="middle" x="203" y="-62.6" font-family="Times,serif" font-size="14.00">KafkaModule</text>
</g>
<!-- MessagingModule -->
<g id="node3" class="node">
<title>MessagingModule</title>
<polygon fill="#8dd3c7" stroke="black" points="199.2,-149.8 196.2,-153.8 175.2,-153.8 172.2,-149.8 78.8,-149.8 78.8,-113.8 199.2,-113.8 199.2,-149.8"/>
<text text-anchor="middle" x="139" y="-127.6" font-family="Times,serif" font-size="14.00">MessagingModule</text>
</g>
<!-- KafkaModule&#45;&gt;MessagingModule -->
<g id="edge1" class="edge">
<title>KafkaModule&#45;&gt;MessagingModule</title>
<path fill="none" stroke="black" d="M177.61,-84.91C177.61,-84.91 177.61,-103.79 177.61,-103.79"/>
<polygon fill="black" stroke="black" points="174.11,-103.79 177.61,-113.79 181.11,-103.79 174.11,-103.79"/>
</g>
<!-- RabbitmqModule -->
<g id="node2" class="node">
<title>RabbitmqModule</title>
<polygon fill="#8dd3c7" stroke="black" points="138.27,-84.8 135.27,-88.8 114.27,-88.8 111.27,-84.8 23.73,-84.8 23.73,-48.8 138.27,-48.8 138.27,-84.8"/>
<text text-anchor="middle" x="81" y="-62.6" font-family="Times,serif" font-size="14.00">RabbitmqModule</text>
</g>
<!-- RabbitmqModule&#45;&gt;MessagingModule -->
<g id="edge2" class="edge">
<title>RabbitmqModule&#45;&gt;MessagingModule</title>
<path fill="none" stroke="black" d="M108.64,-84.91C108.64,-84.91 108.64,-103.79 108.64,-103.79"/>
<polygon fill="black" stroke="black" points="105.14,-103.79 108.64,-113.79 112.14,-103.79 105.14,-103.79"/>
</g>
</g>
</svg>
