<?xml version="1.0" encoding="UTF-8" standalone="no"?>
<!DOCTYPE svg PUBLIC "-//W3C//DTD SVG 1.1//EN"
 "http://www.w3.org/Graphics/SVG/1.1/DTD/svg11.dtd">
<!-- Generated by graphviz version 2.40.1 (20161225.0304)
 -->
<!-- Title: dependencies Pages: 1 -->
<svg width="504pt" height="211pt"
 viewBox="0.00 0.00 504.00 211.00" xmlns="http://www.w3.org/2000/svg" xmlns:xlink="http://www.w3.org/1999/xlink">
<g id="graph0" class="graph" transform="scale(1 1) rotate(0) translate(4 207)">
<title>dependencies</title>
<polygon fill="#ffffff" stroke="transparent" points="-4,4 -4,-207 500,-207 500,4 -4,4"/>
<text text-anchor="start" x="227.0091" y="-42.4" font-family="sans-serif" font-weight="bold" font-size="14.00" fill="#000000">Legend</text>
<polygon fill="#ffffb3" stroke="transparent" points="14,-10 14,-30 34,-30 34,-10 14,-10"/>
<text text-anchor="start" x="37.629" y="-15.4" font-family="sans-serif" font-size="14.00" fill="#000000"> &#160;Declarations</text>
<polygon fill="#8dd3c7" stroke="transparent" points="127,-10 127,-30 147,-30 147,-10 127,-10"/>
<text text-anchor="start" x="150.7251" y="-15.4" font-family="sans-serif" font-size="14.00" fill="#000000"> &#160;Module</text>
<polygon fill="#80b1d3" stroke="transparent" points="213,-10 213,-30 233,-30 233,-10 213,-10"/>
<text text-anchor="start" x="236.7812" y="-15.4" font-family="sans-serif" font-size="14.00" fill="#000000"> &#160;Bootstrap</text>
<polygon fill="#fdb462" stroke="transparent" points="310,-10 310,-30 330,-30 330,-10 310,-10"/>
<text text-anchor="start" x="333.6732" y="-15.4" font-family="sans-serif" font-size="14.00" fill="#000000"> &#160;Providers</text>
<polygon fill="#fb8072" stroke="transparent" points="406,-10 406,-30 426,-30 426,-10 406,-10"/>
<text text-anchor="start" x="429.7258" y="-15.4" font-family="sans-serif" font-size="14.00" fill="#000000"> &#160;Exports</text>
<g id="clust1" class="cluster">
<title>cluster_MessagingModule</title>
<polygon fill="none" stroke="#000000" stroke-dasharray="1,5" points="119,-70 119,-195 377,-195 377,-70 119,-70"/>
</g>
<g id="clust3" class="cluster">
<title>cluster_MessagingModule_imports</title>
<polygon fill="none" stroke="#000000" points="127,-78 127,-130 369,-130 369,-78 127,-78"/>
</g>
<!-- KafkaModule -->
<g id="node1" class="node">
<title>KafkaModule</title>
<polygon fill="#8dd3c7" stroke="#000000" points="360.7465,-122 357.7465,-126 336.7465,-126 333.7465,-122 267.2535,-122 267.2535,-86 360.7465,-86 360.7465,-122"/>
<text text-anchor="middle" x="314" y="-99.8" font-family="Times,serif" font-size="14.00" fill="#000000">KafkaModule</text>
</g>
<!-- MessagingModule -->
<g id="node3" class="node">
<title>MessagingModule</title>
<polygon fill="#8dd3c7" stroke="#000000" points="310.2036,-187 307.2036,-191 286.2036,-191 283.2036,-187 189.7964,-187 189.7964,-151 310.2036,-151 310.2036,-187"/>
<text text-anchor="middle" x="250" y="-164.8" font-family="Times,serif" font-size="14.00" fill="#000000">MessagingModule</text>
</g>
<!-- KafkaModule&#45;&gt;MessagingModule -->
<g id="edge1" class="edge">
<title>KafkaModule&#45;&gt;MessagingModule</title>
<path fill="none" stroke="#000000" d="M288.6143,-122.1061C288.6143,-122.1061 288.6143,-140.991 288.6143,-140.991"/>
<polygon fill="#000000" stroke="#000000" points="285.1144,-140.9909 288.6143,-150.991 292.1144,-140.991 285.1144,-140.9909"/>
</g>
<!-- RabbitmqModule -->
<g id="node2" class="node">
<title>RabbitmqModule</title>
<polygon fill="#8dd3c7" stroke="#000000" points="249.273,-122 246.273,-126 225.273,-126 222.273,-122 134.727,-122 134.727,-86 249.273,-86 249.273,-122"/>
<text text-anchor="middle" x="192" y="-99.8" font-family="Times,serif" font-size="14.00" fill="#000000">RabbitmqModule</text>
</g>
<!-- RabbitmqModule&#45;&gt;MessagingModule -->
<g id="edge2" class="edge">
<title>RabbitmqModule&#45;&gt;MessagingModule</title>
<path fill="none" stroke="#000000" d="M219.6424,-122.1061C219.6424,-122.1061 219.6424,-140.991 219.6424,-140.991"/>
<polygon fill="#000000" stroke="#000000" points="216.1424,-140.9909 219.6424,-150.991 223.1424,-140.991 216.1424,-140.9909"/>
</g>
</g>
</svg>
