<?xml version="1.0" encoding="UTF-8" standalone="no"?>
<!DOCTYPE svg PUBLIC "-//W3C//DTD SVG 1.1//EN"
 "http://www.w3.org/Graphics/SVG/1.1/DTD/svg11.dtd">
<!-- Generated by graphviz version 2.47.3 (20210619.1520)
 -->
<!-- Title: dependencies Pages: 1 -->
<svg width="695pt" height="174pt"
 viewBox="0.00 0.00 695.00 173.80" xmlns="http://www.w3.org/2000/svg" xmlns:xlink="http://www.w3.org/1999/xlink">
<g id="graph0" class="graph" transform="scale(1 1) rotate(0) translate(4 169.8)">
<title>dependencies</title>
<polygon fill="white" stroke="transparent" points="-4,4 -4,-169.8 691,-169.8 691,4 -4,4"/>
<text text-anchor="middle" x="343.5" y="-8.2" font-family="sans-serif" font-size="14.00">dependencies</text>
<g id="clust1" class="cluster">
<title>cluster_RedisModule</title>
<polygon fill="none" stroke="black" stroke-dasharray="1,5" points="8,-32.8 8,-157.8 679,-157.8 679,-32.8 8,-32.8"/>
</g>
<g id="clust2" class="cluster">
<title>cluster_RedisModule_declarations</title>
<polygon fill="none" stroke="black" points="541,-40.8 541,-92.8 671,-92.8 671,-40.8 541,-40.8"/>
</g>
<g id="clust4" class="cluster">
<title>cluster_RedisModule_imports</title>
<polygon fill="none" stroke="black" points="16,-40.8 16,-92.8 533,-92.8 533,-40.8 16,-40.8"/>
</g>
<!-- RedisComponent -->
<g id="node1" class="node">
<title>RedisComponent</title>
<polygon fill="#ffffb3" stroke="black" points="662.72,-84.8 549.28,-84.8 549.28,-48.8 662.72,-48.8 662.72,-84.8"/>
<text text-anchor="middle" x="606" y="-62.6" font-family="Times,serif" font-size="14.00">RedisComponent</text>
</g>
<!-- RedisModule -->
<g id="node2" class="node">
<title>RedisModule</title>
<polygon fill="#8dd3c7" stroke="black" points="383.94,-149.8 380.94,-153.8 359.94,-153.8 356.94,-149.8 292.06,-149.8 292.06,-113.8 383.94,-113.8 383.94,-149.8"/>
<text text-anchor="middle" x="338" y="-127.6" font-family="Times,serif" font-size="14.00">RedisModule</text>
</g>
<!-- RedisComponent&#45;&gt;RedisModule -->
<g id="edge1" class="edge">
<title>RedisComponent&#45;&gt;RedisModule</title>
<path fill="none" stroke="black" d="M606,-85.08C606,-106.12 606,-137.8 606,-137.8 606,-137.8 393.77,-137.8 393.77,-137.8"/>
<polygon fill="black" stroke="black" points="393.77,-134.3 383.77,-137.8 393.77,-141.3 393.77,-134.3"/>
</g>
<!-- CommonUiModule -->
<g id="node3" class="node">
<title>CommonUiModule</title>
<polygon fill="#8dd3c7" stroke="black" points="524.67,-84.8 521.67,-88.8 500.67,-88.8 497.67,-84.8 399.33,-84.8 399.33,-48.8 524.67,-48.8 524.67,-84.8"/>
<text text-anchor="middle" x="462" y="-62.6" font-family="Times,serif" font-size="14.00">CommonUiModule</text>
</g>
<!-- CommonUiModule&#45;&gt;RedisModule -->
<g id="edge2" class="edge">
<title>CommonUiModule&#45;&gt;RedisModule</title>
<path fill="none" stroke="black" d="M462,-84.82C462,-102.17 462,-125.8 462,-125.8 462,-125.8 393.82,-125.8 393.82,-125.8"/>
<polygon fill="black" stroke="black" points="393.82,-122.3 383.82,-125.8 393.82,-129.3 393.82,-122.3"/>
</g>
<!-- CoreModule -->
<g id="node4" class="node">
<title>CoreModule</title>
<polygon fill="#8dd3c7" stroke="black" points="381.26,-84.8 378.26,-88.8 357.26,-88.8 354.26,-84.8 294.74,-84.8 294.74,-48.8 381.26,-48.8 381.26,-84.8"/>
<text text-anchor="middle" x="338" y="-62.6" font-family="Times,serif" font-size="14.00">CoreModule</text>
</g>
<!-- CoreModule&#45;&gt;RedisModule -->
<g id="edge3" class="edge">
<title>CoreModule&#45;&gt;RedisModule</title>
<path fill="none" stroke="black" d="M338,-84.91C338,-84.91 338,-103.79 338,-103.79"/>
<polygon fill="black" stroke="black" points="334.5,-103.79 338,-113.79 341.5,-103.79 334.5,-103.79"/>
</g>
<!-- RedisRoutingModule -->
<g id="node5" class="node">
<title>RedisRoutingModule</title>
<polygon fill="#8dd3c7" stroke="black" points="276.05,-84.8 273.05,-88.8 252.05,-88.8 249.05,-84.8 139.95,-84.8 139.95,-48.8 276.05,-48.8 276.05,-84.8"/>
<text text-anchor="middle" x="208" y="-62.6" font-family="Times,serif" font-size="14.00">RedisRoutingModule</text>
</g>
<!-- RedisRoutingModule&#45;&gt;RedisModule -->
<g id="edge4" class="edge">
<title>RedisRoutingModule&#45;&gt;RedisModule</title>
<path fill="none" stroke="black" d="M208,-84.82C208,-102.17 208,-125.8 208,-125.8 208,-125.8 282.17,-125.8 282.17,-125.8"/>
<polygon fill="black" stroke="black" points="282.17,-129.3 292.17,-125.8 282.17,-122.3 282.17,-129.3"/>
</g>
<!-- SharedModule -->
<g id="node6" class="node">
<title>SharedModule</title>
<polygon fill="#8dd3c7" stroke="black" points="122.42,-84.8 119.42,-88.8 98.42,-88.8 95.42,-84.8 23.58,-84.8 23.58,-48.8 122.42,-48.8 122.42,-84.8"/>
<text text-anchor="middle" x="73" y="-62.6" font-family="Times,serif" font-size="14.00">SharedModule</text>
</g>
<!-- SharedModule&#45;&gt;RedisModule -->
<g id="edge5" class="edge">
<title>SharedModule&#45;&gt;RedisModule</title>
<path fill="none" stroke="black" d="M73,-85.08C73,-106.12 73,-137.8 73,-137.8 73,-137.8 282.14,-137.8 282.14,-137.8"/>
<polygon fill="black" stroke="black" points="282.14,-141.3 292.14,-137.8 282.14,-134.3 282.14,-141.3"/>
</g>
</g>
</svg>
