<?xml version="1.0" encoding="UTF-8" standalone="no"?>
<!DOCTYPE svg PUBLIC "-//W3C//DTD SVG 1.1//EN"
 "http://www.w3.org/Graphics/SVG/1.1/DTD/svg11.dtd">
<!-- Generated by graphviz version 2.47.3 (20210619.1520)
 -->
<!-- Title: dependencies Pages: 1 -->
<svg width="462pt" height="247pt"
 viewBox="0.00 0.00 462.00 246.80" xmlns="http://www.w3.org/2000/svg" xmlns:xlink="http://www.w3.org/1999/xlink">
<g id="graph0" class="graph" transform="scale(1 1) rotate(0) translate(4 242.8)">
<title>dependencies</title>
<polygon fill="white" stroke="transparent" points="-4,4 -4,-242.8 458,-242.8 458,4 -4,4"/>
<text text-anchor="middle" x="227" y="-8.2" font-family="sans-serif" font-size="14.00">dependencies</text>
<g id="clust1" class="cluster">
<title>cluster_ImagesModule</title>
<polygon fill="none" stroke="black" stroke-dasharray="1,5" points="8,-32.8 8,-230.8 446,-230.8 446,-32.8 8,-32.8"/>
</g>
<g id="clust3" class="cluster">
<title>cluster_ImagesModule_imports</title>
<polygon fill="none" stroke="black" points="176,-40.8 176,-92.8 438,-92.8 438,-40.8 176,-40.8"/>
</g>
<g id="clust6" class="cluster">
<title>cluster_ImagesModule_providers</title>
<polygon fill="none" stroke="black" points="16,-40.8 16,-92.8 168,-92.8 168,-40.8 16,-40.8"/>
</g>
<g id="clust4" class="cluster">
<title>cluster_ImagesModule_exports</title>
<polygon fill="none" stroke="black" points="168,-170.8 168,-222.8 286,-222.8 286,-170.8 168,-170.8"/>
</g>
<!-- CloudproviderModule -->
<g id="node1" class="node">
<title>CloudproviderModule</title>
<polygon fill="#8dd3c7" stroke="black" points="429.7,-84.8 426.7,-88.8 405.7,-88.8 402.7,-84.8 288.3,-84.8 288.3,-48.8 429.7,-48.8 429.7,-84.8"/>
<text text-anchor="middle" x="359" y="-62.6" font-family="Times,serif" font-size="14.00">CloudproviderModule</text>
</g>
<!-- ImagesModule -->
<g id="node3" class="node">
<title>ImagesModule</title>
<polygon fill="#8dd3c7" stroke="black" points="276.97,-149.8 273.97,-153.8 252.97,-153.8 249.97,-149.8 177.03,-149.8 177.03,-113.8 276.97,-113.8 276.97,-149.8"/>
<text text-anchor="middle" x="227" y="-127.6" font-family="Times,serif" font-size="14.00">ImagesModule</text>
</g>
<!-- CloudproviderModule&#45;&gt;ImagesModule -->
<g id="edge1" class="edge">
<title>CloudproviderModule&#45;&gt;ImagesModule</title>
<path fill="none" stroke="black" d="M359,-84.91C359,-104.14 359,-131.8 359,-131.8 359,-131.8 287.28,-131.8 287.28,-131.8"/>
<polygon fill="black" stroke="black" points="287.28,-128.3 277.28,-131.8 287.28,-135.3 287.28,-128.3"/>
</g>
<!-- CoreModule -->
<g id="node2" class="node">
<title>CoreModule</title>
<polygon fill="#8dd3c7" stroke="black" points="270.26,-84.8 267.26,-88.8 246.26,-88.8 243.26,-84.8 183.74,-84.8 183.74,-48.8 270.26,-48.8 270.26,-84.8"/>
<text text-anchor="middle" x="227" y="-62.6" font-family="Times,serif" font-size="14.00">CoreModule</text>
</g>
<!-- CoreModule&#45;&gt;ImagesModule -->
<g id="edge2" class="edge">
<title>CoreModule&#45;&gt;ImagesModule</title>
<path fill="none" stroke="black" d="M227,-84.91C227,-84.91 227,-103.79 227,-103.79"/>
<polygon fill="black" stroke="black" points="223.5,-103.79 227,-113.79 230.5,-103.79 223.5,-103.79"/>
</g>
<!-- ImagesService  -->
<g id="node4" class="node">
<title>ImagesService </title>
<polygon fill="#fb8072" stroke="black" points="277.9,-214.8 176.1,-214.8 176.1,-178.8 277.9,-178.8 277.9,-214.8"/>
<text text-anchor="middle" x="227" y="-192.6" font-family="Times,serif" font-size="14.00">ImagesService </text>
</g>
<!-- ImagesModule&#45;&gt;ImagesService  -->
<g id="edge3" class="edge">
<title>ImagesModule&#45;&gt;ImagesService </title>
<path fill="none" stroke="black" stroke-dasharray="5,2" d="M227,-149.91C227,-149.91 227,-168.79 227,-168.79"/>
<polygon fill="black" stroke="black" points="223.5,-168.79 227,-178.79 230.5,-168.79 223.5,-168.79"/>
</g>
<!-- ImagesService -->
<g id="node5" class="node">
<title>ImagesService</title>
<ellipse fill="#fdb462" stroke="black" cx="92" cy="-66.8" rx="67.75" ry="18"/>
<text text-anchor="middle" x="92" y="-62.6" font-family="Times,serif" font-size="14.00">ImagesService</text>
</g>
<!-- ImagesService&#45;&gt;ImagesModule -->
<g id="edge4" class="edge">
<title>ImagesService&#45;&gt;ImagesModule</title>
<path fill="none" stroke="black" d="M92,-84.91C92,-104.14 92,-131.8 92,-131.8 92,-131.8 166.73,-131.8 166.73,-131.8"/>
<polygon fill="black" stroke="black" points="166.73,-135.3 176.73,-131.8 166.73,-128.3 166.73,-135.3"/>
</g>
</g>
</svg>
