<?xml version="1.0" encoding="UTF-8" standalone="no"?>
<!DOCTYPE svg PUBLIC "-//W3C//DTD SVG 1.1//EN"
 "http://www.w3.org/Graphics/SVG/1.1/DTD/svg11.dtd">
<!-- Generated by graphviz version 2.40.1 (20161225.0304)
 -->
<!-- Title: dependencies Pages: 1 -->
<svg width="504pt" height="284pt"
 viewBox="0.00 0.00 504.00 284.00" xmlns="http://www.w3.org/2000/svg" xmlns:xlink="http://www.w3.org/1999/xlink">
<g id="graph0" class="graph" transform="scale(1 1) rotate(0) translate(4 280)">
<title>dependencies</title>
<polygon fill="#ffffff" stroke="transparent" points="-4,4 -4,-280 500,-280 500,4 -4,4"/>
<text text-anchor="start" x="227.0091" y="-42.4" font-family="sans-serif" font-weight="bold" font-size="14.00" fill="#000000">Legend</text>
<polygon fill="#ffffb3" stroke="transparent" points="14,-10 14,-30 34,-30 34,-10 14,-10"/>
<text text-anchor="start" x="37.629" y="-15.4" font-family="sans-serif" font-size="14.00" fill="#000000"> &#160;Declarations</text>
<polygon fill="#8dd3c7" stroke="transparent" points="127,-10 127,-30 147,-30 147,-10 127,-10"/>
<text text-anchor="start" x="150.7251" y="-15.4" font-family="sans-serif" font-size="14.00" fill="#000000"> &#160;Module</text>
<polygon fill="#80b1d3" stroke="transparent" points="213,-10 213,-30 233,-30 233,-10 213,-10"/>
<text text-anchor="start" x="236.7812" y="-15.4" font-family="sans-serif" font-size="14.00" fill="#000000"> &#160;Bootstrap</text>
<polygon fill="#fdb462" stroke="transparent" points="310,-10 310,-30 330,-30 330,-10 310,-10"/>
<text text-anchor="start" x="333.6732" y="-15.4" font-family="sans-serif" font-size="14.00" fill="#000000"> &#160;Providers</text>
<polygon fill="#fb8072" stroke="transparent" points="406,-10 406,-30 426,-30 426,-10 406,-10"/>
<text text-anchor="start" x="429.7258" y="-15.4" font-family="sans-serif" font-size="14.00" fill="#000000"> &#160;Exports</text>
<g id="clust1" class="cluster">
<title>cluster_ImagesModule</title>
<polygon fill="none" stroke="#000000" stroke-dasharray="1,5" points="29,-70 29,-268 467,-268 467,-70 29,-70"/>
</g>
<g id="clust3" class="cluster">
<title>cluster_ImagesModule_imports</title>
<polygon fill="none" stroke="#000000" points="197,-78 197,-130 459,-130 459,-78 197,-78"/>
</g>
<g id="clust4" class="cluster">
<title>cluster_ImagesModule_exports</title>
<polygon fill="none" stroke="#000000" points="189,-208 189,-260 307,-260 307,-208 189,-208"/>
</g>
<g id="clust6" class="cluster">
<title>cluster_ImagesModule_providers</title>
<polygon fill="none" stroke="#000000" points="37,-78 37,-130 189,-130 189,-78 37,-78"/>
</g>
<!-- CloudproviderModule -->
<g id="node1" class="node">
<title>CloudproviderModule</title>
<polygon fill="#8dd3c7" stroke="#000000" points="450.7035,-122 447.7035,-126 426.7035,-126 423.7035,-122 309.2965,-122 309.2965,-86 450.7035,-86 450.7035,-122"/>
<text text-anchor="middle" x="380" y="-99.8" font-family="Times,serif" font-size="14.00" fill="#000000">CloudproviderModule</text>
</g>
<!-- ImagesModule -->
<g id="node3" class="node">
<title>ImagesModule</title>
<polygon fill="#8dd3c7" stroke="#000000" points="297.9748,-187 294.9748,-191 273.9748,-191 270.9748,-187 198.0252,-187 198.0252,-151 297.9748,-151 297.9748,-187"/>
<text text-anchor="middle" x="248" y="-164.8" font-family="Times,serif" font-size="14.00" fill="#000000">ImagesModule</text>
</g>
<!-- CloudproviderModule&#45;&gt;ImagesModule -->
<g id="edge1" class="edge">
<title>CloudproviderModule&#45;&gt;ImagesModule</title>
<path fill="none" stroke="#000000" d="M380,-122.1061C380,-141.3391 380,-169 380,-169 380,-169 308.2801,-169 308.2801,-169"/>
<polygon fill="#000000" stroke="#000000" points="308.2801,-165.5001 298.2801,-169 308.2801,-172.5001 308.2801,-165.5001"/>
</g>
<!-- CoreModule -->
<g id="node2" class="node">
<title>CoreModule</title>
<polygon fill="#8dd3c7" stroke="#000000" points="291.2619,-122 288.2619,-126 267.2619,-126 264.2619,-122 204.7381,-122 204.7381,-86 291.2619,-86 291.2619,-122"/>
<text text-anchor="middle" x="248" y="-99.8" font-family="Times,serif" font-size="14.00" fill="#000000">CoreModule</text>
</g>
<!-- CoreModule&#45;&gt;ImagesModule -->
<g id="edge2" class="edge">
<title>CoreModule&#45;&gt;ImagesModule</title>
<path fill="none" stroke="#000000" d="M248,-122.1061C248,-122.1061 248,-140.991 248,-140.991"/>
<polygon fill="#000000" stroke="#000000" points="244.5001,-140.9909 248,-150.991 251.5001,-140.991 244.5001,-140.9909"/>
</g>
<!-- ImagesService  -->
<g id="node4" class="node">
<title>ImagesService </title>
<polygon fill="#fb8072" stroke="#000000" points="298.9026,-252 197.0974,-252 197.0974,-216 298.9026,-216 298.9026,-252"/>
<text text-anchor="middle" x="248" y="-229.8" font-family="Times,serif" font-size="14.00" fill="#000000">ImagesService </text>
</g>
<!-- ImagesModule&#45;&gt;ImagesService  -->
<g id="edge3" class="edge">
<title>ImagesModule&#45;&gt;ImagesService </title>
<path fill="none" stroke="#000000" stroke-dasharray="5,2" d="M248,-187.1061C248,-187.1061 248,-205.991 248,-205.991"/>
<polygon fill="#000000" stroke="#000000" points="244.5001,-205.9909 248,-215.991 251.5001,-205.991 244.5001,-205.9909"/>
</g>
<!-- ImagesService -->
<g id="node5" class="node">
<title>ImagesService</title>
<ellipse fill="#fdb462" stroke="#000000" cx="113" cy="-104" rx="67.7529" ry="18"/>
<text text-anchor="middle" x="113" y="-99.8" font-family="Times,serif" font-size="14.00" fill="#000000">ImagesService</text>
</g>
<!-- ImagesService&#45;&gt;ImagesModule -->
<g id="edge4" class="edge">
<title>ImagesService&#45;&gt;ImagesModule</title>
<path fill="none" stroke="#000000" d="M113,-122.1061C113,-141.3391 113,-169 113,-169 113,-169 187.731,-169 187.731,-169"/>
<polygon fill="#000000" stroke="#000000" points="187.731,-172.5001 197.731,-169 187.7309,-165.5001 187.731,-172.5001"/>
</g>
</g>
</svg>
