<?xml version="1.0" encoding="UTF-8" standalone="no"?>
<!DOCTYPE svg PUBLIC "-//W3C//DTD SVG 1.1//EN"
 "http://www.w3.org/Graphics/SVG/1.1/DTD/svg11.dtd">
<!-- Generated by graphviz version 2.47.3 (20210619.1520)
 -->
<!-- Title: dependencies Pages: 1 -->
<svg width="716pt" height="174pt"
 viewBox="0.00 0.00 716.00 173.80" xmlns="http://www.w3.org/2000/svg" xmlns:xlink="http://www.w3.org/1999/xlink">
<g id="graph0" class="graph" transform="scale(1 1) rotate(0) translate(4 169.8)">
<title>dependencies</title>
<polygon fill="white" stroke="transparent" points="-4,4 -4,-169.8 712,-169.8 712,4 -4,4"/>
<text text-anchor="middle" x="354" y="-8.2" font-family="sans-serif" font-size="14.00">dependencies</text>
<g id="clust1" class="cluster">
<title>cluster_HistoryModule</title>
<polygon fill="none" stroke="black" stroke-dasharray="1,5" points="8,-32.8 8,-157.8 700,-157.8 700,-32.8 8,-32.8"/>
</g>
<g id="clust4" class="cluster">
<title>cluster_HistoryModule_imports</title>
<polygon fill="none" stroke="black" points="164,-40.8 164,-92.8 692,-92.8 692,-40.8 164,-40.8"/>
</g>
<g id="clust2" class="cluster">
<title>cluster_HistoryModule_declarations</title>
<polygon fill="none" stroke="black" points="16,-40.8 16,-92.8 156,-92.8 156,-40.8 16,-40.8"/>
</g>
<!-- HistoryComponent -->
<g id="node1" class="node">
<title>HistoryComponent</title>
<polygon fill="#ffffb3" stroke="black" points="147.83,-84.8 24.17,-84.8 24.17,-48.8 147.83,-48.8 147.83,-84.8"/>
<text text-anchor="middle" x="86" y="-62.6" font-family="Times,serif" font-size="14.00">HistoryComponent</text>
</g>
<!-- HistoryModule -->
<g id="node2" class="node">
<title>HistoryModule</title>
<polygon fill="#8dd3c7" stroke="black" points="412.54,-149.8 409.54,-153.8 388.54,-153.8 385.54,-149.8 311.46,-149.8 311.46,-113.8 412.54,-113.8 412.54,-149.8"/>
<text text-anchor="middle" x="362" y="-127.6" font-family="Times,serif" font-size="14.00">HistoryModule</text>
</g>
<!-- HistoryComponent&#45;&gt;HistoryModule -->
<g id="edge1" class="edge">
<title>HistoryComponent&#45;&gt;HistoryModule</title>
<path fill="none" stroke="black" d="M86,-85.08C86,-106.12 86,-137.8 86,-137.8 86,-137.8 301.38,-137.8 301.38,-137.8"/>
<polygon fill="black" stroke="black" points="301.38,-141.3 311.38,-137.8 301.38,-134.3 301.38,-141.3"/>
</g>
<!-- CommonUiModule -->
<g id="node3" class="node">
<title>CommonUiModule</title>
<polygon fill="#8dd3c7" stroke="black" points="683.67,-84.8 680.67,-88.8 659.67,-88.8 656.67,-84.8 558.33,-84.8 558.33,-48.8 683.67,-48.8 683.67,-84.8"/>
<text text-anchor="middle" x="621" y="-62.6" font-family="Times,serif" font-size="14.00">CommonUiModule</text>
</g>
<!-- CommonUiModule&#45;&gt;HistoryModule -->
<g id="edge2" class="edge">
<title>CommonUiModule&#45;&gt;HistoryModule</title>
<path fill="none" stroke="black" d="M621,-85.08C621,-106.12 621,-137.8 621,-137.8 621,-137.8 422.55,-137.8 422.55,-137.8"/>
<polygon fill="black" stroke="black" points="422.55,-134.3 412.55,-137.8 422.55,-141.3 422.55,-134.3"/>
</g>
<!-- CoreModule -->
<g id="node4" class="node">
<title>CoreModule</title>
<polygon fill="#8dd3c7" stroke="black" points="540.26,-84.8 537.26,-88.8 516.26,-88.8 513.26,-84.8 453.74,-84.8 453.74,-48.8 540.26,-48.8 540.26,-84.8"/>
<text text-anchor="middle" x="497" y="-62.6" font-family="Times,serif" font-size="14.00">CoreModule</text>
</g>
<!-- CoreModule&#45;&gt;HistoryModule -->
<g id="edge3" class="edge">
<title>CoreModule&#45;&gt;HistoryModule</title>
<path fill="none" stroke="black" d="M497,-84.82C497,-102.17 497,-125.8 497,-125.8 497,-125.8 422.65,-125.8 422.65,-125.8"/>
<polygon fill="black" stroke="black" points="422.65,-122.3 412.65,-125.8 422.65,-129.3 422.65,-122.3"/>
</g>
<!-- HistoryRoutingModule -->
<g id="node5" class="node">
<title>HistoryRoutingModule</title>
<polygon fill="#8dd3c7" stroke="black" points="435.16,-84.8 432.16,-88.8 411.16,-88.8 408.16,-84.8 288.84,-84.8 288.84,-48.8 435.16,-48.8 435.16,-84.8"/>
<text text-anchor="middle" x="362" y="-62.6" font-family="Times,serif" font-size="14.00">HistoryRoutingModule</text>
</g>
<!-- HistoryRoutingModule&#45;&gt;HistoryModule -->
<g id="edge4" class="edge">
<title>HistoryRoutingModule&#45;&gt;HistoryModule</title>
<path fill="none" stroke="black" d="M362,-84.91C362,-84.91 362,-103.79 362,-103.79"/>
<polygon fill="black" stroke="black" points="358.5,-103.79 362,-113.79 365.5,-103.79 358.5,-103.79"/>
</g>
<!-- SharedModule -->
<g id="node6" class="node">
<title>SharedModule</title>
<polygon fill="#8dd3c7" stroke="black" points="270.42,-84.8 267.42,-88.8 246.42,-88.8 243.42,-84.8 171.58,-84.8 171.58,-48.8 270.42,-48.8 270.42,-84.8"/>
<text text-anchor="middle" x="221" y="-62.6" font-family="Times,serif" font-size="14.00">SharedModule</text>
</g>
<!-- SharedModule&#45;&gt;HistoryModule -->
<g id="edge5" class="edge">
<title>SharedModule&#45;&gt;HistoryModule</title>
<path fill="none" stroke="black" d="M221,-84.82C221,-102.17 221,-125.8 221,-125.8 221,-125.8 301.1,-125.8 301.1,-125.8"/>
<polygon fill="black" stroke="black" points="301.1,-129.3 311.1,-125.8 301.1,-122.3 301.1,-129.3"/>
</g>
</g>
</svg>
