<?xml version="1.0" encoding="UTF-8" standalone="no"?>
<!DOCTYPE svg PUBLIC "-//W3C//DTD SVG 1.1//EN"
 "http://www.w3.org/Graphics/SVG/1.1/DTD/svg11.dtd">
<!-- Generated by graphviz version 2.40.1 (20161225.0304)
 -->
<!-- Title: dependencies Pages: 1 -->
<svg width="716pt" height="211pt"
 viewBox="0.00 0.00 716.00 211.00" xmlns="http://www.w3.org/2000/svg" xmlns:xlink="http://www.w3.org/1999/xlink">
<g id="graph0" class="graph" transform="scale(1 1) rotate(0) translate(4 207)">
<title>dependencies</title>
<polygon fill="#ffffff" stroke="transparent" points="-4,4 -4,-207 712,-207 712,4 -4,4"/>
<text text-anchor="start" x="333.0091" y="-42.4" font-family="sans-serif" font-weight="bold" font-size="14.00" fill="#000000">Legend</text>
<polygon fill="#ffffb3" stroke="transparent" points="120,-10 120,-30 140,-30 140,-10 120,-10"/>
<text text-anchor="start" x="143.629" y="-15.4" font-family="sans-serif" font-size="14.00" fill="#000000"> &#160;Declarations</text>
<polygon fill="#8dd3c7" stroke="transparent" points="233,-10 233,-30 253,-30 253,-10 233,-10"/>
<text text-anchor="start" x="256.7251" y="-15.4" font-family="sans-serif" font-size="14.00" fill="#000000"> &#160;Module</text>
<polygon fill="#80b1d3" stroke="transparent" points="319,-10 319,-30 339,-30 339,-10 319,-10"/>
<text text-anchor="start" x="342.7812" y="-15.4" font-family="sans-serif" font-size="14.00" fill="#000000"> &#160;Bootstrap</text>
<polygon fill="#fdb462" stroke="transparent" points="416,-10 416,-30 436,-30 436,-10 416,-10"/>
<text text-anchor="start" x="439.6732" y="-15.4" font-family="sans-serif" font-size="14.00" fill="#000000"> &#160;Providers</text>
<polygon fill="#fb8072" stroke="transparent" points="512,-10 512,-30 532,-30 532,-10 512,-10"/>
<text text-anchor="start" x="535.7258" y="-15.4" font-family="sans-serif" font-size="14.00" fill="#000000"> &#160;Exports</text>
<g id="clust1" class="cluster">
<title>cluster_HistoryModule</title>
<polygon fill="none" stroke="#000000" stroke-dasharray="1,5" points="8,-70 8,-195 700,-195 700,-70 8,-70"/>
</g>
<g id="clust2" class="cluster">
<title>cluster_HistoryModule_declarations</title>
<polygon fill="none" stroke="#000000" points="552,-78 552,-130 692,-130 692,-78 552,-78"/>
</g>
<g id="clust4" class="cluster">
<title>cluster_HistoryModule_imports</title>
<polygon fill="none" stroke="#000000" points="16,-78 16,-130 544,-130 544,-78 16,-78"/>
</g>
<!-- HistoryComponent -->
<g id="node1" class="node">
<title>HistoryComponent</title>
<polygon fill="#ffffb3" stroke="#000000" points="683.8258,-122 560.1742,-122 560.1742,-86 683.8258,-86 683.8258,-122"/>
<text text-anchor="middle" x="622" y="-99.8" font-family="Times,serif" font-size="14.00" fill="#000000">HistoryComponent</text>
</g>
<!-- HistoryModule -->
<g id="node2" class="node">
<title>HistoryModule</title>
<polygon fill="#8dd3c7" stroke="#000000" points="399.5438,-187 396.5438,-191 375.5438,-191 372.5438,-187 298.4562,-187 298.4562,-151 399.5438,-151 399.5438,-187"/>
<text text-anchor="middle" x="349" y="-164.8" font-family="Times,serif" font-size="14.00" fill="#000000">HistoryModule</text>
</g>
<!-- HistoryComponent&#45;&gt;HistoryModule -->
<g id="edge1" class="edge">
<title>HistoryComponent&#45;&gt;HistoryModule</title>
<path fill="none" stroke="#000000" d="M622,-122.1061C622,-141.3391 622,-169 622,-169 622,-169 409.7094,-169 409.7094,-169"/>
<polygon fill="#000000" stroke="#000000" points="409.7094,-165.5001 399.7094,-169 409.7094,-172.5001 409.7094,-165.5001"/>
</g>
<!-- CommonUiModule -->
<g id="node3" class="node">
<title>CommonUiModule</title>
<polygon fill="#8dd3c7" stroke="#000000" points="535.6652,-122 532.6652,-126 511.6652,-126 508.6652,-122 410.3348,-122 410.3348,-86 535.6652,-86 535.6652,-122"/>
<text text-anchor="middle" x="473" y="-99.8" font-family="Times,serif" font-size="14.00" fill="#000000">CommonUiModule</text>
</g>
<!-- CommonUiModule&#45;&gt;HistoryModule -->
<g id="edge2" class="edge">
<title>CommonUiModule&#45;&gt;HistoryModule</title>
<path fill="none" stroke="#000000" d="M410.1851,-104C401.8276,-104 396.0761,-104 396.0761,-104 396.0761,-104 396.0761,-140.8939 396.0761,-140.8939"/>
<polygon fill="#000000" stroke="#000000" points="392.5762,-140.8938 396.0761,-150.8939 399.5762,-140.8939 392.5762,-140.8938"/>
</g>
<!-- CoreModule -->
<g id="node4" class="node">
<title>CoreModule</title>
<polygon fill="#8dd3c7" stroke="#000000" points="392.2619,-122 389.2619,-126 368.2619,-126 365.2619,-122 305.7381,-122 305.7381,-86 392.2619,-86 392.2619,-122"/>
<text text-anchor="middle" x="349" y="-99.8" font-family="Times,serif" font-size="14.00" fill="#000000">CoreModule</text>
</g>
<!-- CoreModule&#45;&gt;HistoryModule -->
<g id="edge3" class="edge">
<title>CoreModule&#45;&gt;HistoryModule</title>
<path fill="none" stroke="#000000" d="M349,-122.1061C349,-122.1061 349,-140.991 349,-140.991"/>
<polygon fill="#000000" stroke="#000000" points="345.5001,-140.9909 349,-150.991 352.5001,-140.991 345.5001,-140.9909"/>
</g>
<!-- HistoryRoutingModule -->
<g id="node5" class="node">
<title>HistoryRoutingModule</title>
<polygon fill="#8dd3c7" stroke="#000000" points="287.161,-122 284.161,-126 263.161,-126 260.161,-122 140.839,-122 140.839,-86 287.161,-86 287.161,-122"/>
<text text-anchor="middle" x="214" y="-99.8" font-family="Times,serif" font-size="14.00" fill="#000000">HistoryRoutingModule</text>
</g>
<!-- HistoryRoutingModule&#45;&gt;HistoryModule -->
<g id="edge4" class="edge">
<title>HistoryRoutingModule&#45;&gt;HistoryModule</title>
<path fill="none" stroke="#000000" d="M287.4051,-104C296.0798,-104 301.9239,-104 301.9239,-104 301.9239,-104 301.9239,-140.8939 301.9239,-140.8939"/>
<polygon fill="#000000" stroke="#000000" points="298.424,-140.8938 301.9239,-150.8939 305.424,-140.8939 298.424,-140.8938"/>
</g>
<!-- SharedModule -->
<g id="node6" class="node">
<title>SharedModule</title>
<polygon fill="#8dd3c7" stroke="#000000" points="122.4231,-122 119.4231,-126 98.4231,-126 95.4231,-122 23.5769,-122 23.5769,-86 122.4231,-86 122.4231,-122"/>
<text text-anchor="middle" x="73" y="-99.8" font-family="Times,serif" font-size="14.00" fill="#000000">SharedModule</text>
</g>
<!-- SharedModule&#45;&gt;HistoryModule -->
<g id="edge5" class="edge">
<title>SharedModule&#45;&gt;HistoryModule</title>
<path fill="none" stroke="#000000" d="M73,-122.1061C73,-141.3391 73,-169 73,-169 73,-169 288.3773,-169 288.3773,-169"/>
<polygon fill="#000000" stroke="#000000" points="288.3774,-172.5001 298.3773,-169 288.3773,-165.5001 288.3774,-172.5001"/>
</g>
</g>
</svg>
