<?xml version="1.0" encoding="UTF-8" standalone="no"?>
<!DOCTYPE svg PUBLIC "-//W3C//DTD SVG 1.1//EN"
 "http://www.w3.org/Graphics/SVG/1.1/DTD/svg11.dtd">
<!-- Generated by graphviz version 2.47.3 (20210619.1520)
 -->
<!-- Title: dependencies Pages: 1 -->
<svg width="358pt" height="247pt"
 viewBox="0.00 0.00 358.00 246.80" xmlns="http://www.w3.org/2000/svg" xmlns:xlink="http://www.w3.org/1999/xlink">
<g id="graph0" class="graph" transform="scale(1 1) rotate(0) translate(4 242.8)">
<title>dependencies</title>
<polygon fill="white" stroke="transparent" points="-4,4 -4,-242.8 354,-242.8 354,4 -4,4"/>
<text text-anchor="middle" x="175" y="-8.2" font-family="sans-serif" font-size="14.00">dependencies</text>
<g id="clust1" class="cluster">
<title>cluster_CloudproviderModule</title>
<polygon fill="none" stroke="black" stroke-dasharray="1,5" points="8,-32.8 8,-230.8 342,-230.8 342,-32.8 8,-32.8"/>
</g>
<g id="clust4" class="cluster">
<title>cluster_CloudproviderModule_exports</title>
<polygon fill="none" stroke="black" points="83,-170.8 83,-222.8 243,-222.8 243,-170.8 83,-170.8"/>
</g>
<g id="clust6" class="cluster">
<title>cluster_CloudproviderModule_providers</title>
<polygon fill="none" stroke="black" points="126,-40.8 126,-92.8 334,-92.8 334,-40.8 126,-40.8"/>
</g>
<g id="clust3" class="cluster">
<title>cluster_CloudproviderModule_imports</title>
<polygon fill="none" stroke="black" points="16,-40.8 16,-92.8 118,-92.8 118,-40.8 16,-40.8"/>
</g>
<!-- CoreModule -->
<g id="node1" class="node">
<title>CoreModule</title>
<polygon fill="#8dd3c7" stroke="black" points="110.26,-84.8 107.26,-88.8 86.26,-88.8 83.26,-84.8 23.74,-84.8 23.74,-48.8 110.26,-48.8 110.26,-84.8"/>
<text text-anchor="middle" x="67" y="-62.6" font-family="Times,serif" font-size="14.00">CoreModule</text>
</g>
<!-- CloudproviderModule -->
<g id="node2" class="node">
<title>CloudproviderModule</title>
<polygon fill="#8dd3c7" stroke="black" points="233.7,-149.8 230.7,-153.8 209.7,-153.8 206.7,-149.8 92.3,-149.8 92.3,-113.8 233.7,-113.8 233.7,-149.8"/>
<text text-anchor="middle" x="163" y="-127.6" font-family="Times,serif" font-size="14.00">CloudproviderModule</text>
</g>
<!-- CoreModule&#45;&gt;CloudproviderModule -->
<g id="edge1" class="edge">
<title>CoreModule&#45;&gt;CloudproviderModule</title>
<path fill="none" stroke="black" d="M101.39,-84.91C101.39,-84.91 101.39,-103.79 101.39,-103.79"/>
<polygon fill="black" stroke="black" points="97.89,-103.79 101.39,-113.79 104.89,-103.79 97.89,-103.79"/>
</g>
<!-- CloudproviderService  -->
<g id="node3" class="node">
<title>CloudproviderService </title>
<polygon fill="#fb8072" stroke="black" points="234.63,-214.8 91.37,-214.8 91.37,-178.8 234.63,-178.8 234.63,-214.8"/>
<text text-anchor="middle" x="163" y="-192.6" font-family="Times,serif" font-size="14.00">CloudproviderService </text>
</g>
<!-- CloudproviderModule&#45;&gt;CloudproviderService  -->
<g id="edge2" class="edge">
<title>CloudproviderModule&#45;&gt;CloudproviderService </title>
<path fill="none" stroke="black" stroke-dasharray="5,2" d="M163,-149.91C163,-149.91 163,-168.79 163,-168.79"/>
<polygon fill="black" stroke="black" points="159.5,-168.79 163,-178.79 166.5,-168.79 159.5,-168.79"/>
</g>
<!-- CloudproviderService -->
<g id="node4" class="node">
<title>CloudproviderService</title>
<ellipse fill="#fdb462" stroke="black" cx="230" cy="-66.8" rx="96.13" ry="18"/>
<text text-anchor="middle" x="230" y="-62.6" font-family="Times,serif" font-size="14.00">CloudproviderService</text>
</g>
<!-- CloudproviderService&#45;&gt;CloudproviderModule -->
<g id="edge3" class="edge">
<title>CloudproviderService&#45;&gt;CloudproviderModule</title>
<path fill="none" stroke="black" d="M183.64,-82.87C183.64,-82.87 183.64,-103.62 183.64,-103.62"/>
<polygon fill="black" stroke="black" points="180.14,-103.62 183.64,-113.62 187.14,-103.62 180.14,-103.62"/>
</g>
</g>
</svg>
