<?xml version="1.0" encoding="UTF-8" standalone="no"?>
<!DOCTYPE svg PUBLIC "-//W3C//DTD SVG 1.1//EN"
 "http://www.w3.org/Graphics/SVG/1.1/DTD/svg11.dtd">
<!-- Generated by graphviz version 2.40.1 (20161225.0304)
 -->
<!-- Title: dependencies Pages: 1 -->
<svg width="504pt" height="284pt"
 viewBox="0.00 0.00 504.00 284.00" xmlns="http://www.w3.org/2000/svg" xmlns:xlink="http://www.w3.org/1999/xlink">
<g id="graph0" class="graph" transform="scale(1 1) rotate(0) translate(4 280)">
<title>dependencies</title>
<polygon fill="#ffffff" stroke="transparent" points="-4,4 -4,-280 500,-280 500,4 -4,4"/>
<text text-anchor="start" x="227.0091" y="-42.4" font-family="sans-serif" font-weight="bold" font-size="14.00" fill="#000000">Legend</text>
<polygon fill="#ffffb3" stroke="transparent" points="14,-10 14,-30 34,-30 34,-10 14,-10"/>
<text text-anchor="start" x="37.629" y="-15.4" font-family="sans-serif" font-size="14.00" fill="#000000"> &#160;Declarations</text>
<polygon fill="#8dd3c7" stroke="transparent" points="127,-10 127,-30 147,-30 147,-10 127,-10"/>
<text text-anchor="start" x="150.7251" y="-15.4" font-family="sans-serif" font-size="14.00" fill="#000000"> &#160;Module</text>
<polygon fill="#80b1d3" stroke="transparent" points="213,-10 213,-30 233,-30 233,-10 213,-10"/>
<text text-anchor="start" x="236.7812" y="-15.4" font-family="sans-serif" font-size="14.00" fill="#000000"> &#160;Bootstrap</text>
<polygon fill="#fdb462" stroke="transparent" points="310,-10 310,-30 330,-30 330,-10 310,-10"/>
<text text-anchor="start" x="333.6732" y="-15.4" font-family="sans-serif" font-size="14.00" fill="#000000"> &#160;Providers</text>
<polygon fill="#fb8072" stroke="transparent" points="406,-10 406,-30 426,-30 426,-10 406,-10"/>
<text text-anchor="start" x="429.7258" y="-15.4" font-family="sans-serif" font-size="14.00" fill="#000000"> &#160;Exports</text>
<g id="clust1" class="cluster">
<title>cluster_CloudproviderModule</title>
<polygon fill="none" stroke="#000000" stroke-dasharray="1,5" points="81,-70 81,-268 415,-268 415,-70 81,-70"/>
</g>
<g id="clust3" class="cluster">
<title>cluster_CloudproviderModule_imports</title>
<polygon fill="none" stroke="#000000" points="305,-78 305,-130 407,-130 407,-78 305,-78"/>
</g>
<g id="clust4" class="cluster">
<title>cluster_CloudproviderModule_exports</title>
<polygon fill="none" stroke="#000000" points="180,-208 180,-260 340,-260 340,-208 180,-208"/>
</g>
<g id="clust6" class="cluster">
<title>cluster_CloudproviderModule_providers</title>
<polygon fill="none" stroke="#000000" points="89,-78 89,-130 297,-130 297,-78 89,-78"/>
</g>
<!-- CoreModule -->
<g id="node1" class="node">
<title>CoreModule</title>
<polygon fill="#8dd3c7" stroke="#000000" points="399.2619,-122 396.2619,-126 375.2619,-126 372.2619,-122 312.7381,-122 312.7381,-86 399.2619,-86 399.2619,-122"/>
<text text-anchor="middle" x="356" y="-99.8" font-family="Times,serif" font-size="14.00" fill="#000000">CoreModule</text>
</g>
<!-- CloudproviderModule -->
<g id="node2" class="node">
<title>CloudproviderModule</title>
<polygon fill="#8dd3c7" stroke="#000000" points="330.7035,-187 327.7035,-191 306.7035,-191 303.7035,-187 189.2965,-187 189.2965,-151 330.7035,-151 330.7035,-187"/>
<text text-anchor="middle" x="260" y="-164.8" font-family="Times,serif" font-size="14.00" fill="#000000">CloudproviderModule</text>
</g>
<!-- CoreModule&#45;&gt;CloudproviderModule -->
<g id="edge1" class="edge">
<title>CoreModule&#45;&gt;CloudproviderModule</title>
<path fill="none" stroke="#000000" d="M321.6105,-122.1061C321.6105,-122.1061 321.6105,-140.991 321.6105,-140.991"/>
<polygon fill="#000000" stroke="#000000" points="318.1105,-140.9909 321.6105,-150.991 325.1105,-140.991 318.1105,-140.9909"/>
</g>
<!-- CloudproviderService  -->
<g id="node3" class="node">
<title>CloudproviderService </title>
<polygon fill="#fb8072" stroke="#000000" points="331.6313,-252 188.3687,-252 188.3687,-216 331.6313,-216 331.6313,-252"/>
<text text-anchor="middle" x="260" y="-229.8" font-family="Times,serif" font-size="14.00" fill="#000000">CloudproviderService </text>
</g>
<!-- CloudproviderModule&#45;&gt;CloudproviderService  -->
<g id="edge2" class="edge">
<title>CloudproviderModule&#45;&gt;CloudproviderService </title>
<path fill="none" stroke="#000000" stroke-dasharray="5,2" d="M260,-187.1061C260,-187.1061 260,-205.991 260,-205.991"/>
<polygon fill="#000000" stroke="#000000" points="256.5001,-205.9909 260,-215.991 263.5001,-205.991 256.5001,-205.9909"/>
</g>
<!-- CloudproviderService -->
<g id="node4" class="node">
<title>CloudproviderService</title>
<ellipse fill="#fdb462" stroke="#000000" cx="193" cy="-104" rx="96.1305" ry="18"/>
<text text-anchor="middle" x="193" y="-99.8" font-family="Times,serif" font-size="14.00" fill="#000000">CloudproviderService</text>
</g>
<!-- CloudproviderService&#45;&gt;CloudproviderModule -->
<g id="edge3" class="edge">
<title>CloudproviderService&#45;&gt;CloudproviderModule</title>
<path fill="none" stroke="#000000" d="M239.3567,-120.0674C239.3567,-120.0674 239.3567,-140.8237 239.3567,-140.8237"/>
<polygon fill="#000000" stroke="#000000" points="235.8568,-140.8236 239.3567,-150.8237 242.8568,-140.8237 235.8568,-140.8236"/>
</g>
</g>
</svg>
