<?xml version="1.0" encoding="UTF-8" standalone="no"?>
<!DOCTYPE svg PUBLIC "-//W3C//DTD SVG 1.1//EN"
 "http://www.w3.org/Graphics/SVG/1.1/DTD/svg11.dtd">
<!-- Generated by graphviz version 2.40.1 (20161225.0304)
 -->
<!-- Title: dependencies Pages: 1 -->
<svg width="504pt" height="211pt"
 viewBox="0.00 0.00 504.00 211.00" xmlns="http://www.w3.org/2000/svg" xmlns:xlink="http://www.w3.org/1999/xlink">
<g id="graph0" class="graph" transform="scale(1 1) rotate(0) translate(4 207)">
<title>dependencies</title>
<polygon fill="#ffffff" stroke="transparent" points="-4,4 -4,-207 500,-207 500,4 -4,4"/>
<text text-anchor="start" x="227.0091" y="-42.4" font-family="sans-serif" font-weight="bold" font-size="14.00" fill="#000000">Legend</text>
<polygon fill="#ffffb3" stroke="transparent" points="14,-10 14,-30 34,-30 34,-10 14,-10"/>
<text text-anchor="start" x="37.629" y="-15.4" font-family="sans-serif" font-size="14.00" fill="#000000"> &#160;Declarations</text>
<polygon fill="#8dd3c7" stroke="transparent" points="127,-10 127,-30 147,-30 147,-10 127,-10"/>
<text text-anchor="start" x="150.7251" y="-15.4" font-family="sans-serif" font-size="14.00" fill="#000000"> &#160;Module</text>
<polygon fill="#80b1d3" stroke="transparent" points="213,-10 213,-30 233,-30 233,-10 213,-10"/>
<text text-anchor="start" x="236.7812" y="-15.4" font-family="sans-serif" font-size="14.00" fill="#000000"> &#160;Bootstrap</text>
<polygon fill="#fdb462" stroke="transparent" points="310,-10 310,-30 330,-30 330,-10 310,-10"/>
<text text-anchor="start" x="333.6732" y="-15.4" font-family="sans-serif" font-size="14.00" fill="#000000"> &#160;Providers</text>
<polygon fill="#fb8072" stroke="transparent" points="406,-10 406,-30 426,-30 426,-10 406,-10"/>
<text text-anchor="start" x="429.7258" y="-15.4" font-family="sans-serif" font-size="14.00" fill="#000000"> &#160;Exports</text>
<g id="clust1" class="cluster">
<title>cluster_IamModule</title>
<polygon fill="none" stroke="#000000" stroke-dasharray="1,5" points="122,-70 122,-195 374,-195 374,-70 122,-70"/>
</g>
<g id="clust3" class="cluster">
<title>cluster_IamModule_imports</title>
<polygon fill="none" stroke="#000000" points="264,-78 264,-130 366,-130 366,-78 264,-78"/>
</g>
<g id="clust6" class="cluster">
<title>cluster_IamModule_providers</title>
<polygon fill="none" stroke="#000000" points="130,-78 130,-130 256,-130 256,-78 130,-78"/>
</g>
<!-- CoreModule -->
<g id="node1" class="node">
<title>CoreModule</title>
<polygon fill="#8dd3c7" stroke="#000000" points="358.2619,-122 355.2619,-126 334.2619,-126 331.2619,-122 271.7381,-122 271.7381,-86 358.2619,-86 358.2619,-122"/>
<text text-anchor="middle" x="315" y="-99.8" font-family="Times,serif" font-size="14.00" fill="#000000">CoreModule</text>
</g>
<!-- IamModule -->
<g id="node2" class="node">
<title>IamModule</title>
<polygon fill="#8dd3c7" stroke="#000000" points="294.8162,-187 291.8162,-191 270.8162,-191 267.8162,-187 213.1838,-187 213.1838,-151 294.8162,-151 294.8162,-187"/>
<text text-anchor="middle" x="254" y="-164.8" font-family="Times,serif" font-size="14.00" fill="#000000">IamModule</text>
</g>
<!-- CoreModule&#45;&gt;IamModule -->
<g id="edge1" class="edge">
<title>CoreModule&#45;&gt;IamModule</title>
<path fill="none" stroke="#000000" d="M283.1385,-122.1061C283.1385,-122.1061 283.1385,-140.991 283.1385,-140.991"/>
<polygon fill="#000000" stroke="#000000" points="279.6386,-140.9909 283.1385,-150.991 286.6386,-140.991 279.6386,-140.9909"/>
</g>
<!-- IamService -->
<g id="node3" class="node">
<title>IamService</title>
<ellipse fill="#fdb462" stroke="#000000" cx="193" cy="-104" rx="55.0111" ry="18"/>
<text text-anchor="middle" x="193" y="-99.8" font-family="Times,serif" font-size="14.00" fill="#000000">IamService</text>
</g>
<!-- IamService&#45;&gt;IamModule -->
<g id="edge2" class="edge">
<title>IamService&#45;&gt;IamModule</title>
<path fill="none" stroke="#000000" d="M230.6739,-117.1537C230.6739,-117.1537 230.6739,-140.6938 230.6739,-140.6938"/>
<polygon fill="#000000" stroke="#000000" points="227.174,-140.6938 230.6739,-150.6938 234.174,-140.6939 227.174,-140.6938"/>
</g>
</g>
</svg>
