<?xml version="1.0" encoding="UTF-8" standalone="no"?>
<!DOCTYPE svg PUBLIC "-//W3C//DTD SVG 1.1//EN"
 "http://www.w3.org/Graphics/SVG/1.1/DTD/svg11.dtd">
<!-- Generated by graphviz version 2.47.3 (20210619.1520)
 -->
<!-- Title: dependencies Pages: 1 -->
<svg width="276pt" height="174pt"
 viewBox="0.00 0.00 276.00 173.80" xmlns="http://www.w3.org/2000/svg" xmlns:xlink="http://www.w3.org/1999/xlink">
<g id="graph0" class="graph" transform="scale(1 1) rotate(0) translate(4 169.8)">
<title>dependencies</title>
<polygon fill="white" stroke="transparent" points="-4,4 -4,-169.8 272,-169.8 272,4 -4,4"/>
<text text-anchor="middle" x="134" y="-8.2" font-family="sans-serif" font-size="14.00">dependencies</text>
<g id="clust1" class="cluster">
<title>cluster_IamModule</title>
<polygon fill="none" stroke="black" stroke-dasharray="1,5" points="8,-32.8 8,-157.8 260,-157.8 260,-32.8 8,-32.8"/>
</g>
<g id="clust6" class="cluster">
<title>cluster_IamModule_providers</title>
<polygon fill="none" stroke="black" points="126,-40.8 126,-92.8 252,-92.8 252,-40.8 126,-40.8"/>
</g>
<g id="clust3" class="cluster">
<title>cluster_IamModule_imports</title>
<polygon fill="none" stroke="black" points="16,-40.8 16,-92.8 118,-92.8 118,-40.8 16,-40.8"/>
</g>
<!-- CoreModule -->
<g id="node1" class="node">
<title>CoreModule</title>
<polygon fill="#8dd3c7" stroke="black" points="110.26,-84.8 107.26,-88.8 86.26,-88.8 83.26,-84.8 23.74,-84.8 23.74,-48.8 110.26,-48.8 110.26,-84.8"/>
<text text-anchor="middle" x="67" y="-62.6" font-family="Times,serif" font-size="14.00">CoreModule</text>
</g>
<!-- IamModule -->
<g id="node2" class="node">
<title>IamModule</title>
<polygon fill="#8dd3c7" stroke="black" points="168.82,-149.8 165.82,-153.8 144.82,-153.8 141.82,-149.8 87.18,-149.8 87.18,-113.8 168.82,-113.8 168.82,-149.8"/>
<text text-anchor="middle" x="128" y="-127.6" font-family="Times,serif" font-size="14.00">IamModule</text>
</g>
<!-- CoreModule&#45;&gt;IamModule -->
<g id="edge1" class="edge">
<title>CoreModule&#45;&gt;IamModule</title>
<path fill="none" stroke="black" d="M98.86,-84.91C98.86,-84.91 98.86,-103.79 98.86,-103.79"/>
<polygon fill="black" stroke="black" points="95.36,-103.79 98.86,-113.79 102.36,-103.79 95.36,-103.79"/>
</g>
<!-- IamService -->
<g id="node3" class="node">
<title>IamService</title>
<ellipse fill="#fdb462" stroke="black" cx="189" cy="-66.8" rx="55.01" ry="18"/>
<text text-anchor="middle" x="189" y="-62.6" font-family="Times,serif" font-size="14.00">IamService</text>
</g>
<!-- IamService&#45;&gt;IamModule -->
<g id="edge2" class="edge">
<title>IamService&#45;&gt;IamModule</title>
<path fill="none" stroke="black" d="M151.33,-79.95C151.33,-79.95 151.33,-103.49 151.33,-103.49"/>
<polygon fill="black" stroke="black" points="147.83,-103.49 151.33,-113.49 154.83,-103.49 147.83,-103.49"/>
</g>
</g>
</svg>
