<?xml version="1.0" encoding="UTF-8" standalone="no"?>
<!DOCTYPE svg PUBLIC "-//W3C//DTD SVG 1.1//EN"
 "http://www.w3.org/Graphics/SVG/1.1/DTD/svg11.dtd">
<!-- Generated by graphviz version 2.47.3 (20210619.1520)
 -->
<!-- Title: dependencies Pages: 1 -->
<svg width="566pt" height="174pt"
 viewBox="0.00 0.00 566.00 173.80" xmlns="http://www.w3.org/2000/svg" xmlns:xlink="http://www.w3.org/1999/xlink">
<g id="graph0" class="graph" transform="scale(1 1) rotate(0) translate(4 169.8)">
<title>dependencies</title>
<polygon fill="white" stroke="transparent" points="-4,4 -4,-169.8 562,-169.8 562,4 -4,4"/>
<text text-anchor="middle" x="279" y="-8.2" font-family="sans-serif" font-size="14.00">dependencies</text>
<g id="clust1" class="cluster">
<title>cluster_ClusterModule</title>
<polygon fill="none" stroke="black" stroke-dasharray="1,5" points="8,-32.8 8,-157.8 550,-157.8 550,-32.8 8,-32.8"/>
</g>
<g id="clust3" class="cluster">
<title>cluster_ClusterModule_imports</title>
<polygon fill="none" stroke="black" points="16,-40.8 16,-92.8 542,-92.8 542,-40.8 16,-40.8"/>
</g>
<!-- ClusterRoutingModule -->
<g id="node1" class="node">
<title>ClusterRoutingModule</title>
<polygon fill="#8dd3c7" stroke="black" points="533.61,-84.8 530.61,-88.8 509.61,-88.8 506.61,-84.8 388.39,-84.8 388.39,-48.8 533.61,-48.8 533.61,-84.8"/>
<text text-anchor="middle" x="461" y="-62.6" font-family="Times,serif" font-size="14.00">ClusterRoutingModule</text>
</g>
<!-- ClusterModule -->
<g id="node5" class="node">
<title>ClusterModule</title>
<polygon fill="#8dd3c7" stroke="black" points="295.99,-149.8 292.99,-153.8 271.99,-153.8 268.99,-149.8 196.01,-149.8 196.01,-113.8 295.99,-113.8 295.99,-149.8"/>
<text text-anchor="middle" x="246" y="-127.6" font-family="Times,serif" font-size="14.00">ClusterModule</text>
</g>
<!-- ClusterRoutingModule&#45;&gt;ClusterModule -->
<g id="edge1" class="edge">
<title>ClusterRoutingModule&#45;&gt;ClusterModule</title>
<path fill="none" stroke="black" d="M461,-84.91C461,-104.14 461,-131.8 461,-131.8 461,-131.8 306.14,-131.8 306.14,-131.8"/>
<polygon fill="black" stroke="black" points="306.14,-128.3 296.14,-131.8 306.14,-135.3 306.14,-128.3"/>
</g>
<!-- CommonUiModule -->
<g id="node2" class="node">
<title>CommonUiModule</title>
<polygon fill="#8dd3c7" stroke="black" points="370.67,-84.8 367.67,-88.8 346.67,-88.8 343.67,-84.8 245.33,-84.8 245.33,-48.8 370.67,-48.8 370.67,-84.8"/>
<text text-anchor="middle" x="308" y="-62.6" font-family="Times,serif" font-size="14.00">CommonUiModule</text>
</g>
<!-- CommonUiModule&#45;&gt;ClusterModule -->
<g id="edge2" class="edge">
<title>CommonUiModule&#45;&gt;ClusterModule</title>
<path fill="none" stroke="black" d="M270.58,-84.91C270.58,-84.91 270.58,-103.79 270.58,-103.79"/>
<polygon fill="black" stroke="black" points="267.08,-103.79 270.58,-113.79 274.08,-103.79 267.08,-103.79"/>
</g>
<!-- CoreModule -->
<g id="node3" class="node">
<title>CoreModule</title>
<polygon fill="#8dd3c7" stroke="black" points="227.26,-84.8 224.26,-88.8 203.26,-88.8 200.26,-84.8 140.74,-84.8 140.74,-48.8 227.26,-48.8 227.26,-84.8"/>
<text text-anchor="middle" x="184" y="-62.6" font-family="Times,serif" font-size="14.00">CoreModule</text>
</g>
<!-- CoreModule&#45;&gt;ClusterModule -->
<g id="edge3" class="edge">
<title>CoreModule&#45;&gt;ClusterModule</title>
<path fill="none" stroke="black" d="M211.69,-84.91C211.69,-84.91 211.69,-103.79 211.69,-103.79"/>
<polygon fill="black" stroke="black" points="208.19,-103.79 211.69,-113.79 215.19,-103.79 208.19,-103.79"/>
</g>
<!-- SharedModule -->
<g id="node4" class="node">
<title>SharedModule</title>
<polygon fill="#8dd3c7" stroke="black" points="122.42,-84.8 119.42,-88.8 98.42,-88.8 95.42,-84.8 23.58,-84.8 23.58,-48.8 122.42,-48.8 122.42,-84.8"/>
<text text-anchor="middle" x="73" y="-62.6" font-family="Times,serif" font-size="14.00">SharedModule</text>
</g>
<!-- SharedModule&#45;&gt;ClusterModule -->
<g id="edge4" class="edge">
<title>SharedModule&#45;&gt;ClusterModule</title>
<path fill="none" stroke="black" d="M73,-84.91C73,-104.14 73,-131.8 73,-131.8 73,-131.8 185.96,-131.8 185.96,-131.8"/>
<polygon fill="black" stroke="black" points="185.96,-135.3 195.96,-131.8 185.96,-128.3 185.96,-135.3"/>
</g>
</g>
</svg>
