<?xml version="1.0" encoding="UTF-8" standalone="no"?>
<!DOCTYPE svg PUBLIC "-//W3C//DTD SVG 1.1//EN"
 "http://www.w3.org/Graphics/SVG/1.1/DTD/svg11.dtd">
<!-- Generated by graphviz version 2.47.3 (20210619.1520)
 -->
<!-- Title: dependencies Pages: 1 -->
<svg width="515pt" height="174pt"
 viewBox="0.00 0.00 515.00 173.80" xmlns="http://www.w3.org/2000/svg" xmlns:xlink="http://www.w3.org/1999/xlink">
<g id="graph0" class="graph" transform="scale(1 1) rotate(0) translate(4 169.8)">
<title>dependencies</title>
<polygon fill="white" stroke="transparent" points="-4,4 -4,-169.8 511,-169.8 511,4 -4,4"/>
<text text-anchor="middle" x="253.5" y="-8.2" font-family="sans-serif" font-size="14.00">dependencies</text>
<g id="clust1" class="cluster">
<title>cluster_ComputeModule</title>
<polygon fill="none" stroke="black" stroke-dasharray="1,5" points="8,-32.8 8,-157.8 499,-157.8 499,-32.8 8,-32.8"/>
</g>
<g id="clust3" class="cluster">
<title>cluster_ComputeModule_imports</title>
<polygon fill="none" stroke="black" points="16,-40.8 16,-92.8 491,-92.8 491,-40.8 16,-40.8"/>
</g>
<!-- DisksModule -->
<g id="node1" class="node">
<title>DisksModule</title>
<polygon fill="#8dd3c7" stroke="black" points="482.94,-84.8 479.94,-88.8 458.94,-88.8 455.94,-84.8 391.06,-84.8 391.06,-48.8 482.94,-48.8 482.94,-84.8"/>
<text text-anchor="middle" x="437" y="-62.6" font-family="Times,serif" font-size="14.00">DisksModule</text>
</g>
<!-- ComputeModule -->
<g id="node5" class="node">
<title>ComputeModule</title>
<polygon fill="#8dd3c7" stroke="black" points="318.38,-149.8 315.38,-153.8 294.38,-153.8 291.38,-149.8 207.62,-149.8 207.62,-113.8 318.38,-113.8 318.38,-149.8"/>
<text text-anchor="middle" x="263" y="-127.6" font-family="Times,serif" font-size="14.00">ComputeModule</text>
</g>
<!-- DisksModule&#45;&gt;ComputeModule -->
<g id="edge1" class="edge">
<title>DisksModule&#45;&gt;ComputeModule</title>
<path fill="none" stroke="black" d="M437,-84.91C437,-104.14 437,-131.8 437,-131.8 437,-131.8 328.53,-131.8 328.53,-131.8"/>
<polygon fill="black" stroke="black" points="328.53,-128.3 318.53,-131.8 328.53,-135.3 328.53,-128.3"/>
</g>
<!-- FlavorsModule -->
<g id="node2" class="node">
<title>FlavorsModule</title>
<polygon fill="#8dd3c7" stroke="black" points="373.54,-84.8 370.54,-88.8 349.54,-88.8 346.54,-84.8 272.46,-84.8 272.46,-48.8 373.54,-48.8 373.54,-84.8"/>
<text text-anchor="middle" x="323" y="-62.6" font-family="Times,serif" font-size="14.00">FlavorsModule</text>
</g>
<!-- FlavorsModule&#45;&gt;ComputeModule -->
<g id="edge2" class="edge">
<title>FlavorsModule&#45;&gt;ComputeModule</title>
<path fill="none" stroke="black" d="M295.33,-84.91C295.33,-84.91 295.33,-103.79 295.33,-103.79"/>
<polygon fill="black" stroke="black" points="291.83,-103.79 295.33,-113.79 298.83,-103.79 291.83,-103.79"/>
</g>
<!-- ImagesModule -->
<g id="node3" class="node">
<title>ImagesModule</title>
<polygon fill="#8dd3c7" stroke="black" points="253.97,-84.8 250.97,-88.8 229.97,-88.8 226.97,-84.8 154.03,-84.8 154.03,-48.8 253.97,-48.8 253.97,-84.8"/>
<text text-anchor="middle" x="204" y="-62.6" font-family="Times,serif" font-size="14.00">ImagesModule</text>
</g>
<!-- ImagesModule&#45;&gt;ComputeModule -->
<g id="edge3" class="edge">
<title>ImagesModule&#45;&gt;ComputeModule</title>
<path fill="none" stroke="black" d="M230.77,-84.91C230.77,-84.91 230.77,-103.79 230.77,-103.79"/>
<polygon fill="black" stroke="black" points="227.27,-103.79 230.77,-113.79 234.27,-103.79 227.27,-103.79"/>
</g>
<!-- InstancesModule -->
<g id="node4" class="node">
<title>InstancesModule</title>
<polygon fill="#8dd3c7" stroke="black" points="135.63,-84.8 132.63,-88.8 111.63,-88.8 108.63,-84.8 24.37,-84.8 24.37,-48.8 135.63,-48.8 135.63,-84.8"/>
<text text-anchor="middle" x="80" y="-62.6" font-family="Times,serif" font-size="14.00">InstancesModule</text>
</g>
<!-- InstancesModule&#45;&gt;ComputeModule -->
<g id="edge4" class="edge">
<title>InstancesModule&#45;&gt;ComputeModule</title>
<path fill="none" stroke="black" d="M80,-84.91C80,-104.14 80,-131.8 80,-131.8 80,-131.8 197.6,-131.8 197.6,-131.8"/>
<polygon fill="black" stroke="black" points="197.6,-135.3 207.6,-131.8 197.6,-128.3 197.6,-135.3"/>
</g>
</g>
</svg>
