<?xml version="1.0" encoding="UTF-8" standalone="no"?>
<!DOCTYPE svg PUBLIC "-//W3C//DTD SVG 1.1//EN"
 "http://www.w3.org/Graphics/SVG/1.1/DTD/svg11.dtd">
<!-- Generated by graphviz version 2.40.1 (20161225.0304)
 -->
<!-- Title: dependencies Pages: 1 -->
<svg width="515pt" height="211pt"
 viewBox="0.00 0.00 515.00 211.00" xmlns="http://www.w3.org/2000/svg" xmlns:xlink="http://www.w3.org/1999/xlink">
<g id="graph0" class="graph" transform="scale(1 1) rotate(0) translate(4 207)">
<title>dependencies</title>
<polygon fill="#ffffff" stroke="transparent" points="-4,4 -4,-207 511,-207 511,4 -4,4"/>
<text text-anchor="start" x="232.5091" y="-42.4" font-family="sans-serif" font-weight="bold" font-size="14.00" fill="#000000">Legend</text>
<polygon fill="#ffffb3" stroke="transparent" points="19.5,-10 19.5,-30 39.5,-30 39.5,-10 19.5,-10"/>
<text text-anchor="start" x="43.129" y="-15.4" font-family="sans-serif" font-size="14.00" fill="#000000"> &#160;Declarations</text>
<polygon fill="#8dd3c7" stroke="transparent" points="132.5,-10 132.5,-30 152.5,-30 152.5,-10 132.5,-10"/>
<text text-anchor="start" x="156.2251" y="-15.4" font-family="sans-serif" font-size="14.00" fill="#000000"> &#160;Module</text>
<polygon fill="#80b1d3" stroke="transparent" points="218.5,-10 218.5,-30 238.5,-30 238.5,-10 218.5,-10"/>
<text text-anchor="start" x="242.2812" y="-15.4" font-family="sans-serif" font-size="14.00" fill="#000000"> &#160;Bootstrap</text>
<polygon fill="#fdb462" stroke="transparent" points="315.5,-10 315.5,-30 335.5,-30 335.5,-10 315.5,-10"/>
<text text-anchor="start" x="339.1732" y="-15.4" font-family="sans-serif" font-size="14.00" fill="#000000"> &#160;Providers</text>
<polygon fill="#fb8072" stroke="transparent" points="411.5,-10 411.5,-30 431.5,-30 431.5,-10 411.5,-10"/>
<text text-anchor="start" x="435.2258" y="-15.4" font-family="sans-serif" font-size="14.00" fill="#000000"> &#160;Exports</text>
<g id="clust1" class="cluster">
<title>cluster_ComputeModule</title>
<polygon fill="none" stroke="#000000" stroke-dasharray="1,5" points="8,-70 8,-195 499,-195 499,-70 8,-70"/>
</g>
<g id="clust3" class="cluster">
<title>cluster_ComputeModule_imports</title>
<polygon fill="none" stroke="#000000" points="16,-78 16,-130 491,-130 491,-78 16,-78"/>
</g>
<!-- DisksModule -->
<g id="node1" class="node">
<title>DisksModule</title>
<polygon fill="#8dd3c7" stroke="#000000" points="482.9372,-122 479.9372,-126 458.9372,-126 455.9372,-122 391.0628,-122 391.0628,-86 482.9372,-86 482.9372,-122"/>
<text text-anchor="middle" x="437" y="-99.8" font-family="Times,serif" font-size="14.00" fill="#000000">DisksModule</text>
</g>
<!-- ComputeModule -->
<g id="node5" class="node">
<title>ComputeModule</title>
<polygon fill="#8dd3c7" stroke="#000000" points="318.3823,-187 315.3823,-191 294.3823,-191 291.3823,-187 207.6177,-187 207.6177,-151 318.3823,-151 318.3823,-187"/>
<text text-anchor="middle" x="263" y="-164.8" font-family="Times,serif" font-size="14.00" fill="#000000">ComputeModule</text>
</g>
<!-- DisksModule&#45;&gt;ComputeModule -->
<g id="edge1" class="edge">
<title>DisksModule&#45;&gt;ComputeModule</title>
<path fill="none" stroke="#000000" d="M437,-122.1061C437,-141.3391 437,-169 437,-169 437,-169 328.5331,-169 328.5331,-169"/>
<polygon fill="#000000" stroke="#000000" points="328.5331,-165.5001 318.5331,-169 328.5331,-172.5001 328.5331,-165.5001"/>
</g>
<!-- FlavorsModule -->
<g id="node2" class="node">
<title>FlavorsModule</title>
<polygon fill="#8dd3c7" stroke="#000000" points="373.5438,-122 370.5438,-126 349.5438,-126 346.5438,-122 272.4562,-122 272.4562,-86 373.5438,-86 373.5438,-122"/>
<text text-anchor="middle" x="323" y="-99.8" font-family="Times,serif" font-size="14.00" fill="#000000">FlavorsModule</text>
</g>
<!-- FlavorsModule&#45;&gt;ComputeModule -->
<g id="edge2" class="edge">
<title>FlavorsModule&#45;&gt;ComputeModule</title>
<path fill="none" stroke="#000000" d="M295.3349,-122.1061C295.3349,-122.1061 295.3349,-140.991 295.3349,-140.991"/>
<polygon fill="#000000" stroke="#000000" points="291.8349,-140.9909 295.3349,-150.991 298.8349,-140.991 291.8349,-140.9909"/>
</g>
<!-- ImagesModule -->
<g id="node3" class="node">
<title>ImagesModule</title>
<polygon fill="#8dd3c7" stroke="#000000" points="253.9748,-122 250.9748,-126 229.9748,-126 226.9748,-122 154.0252,-122 154.0252,-86 253.9748,-86 253.9748,-122"/>
<text text-anchor="middle" x="204" y="-99.8" font-family="Times,serif" font-size="14.00" fill="#000000">ImagesModule</text>
</g>
<!-- ImagesModule&#45;&gt;ComputeModule -->
<g id="edge3" class="edge">
<title>ImagesModule&#45;&gt;ComputeModule</title>
<path fill="none" stroke="#000000" d="M230.7732,-122.1061C230.7732,-122.1061 230.7732,-140.991 230.7732,-140.991"/>
<polygon fill="#000000" stroke="#000000" points="227.2732,-140.9909 230.7732,-150.991 234.2732,-140.991 227.2732,-140.9909"/>
</g>
<!-- InstancesModule -->
<g id="node4" class="node">
<title>InstancesModule</title>
<polygon fill="#8dd3c7" stroke="#000000" points="135.6346,-122 132.6346,-126 111.6346,-126 108.6346,-122 24.3654,-122 24.3654,-86 135.6346,-86 135.6346,-122"/>
<text text-anchor="middle" x="80" y="-99.8" font-family="Times,serif" font-size="14.00" fill="#000000">InstancesModule</text>
</g>
<!-- InstancesModule&#45;&gt;ComputeModule -->
<g id="edge4" class="edge">
<title>InstancesModule&#45;&gt;ComputeModule</title>
<path fill="none" stroke="#000000" d="M80,-122.1061C80,-141.3391 80,-169 80,-169 80,-169 197.5973,-169 197.5973,-169"/>
<polygon fill="#000000" stroke="#000000" points="197.5974,-172.5001 207.5973,-169 197.5973,-165.5001 197.5974,-172.5001"/>
</g>
</g>
</svg>
