<?xml version="1.0" encoding="UTF-8" standalone="no"?>
<!DOCTYPE svg PUBLIC "-//W3C//DTD SVG 1.1//EN"
 "http://www.w3.org/Graphics/SVG/1.1/DTD/svg11.dtd">
<!-- Generated by graphviz version 2.40.1 (20161225.0304)
 -->
<!-- Title: dependencies Pages: 1 -->
<svg width="700pt" height="211pt"
 viewBox="0.00 0.00 700.00 211.00" xmlns="http://www.w3.org/2000/svg" xmlns:xlink="http://www.w3.org/1999/xlink">
<g id="graph0" class="graph" transform="scale(1 1) rotate(0) translate(4 207)">
<title>dependencies</title>
<polygon fill="#ffffff" stroke="transparent" points="-4,4 -4,-207 696,-207 696,4 -4,4"/>
<text text-anchor="start" x="325.0091" y="-42.4" font-family="sans-serif" font-weight="bold" font-size="14.00" fill="#000000">Legend</text>
<polygon fill="#ffffb3" stroke="transparent" points="112,-10 112,-30 132,-30 132,-10 112,-10"/>
<text text-anchor="start" x="135.629" y="-15.4" font-family="sans-serif" font-size="14.00" fill="#000000"> &#160;Declarations</text>
<polygon fill="#8dd3c7" stroke="transparent" points="225,-10 225,-30 245,-30 245,-10 225,-10"/>
<text text-anchor="start" x="248.7251" y="-15.4" font-family="sans-serif" font-size="14.00" fill="#000000"> &#160;Module</text>
<polygon fill="#80b1d3" stroke="transparent" points="311,-10 311,-30 331,-30 331,-10 311,-10"/>
<text text-anchor="start" x="334.7812" y="-15.4" font-family="sans-serif" font-size="14.00" fill="#000000"> &#160;Bootstrap</text>
<polygon fill="#fdb462" stroke="transparent" points="408,-10 408,-30 428,-30 428,-10 408,-10"/>
<text text-anchor="start" x="431.6732" y="-15.4" font-family="sans-serif" font-size="14.00" fill="#000000"> &#160;Providers</text>
<polygon fill="#fb8072" stroke="transparent" points="504,-10 504,-30 524,-30 524,-10 504,-10"/>
<text text-anchor="start" x="527.7258" y="-15.4" font-family="sans-serif" font-size="14.00" fill="#000000"> &#160;Exports</text>
<g id="clust1" class="cluster">
<title>cluster_MinioModule</title>
<polygon fill="none" stroke="#000000" stroke-dasharray="1,5" points="8,-70 8,-195 684,-195 684,-70 8,-70"/>
</g>
<g id="clust2" class="cluster">
<title>cluster_MinioModule_declarations</title>
<polygon fill="none" stroke="#000000" points="544,-78 544,-130 676,-130 676,-78 544,-78"/>
</g>
<g id="clust4" class="cluster">
<title>cluster_MinioModule_imports</title>
<polygon fill="none" stroke="#000000" points="16,-78 16,-130 536,-130 536,-78 16,-78"/>
</g>
<!-- MinioComponent -->
<g id="node1" class="node">
<title>MinioComponent</title>
<polygon fill="#ffffb3" stroke="#000000" points="667.559,-122 552.441,-122 552.441,-86 667.559,-86 667.559,-122"/>
<text text-anchor="middle" x="610" y="-99.8" font-family="Times,serif" font-size="14.00" fill="#000000">MinioComponent</text>
</g>
<!-- MinioModule -->
<g id="node2" class="node">
<title>MinioModule</title>
<polygon fill="#8dd3c7" stroke="#000000" points="387.7759,-187 384.7759,-191 363.7759,-191 360.7759,-187 294.2241,-187 294.2241,-151 387.7759,-151 387.7759,-187"/>
<text text-anchor="middle" x="341" y="-164.8" font-family="Times,serif" font-size="14.00" fill="#000000">MinioModule</text>
</g>
<!-- MinioComponent&#45;&gt;MinioModule -->
<g id="edge1" class="edge">
<title>MinioComponent&#45;&gt;MinioModule</title>
<path fill="none" stroke="#000000" d="M610,-122.2843C610,-143.3211 610,-175 610,-175 610,-175 397.8562,-175 397.8562,-175"/>
<polygon fill="#000000" stroke="#000000" points="397.8563,-171.5001 387.8562,-175 397.8562,-178.5001 397.8563,-171.5001"/>
</g>
<!-- CommonUiModule -->
<g id="node3" class="node">
<title>CommonUiModule</title>
<polygon fill="#8dd3c7" stroke="#000000" points="527.6652,-122 524.6652,-126 503.6652,-126 500.6652,-122 402.3348,-122 402.3348,-86 527.6652,-86 527.6652,-122"/>
<text text-anchor="middle" x="465" y="-99.8" font-family="Times,serif" font-size="14.00" fill="#000000">CommonUiModule</text>
</g>
<!-- CommonUiModule&#45;&gt;MinioModule -->
<g id="edge2" class="edge">
<title>CommonUiModule&#45;&gt;MinioModule</title>
<path fill="none" stroke="#000000" d="M465,-122.0225C465,-139.3734 465,-163 465,-163 465,-163 397.8791,-163 397.8791,-163"/>
<polygon fill="#000000" stroke="#000000" points="397.8791,-159.5001 387.8791,-163 397.879,-166.5001 397.8791,-159.5001"/>
</g>
<!-- CoreModule -->
<g id="node4" class="node">
<title>CoreModule</title>
<polygon fill="#8dd3c7" stroke="#000000" points="384.2619,-122 381.2619,-126 360.2619,-126 357.2619,-122 297.7381,-122 297.7381,-86 384.2619,-86 384.2619,-122"/>
<text text-anchor="middle" x="341" y="-99.8" font-family="Times,serif" font-size="14.00" fill="#000000">CoreModule</text>
</g>
<!-- CoreModule&#45;&gt;MinioModule -->
<g id="edge3" class="edge">
<title>CoreModule&#45;&gt;MinioModule</title>
<path fill="none" stroke="#000000" d="M341,-122.1061C341,-122.1061 341,-140.991 341,-140.991"/>
<polygon fill="#000000" stroke="#000000" points="337.5001,-140.9909 341,-150.991 344.5001,-140.991 337.5001,-140.9909"/>
</g>
<!-- MinioRoutingModule -->
<g id="node5" class="node">
<title>MinioRoutingModule</title>
<polygon fill="#8dd3c7" stroke="#000000" points="279.3934,-122 276.3934,-126 255.3934,-126 252.3934,-122 140.6066,-122 140.6066,-86 279.3934,-86 279.3934,-122"/>
<text text-anchor="middle" x="210" y="-99.8" font-family="Times,serif" font-size="14.00" fill="#000000">MinioRoutingModule</text>
</g>
<!-- MinioRoutingModule&#45;&gt;MinioModule -->
<g id="edge4" class="edge">
<title>MinioRoutingModule&#45;&gt;MinioModule</title>
<path fill="none" stroke="#000000" d="M210,-122.0225C210,-139.3734 210,-163 210,-163 210,-163 284.076,-163 284.076,-163"/>
<polygon fill="#000000" stroke="#000000" points="284.076,-166.5001 294.076,-163 284.076,-159.5001 284.076,-166.5001"/>
</g>
<!-- SharedModule -->
<g id="node6" class="node">
<title>SharedModule</title>
<polygon fill="#8dd3c7" stroke="#000000" points="122.4231,-122 119.4231,-126 98.4231,-126 95.4231,-122 23.5769,-122 23.5769,-86 122.4231,-86 122.4231,-122"/>
<text text-anchor="middle" x="73" y="-99.8" font-family="Times,serif" font-size="14.00" fill="#000000">SharedModule</text>
</g>
<!-- SharedModule&#45;&gt;MinioModule -->
<g id="edge5" class="edge">
<title>SharedModule&#45;&gt;MinioModule</title>
<path fill="none" stroke="#000000" d="M73,-122.2843C73,-143.3211 73,-175 73,-175 73,-175 284.0113,-175 284.0113,-175"/>
<polygon fill="#000000" stroke="#000000" points="284.0113,-178.5001 294.0113,-175 284.0113,-171.5001 284.0113,-178.5001"/>
</g>
</g>
</svg>
