<?xml version="1.0" encoding="UTF-8" standalone="no"?>
<!DOCTYPE svg PUBLIC "-//W3C//DTD SVG 1.1//EN"
 "http://www.w3.org/Graphics/SVG/1.1/DTD/svg11.dtd">
<!-- Generated by graphviz version 2.47.3 (20210619.1520)
 -->
<!-- Title: dependencies Pages: 1 -->
<svg width="700pt" height="174pt"
 viewBox="0.00 0.00 700.00 173.80" xmlns="http://www.w3.org/2000/svg" xmlns:xlink="http://www.w3.org/1999/xlink">
<g id="graph0" class="graph" transform="scale(1 1) rotate(0) translate(4 169.8)">
<title>dependencies</title>
<polygon fill="white" stroke="transparent" points="-4,4 -4,-169.8 696,-169.8 696,4 -4,4"/>
<text text-anchor="middle" x="346" y="-8.2" font-family="sans-serif" font-size="14.00">dependencies</text>
<g id="clust1" class="cluster">
<title>cluster_MinioModule</title>
<polygon fill="none" stroke="black" stroke-dasharray="1,5" points="8,-32.8 8,-157.8 684,-157.8 684,-32.8 8,-32.8"/>
</g>
<g id="clust4" class="cluster">
<title>cluster_MinioModule_imports</title>
<polygon fill="none" stroke="black" points="156,-40.8 156,-92.8 676,-92.8 676,-40.8 156,-40.8"/>
</g>
<g id="clust2" class="cluster">
<title>cluster_MinioModule_declarations</title>
<polygon fill="none" stroke="black" points="16,-40.8 16,-92.8 148,-92.8 148,-40.8 16,-40.8"/>
</g>
<!-- MinioComponent -->
<g id="node1" class="node">
<title>MinioComponent</title>
<polygon fill="#ffffb3" stroke="black" points="139.56,-84.8 24.44,-84.8 24.44,-48.8 139.56,-48.8 139.56,-84.8"/>
<text text-anchor="middle" x="82" y="-62.6" font-family="Times,serif" font-size="14.00">MinioComponent</text>
</g>
<!-- MinioModule -->
<g id="node2" class="node">
<title>MinioModule</title>
<polygon fill="#8dd3c7" stroke="black" points="396.78,-149.8 393.78,-153.8 372.78,-153.8 369.78,-149.8 303.22,-149.8 303.22,-113.8 396.78,-113.8 396.78,-149.8"/>
<text text-anchor="middle" x="350" y="-127.6" font-family="Times,serif" font-size="14.00">MinioModule</text>
</g>
<!-- MinioComponent&#45;&gt;MinioModule -->
<g id="edge1" class="edge">
<title>MinioComponent&#45;&gt;MinioModule</title>
<path fill="none" stroke="black" d="M82,-85.08C82,-106.12 82,-137.8 82,-137.8 82,-137.8 293.01,-137.8 293.01,-137.8"/>
<polygon fill="black" stroke="black" points="293.01,-141.3 303.01,-137.8 293.01,-134.3 293.01,-141.3"/>
</g>
<!-- CommonUiModule -->
<g id="node3" class="node">
<title>CommonUiModule</title>
<polygon fill="#8dd3c7" stroke="black" points="667.67,-84.8 664.67,-88.8 643.67,-88.8 640.67,-84.8 542.33,-84.8 542.33,-48.8 667.67,-48.8 667.67,-84.8"/>
<text text-anchor="middle" x="605" y="-62.6" font-family="Times,serif" font-size="14.00">CommonUiModule</text>
</g>
<!-- CommonUiModule&#45;&gt;MinioModule -->
<g id="edge2" class="edge">
<title>CommonUiModule&#45;&gt;MinioModule</title>
<path fill="none" stroke="black" d="M605,-85.08C605,-106.12 605,-137.8 605,-137.8 605,-137.8 407.07,-137.8 407.07,-137.8"/>
<polygon fill="black" stroke="black" points="407.07,-134.3 397.07,-137.8 407.07,-141.3 407.07,-134.3"/>
</g>
<!-- CoreModule -->
<g id="node4" class="node">
<title>CoreModule</title>
<polygon fill="#8dd3c7" stroke="black" points="524.26,-84.8 521.26,-88.8 500.26,-88.8 497.26,-84.8 437.74,-84.8 437.74,-48.8 524.26,-48.8 524.26,-84.8"/>
<text text-anchor="middle" x="481" y="-62.6" font-family="Times,serif" font-size="14.00">CoreModule</text>
</g>
<!-- CoreModule&#45;&gt;MinioModule -->
<g id="edge3" class="edge">
<title>CoreModule&#45;&gt;MinioModule</title>
<path fill="none" stroke="black" d="M481,-84.82C481,-102.17 481,-125.8 481,-125.8 481,-125.8 406.92,-125.8 406.92,-125.8"/>
<polygon fill="black" stroke="black" points="406.92,-122.3 396.92,-125.8 406.92,-129.3 406.92,-122.3"/>
</g>
<!-- MinioRoutingModule -->
<g id="node5" class="node">
<title>MinioRoutingModule</title>
<polygon fill="#8dd3c7" stroke="black" points="419.39,-84.8 416.39,-88.8 395.39,-88.8 392.39,-84.8 280.61,-84.8 280.61,-48.8 419.39,-48.8 419.39,-84.8"/>
<text text-anchor="middle" x="350" y="-62.6" font-family="Times,serif" font-size="14.00">MinioRoutingModule</text>
</g>
<!-- MinioRoutingModule&#45;&gt;MinioModule -->
<g id="edge4" class="edge">
<title>MinioRoutingModule&#45;&gt;MinioModule</title>
<path fill="none" stroke="black" d="M350,-84.91C350,-84.91 350,-103.79 350,-103.79"/>
<polygon fill="black" stroke="black" points="346.5,-103.79 350,-113.79 353.5,-103.79 346.5,-103.79"/>
</g>
<!-- SharedModule -->
<g id="node6" class="node">
<title>SharedModule</title>
<polygon fill="#8dd3c7" stroke="black" points="262.42,-84.8 259.42,-88.8 238.42,-88.8 235.42,-84.8 163.58,-84.8 163.58,-48.8 262.42,-48.8 262.42,-84.8"/>
<text text-anchor="middle" x="213" y="-62.6" font-family="Times,serif" font-size="14.00">SharedModule</text>
</g>
<!-- SharedModule&#45;&gt;MinioModule -->
<g id="edge5" class="edge">
<title>SharedModule&#45;&gt;MinioModule</title>
<path fill="none" stroke="black" d="M213,-84.82C213,-102.17 213,-125.8 213,-125.8 213,-125.8 292.85,-125.8 292.85,-125.8"/>
<polygon fill="black" stroke="black" points="292.85,-129.3 302.85,-125.8 292.85,-122.3 292.85,-129.3"/>
</g>
</g>
</svg>
