<?xml version="1.0" encoding="UTF-8" standalone="no"?>
<!DOCTYPE svg PUBLIC "-//W3C//DTD SVG 1.1//EN"
 "http://www.w3.org/Graphics/SVG/1.1/DTD/svg11.dtd">
<!-- Generated by graphviz version 2.47.3 (20210619.1520)
 -->
<!-- Title: dependencies Pages: 1 -->
<svg width="1196pt" height="247pt"
 viewBox="0.00 0.00 1196.00 246.80" xmlns="http://www.w3.org/2000/svg" xmlns:xlink="http://www.w3.org/1999/xlink">
<g id="graph0" class="graph" transform="scale(1 1) rotate(0) translate(4 242.8)">
<title>dependencies</title>
<polygon fill="white" stroke="transparent" points="-4,4 -4,-242.8 1192,-242.8 1192,4 -4,4"/>
<text text-anchor="middle" x="594" y="-8.2" font-family="sans-serif" font-size="14.00">dependencies</text>
<g id="clust1" class="cluster">
<title>cluster_CoreModule</title>
<polygon fill="none" stroke="black" stroke-dasharray="1,5" points="8,-32.8 8,-230.8 1180,-230.8 1180,-32.8 8,-32.8"/>
</g>
<g id="clust6" class="cluster">
<title>cluster_CoreModule_providers</title>
<polygon fill="none" stroke="black" points="16,-40.8 16,-92.8 1172,-92.8 1172,-40.8 16,-40.8"/>
</g>
<g id="clust4" class="cluster">
<title>cluster_CoreModule_exports</title>
<polygon fill="none" stroke="black" points="59,-170.8 59,-222.8 1128,-222.8 1128,-170.8 59,-170.8"/>
</g>
<!-- AWSApiService  -->
<g id="node1" class="node">
<title>AWSApiService </title>
<polygon fill="#fb8072" stroke="black" points="1119.58,-214.8 1006.42,-214.8 1006.42,-178.8 1119.58,-178.8 1119.58,-214.8"/>
<text text-anchor="middle" x="1063" y="-192.6" font-family="Times,serif" font-size="14.00">AWSApiService </text>
</g>
<!-- CloudApiFactory  -->
<g id="node2" class="node">
<title>CloudApiFactory </title>
<polygon fill="#fb8072" stroke="black" points="987.99,-214.8 870.01,-214.8 870.01,-178.8 987.99,-178.8 987.99,-214.8"/>
<text text-anchor="middle" x="929" y="-192.6" font-family="Times,serif" font-size="14.00">CloudApiFactory </text>
</g>
<!-- ConfigurationService  -->
<g id="node3" class="node">
<title>ConfigurationService </title>
<polygon fill="#fb8072" stroke="black" points="852.02,-214.8 711.98,-214.8 711.98,-178.8 852.02,-178.8 852.02,-214.8"/>
<text text-anchor="middle" x="782" y="-192.6" font-family="Times,serif" font-size="14.00">ConfigurationService </text>
</g>
<!-- CoreWebSocketGateway  -->
<g id="node4" class="node">
<title>CoreWebSocketGateway </title>
<polygon fill="#fb8072" stroke="black" points="693.49,-214.8 532.51,-214.8 532.51,-178.8 693.49,-178.8 693.49,-214.8"/>
<text text-anchor="middle" x="613" y="-192.6" font-family="Times,serif" font-size="14.00">CoreWebSocketGateway </text>
</g>
<!-- DigitalOceanApiService  -->
<g id="node5" class="node">
<title>DigitalOceanApiService </title>
<polygon fill="#fb8072" stroke="black" points="514.61,-214.8 357.39,-214.8 357.39,-178.8 514.61,-178.8 514.61,-214.8"/>
<text text-anchor="middle" x="436" y="-192.6" font-family="Times,serif" font-size="14.00">DigitalOceanApiService </text>
</g>
<!-- KeycloakAdmin  -->
<g id="node6" class="node">
<title>KeycloakAdmin </title>
<polygon fill="#fb8072" stroke="black" points="339.03,-214.8 226.97,-214.8 226.97,-178.8 339.03,-178.8 339.03,-214.8"/>
<text text-anchor="middle" x="283" y="-192.6" font-family="Times,serif" font-size="14.00">KeycloakAdmin </text>
</g>
<!-- OpenstackApiService  -->
<g id="node7" class="node">
<title>OpenstackApiService </title>
<polygon fill="#fb8072" stroke="black" points="208.56,-214.8 67.44,-214.8 67.44,-178.8 208.56,-178.8 208.56,-214.8"/>
<text text-anchor="middle" x="138" y="-192.6" font-family="Times,serif" font-size="14.00">OpenstackApiService </text>
</g>
<!-- CoreModule -->
<g id="node8" class="node">
<title>CoreModule</title>
<polygon fill="#8dd3c7" stroke="black" points="656.26,-149.8 653.26,-153.8 632.26,-153.8 629.26,-149.8 569.74,-149.8 569.74,-113.8 656.26,-113.8 656.26,-149.8"/>
<text text-anchor="middle" x="613" y="-127.6" font-family="Times,serif" font-size="14.00">CoreModule</text>
</g>
<!-- CoreModule&#45;&gt;AWSApiService  -->
<g id="edge1" class="edge">
<title>CoreModule&#45;&gt;AWSApiService </title>
<path fill="none" stroke="black" stroke-dasharray="5,2" d="M656.46,-131.8C773.03,-131.8 1083.88,-131.8 1083.88,-131.8 1083.88,-131.8 1083.88,-168.69 1083.88,-168.69"/>
<polygon fill="black" stroke="black" points="1080.38,-168.69 1083.88,-178.69 1087.38,-168.69 1080.38,-168.69"/>
</g>
<!-- CoreModule&#45;&gt;CloudApiFactory  -->
<g id="edge2" class="edge">
<title>CoreModule&#45;&gt;CloudApiFactory </title>
<path fill="none" stroke="black" stroke-dasharray="5,2" d="M656.28,-137.8C742.82,-137.8 929,-137.8 929,-137.8 929,-137.8 929,-168.78 929,-168.78"/>
<polygon fill="black" stroke="black" points="925.5,-168.78 929,-178.78 932.5,-168.78 925.5,-168.78"/>
</g>
<!-- CoreModule&#45;&gt;ConfigurationService  -->
<g id="edge3" class="edge">
<title>CoreModule&#45;&gt;ConfigurationService </title>
<path fill="none" stroke="black" stroke-dasharray="5,2" d="M656.58,-143.8C701.52,-143.8 765.08,-143.8 765.08,-143.8 765.08,-143.8 765.08,-168.56 765.08,-168.56"/>
<polygon fill="black" stroke="black" points="761.58,-168.56 765.08,-178.56 768.58,-168.56 761.58,-168.56"/>
</g>
<!-- CoreModule&#45;&gt;CoreWebSocketGateway  -->
<g id="edge4" class="edge">
<title>CoreModule&#45;&gt;CoreWebSocketGateway </title>
<path fill="none" stroke="black" stroke-dasharray="5,2" d="M613,-149.91C613,-149.91 613,-168.79 613,-168.79"/>
<polygon fill="black" stroke="black" points="609.5,-168.79 613,-178.79 616.5,-168.79 609.5,-168.79"/>
</g>
<!-- CoreModule&#45;&gt;DigitalOceanApiService  -->
<g id="edge5" class="edge">
<title>CoreModule&#45;&gt;DigitalOceanApiService </title>
<path fill="none" stroke="black" stroke-dasharray="5,2" d="M569.63,-143.8C523.56,-143.8 457.3,-143.8 457.3,-143.8 457.3,-143.8 457.3,-168.56 457.3,-168.56"/>
<polygon fill="black" stroke="black" points="453.8,-168.56 457.3,-178.56 460.8,-168.56 453.8,-168.56"/>
</g>
<!-- CoreModule&#45;&gt;KeycloakAdmin  -->
<g id="edge6" class="edge">
<title>CoreModule&#45;&gt;KeycloakAdmin </title>
<path fill="none" stroke="black" stroke-dasharray="5,2" d="M569.52,-137.8C480.46,-137.8 285.58,-137.8 285.58,-137.8 285.58,-137.8 285.58,-168.78 285.58,-168.78"/>
<polygon fill="black" stroke="black" points="282.08,-168.78 285.58,-178.78 289.08,-168.78 282.08,-168.78"/>
</g>
<!-- CoreModule&#45;&gt;OpenstackApiService  -->
<g id="edge7" class="edge">
<title>CoreModule&#45;&gt;OpenstackApiService </title>
<path fill="none" stroke="black" stroke-dasharray="5,2" d="M569.72,-131.8C456.73,-131.8 161.59,-131.8 161.59,-131.8 161.59,-131.8 161.59,-168.69 161.59,-168.69"/>
<polygon fill="black" stroke="black" points="158.09,-168.69 161.59,-178.69 165.09,-168.69 158.09,-168.69"/>
</g>
<!-- AWSApiService -->
<g id="node9" class="node">
<title>AWSApiService</title>
<ellipse fill="#fdb462" stroke="black" cx="1088" cy="-66.8" rx="75.86" ry="18"/>
<text text-anchor="middle" x="1088" y="-62.6" font-family="Times,serif" font-size="14.00">AWSApiService</text>
</g>
<!-- AWSApiService&#45;&gt;CoreModule -->
<g id="edge8" class="edge">
<title>AWSApiService&#45;&gt;CoreModule</title>
<path fill="none" stroke="black" d="M1047.98,-82.3C1047.98,-99.78 1047.98,-125.8 1047.98,-125.8 1047.98,-125.8 666.3,-125.8 666.3,-125.8"/>
<polygon fill="black" stroke="black" points="666.3,-122.3 656.3,-125.8 666.3,-129.3 666.3,-122.3"/>
</g>
<!-- CloudApiFactory -->
<g id="node10" class="node">
<title>CloudApiFactory</title>
<ellipse fill="#fdb462" stroke="black" cx="915" cy="-66.8" rx="78.75" ry="18"/>
<text text-anchor="middle" x="915" y="-62.6" font-family="Times,serif" font-size="14.00">CloudApiFactory</text>
</g>
<!-- CloudApiFactory&#45;&gt;CoreModule -->
<g id="edge9" class="edge">
<title>CloudApiFactory&#45;&gt;CoreModule</title>
<path fill="none" stroke="black" d="M844.19,-75.08C844.19,-89.99 844.19,-119.8 844.19,-119.8 844.19,-119.8 666.49,-119.8 666.49,-119.8"/>
<polygon fill="black" stroke="black" points="666.49,-116.3 656.49,-119.8 666.49,-123.3 666.49,-116.3"/>
</g>
<!-- ConfigurationService -->
<g id="node11" class="node">
<title>ConfigurationService</title>
<ellipse fill="#fdb462" stroke="black" cx="724" cy="-66.8" rx="94.34" ry="18"/>
<text text-anchor="middle" x="724" y="-62.6" font-family="Times,serif" font-size="14.00">ConfigurationService</text>
</g>
<!-- ConfigurationService&#45;&gt;CoreModule -->
<g id="edge10" class="edge">
<title>ConfigurationService&#45;&gt;CoreModule</title>
<path fill="none" stroke="black" d="M643.11,-76.11C643.11,-76.11 643.11,-103.65 643.11,-103.65"/>
<polygon fill="black" stroke="black" points="639.61,-103.65 643.11,-113.65 646.61,-103.65 639.61,-103.65"/>
</g>
<!-- DigitalOceanApiService -->
<g id="node12" class="node">
<title>DigitalOceanApiService</title>
<ellipse fill="#fdb462" stroke="black" cx="506" cy="-66.8" rx="105.91" ry="18"/>
<text text-anchor="middle" x="506" y="-62.6" font-family="Times,serif" font-size="14.00">DigitalOceanApiService</text>
</g>
<!-- DigitalOceanApiService&#45;&gt;CoreModule -->
<g id="edge11" class="edge">
<title>DigitalOceanApiService&#45;&gt;CoreModule</title>
<path fill="none" stroke="black" d="M590.79,-77.83C590.79,-77.83 590.79,-103.58 590.79,-103.58"/>
<polygon fill="black" stroke="black" points="587.29,-103.58 590.79,-113.58 594.29,-103.58 587.29,-103.58"/>
</g>
<!-- KeycloakAdmin -->
<g id="node13" class="node">
<title>KeycloakAdmin</title>
<ellipse fill="#fdb462" stroke="black" cx="307" cy="-66.8" rx="74.72" ry="18"/>
<text text-anchor="middle" x="307" y="-62.6" font-family="Times,serif" font-size="14.00">KeycloakAdmin</text>
</g>
<!-- KeycloakAdmin&#45;&gt;CoreModule -->
<g id="edge12" class="edge">
<title>KeycloakAdmin&#45;&gt;CoreModule</title>
<path fill="none" stroke="black" d="M369.65,-77.02C369.65,-92.42 369.65,-119.8 369.65,-119.8 369.65,-119.8 559.49,-119.8 559.49,-119.8"/>
<polygon fill="black" stroke="black" points="559.49,-123.3 569.49,-119.8 559.49,-116.3 559.49,-123.3"/>
</g>
<!-- OpenstackApiService -->
<g id="node14" class="node">
<title>OpenstackApiService</title>
<ellipse fill="#fdb462" stroke="black" cx="119" cy="-66.8" rx="95.46" ry="18"/>
<text text-anchor="middle" x="119" y="-62.6" font-family="Times,serif" font-size="14.00">OpenstackApiService</text>
</g>
<!-- OpenstackApiService&#45;&gt;CoreModule -->
<g id="edge13" class="edge">
<title>OpenstackApiService&#45;&gt;CoreModule</title>
<path fill="none" stroke="black" d="M114.41,-84.82C114.41,-102.17 114.41,-125.8 114.41,-125.8 114.41,-125.8 559.63,-125.8 559.63,-125.8"/>
<polygon fill="black" stroke="black" points="559.63,-129.3 569.63,-125.8 559.63,-122.3 559.63,-129.3"/>
</g>
</g>
</svg>
