<?xml version="1.0" encoding="UTF-8" standalone="no"?>
<!DOCTYPE svg PUBLIC "-//W3C//DTD SVG 1.1//EN"
 "http://www.w3.org/Graphics/SVG/1.1/DTD/svg11.dtd">
<!-- Generated by graphviz version 2.40.1 (20161225.0304)
 -->
<!-- Title: dependencies Pages: 1 -->
<svg width="863pt" height="284pt"
 viewBox="0.00 0.00 863.00 284.00" xmlns="http://www.w3.org/2000/svg" xmlns:xlink="http://www.w3.org/1999/xlink">
<g id="graph0" class="graph" transform="scale(1 1) rotate(0) translate(4 280)">
<title>dependencies</title>
<polygon fill="#ffffff" stroke="transparent" points="-4,4 -4,-280 859,-280 859,4 -4,4"/>
<text text-anchor="start" x="406.5091" y="-42.4" font-family="sans-serif" font-weight="bold" font-size="14.00" fill="#000000">Legend</text>
<polygon fill="#ffffb3" stroke="transparent" points="193.5,-10 193.5,-30 213.5,-30 213.5,-10 193.5,-10"/>
<text text-anchor="start" x="217.129" y="-15.4" font-family="sans-serif" font-size="14.00" fill="#000000"> &#160;Declarations</text>
<polygon fill="#8dd3c7" stroke="transparent" points="306.5,-10 306.5,-30 326.5,-30 326.5,-10 306.5,-10"/>
<text text-anchor="start" x="330.2251" y="-15.4" font-family="sans-serif" font-size="14.00" fill="#000000"> &#160;Module</text>
<polygon fill="#80b1d3" stroke="transparent" points="392.5,-10 392.5,-30 412.5,-30 412.5,-10 392.5,-10"/>
<text text-anchor="start" x="416.2812" y="-15.4" font-family="sans-serif" font-size="14.00" fill="#000000"> &#160;Bootstrap</text>
<polygon fill="#fdb462" stroke="transparent" points="489.5,-10 489.5,-30 509.5,-30 509.5,-10 489.5,-10"/>
<text text-anchor="start" x="513.1732" y="-15.4" font-family="sans-serif" font-size="14.00" fill="#000000"> &#160;Providers</text>
<polygon fill="#fb8072" stroke="transparent" points="585.5,-10 585.5,-30 605.5,-30 605.5,-10 585.5,-10"/>
<text text-anchor="start" x="609.2258" y="-15.4" font-family="sans-serif" font-size="14.00" fill="#000000"> &#160;Exports</text>
<g id="clust1" class="cluster">
<title>cluster_CoreModule</title>
<polygon fill="none" stroke="#000000" stroke-dasharray="1,5" points="8,-70 8,-268 847,-268 847,-70 8,-70"/>
</g>
<g id="clust4" class="cluster">
<title>cluster_CoreModule_exports</title>
<polygon fill="none" stroke="#000000" points="166,-208 166,-260 708,-260 708,-208 166,-208"/>
</g>
<g id="clust6" class="cluster">
<title>cluster_CoreModule_providers</title>
<polygon fill="none" stroke="#000000" points="16,-78 16,-130 839,-130 839,-78 16,-78"/>
</g>
<!-- CloudApiFactory  -->
<g id="node1" class="node">
<title>CloudApiFactory </title>
<polygon fill="#fb8072" stroke="#000000" points="699.9884,-252 582.0116,-252 582.0116,-216 699.9884,-216 699.9884,-252"/>
<text text-anchor="middle" x="641" y="-229.8" font-family="Times,serif" font-size="14.00" fill="#000000">CloudApiFactory </text>
</g>
<!-- ConfigService  -->
<g id="node2" class="node">
<title>ConfigService </title>
<polygon fill="#fb8072" stroke="#000000" points="564.3661,-252 463.6339,-252 463.6339,-216 564.3661,-216 564.3661,-252"/>
<text text-anchor="middle" x="514" y="-229.8" font-family="Times,serif" font-size="14.00" fill="#000000">ConfigService </text>
</g>
<!-- KeycloakAdmin  -->
<g id="node3" class="node">
<title>KeycloakAdmin </title>
<polygon fill="#fb8072" stroke="#000000" points="446.0288,-252 333.9712,-252 333.9712,-216 446.0288,-216 446.0288,-252"/>
<text text-anchor="middle" x="390" y="-229.8" font-family="Times,serif" font-size="14.00" fill="#000000">KeycloakAdmin </text>
</g>
<!-- OpenstackApiService  -->
<g id="node4" class="node">
<title>OpenstackApiService </title>
<polygon fill="#fb8072" stroke="#000000" points="315.5611,-252 174.4389,-252 174.4389,-216 315.5611,-216 315.5611,-252"/>
<text text-anchor="middle" x="245" y="-229.8" font-family="Times,serif" font-size="14.00" fill="#000000">OpenstackApiService </text>
</g>
<!-- CoreModule -->
<g id="node5" class="node">
<title>CoreModule</title>
<polygon fill="#8dd3c7" stroke="#000000" points="495.2619,-187 492.2619,-191 471.2619,-191 468.2619,-187 408.7381,-187 408.7381,-151 495.2619,-151 495.2619,-187"/>
<text text-anchor="middle" x="452" y="-164.8" font-family="Times,serif" font-size="14.00" fill="#000000">CoreModule</text>
</g>
<!-- CoreModule&#45;&gt;CloudApiFactory  -->
<g id="edge1" class="edge">
<title>CoreModule&#45;&gt;CloudApiFactory </title>
<path fill="none" stroke="#000000" stroke-dasharray="5,2" d="M495.4507,-178C544.9428,-178 619.0361,-178 619.0361,-178 619.0361,-178 619.0361,-205.973 619.0361,-205.973"/>
<polygon fill="#000000" stroke="#000000" points="615.5362,-205.973 619.0361,-215.973 622.5362,-205.973 615.5362,-205.973"/>
</g>
<!-- CoreModule&#45;&gt;ConfigService  -->
<g id="edge2" class="edge">
<title>CoreModule&#45;&gt;ConfigService </title>
<path fill="none" stroke="#000000" stroke-dasharray="5,2" d="M479.5991,-187.1061C479.5991,-187.1061 479.5991,-205.991 479.5991,-205.991"/>
<polygon fill="#000000" stroke="#000000" points="476.0991,-205.9909 479.5991,-215.991 483.0991,-205.991 476.0991,-205.9909"/>
</g>
<!-- CoreModule&#45;&gt;KeycloakAdmin  -->
<g id="edge3" class="edge">
<title>CoreModule&#45;&gt;KeycloakAdmin </title>
<path fill="none" stroke="#000000" stroke-dasharray="5,2" d="M427.3168,-187.1061C427.3168,-187.1061 427.3168,-205.991 427.3168,-205.991"/>
<polygon fill="#000000" stroke="#000000" points="423.8169,-205.9909 427.3168,-215.991 430.8169,-205.991 423.8169,-205.9909"/>
</g>
<!-- CoreModule&#45;&gt;OpenstackApiService  -->
<g id="edge4" class="edge">
<title>CoreModule&#45;&gt;OpenstackApiService </title>
<path fill="none" stroke="#000000" stroke-dasharray="5,2" d="M408.4464,-178C355.7378,-178 273.9595,-178 273.9595,-178 273.9595,-178 273.9595,-205.973 273.9595,-205.973"/>
<polygon fill="#000000" stroke="#000000" points="270.4596,-205.973 273.9595,-215.973 277.4596,-205.973 270.4596,-205.973"/>
</g>
<!-- CloudApiFactory -->
<g id="node6" class="node">
<title>CloudApiFactory</title>
<ellipse fill="#fdb462" stroke="#000000" cx="752" cy="-104" rx="78.7531" ry="18"/>
<text text-anchor="middle" x="752" y="-99.8" font-family="Times,serif" font-size="14.00" fill="#000000">CloudApiFactory</text>
</g>
<!-- CloudApiFactory&#45;&gt;CoreModule -->
<g id="edge5" class="edge">
<title>CloudApiFactory&#45;&gt;CoreModule</title>
<path fill="none" stroke="#000000" d="M686.5586,-114.1563C686.5586,-132.4375 686.5586,-169 686.5586,-169 686.5586,-169 505.295,-169 505.295,-169"/>
<polygon fill="#000000" stroke="#000000" points="505.2951,-165.5001 495.295,-169 505.295,-172.5001 505.2951,-165.5001"/>
</g>
<!-- ConfigService -->
<g id="node7" class="node">
<title>ConfigService</title>
<ellipse fill="#fdb462" stroke="#000000" cx="589" cy="-104" rx="66.6325" ry="18"/>
<text text-anchor="middle" x="589" y="-99.8" font-family="Times,serif" font-size="14.00" fill="#000000">ConfigService</text>
</g>
<!-- ConfigService&#45;&gt;CoreModule -->
<g id="edge6" class="edge">
<title>ConfigService&#45;&gt;CoreModule</title>
<path fill="none" stroke="#000000" d="M543.1834,-117.2712C543.1834,-133.8312 543.1834,-160 543.1834,-160 543.1834,-160 505.4553,-160 505.4553,-160"/>
<polygon fill="#000000" stroke="#000000" points="505.4553,-156.5001 495.4553,-160 505.4552,-163.5001 505.4553,-156.5001"/>
</g>
<!-- GitService -->
<g id="node8" class="node">
<title>GitService</title>
<ellipse fill="#fdb462" stroke="#000000" cx="452" cy="-104" rx="52.1617" ry="18"/>
<text text-anchor="middle" x="452" y="-99.8" font-family="Times,serif" font-size="14.00" fill="#000000">GitService</text>
</g>
<!-- GitService&#45;&gt;CoreModule -->
<g id="edge7" class="edge">
<title>GitService&#45;&gt;CoreModule</title>
<path fill="none" stroke="#000000" d="M452,-122.1061C452,-122.1061 452,-140.991 452,-140.991"/>
<polygon fill="#000000" stroke="#000000" points="448.5001,-140.9909 452,-150.991 455.5001,-140.991 448.5001,-140.9909"/>
</g>
<!-- KeycloakAdmin -->
<g id="node9" class="node">
<title>KeycloakAdmin</title>
<ellipse fill="#fdb462" stroke="#000000" cx="307" cy="-104" rx="74.7226" ry="18"/>
<text text-anchor="middle" x="307" y="-99.8" font-family="Times,serif" font-size="14.00" fill="#000000">KeycloakAdmin</text>
</g>
<!-- KeycloakAdmin&#45;&gt;CoreModule -->
<g id="edge8" class="edge">
<title>KeycloakAdmin&#45;&gt;CoreModule</title>
<path fill="none" stroke="#000000" d="M357.9234,-117.2712C357.9234,-133.8312 357.9234,-160 357.9234,-160 357.9234,-160 398.5416,-160 398.5416,-160"/>
<polygon fill="#000000" stroke="#000000" points="398.5416,-163.5001 408.5416,-160 398.5416,-156.5001 398.5416,-163.5001"/>
</g>
<!-- OpenstackApiService -->
<g id="node10" class="node">
<title>OpenstackApiService</title>
<ellipse fill="#fdb462" stroke="#000000" cx="119" cy="-104" rx="95.4637" ry="18"/>
<text text-anchor="middle" x="119" y="-99.8" font-family="Times,serif" font-size="14.00" fill="#000000">OpenstackApiService</text>
</g>
<!-- OpenstackApiService&#45;&gt;CoreModule -->
<g id="edge9" class="edge">
<title>OpenstackApiService&#45;&gt;CoreModule</title>
<path fill="none" stroke="#000000" d="M194.2257,-115.3221C194.2257,-133.9451 194.2257,-169 194.2257,-169 194.2257,-169 398.5636,-169 398.5636,-169"/>
<polygon fill="#000000" stroke="#000000" points="398.5636,-172.5001 408.5636,-169 398.5636,-165.5001 398.5636,-172.5001"/>
</g>
</g>
</svg>
