<?xml version="1.0" encoding="UTF-8" standalone="no"?>
<!DOCTYPE svg PUBLIC "-//W3C//DTD SVG 1.1//EN"
 "http://www.w3.org/Graphics/SVG/1.1/DTD/svg11.dtd">
<!-- Generated by graphviz version 2.47.3 (20210619.1520)
 -->
<!-- Title: dependencies Pages: 1 -->
<svg width="880pt" height="247pt"
 viewBox="0.00 0.00 880.00 246.80" xmlns="http://www.w3.org/2000/svg" xmlns:xlink="http://www.w3.org/1999/xlink">
<g id="graph0" class="graph" transform="scale(1 1) rotate(0) translate(4 242.8)">
<title>dependencies</title>
<polygon fill="white" stroke="transparent" points="-4,4 -4,-242.8 876,-242.8 876,4 -4,4"/>
<text text-anchor="middle" x="436" y="-8.2" font-family="sans-serif" font-size="14.00">dependencies</text>
<g id="clust1" class="cluster">
<title>cluster_JenkinsModule</title>
<polygon fill="none" stroke="black" stroke-dasharray="1,5" points="8,-32.8 8,-230.8 864,-230.8 864,-32.8 8,-32.8"/>
</g>
<g id="clust3" class="cluster">
<title>cluster_JenkinsModule_imports</title>
<polygon fill="none" stroke="black" points="178,-40.8 178,-92.8 856,-92.8 856,-40.8 178,-40.8"/>
</g>
<g id="clust6" class="cluster">
<title>cluster_JenkinsModule_providers</title>
<polygon fill="none" stroke="black" points="16,-40.8 16,-92.8 170,-92.8 170,-40.8 16,-40.8"/>
</g>
<g id="clust4" class="cluster">
<title>cluster_JenkinsModule_exports</title>
<polygon fill="none" stroke="black" points="408,-170.8 408,-222.8 528,-222.8 528,-170.8 408,-170.8"/>
</g>
<!-- CloudproviderModule -->
<g id="node1" class="node">
<title>CloudproviderModule</title>
<polygon fill="#8dd3c7" stroke="black" points="847.7,-84.8 844.7,-88.8 823.7,-88.8 820.7,-84.8 706.3,-84.8 706.3,-48.8 847.7,-48.8 847.7,-84.8"/>
<text text-anchor="middle" x="777" y="-62.6" font-family="Times,serif" font-size="14.00">CloudproviderModule</text>
</g>
<!-- JenkinsModule -->
<g id="node6" class="node">
<title>JenkinsModule</title>
<polygon fill="#8dd3c7" stroke="black" points="518.55,-149.8 515.55,-153.8 494.55,-153.8 491.55,-149.8 417.45,-149.8 417.45,-113.8 518.55,-113.8 518.55,-149.8"/>
<text text-anchor="middle" x="468" y="-127.6" font-family="Times,serif" font-size="14.00">JenkinsModule</text>
</g>
<!-- CloudproviderModule&#45;&gt;JenkinsModule -->
<g id="edge1" class="edge">
<title>CloudproviderModule&#45;&gt;JenkinsModule</title>
<path fill="none" stroke="black" d="M777,-85.08C777,-106.12 777,-137.8 777,-137.8 777,-137.8 528.68,-137.8 528.68,-137.8"/>
<polygon fill="black" stroke="black" points="528.68,-134.3 518.68,-137.8 528.68,-141.3 528.68,-134.3"/>
</g>
<!-- ConsulModule -->
<g id="node2" class="node">
<title>ConsulModule</title>
<polygon fill="#8dd3c7" stroke="black" points="688.72,-84.8 685.72,-88.8 664.72,-88.8 661.72,-84.8 589.28,-84.8 589.28,-48.8 688.72,-48.8 688.72,-84.8"/>
<text text-anchor="middle" x="639" y="-62.6" font-family="Times,serif" font-size="14.00">ConsulModule</text>
</g>
<!-- ConsulModule&#45;&gt;JenkinsModule -->
<g id="edge2" class="edge">
<title>ConsulModule&#45;&gt;JenkinsModule</title>
<path fill="none" stroke="black" d="M639,-84.82C639,-102.17 639,-125.8 639,-125.8 639,-125.8 528.84,-125.8 528.84,-125.8"/>
<polygon fill="black" stroke="black" points="528.84,-122.3 518.84,-125.8 528.84,-129.3 528.84,-122.3"/>
</g>
<!-- CoreModule -->
<g id="node3" class="node">
<title>CoreModule</title>
<polygon fill="#8dd3c7" stroke="black" points="571.26,-84.8 568.26,-88.8 547.26,-88.8 544.26,-84.8 484.74,-84.8 484.74,-48.8 571.26,-48.8 571.26,-84.8"/>
<text text-anchor="middle" x="528" y="-62.6" font-family="Times,serif" font-size="14.00">CoreModule</text>
</g>
<!-- CoreModule&#45;&gt;JenkinsModule -->
<g id="edge3" class="edge">
<title>CoreModule&#45;&gt;JenkinsModule</title>
<path fill="none" stroke="black" d="M501.7,-84.91C501.7,-84.91 501.7,-103.79 501.7,-103.79"/>
<polygon fill="black" stroke="black" points="498.2,-103.79 501.7,-113.79 505.2,-103.79 498.2,-103.79"/>
</g>
<!-- TerraformModule -->
<g id="node4" class="node">
<title>TerraformModule</title>
<polygon fill="#8dd3c7" stroke="black" points="466.56,-84.8 463.56,-88.8 442.56,-88.8 439.56,-84.8 349.44,-84.8 349.44,-48.8 466.56,-48.8 466.56,-84.8"/>
<text text-anchor="middle" x="408" y="-62.6" font-family="Times,serif" font-size="14.00">TerraformModule</text>
</g>
<!-- TerraformModule&#45;&gt;JenkinsModule -->
<g id="edge4" class="edge">
<title>TerraformModule&#45;&gt;JenkinsModule</title>
<path fill="none" stroke="black" d="M441.88,-84.91C441.88,-84.91 441.88,-103.79 441.88,-103.79"/>
<polygon fill="black" stroke="black" points="438.38,-103.79 441.88,-113.79 445.38,-103.79 438.38,-103.79"/>
</g>
<!-- TerraformStateModule -->
<g id="node5" class="node">
<title>TerraformStateModule</title>
<polygon fill="#8dd3c7" stroke="black" points="331.56,-84.8 328.56,-88.8 307.56,-88.8 304.56,-84.8 186.44,-84.8 186.44,-48.8 331.56,-48.8 331.56,-84.8"/>
<text text-anchor="middle" x="259" y="-62.6" font-family="Times,serif" font-size="14.00">TerraformStateModule</text>
</g>
<!-- TerraformStateModule&#45;&gt;JenkinsModule -->
<g id="edge5" class="edge">
<title>TerraformStateModule&#45;&gt;JenkinsModule</title>
<path fill="none" stroke="black" d="M259,-84.82C259,-102.17 259,-125.8 259,-125.8 259,-125.8 407.41,-125.8 407.41,-125.8"/>
<polygon fill="black" stroke="black" points="407.41,-129.3 417.41,-125.8 407.41,-122.3 407.41,-129.3"/>
</g>
<!-- JenkinsService  -->
<g id="node7" class="node">
<title>JenkinsService </title>
<polygon fill="#fb8072" stroke="black" points="519.97,-214.8 416.03,-214.8 416.03,-178.8 519.97,-178.8 519.97,-214.8"/>
<text text-anchor="middle" x="468" y="-192.6" font-family="Times,serif" font-size="14.00">JenkinsService </text>
</g>
<!-- JenkinsModule&#45;&gt;JenkinsService  -->
<g id="edge6" class="edge">
<title>JenkinsModule&#45;&gt;JenkinsService </title>
<path fill="none" stroke="black" stroke-dasharray="5,2" d="M468,-149.91C468,-149.91 468,-168.79 468,-168.79"/>
<polygon fill="black" stroke="black" points="464.5,-168.79 468,-178.79 471.5,-168.79 464.5,-168.79"/>
</g>
<!-- JenkinsService -->
<g id="node8" class="node">
<title>JenkinsService</title>
<ellipse fill="#fdb462" stroke="black" cx="93" cy="-66.8" rx="68.92" ry="18"/>
<text text-anchor="middle" x="93" y="-62.6" font-family="Times,serif" font-size="14.00">JenkinsService</text>
</g>
<!-- JenkinsService&#45;&gt;JenkinsModule -->
<g id="edge7" class="edge">
<title>JenkinsService&#45;&gt;JenkinsModule</title>
<path fill="none" stroke="black" d="M93,-85.08C93,-106.12 93,-137.8 93,-137.8 93,-137.8 407.43,-137.8 407.43,-137.8"/>
<polygon fill="black" stroke="black" points="407.43,-141.3 417.43,-137.8 407.43,-134.3 407.43,-141.3"/>
</g>
</g>
</svg>
