<?xml version="1.0" encoding="UTF-8" standalone="no"?>
<!DOCTYPE svg PUBLIC "-//W3C//DTD SVG 1.1//EN"
 "http://www.w3.org/Graphics/SVG/1.1/DTD/svg11.dtd">
<!-- Generated by graphviz version 2.40.1 (20161225.0304)
 -->
<!-- Title: dependencies Pages: 1 -->
<svg width="880pt" height="284pt"
 viewBox="0.00 0.00 880.00 284.00" xmlns="http://www.w3.org/2000/svg" xmlns:xlink="http://www.w3.org/1999/xlink">
<g id="graph0" class="graph" transform="scale(1 1) rotate(0) translate(4 280)">
<title>dependencies</title>
<polygon fill="#ffffff" stroke="transparent" points="-4,4 -4,-280 876,-280 876,4 -4,4"/>
<text text-anchor="start" x="415.0091" y="-42.4" font-family="sans-serif" font-weight="bold" font-size="14.00" fill="#000000">Legend</text>
<polygon fill="#ffffb3" stroke="transparent" points="202,-10 202,-30 222,-30 222,-10 202,-10"/>
<text text-anchor="start" x="225.629" y="-15.4" font-family="sans-serif" font-size="14.00" fill="#000000"> &#160;Declarations</text>
<polygon fill="#8dd3c7" stroke="transparent" points="315,-10 315,-30 335,-30 335,-10 315,-10"/>
<text text-anchor="start" x="338.7251" y="-15.4" font-family="sans-serif" font-size="14.00" fill="#000000"> &#160;Module</text>
<polygon fill="#80b1d3" stroke="transparent" points="401,-10 401,-30 421,-30 421,-10 401,-10"/>
<text text-anchor="start" x="424.7812" y="-15.4" font-family="sans-serif" font-size="14.00" fill="#000000"> &#160;Bootstrap</text>
<polygon fill="#fdb462" stroke="transparent" points="498,-10 498,-30 518,-30 518,-10 498,-10"/>
<text text-anchor="start" x="521.6732" y="-15.4" font-family="sans-serif" font-size="14.00" fill="#000000"> &#160;Providers</text>
<polygon fill="#fb8072" stroke="transparent" points="594,-10 594,-30 614,-30 614,-10 594,-10"/>
<text text-anchor="start" x="617.7258" y="-15.4" font-family="sans-serif" font-size="14.00" fill="#000000"> &#160;Exports</text>
<g id="clust1" class="cluster">
<title>cluster_JenkinsModule</title>
<polygon fill="none" stroke="#000000" stroke-dasharray="1,5" points="8,-70 8,-268 864,-268 864,-70 8,-70"/>
</g>
<g id="clust3" class="cluster">
<title>cluster_JenkinsModule_imports</title>
<polygon fill="none" stroke="#000000" points="178,-78 178,-130 856,-130 856,-78 178,-78"/>
</g>
<g id="clust4" class="cluster">
<title>cluster_JenkinsModule_exports</title>
<polygon fill="none" stroke="#000000" points="408,-208 408,-260 528,-260 528,-208 408,-208"/>
</g>
<g id="clust6" class="cluster">
<title>cluster_JenkinsModule_providers</title>
<polygon fill="none" stroke="#000000" points="16,-78 16,-130 170,-130 170,-78 16,-78"/>
</g>
<!-- CloudproviderModule -->
<g id="node1" class="node">
<title>CloudproviderModule</title>
<polygon fill="#8dd3c7" stroke="#000000" points="847.7035,-122 844.7035,-126 823.7035,-126 820.7035,-122 706.2965,-122 706.2965,-86 847.7035,-86 847.7035,-122"/>
<text text-anchor="middle" x="777" y="-99.8" font-family="Times,serif" font-size="14.00" fill="#000000">CloudproviderModule</text>
</g>
<!-- JenkinsModule -->
<g id="node6" class="node">
<title>JenkinsModule</title>
<polygon fill="#8dd3c7" stroke="#000000" points="518.5452,-187 515.5452,-191 494.5452,-191 491.5452,-187 417.4548,-187 417.4548,-151 518.5452,-151 518.5452,-187"/>
<text text-anchor="middle" x="468" y="-164.8" font-family="Times,serif" font-size="14.00" fill="#000000">JenkinsModule</text>
</g>
<!-- CloudproviderModule&#45;&gt;JenkinsModule -->
<g id="edge1" class="edge">
<title>CloudproviderModule&#45;&gt;JenkinsModule</title>
<path fill="none" stroke="#000000" d="M777,-122.2843C777,-143.3211 777,-175 777,-175 777,-175 528.6791,-175 528.6791,-175"/>
<polygon fill="#000000" stroke="#000000" points="528.6791,-171.5001 518.6791,-175 528.679,-178.5001 528.6791,-171.5001"/>
</g>
<!-- ConsulModule -->
<g id="node2" class="node">
<title>ConsulModule</title>
<polygon fill="#8dd3c7" stroke="#000000" points="688.7218,-122 685.7218,-126 664.7218,-126 661.7218,-122 589.2782,-122 589.2782,-86 688.7218,-86 688.7218,-122"/>
<text text-anchor="middle" x="639" y="-99.8" font-family="Times,serif" font-size="14.00" fill="#000000">ConsulModule</text>
</g>
<!-- ConsulModule&#45;&gt;JenkinsModule -->
<g id="edge2" class="edge">
<title>ConsulModule&#45;&gt;JenkinsModule</title>
<path fill="none" stroke="#000000" d="M639,-122.0225C639,-139.3734 639,-163 639,-163 639,-163 528.8427,-163 528.8427,-163"/>
<polygon fill="#000000" stroke="#000000" points="528.8427,-159.5001 518.8427,-163 528.8426,-166.5001 528.8427,-159.5001"/>
</g>
<!-- CoreModule -->
<g id="node3" class="node">
<title>CoreModule</title>
<polygon fill="#8dd3c7" stroke="#000000" points="571.2619,-122 568.2619,-126 547.2619,-126 544.2619,-122 484.7381,-122 484.7381,-86 571.2619,-86 571.2619,-122"/>
<text text-anchor="middle" x="528" y="-99.8" font-family="Times,serif" font-size="14.00" fill="#000000">CoreModule</text>
</g>
<!-- CoreModule&#45;&gt;JenkinsModule -->
<g id="edge3" class="edge">
<title>CoreModule&#45;&gt;JenkinsModule</title>
<path fill="none" stroke="#000000" d="M501.6957,-122.1061C501.6957,-122.1061 501.6957,-140.991 501.6957,-140.991"/>
<polygon fill="#000000" stroke="#000000" points="498.1957,-140.9909 501.6957,-150.991 505.1957,-140.991 498.1957,-140.9909"/>
</g>
<!-- TerraformModule -->
<g id="node4" class="node">
<title>TerraformModule</title>
<polygon fill="#8dd3c7" stroke="#000000" points="466.5646,-122 463.5646,-126 442.5646,-126 439.5646,-122 349.4354,-122 349.4354,-86 466.5646,-86 466.5646,-122"/>
<text text-anchor="middle" x="408" y="-99.8" font-family="Times,serif" font-size="14.00" fill="#000000">TerraformModule</text>
</g>
<!-- TerraformModule&#45;&gt;JenkinsModule -->
<g id="edge4" class="edge">
<title>TerraformModule&#45;&gt;JenkinsModule</title>
<path fill="none" stroke="#000000" d="M441.8801,-122.1061C441.8801,-122.1061 441.8801,-140.991 441.8801,-140.991"/>
<polygon fill="#000000" stroke="#000000" points="438.3802,-140.9909 441.8801,-150.991 445.3802,-140.991 438.3802,-140.9909"/>
</g>
<!-- TerraformStateModule -->
<g id="node5" class="node">
<title>TerraformStateModule</title>
<polygon fill="#8dd3c7" stroke="#000000" points="331.5576,-122 328.5576,-126 307.5576,-126 304.5576,-122 186.4424,-122 186.4424,-86 331.5576,-86 331.5576,-122"/>
<text text-anchor="middle" x="259" y="-99.8" font-family="Times,serif" font-size="14.00" fill="#000000">TerraformStateModule</text>
</g>
<!-- TerraformStateModule&#45;&gt;JenkinsModule -->
<g id="edge5" class="edge">
<title>TerraformStateModule&#45;&gt;JenkinsModule</title>
<path fill="none" stroke="#000000" d="M259,-122.0225C259,-139.3734 259,-163 259,-163 259,-163 407.4069,-163 407.4069,-163"/>
<polygon fill="#000000" stroke="#000000" points="407.407,-166.5001 417.4069,-163 407.4069,-159.5001 407.407,-166.5001"/>
</g>
<!-- JenkinsService  -->
<g id="node7" class="node">
<title>JenkinsService </title>
<polygon fill="#fb8072" stroke="#000000" points="519.9731,-252 416.0269,-252 416.0269,-216 519.9731,-216 519.9731,-252"/>
<text text-anchor="middle" x="468" y="-229.8" font-family="Times,serif" font-size="14.00" fill="#000000">JenkinsService </text>
</g>
<!-- JenkinsModule&#45;&gt;JenkinsService  -->
<g id="edge6" class="edge">
<title>JenkinsModule&#45;&gt;JenkinsService </title>
<path fill="none" stroke="#000000" stroke-dasharray="5,2" d="M468,-187.1061C468,-187.1061 468,-205.991 468,-205.991"/>
<polygon fill="#000000" stroke="#000000" points="464.5001,-205.9909 468,-215.991 471.5001,-205.991 464.5001,-205.9909"/>
</g>
<!-- JenkinsService -->
<g id="node8" class="node">
<title>JenkinsService</title>
<ellipse fill="#fdb462" stroke="#000000" cx="93" cy="-104" rx="68.9177" ry="18"/>
<text text-anchor="middle" x="93" y="-99.8" font-family="Times,serif" font-size="14.00" fill="#000000">JenkinsService</text>
</g>
<!-- JenkinsService&#45;&gt;JenkinsModule -->
<g id="edge7" class="edge">
<title>JenkinsService&#45;&gt;JenkinsModule</title>
<path fill="none" stroke="#000000" d="M93,-122.2843C93,-143.3211 93,-175 93,-175 93,-175 407.4258,-175 407.4258,-175"/>
<polygon fill="#000000" stroke="#000000" points="407.4259,-178.5001 417.4258,-175 407.4258,-171.5001 407.4259,-178.5001"/>
</g>
</g>
</svg>
