<?xml version="1.0" encoding="UTF-8" standalone="no"?>
<!DOCTYPE svg PUBLIC "-//W3C//DTD SVG 1.1//EN"
 "http://www.w3.org/Graphics/SVG/1.1/DTD/svg11.dtd">
<!-- Generated by graphviz version 2.47.3 (20210619.1520)
 -->
<!-- Title: dependencies Pages: 1 -->
<svg width="1450pt" height="174pt"
 viewBox="0.00 0.00 1450.00 173.80" xmlns="http://www.w3.org/2000/svg" xmlns:xlink="http://www.w3.org/1999/xlink">
<g id="graph0" class="graph" transform="scale(1 1) rotate(0) translate(4 169.8)">
<title>dependencies</title>
<polygon fill="white" stroke="transparent" points="-4,4 -4,-169.8 1446,-169.8 1446,4 -4,4"/>
<text text-anchor="middle" x="721" y="-8.2" font-family="sans-serif" font-size="14.00">dependencies</text>
<g id="clust1" class="cluster">
<title>cluster_AdminModule</title>
<polygon fill="none" stroke="black" stroke-dasharray="1,5" points="8,-32.8 8,-157.8 1434,-157.8 1434,-32.8 8,-32.8"/>
</g>
<g id="clust2" class="cluster">
<title>cluster_AdminModule_declarations</title>
<polygon fill="none" stroke="black" points="570,-40.8 570,-92.8 1426,-92.8 1426,-40.8 570,-40.8"/>
</g>
<g id="clust8" class="cluster">
<title>cluster_AdminModule_imports</title>
<polygon fill="none" stroke="black" points="16,-40.8 16,-92.8 562,-92.8 562,-40.8 16,-40.8"/>
</g>
<!-- AdminComponent -->
<g id="node1" class="node">
<title>AdminComponent</title>
<polygon fill="#ffffb3" stroke="black" points="1418.22,-84.8 1297.78,-84.8 1297.78,-48.8 1418.22,-48.8 1418.22,-84.8"/>
<text text-anchor="middle" x="1358" y="-62.6" font-family="Times,serif" font-size="14.00">AdminComponent</text>
</g>
<!-- AdminModule -->
<g id="node6" class="node">
<title>AdminModule</title>
<polygon fill="#8dd3c7" stroke="black" points="726.44,-149.8 723.44,-153.8 702.44,-153.8 699.44,-149.8 627.56,-149.8 627.56,-113.8 726.44,-113.8 726.44,-149.8"/>
<text text-anchor="middle" x="677" y="-127.6" font-family="Times,serif" font-size="14.00">AdminModule</text>
</g>
<!-- AdminComponent&#45;&gt;AdminModule -->
<g id="edge1" class="edge">
<title>AdminComponent&#45;&gt;AdminModule</title>
<path fill="none" stroke="black" d="M1358,-84.81C1358,-107.29 1358,-142.8 1358,-142.8 1358,-142.8 736.25,-142.8 736.25,-142.8"/>
<polygon fill="black" stroke="black" points="736.25,-139.3 726.25,-142.8 736.25,-146.3 736.25,-139.3"/>
</g>
<!-- BullDashboardComponent -->
<g id="node2" class="node">
<title>BullDashboardComponent</title>
<polygon fill="#ffffb3" stroke="black" points="1280.09,-84.8 1113.91,-84.8 1113.91,-48.8 1280.09,-48.8 1280.09,-84.8"/>
<text text-anchor="middle" x="1197" y="-62.6" font-family="Times,serif" font-size="14.00">BullDashboardComponent</text>
</g>
<!-- BullDashboardComponent&#45;&gt;AdminModule -->
<g id="edge2" class="edge">
<title>BullDashboardComponent&#45;&gt;AdminModule</title>
<path fill="none" stroke="black" d="M1197,-84.93C1197,-105.37 1197,-135.8 1197,-135.8 1197,-135.8 736.39,-135.8 736.39,-135.8"/>
<polygon fill="black" stroke="black" points="736.39,-132.3 726.39,-135.8 736.39,-139.3 736.39,-132.3"/>
</g>
<!-- DashboardComponent -->
<g id="node3" class="node">
<title>DashboardComponent</title>
<polygon fill="#ffffb3" stroke="black" points="1095.97,-84.8 954.03,-84.8 954.03,-48.8 1095.97,-48.8 1095.97,-84.8"/>
<text text-anchor="middle" x="1025" y="-62.6" font-family="Times,serif" font-size="14.00">DashboardComponent</text>
</g>
<!-- DashboardComponent&#45;&gt;AdminModule -->
<g id="edge3" class="edge">
<title>DashboardComponent&#45;&gt;AdminModule</title>
<path fill="none" stroke="black" d="M1025,-85.07C1025,-103.36 1025,-128.8 1025,-128.8 1025,-128.8 736.49,-128.8 736.49,-128.8"/>
<polygon fill="black" stroke="black" points="736.49,-125.3 726.49,-128.8 736.49,-132.3 736.49,-125.3"/>
</g>
<!-- ServerInfoComponent -->
<g id="node4" class="node">
<title>ServerInfoComponent</title>
<polygon fill="#ffffb3" stroke="black" points="935.69,-84.8 794.31,-84.8 794.31,-48.8 935.69,-48.8 935.69,-84.8"/>
<text text-anchor="middle" x="865" y="-62.6" font-family="Times,serif" font-size="14.00">ServerInfoComponent</text>
</g>
<!-- ServerInfoComponent&#45;&gt;AdminModule -->
<g id="edge4" class="edge">
<title>ServerInfoComponent&#45;&gt;AdminModule</title>
<path fill="none" stroke="black" d="M865,-84.81C865,-100.85 865,-121.8 865,-121.8 865,-121.8 736.39,-121.8 736.39,-121.8"/>
<polygon fill="black" stroke="black" points="736.39,-118.3 726.39,-121.8 736.39,-125.3 736.39,-118.3"/>
</g>
<!-- ServerMonitorStatusComponent -->
<g id="node5" class="node">
<title>ServerMonitorStatusComponent</title>
<polygon fill="#ffffb3" stroke="black" points="775.97,-84.8 578.03,-84.8 578.03,-48.8 775.97,-48.8 775.97,-84.8"/>
<text text-anchor="middle" x="677" y="-62.6" font-family="Times,serif" font-size="14.00">ServerMonitorStatusComponent</text>
</g>
<!-- ServerMonitorStatusComponent&#45;&gt;AdminModule -->
<g id="edge5" class="edge">
<title>ServerMonitorStatusComponent&#45;&gt;AdminModule</title>
<path fill="none" stroke="black" d="M677,-84.91C677,-84.91 677,-103.79 677,-103.79"/>
<polygon fill="black" stroke="black" points="673.5,-103.79 677,-113.79 680.5,-103.79 673.5,-103.79"/>
</g>
<!-- AdminIamModule -->
<g id="node7" class="node">
<title>AdminIamModule</title>
<polygon fill="#8dd3c7" stroke="black" points="554.2,-84.8 551.2,-88.8 530.2,-88.8 527.2,-84.8 433.8,-84.8 433.8,-48.8 554.2,-48.8 554.2,-84.8"/>
<text text-anchor="middle" x="494" y="-62.6" font-family="Times,serif" font-size="14.00">AdminIamModule</text>
</g>
<!-- AdminIamModule&#45;&gt;AdminModule -->
<g id="edge6" class="edge">
<title>AdminIamModule&#45;&gt;AdminModule</title>
<path fill="none" stroke="black" d="M494,-84.81C494,-100.85 494,-121.8 494,-121.8 494,-121.8 617.48,-121.8 617.48,-121.8"/>
<polygon fill="black" stroke="black" points="617.48,-125.3 627.48,-121.8 617.48,-118.3 617.48,-125.3"/>
</g>
<!-- AdminRoutingModule -->
<g id="node8" class="node">
<title>AdminRoutingModule</title>
<polygon fill="#8dd3c7" stroke="black" points="415.56,-84.8 412.56,-88.8 391.56,-88.8 388.56,-84.8 272.44,-84.8 272.44,-48.8 415.56,-48.8 415.56,-84.8"/>
<text text-anchor="middle" x="344" y="-62.6" font-family="Times,serif" font-size="14.00">AdminRoutingModule</text>
</g>
<!-- AdminRoutingModule&#45;&gt;AdminModule -->
<g id="edge7" class="edge">
<title>AdminRoutingModule&#45;&gt;AdminModule</title>
<path fill="none" stroke="black" d="M344,-85.07C344,-103.36 344,-128.8 344,-128.8 344,-128.8 617.51,-128.8 617.51,-128.8"/>
<polygon fill="black" stroke="black" points="617.51,-132.3 627.51,-128.8 617.51,-125.3 617.51,-132.3"/>
</g>
<!-- CommonUiModule -->
<g id="node9" class="node">
<title>CommonUiModule</title>
<polygon fill="#8dd3c7" stroke="black" points="253.67,-84.8 250.67,-88.8 229.67,-88.8 226.67,-84.8 128.33,-84.8 128.33,-48.8 253.67,-48.8 253.67,-84.8"/>
<text text-anchor="middle" x="191" y="-62.6" font-family="Times,serif" font-size="14.00">CommonUiModule</text>
</g>
<!-- CommonUiModule&#45;&gt;AdminModule -->
<g id="edge8" class="edge">
<title>CommonUiModule&#45;&gt;AdminModule</title>
<path fill="none" stroke="black" d="M191,-84.93C191,-105.37 191,-135.8 191,-135.8 191,-135.8 617.73,-135.8 617.73,-135.8"/>
<polygon fill="black" stroke="black" points="617.73,-139.3 627.73,-135.8 617.73,-132.3 617.73,-139.3"/>
</g>
<!-- CoreModule -->
<g id="node10" class="node">
<title>CoreModule</title>
<polygon fill="#8dd3c7" stroke="black" points="110.26,-84.8 107.26,-88.8 86.26,-88.8 83.26,-84.8 23.74,-84.8 23.74,-48.8 110.26,-48.8 110.26,-84.8"/>
<text text-anchor="middle" x="67" y="-62.6" font-family="Times,serif" font-size="14.00">CoreModule</text>
</g>
<!-- CoreModule&#45;&gt;AdminModule -->
<g id="edge9" class="edge">
<title>CoreModule&#45;&gt;AdminModule</title>
<path fill="none" stroke="black" d="M67,-84.81C67,-107.29 67,-142.8 67,-142.8 67,-142.8 617.6,-142.8 617.6,-142.8"/>
<polygon fill="black" stroke="black" points="617.6,-146.3 627.6,-142.8 617.6,-139.3 617.6,-146.3"/>
</g>
</g>
</svg>
