<?xml version="1.0" encoding="UTF-8" standalone="no"?>
<!DOCTYPE svg PUBLIC "-//W3C//DTD SVG 1.1//EN"
 "http://www.w3.org/Graphics/SVG/1.1/DTD/svg11.dtd">
<!-- Generated by graphviz version 2.40.1 (20161225.0304)
 -->
<!-- Title: dependencies Pages: 1 -->
<svg width="1266pt" height="211pt"
 viewBox="0.00 0.00 1266.00 211.00" xmlns="http://www.w3.org/2000/svg" xmlns:xlink="http://www.w3.org/1999/xlink">
<g id="graph0" class="graph" transform="scale(1 1) rotate(0) translate(4 207)">
<title>dependencies</title>
<polygon fill="#ffffff" stroke="transparent" points="-4,4 -4,-207 1262,-207 1262,4 -4,4"/>
<text text-anchor="start" x="608.0091" y="-42.4" font-family="sans-serif" font-weight="bold" font-size="14.00" fill="#000000">Legend</text>
<polygon fill="#ffffb3" stroke="transparent" points="395,-10 395,-30 415,-30 415,-10 395,-10"/>
<text text-anchor="start" x="418.629" y="-15.4" font-family="sans-serif" font-size="14.00" fill="#000000"> &#160;Declarations</text>
<polygon fill="#8dd3c7" stroke="transparent" points="508,-10 508,-30 528,-30 528,-10 508,-10"/>
<text text-anchor="start" x="531.7251" y="-15.4" font-family="sans-serif" font-size="14.00" fill="#000000"> &#160;Module</text>
<polygon fill="#80b1d3" stroke="transparent" points="594,-10 594,-30 614,-30 614,-10 594,-10"/>
<text text-anchor="start" x="617.7812" y="-15.4" font-family="sans-serif" font-size="14.00" fill="#000000"> &#160;Bootstrap</text>
<polygon fill="#fdb462" stroke="transparent" points="691,-10 691,-30 711,-30 711,-10 691,-10"/>
<text text-anchor="start" x="714.6732" y="-15.4" font-family="sans-serif" font-size="14.00" fill="#000000"> &#160;Providers</text>
<polygon fill="#fb8072" stroke="transparent" points="787,-10 787,-30 807,-30 807,-10 787,-10"/>
<text text-anchor="start" x="810.7258" y="-15.4" font-family="sans-serif" font-size="14.00" fill="#000000"> &#160;Exports</text>
<g id="clust1" class="cluster">
<title>cluster_AdminModule</title>
<polygon fill="none" stroke="#000000" stroke-dasharray="1,5" points="8,-70 8,-195 1250,-195 1250,-70 8,-70"/>
</g>
<g id="clust2" class="cluster">
<title>cluster_AdminModule_declarations</title>
<polygon fill="none" stroke="#000000" points="570,-78 570,-130 1242,-130 1242,-78 570,-78"/>
</g>
<g id="clust7" class="cluster">
<title>cluster_AdminModule_imports</title>
<polygon fill="none" stroke="#000000" points="16,-78 16,-130 562,-130 562,-78 16,-78"/>
</g>
<!-- AdminComponent -->
<g id="node1" class="node">
<title>AdminComponent</title>
<polygon fill="#ffffb3" stroke="#000000" points="1234.2204,-122 1113.7796,-122 1113.7796,-86 1234.2204,-86 1234.2204,-122"/>
<text text-anchor="middle" x="1174" y="-99.8" font-family="Times,serif" font-size="14.00" fill="#000000">AdminComponent</text>
</g>
<!-- AdminModule -->
<g id="node5" class="node">
<title>AdminModule</title>
<polygon fill="#8dd3c7" stroke="#000000" points="634.4386,-187 631.4386,-191 610.4386,-191 607.4386,-187 535.5614,-187 535.5614,-151 634.4386,-151 634.4386,-187"/>
<text text-anchor="middle" x="585" y="-164.8" font-family="Times,serif" font-size="14.00" fill="#000000">AdminModule</text>
</g>
<!-- AdminComponent&#45;&gt;AdminModule -->
<g id="edge1" class="edge">
<title>AdminComponent&#45;&gt;AdminModule</title>
<path fill="none" stroke="#000000" d="M1174,-122.2921C1174,-144.2057 1174,-178 1174,-178 1174,-178 644.4572,-178 644.4572,-178"/>
<polygon fill="#000000" stroke="#000000" points="644.4572,-174.5001 634.4572,-178 644.4572,-181.5001 644.4572,-174.5001"/>
</g>
<!-- DashboardComponent -->
<g id="node2" class="node">
<title>DashboardComponent</title>
<polygon fill="#ffffb3" stroke="#000000" points="1095.9734,-122 954.0266,-122 954.0266,-86 1095.9734,-86 1095.9734,-122"/>
<text text-anchor="middle" x="1025" y="-99.8" font-family="Times,serif" font-size="14.00" fill="#000000">DashboardComponent</text>
</g>
<!-- DashboardComponent&#45;&gt;AdminModule -->
<g id="edge2" class="edge">
<title>DashboardComponent&#45;&gt;AdminModule</title>
<path fill="none" stroke="#000000" d="M1025,-122.1061C1025,-141.3391 1025,-169 1025,-169 1025,-169 644.6183,-169 644.6183,-169"/>
<polygon fill="#000000" stroke="#000000" points="644.6183,-165.5001 634.6183,-169 644.6183,-172.5001 644.6183,-165.5001"/>
</g>
<!-- ServerInfoComponent -->
<g id="node3" class="node">
<title>ServerInfoComponent</title>
<polygon fill="#ffffb3" stroke="#000000" points="935.6867,-122 794.3133,-122 794.3133,-86 935.6867,-86 935.6867,-122"/>
<text text-anchor="middle" x="865" y="-99.8" font-family="Times,serif" font-size="14.00" fill="#000000">ServerInfoComponent</text>
</g>
<!-- ServerInfoComponent&#45;&gt;AdminModule -->
<g id="edge3" class="edge">
<title>ServerInfoComponent&#45;&gt;AdminModule</title>
<path fill="none" stroke="#000000" d="M865,-122.027C865,-138.3976 865,-160 865,-160 865,-160 644.4138,-160 644.4138,-160"/>
<polygon fill="#000000" stroke="#000000" points="644.4139,-156.5001 634.4138,-160 644.4138,-163.5001 644.4139,-156.5001"/>
</g>
<!-- ServerMonitorStatusComponent -->
<g id="node4" class="node">
<title>ServerMonitorStatusComponent</title>
<polygon fill="#ffffb3" stroke="#000000" points="775.9748,-122 578.0252,-122 578.0252,-86 775.9748,-86 775.9748,-122"/>
<text text-anchor="middle" x="677" y="-99.8" font-family="Times,serif" font-size="14.00" fill="#000000">ServerMonitorStatusComponent</text>
</g>
<!-- ServerMonitorStatusComponent&#45;&gt;AdminModule -->
<g id="edge4" class="edge">
<title>ServerMonitorStatusComponent&#45;&gt;AdminModule</title>
<path fill="none" stroke="#000000" d="M606.1157,-122.1061C606.1157,-122.1061 606.1157,-140.991 606.1157,-140.991"/>
<polygon fill="#000000" stroke="#000000" points="602.6158,-140.9909 606.1157,-150.991 609.6158,-140.991 602.6158,-140.9909"/>
</g>
<!-- AdminIamModule -->
<g id="node6" class="node">
<title>AdminIamModule</title>
<polygon fill="#8dd3c7" stroke="#000000" points="554.2036,-122 551.2036,-126 530.2036,-126 527.2036,-122 433.7964,-122 433.7964,-86 554.2036,-86 554.2036,-122"/>
<text text-anchor="middle" x="494" y="-99.8" font-family="Times,serif" font-size="14.00" fill="#000000">AdminIamModule</text>
</g>
<!-- AdminIamModule&#45;&gt;AdminModule -->
<g id="edge5" class="edge">
<title>AdminIamModule&#45;&gt;AdminModule</title>
<path fill="none" stroke="#000000" d="M544.9415,-122.1061C544.9415,-122.1061 544.9415,-140.991 544.9415,-140.991"/>
<polygon fill="#000000" stroke="#000000" points="541.4415,-140.9909 544.9415,-150.991 548.4415,-140.991 541.4415,-140.9909"/>
</g>
<!-- AdminRoutingModule -->
<g id="node7" class="node">
<title>AdminRoutingModule</title>
<polygon fill="#8dd3c7" stroke="#000000" points="415.5561,-122 412.5561,-126 391.5561,-126 388.5561,-122 272.4439,-122 272.4439,-86 415.5561,-86 415.5561,-122"/>
<text text-anchor="middle" x="344" y="-99.8" font-family="Times,serif" font-size="14.00" fill="#000000">AdminRoutingModule</text>
</g>
<!-- AdminRoutingModule&#45;&gt;AdminModule -->
<g id="edge6" class="edge">
<title>AdminRoutingModule&#45;&gt;AdminModule</title>
<path fill="none" stroke="#000000" d="M344,-122.027C344,-138.3976 344,-160 344,-160 344,-160 525.6485,-160 525.6485,-160"/>
<polygon fill="#000000" stroke="#000000" points="525.6485,-163.5001 535.6485,-160 525.6485,-156.5001 525.6485,-163.5001"/>
</g>
<!-- CommonUiModule -->
<g id="node8" class="node">
<title>CommonUiModule</title>
<polygon fill="#8dd3c7" stroke="#000000" points="253.6652,-122 250.6652,-126 229.6652,-126 226.6652,-122 128.3348,-122 128.3348,-86 253.6652,-86 253.6652,-122"/>
<text text-anchor="middle" x="191" y="-99.8" font-family="Times,serif" font-size="14.00" fill="#000000">CommonUiModule</text>
</g>
<!-- CommonUiModule&#45;&gt;AdminModule -->
<g id="edge7" class="edge">
<title>CommonUiModule&#45;&gt;AdminModule</title>
<path fill="none" stroke="#000000" d="M191,-122.1061C191,-141.3391 191,-169 191,-169 191,-169 525.4986,-169 525.4986,-169"/>
<polygon fill="#000000" stroke="#000000" points="525.4986,-172.5001 535.4986,-169 525.4985,-165.5001 525.4986,-172.5001"/>
</g>
<!-- CoreModule -->
<g id="node9" class="node">
<title>CoreModule</title>
<polygon fill="#8dd3c7" stroke="#000000" points="110.2619,-122 107.2619,-126 86.2619,-126 83.2619,-122 23.7381,-122 23.7381,-86 110.2619,-86 110.2619,-122"/>
<text text-anchor="middle" x="67" y="-99.8" font-family="Times,serif" font-size="14.00" fill="#000000">CoreModule</text>
</g>
<!-- CoreModule&#45;&gt;AdminModule -->
<g id="edge8" class="edge">
<title>CoreModule&#45;&gt;AdminModule</title>
<path fill="none" stroke="#000000" d="M67,-122.2921C67,-144.2057 67,-178 67,-178 67,-178 525.332,-178 525.332,-178"/>
<polygon fill="#000000" stroke="#000000" points="525.332,-181.5001 535.332,-178 525.3319,-174.5001 525.332,-181.5001"/>
</g>
</g>
</svg>
