<?xml version="1.0" encoding="UTF-8" standalone="no"?>
<!DOCTYPE svg PUBLIC "-//W3C//DTD SVG 1.1//EN"
 "http://www.w3.org/Graphics/SVG/1.1/DTD/svg11.dtd">
<!-- Generated by graphviz version 2.40.1 (20161225.0304)
 -->
<!-- Title: dependencies Pages: 1 -->
<svg width="759pt" height="284pt"
 viewBox="0.00 0.00 759.00 284.00" xmlns="http://www.w3.org/2000/svg" xmlns:xlink="http://www.w3.org/1999/xlink">
<g id="graph0" class="graph" transform="scale(1 1) rotate(0) translate(4 280)">
<title>dependencies</title>
<polygon fill="#ffffff" stroke="transparent" points="-4,4 -4,-280 755,-280 755,4 -4,4"/>
<text text-anchor="start" x="354.5091" y="-42.4" font-family="sans-serif" font-weight="bold" font-size="14.00" fill="#000000">Legend</text>
<polygon fill="#ffffb3" stroke="transparent" points="141.5,-10 141.5,-30 161.5,-30 161.5,-10 141.5,-10"/>
<text text-anchor="start" x="165.129" y="-15.4" font-family="sans-serif" font-size="14.00" fill="#000000"> &#160;Declarations</text>
<polygon fill="#8dd3c7" stroke="transparent" points="254.5,-10 254.5,-30 274.5,-30 274.5,-10 254.5,-10"/>
<text text-anchor="start" x="278.2251" y="-15.4" font-family="sans-serif" font-size="14.00" fill="#000000"> &#160;Module</text>
<polygon fill="#80b1d3" stroke="transparent" points="340.5,-10 340.5,-30 360.5,-30 360.5,-10 340.5,-10"/>
<text text-anchor="start" x="364.2812" y="-15.4" font-family="sans-serif" font-size="14.00" fill="#000000"> &#160;Bootstrap</text>
<polygon fill="#fdb462" stroke="transparent" points="437.5,-10 437.5,-30 457.5,-30 457.5,-10 437.5,-10"/>
<text text-anchor="start" x="461.1732" y="-15.4" font-family="sans-serif" font-size="14.00" fill="#000000"> &#160;Providers</text>
<polygon fill="#fb8072" stroke="transparent" points="533.5,-10 533.5,-30 553.5,-30 553.5,-10 533.5,-10"/>
<text text-anchor="start" x="557.2258" y="-15.4" font-family="sans-serif" font-size="14.00" fill="#000000"> &#160;Exports</text>
<g id="clust1" class="cluster">
<title>cluster_ConsulModule</title>
<polygon fill="none" stroke="#000000" stroke-dasharray="1,5" points="8,-70 8,-268 743,-268 743,-70 8,-70"/>
</g>
<g id="clust3" class="cluster">
<title>cluster_ConsulModule_imports</title>
<polygon fill="none" stroke="#000000" points="174,-78 174,-130 735,-130 735,-78 174,-78"/>
</g>
<g id="clust4" class="cluster">
<title>cluster_ConsulModule_exports</title>
<polygon fill="none" stroke="#000000" points="345,-208 345,-260 463,-260 463,-208 345,-208"/>
</g>
<g id="clust6" class="cluster">
<title>cluster_ConsulModule_providers</title>
<polygon fill="none" stroke="#000000" points="16,-78 16,-130 166,-130 166,-78 16,-78"/>
</g>
<!-- CloudproviderModule -->
<g id="node1" class="node">
<title>CloudproviderModule</title>
<polygon fill="#8dd3c7" stroke="#000000" points="726.7035,-122 723.7035,-126 702.7035,-126 699.7035,-122 585.2965,-122 585.2965,-86 726.7035,-86 726.7035,-122"/>
<text text-anchor="middle" x="656" y="-99.8" font-family="Times,serif" font-size="14.00" fill="#000000">CloudproviderModule</text>
</g>
<!-- ConsulModule -->
<g id="node5" class="node">
<title>ConsulModule</title>
<polygon fill="#8dd3c7" stroke="#000000" points="453.7218,-187 450.7218,-191 429.7218,-191 426.7218,-187 354.2782,-187 354.2782,-151 453.7218,-151 453.7218,-187"/>
<text text-anchor="middle" x="404" y="-164.8" font-family="Times,serif" font-size="14.00" fill="#000000">ConsulModule</text>
</g>
<!-- CloudproviderModule&#45;&gt;ConsulModule -->
<g id="edge1" class="edge">
<title>CloudproviderModule&#45;&gt;ConsulModule</title>
<path fill="none" stroke="#000000" d="M656,-122.2843C656,-143.3211 656,-175 656,-175 656,-175 463.7871,-175 463.7871,-175"/>
<polygon fill="#000000" stroke="#000000" points="463.7871,-171.5001 453.7871,-175 463.7871,-178.5001 463.7871,-171.5001"/>
</g>
<!-- CoreModule -->
<g id="node2" class="node">
<title>CoreModule</title>
<polygon fill="#8dd3c7" stroke="#000000" points="567.2619,-122 564.2619,-126 543.2619,-126 540.2619,-122 480.7381,-122 480.7381,-86 567.2619,-86 567.2619,-122"/>
<text text-anchor="middle" x="524" y="-99.8" font-family="Times,serif" font-size="14.00" fill="#000000">CoreModule</text>
</g>
<!-- CoreModule&#45;&gt;ConsulModule -->
<g id="edge2" class="edge">
<title>CoreModule&#45;&gt;ConsulModule</title>
<path fill="none" stroke="#000000" d="M524,-122.0225C524,-139.3734 524,-163 524,-163 524,-163 463.8483,-163 463.8483,-163"/>
<polygon fill="#000000" stroke="#000000" points="463.8483,-159.5001 453.8483,-163 463.8483,-166.5001 463.8483,-159.5001"/>
</g>
<!-- TerraformModule -->
<g id="node3" class="node">
<title>TerraformModule</title>
<polygon fill="#8dd3c7" stroke="#000000" points="462.5646,-122 459.5646,-126 438.5646,-126 435.5646,-122 345.4354,-122 345.4354,-86 462.5646,-86 462.5646,-122"/>
<text text-anchor="middle" x="404" y="-99.8" font-family="Times,serif" font-size="14.00" fill="#000000">TerraformModule</text>
</g>
<!-- TerraformModule&#45;&gt;ConsulModule -->
<g id="edge3" class="edge">
<title>TerraformModule&#45;&gt;ConsulModule</title>
<path fill="none" stroke="#000000" d="M404,-122.1061C404,-122.1061 404,-140.991 404,-140.991"/>
<polygon fill="#000000" stroke="#000000" points="400.5001,-140.9909 404,-150.991 407.5001,-140.991 400.5001,-140.9909"/>
</g>
<!-- TerraformStateModule -->
<g id="node4" class="node">
<title>TerraformStateModule</title>
<polygon fill="#8dd3c7" stroke="#000000" points="327.5576,-122 324.5576,-126 303.5576,-126 300.5576,-122 182.4424,-122 182.4424,-86 327.5576,-86 327.5576,-122"/>
<text text-anchor="middle" x="255" y="-99.8" font-family="Times,serif" font-size="14.00" fill="#000000">TerraformStateModule</text>
</g>
<!-- TerraformStateModule&#45;&gt;ConsulModule -->
<g id="edge4" class="edge">
<title>TerraformStateModule&#45;&gt;ConsulModule</title>
<path fill="none" stroke="#000000" d="M255,-122.0225C255,-139.3734 255,-163 255,-163 255,-163 344.3852,-163 344.3852,-163"/>
<polygon fill="#000000" stroke="#000000" points="344.3852,-166.5001 354.3852,-163 344.3851,-159.5001 344.3852,-166.5001"/>
</g>
<!-- ConsulService  -->
<g id="node6" class="node">
<title>ConsulService </title>
<polygon fill="#fb8072" stroke="#000000" points="454.6495,-252 353.3505,-252 353.3505,-216 454.6495,-216 454.6495,-252"/>
<text text-anchor="middle" x="404" y="-229.8" font-family="Times,serif" font-size="14.00" fill="#000000">ConsulService </text>
</g>
<!-- ConsulModule&#45;&gt;ConsulService  -->
<g id="edge5" class="edge">
<title>ConsulModule&#45;&gt;ConsulService </title>
<path fill="none" stroke="#000000" stroke-dasharray="5,2" d="M404,-187.1061C404,-187.1061 404,-205.991 404,-205.991"/>
<polygon fill="#000000" stroke="#000000" points="400.5001,-205.9909 404,-215.991 407.5001,-205.991 400.5001,-205.9909"/>
</g>
<!-- ConsulService -->
<g id="node7" class="node">
<title>ConsulService</title>
<ellipse fill="#fdb462" stroke="#000000" cx="91" cy="-104" rx="67.2139" ry="18"/>
<text text-anchor="middle" x="91" y="-99.8" font-family="Times,serif" font-size="14.00" fill="#000000">ConsulService</text>
</g>
<!-- ConsulService&#45;&gt;ConsulModule -->
<g id="edge6" class="edge">
<title>ConsulService&#45;&gt;ConsulModule</title>
<path fill="none" stroke="#000000" d="M91,-122.2843C91,-143.3211 91,-175 91,-175 91,-175 344.0581,-175 344.0581,-175"/>
<polygon fill="#000000" stroke="#000000" points="344.0582,-178.5001 354.0581,-175 344.0581,-171.5001 344.0582,-178.5001"/>
</g>
</g>
</svg>
