<?xml version="1.0" encoding="UTF-8" standalone="no"?>
<!DOCTYPE svg PUBLIC "-//W3C//DTD SVG 1.1//EN"
 "http://www.w3.org/Graphics/SVG/1.1/DTD/svg11.dtd">
<!-- Generated by graphviz version 2.47.3 (20210619.1520)
 -->
<!-- Title: dependencies Pages: 1 -->
<svg width="759pt" height="247pt"
 viewBox="0.00 0.00 759.00 246.80" xmlns="http://www.w3.org/2000/svg" xmlns:xlink="http://www.w3.org/1999/xlink">
<g id="graph0" class="graph" transform="scale(1 1) rotate(0) translate(4 242.8)">
<title>dependencies</title>
<polygon fill="white" stroke="transparent" points="-4,4 -4,-242.8 755,-242.8 755,4 -4,4"/>
<text text-anchor="middle" x="375.5" y="-8.2" font-family="sans-serif" font-size="14.00">dependencies</text>
<g id="clust1" class="cluster">
<title>cluster_ConsulModule</title>
<polygon fill="none" stroke="black" stroke-dasharray="1,5" points="8,-32.8 8,-230.8 743,-230.8 743,-32.8 8,-32.8"/>
</g>
<g id="clust3" class="cluster">
<title>cluster_ConsulModule_imports</title>
<polygon fill="none" stroke="black" points="174,-40.8 174,-92.8 735,-92.8 735,-40.8 174,-40.8"/>
</g>
<g id="clust6" class="cluster">
<title>cluster_ConsulModule_providers</title>
<polygon fill="none" stroke="black" points="16,-40.8 16,-92.8 166,-92.8 166,-40.8 16,-40.8"/>
</g>
<g id="clust4" class="cluster">
<title>cluster_ConsulModule_exports</title>
<polygon fill="none" stroke="black" points="345,-170.8 345,-222.8 463,-222.8 463,-170.8 345,-170.8"/>
</g>
<!-- CloudproviderModule -->
<g id="node1" class="node">
<title>CloudproviderModule</title>
<polygon fill="#8dd3c7" stroke="black" points="726.7,-84.8 723.7,-88.8 702.7,-88.8 699.7,-84.8 585.3,-84.8 585.3,-48.8 726.7,-48.8 726.7,-84.8"/>
<text text-anchor="middle" x="656" y="-62.6" font-family="Times,serif" font-size="14.00">CloudproviderModule</text>
</g>
<!-- ConsulModule -->
<g id="node5" class="node">
<title>ConsulModule</title>
<polygon fill="#8dd3c7" stroke="black" points="453.72,-149.8 450.72,-153.8 429.72,-153.8 426.72,-149.8 354.28,-149.8 354.28,-113.8 453.72,-113.8 453.72,-149.8"/>
<text text-anchor="middle" x="404" y="-127.6" font-family="Times,serif" font-size="14.00">ConsulModule</text>
</g>
<!-- CloudproviderModule&#45;&gt;ConsulModule -->
<g id="edge1" class="edge">
<title>CloudproviderModule&#45;&gt;ConsulModule</title>
<path fill="none" stroke="black" d="M656,-85.08C656,-106.12 656,-137.8 656,-137.8 656,-137.8 463.79,-137.8 463.79,-137.8"/>
<polygon fill="black" stroke="black" points="463.79,-134.3 453.79,-137.8 463.79,-141.3 463.79,-134.3"/>
</g>
<!-- CoreModule -->
<g id="node2" class="node">
<title>CoreModule</title>
<polygon fill="#8dd3c7" stroke="black" points="567.26,-84.8 564.26,-88.8 543.26,-88.8 540.26,-84.8 480.74,-84.8 480.74,-48.8 567.26,-48.8 567.26,-84.8"/>
<text text-anchor="middle" x="524" y="-62.6" font-family="Times,serif" font-size="14.00">CoreModule</text>
</g>
<!-- CoreModule&#45;&gt;ConsulModule -->
<g id="edge2" class="edge">
<title>CoreModule&#45;&gt;ConsulModule</title>
<path fill="none" stroke="black" d="M524,-84.82C524,-102.17 524,-125.8 524,-125.8 524,-125.8 463.85,-125.8 463.85,-125.8"/>
<polygon fill="black" stroke="black" points="463.85,-122.3 453.85,-125.8 463.85,-129.3 463.85,-122.3"/>
</g>
<!-- TerraformModule -->
<g id="node3" class="node">
<title>TerraformModule</title>
<polygon fill="#8dd3c7" stroke="black" points="462.56,-84.8 459.56,-88.8 438.56,-88.8 435.56,-84.8 345.44,-84.8 345.44,-48.8 462.56,-48.8 462.56,-84.8"/>
<text text-anchor="middle" x="404" y="-62.6" font-family="Times,serif" font-size="14.00">TerraformModule</text>
</g>
<!-- TerraformModule&#45;&gt;ConsulModule -->
<g id="edge3" class="edge">
<title>TerraformModule&#45;&gt;ConsulModule</title>
<path fill="none" stroke="black" d="M404,-84.91C404,-84.91 404,-103.79 404,-103.79"/>
<polygon fill="black" stroke="black" points="400.5,-103.79 404,-113.79 407.5,-103.79 400.5,-103.79"/>
</g>
<!-- TerraformStateModule -->
<g id="node4" class="node">
<title>TerraformStateModule</title>
<polygon fill="#8dd3c7" stroke="black" points="327.56,-84.8 324.56,-88.8 303.56,-88.8 300.56,-84.8 182.44,-84.8 182.44,-48.8 327.56,-48.8 327.56,-84.8"/>
<text text-anchor="middle" x="255" y="-62.6" font-family="Times,serif" font-size="14.00">TerraformStateModule</text>
</g>
<!-- TerraformStateModule&#45;&gt;ConsulModule -->
<g id="edge4" class="edge">
<title>TerraformStateModule&#45;&gt;ConsulModule</title>
<path fill="none" stroke="black" d="M255,-84.82C255,-102.17 255,-125.8 255,-125.8 255,-125.8 344.39,-125.8 344.39,-125.8"/>
<polygon fill="black" stroke="black" points="344.39,-129.3 354.39,-125.8 344.39,-122.3 344.39,-129.3"/>
</g>
<!-- ConsulService  -->
<g id="node6" class="node">
<title>ConsulService </title>
<polygon fill="#fb8072" stroke="black" points="454.65,-214.8 353.35,-214.8 353.35,-178.8 454.65,-178.8 454.65,-214.8"/>
<text text-anchor="middle" x="404" y="-192.6" font-family="Times,serif" font-size="14.00">ConsulService </text>
</g>
<!-- ConsulModule&#45;&gt;ConsulService  -->
<g id="edge5" class="edge">
<title>ConsulModule&#45;&gt;ConsulService </title>
<path fill="none" stroke="black" stroke-dasharray="5,2" d="M404,-149.91C404,-149.91 404,-168.79 404,-168.79"/>
<polygon fill="black" stroke="black" points="400.5,-168.79 404,-178.79 407.5,-168.79 400.5,-168.79"/>
</g>
<!-- ConsulService -->
<g id="node7" class="node">
<title>ConsulService</title>
<ellipse fill="#fdb462" stroke="black" cx="91" cy="-66.8" rx="67.21" ry="18"/>
<text text-anchor="middle" x="91" y="-62.6" font-family="Times,serif" font-size="14.00">ConsulService</text>
</g>
<!-- ConsulService&#45;&gt;ConsulModule -->
<g id="edge6" class="edge">
<title>ConsulService&#45;&gt;ConsulModule</title>
<path fill="none" stroke="black" d="M91,-85.08C91,-106.12 91,-137.8 91,-137.8 91,-137.8 344.06,-137.8 344.06,-137.8"/>
<polygon fill="black" stroke="black" points="344.06,-141.3 354.06,-137.8 344.06,-134.3 344.06,-141.3"/>
</g>
</g>
</svg>
